<svg width="86" height="86" viewBox="0 0 86 86" fill="none" xmlns="http://www.w3.org/2000/svg">
<g clip-path="url(#clip0_225_84)">
<path d="M40.0059 57.9824H20.8124C20.0539 57.9824 19.4414 58.5949 19.4414 59.3534V67.5792C19.4414 68.3376 20.0539 68.9502 20.8124 68.9502H40.0059C40.7644 68.9502 41.3769 68.3376 41.3769 67.5792V59.3534C41.3769 58.5949 40.7644 57.9824 40.0059 57.9824ZM38.635 66.2082H22.1833V60.7244H38.635V66.2082Z" fill="white"/>
<path d="M38.6348 47.0146H41.3767V49.7566H38.6348V47.0146Z" fill="white"/>
<path d="M33.1514 47.0146H35.8933V49.7566H33.1514V47.0146Z" fill="white"/>
<path d="M76.2725 33.2515C76.5215 33.2736 76.7685 33.3051 77.0222 33.3051C81.5589 33.3051 85.248 29.6159 85.248 25.0793C85.248 22.6105 84.1515 20.3177 82.2691 18.7633C82.4265 18.1287 82.5061 17.4894 82.5061 16.8535C82.5061 12.6663 79.3612 9.19934 75.3099 8.69193C74.0982 3.89354 69.7176 0.401855 64.6835 0.401855C59.6495 0.401855 55.2688 3.89354 54.0572 8.69193C50.0059 9.19934 46.861 12.6663 46.861 16.8535C46.861 17.4894 46.9406 18.1287 47.0979 18.7633C45.2155 20.3177 44.119 22.6105 44.119 25.0793C44.119 29.6159 47.8082 33.3051 52.3448 33.3051C52.5985 33.3051 52.8455 33.2736 53.0946 33.2515L60.5706 40.7276V55.2406H57.8287V52.4986H55.0868V55.2406H52.3448V52.4986H49.6029V55.2406H46.861V42.9019C46.861 42.1434 46.2484 41.5309 45.49 41.5309H24.9255C24.5606 41.5309 24.2125 41.6748 23.9562 41.9325L14.3594 51.5293C14.1016 51.7857 13.9577 52.1338 13.9577 52.4986V55.2406H9.84482C4.55441 55.2406 0.248047 59.5469 0.248047 64.8373C0.248047 70.1277 4.55441 74.4341 9.84482 74.4341H19.4416V78.547C19.4416 79.3055 20.0541 79.918 20.8126 79.918H41.3771C42.1335 79.918 42.748 80.5325 42.748 81.289C42.748 82.0454 42.1335 82.6599 41.3771 82.6599H0.248047V85.4019H41.3771C43.6444 85.4019 45.49 83.5563 45.49 81.289C45.49 79.0216 43.6444 77.176 41.3771 77.176H22.1835V74.4341H49.6029V77.176H52.3448V74.4341H55.0868V77.176H57.8287V74.4341H60.5706V85.4019H63.3126V74.4341H66.0545V85.4019H68.7964V74.4341H71.5384V77.176H74.2803V74.3243C78.9227 73.6556 82.5061 69.6618 82.5061 64.8373C82.5061 60.0128 78.9227 56.0191 74.2803 55.3503V52.4986H71.5384V55.2406H68.7964V40.7276L76.2725 33.2515ZM46.861 25.0793C46.861 23.1982 47.8222 21.4684 49.4315 20.4523C49.9824 20.1028 50.2127 19.4133 49.9784 18.8028C49.7301 18.1488 49.6029 17.4934 49.6029 16.8535C49.6029 13.8525 52.0295 11.4037 55.0225 11.3696C55.0827 11.3763 55.1497 11.3803 55.1939 11.3803C55.8767 11.3803 56.455 10.8789 56.5508 10.2028C57.1238 6.17893 60.6202 3.14379 64.6835 3.14379C68.7469 3.14379 72.2433 6.17893 72.8163 10.2015C72.912 10.8776 73.4904 11.379 74.1732 11.379C74.216 11.379 74.283 11.375 74.3419 11.3683C77.3375 11.4024 79.7642 13.8511 79.7642 16.8535C79.7642 17.4934 79.637 18.1488 79.3886 18.8028C79.1543 19.4133 79.3846 20.1028 79.9355 20.4523C81.5448 21.4684 82.5061 23.1982 82.5061 25.0793C82.5061 28.1037 80.0467 30.5631 77.0222 30.5631C75.5482 30.5631 74.1638 29.9834 73.1229 28.9304C72.8076 28.6098 72.3443 28.4685 71.9112 28.5422C71.4688 28.6205 71.0899 28.9097 70.9038 29.3167C69.7838 31.7393 67.3418 33.3051 64.6835 33.3051C62.0253 33.3051 59.5832 31.7393 58.4633 29.3167C58.2759 28.9083 57.8983 28.6192 57.4558 28.5422C57.3775 28.5288 57.2992 28.5221 57.2202 28.5221C56.8567 28.5221 56.5046 28.666 56.2442 28.9304C55.2032 29.9834 53.8189 30.5631 52.3448 30.5631C49.3204 30.5631 46.861 28.1037 46.861 25.0793ZM46.861 63.4664H72.9093C73.6658 63.4664 74.2803 64.0809 74.2803 64.8373C74.2803 65.5938 73.6658 66.2083 72.9093 66.2083H46.861V63.4664ZM2.98998 64.8373C2.98998 61.0578 6.06529 57.9825 9.84482 57.9825H13.9577V60.7244H9.84482C7.5775 60.7244 5.73192 62.57 5.73192 64.8373C5.73192 67.1047 7.5775 68.9502 9.84482 68.9502H13.9577V71.6922H9.84482C6.06529 71.6922 2.98998 68.6169 2.98998 64.8373ZM13.9577 63.4664V66.2083H9.84482C9.08838 66.2083 8.47385 65.5938 8.47385 64.8373C8.47385 64.0809 9.08838 63.4664 9.84482 63.4664H13.9577ZM16.6997 53.0663L25.4931 44.2728H44.119V71.6922H16.6997V53.0663ZM79.7642 64.8373C79.7642 68.6169 76.6889 71.6922 72.9093 71.6922H46.861V68.9502H72.9093C75.1767 68.9502 77.0222 67.1047 77.0222 64.8373C77.0222 62.57 75.1767 60.7244 72.9093 60.7244H46.861V57.9825H72.9093C76.6889 57.9825 79.7642 61.0578 79.7642 64.8373ZM63.3126 55.2406V40.1599C63.3126 39.7951 63.1686 39.447 62.9109 39.1906L56.0996 32.3799C56.3506 32.2494 56.603 32.1236 56.84 31.9669C58.6199 34.4879 61.5426 36.047 64.6835 36.047C67.8244 36.047 70.7471 34.4879 72.5271 31.9669C72.7641 32.1236 73.0164 32.2494 73.2675 32.3799L66.4561 39.1906C66.1984 39.447 66.0545 39.7951 66.0545 40.1599V55.2406H63.3126Z" fill="white"/>
<path d="M14.3584 24.6776L16.297 22.7383L24.5228 30.9641L22.5835 32.9027L14.3584 24.6776Z" fill="white"/>
<path d="M26.2969 19.5952H29.0388V30.563H26.2969V19.5952Z" fill="white"/>
<path d="M30.8105 30.9649L39.0357 22.7397L40.975 24.6784L32.7492 32.9042L30.8105 30.9649Z" fill="white"/>
</g>
<defs>
<clipPath id="clip0_225_84">
<rect width="85" height="85" fill="white" transform="translate(0.248047 0.401855)"/>
</clipPath>
</defs>
</svg>
