<svg width="86" height="86" viewBox="0 0 86 86" fill="none" xmlns="http://www.w3.org/2000/svg">
<g clip-path="url(#clip0_225_155)">
<path d="M42.7484 22.915C31.7947 22.915 22.915 31.7947 22.915 42.7484C22.915 53.702 31.7947 62.5817 42.7484 62.5817C53.702 62.5817 62.5817 53.702 62.5817 42.7484C62.57 31.7996 53.6972 22.9268 42.7484 22.915ZM42.7484 59.7484C33.3595 59.7484 25.7484 52.1372 25.7484 42.7484C25.7484 33.3595 33.3595 25.7484 42.7484 25.7484C52.1372 25.7484 59.7484 33.3595 59.7484 42.7484C59.7382 52.133 52.133 59.7382 42.7484 59.7484Z" fill="#5B7B3B"/>
<path d="M51.6535 32.9099C51.1355 32.7307 50.5606 32.8664 50.1774 33.2584C49.0005 34.3641 47.6109 35.2187 46.0931 35.7702C45.1297 36.0366 44.1286 36.141 43.1309 36.079C40.224 35.7939 37.3483 36.8673 35.3392 38.9874C33.1031 41.092 32.295 44.3048 33.2695 47.2168C31.653 48.3119 31.415 49.3348 31.415 49.832C31.4178 50.5572 31.9678 51.1632 32.6893 51.2361C33.4107 51.309 34.0708 50.8253 34.2186 50.1153C34.3412 49.9558 34.4874 49.8158 34.6521 49.7003C34.6748 49.7286 34.689 49.7598 34.7116 49.7881C34.9094 50.0398 35.1208 50.2805 35.3449 50.5092C36.738 51.9157 38.6439 52.6942 40.6234 52.6653H40.6418C43.2738 52.5957 45.7679 51.4729 47.565 49.5487C53.5292 43.4159 52.6381 34.4725 52.597 34.0957C52.5381 33.5513 52.1708 33.0896 51.6535 32.9099ZM45.5335 47.5767C44.2667 48.9541 42.5007 49.7665 40.6305 49.832H40.6234C39.4104 49.8639 38.2379 49.3945 37.382 48.5343C37.3509 48.5032 37.3211 48.4635 37.29 48.4309C37.375 48.4012 37.4458 48.3714 37.535 48.3417C39.811 47.7384 41.9318 46.656 43.7556 45.1669C44.3017 44.6186 44.3017 43.7319 43.7556 43.1836C43.212 42.63 42.3254 42.613 41.761 43.1453C40.2259 44.2987 38.4856 45.1497 36.6326 45.6528C36.3493 45.7449 36.0929 45.8384 35.8435 45.9362C35.3919 44.1216 35.9814 42.2062 37.375 40.9594C38.7927 39.437 40.8486 38.6775 42.9155 38.9123H43.1252C44.4378 38.9794 45.7522 38.8232 47.0125 38.4505C47.9816 38.1106 48.9096 37.6635 49.7793 37.1174C49.6232 40.9914 48.1219 44.69 45.5335 47.5767Z" fill="#5B7B3B"/>
<path d="M83.055 38.2619L76.1814 36.5322C75.8611 34.7907 75.3958 33.0791 74.7902 31.4151L79.8987 26.4851C80.7995 25.6192 81.0295 24.2667 80.4654 23.1517C80.182 22.595 79.8718 22.0467 79.5559 21.4956C79.24 20.9446 78.917 20.4105 78.5812 19.8863C77.8993 18.843 76.6179 18.3648 75.4192 18.7062L68.5881 20.6556C67.436 19.3153 66.1818 18.0663 64.8367 16.9198L66.7889 10.083C67.1296 8.88399 66.6508 7.60278 65.6074 6.92098C65.0832 6.58664 64.5463 6.26506 63.9966 5.94631C63.447 5.62756 62.8987 5.32723 62.342 5.03964C61.2293 4.47005 59.8749 4.69684 59.0085 5.59781L54.0814 10.6936C52.4145 10.0983 50.701 9.64249 48.9587 9.33073L47.236 2.44147C46.9347 1.23628 45.8864 0.365791 44.6464 0.290974C43.3821 0.227227 42.1154 0.227227 40.8511 0.290974C39.6107 0.364903 38.562 1.23577 38.2615 2.44147L36.5317 9.31514C34.7902 9.63542 33.0786 10.1008 31.4147 10.7063L26.4847 5.59781C25.6187 4.69636 24.2642 4.46899 23.1513 5.03823C22.5945 5.32156 22.0463 5.63181 21.4952 5.94773C20.9441 6.26364 20.41 6.58664 19.8859 6.92239C18.8418 7.6037 18.3634 8.88566 18.7058 10.0844L20.6551 16.9156C19.3149 18.0676 18.0659 19.3218 16.9194 20.6669L10.0825 18.7076C8.8836 18.3679 7.60295 18.8465 6.92055 19.8891C6.58621 20.4133 6.26463 20.9502 5.94588 21.4999C5.62713 22.0496 5.3268 22.5978 5.03921 23.1546C4.47203 24.2676 4.69857 25.6205 5.59738 26.488L10.6931 31.4151C10.0979 33.0821 9.64206 34.7955 9.3303 36.5378L2.44105 38.2605C1.23636 38.5627 0.366251 39.6105 0.290547 40.8502C0.25938 41.4735 0.248047 42.111 0.248047 42.7485C0.248047 43.386 0.25938 44.0235 0.290547 44.6497C0.367156 45.8881 1.23727 46.9342 2.44105 47.2351L9.31471 48.9648C9.63551 50.7062 10.1008 52.4178 10.7059 54.0818L5.59738 59.0118C4.69895 59.8795 4.47193 61.2318 5.0378 62.3452C5.32113 62.902 5.63138 63.4502 5.9473 64.0013C6.26321 64.5524 6.58621 65.0865 6.92196 65.6107C7.60155 66.6568 8.88542 67.1354 10.084 66.7893L16.9151 64.8414C18.0672 66.1817 19.3214 67.4307 20.6665 68.5772L18.7072 75.414C18.3665 76.613 18.8453 77.8942 19.8887 78.576C20.4129 78.9103 20.9498 79.2319 21.4995 79.5507C22.0491 79.8694 22.5974 80.1698 23.1541 80.4573C24.2671 81.0245 25.62 80.798 26.4875 79.8992L31.4147 74.8034C33.0818 75.3982 34.7952 75.854 36.5374 76.1663L38.26 83.0555C38.5622 84.2602 39.61 85.1303 40.8497 85.206C41.4787 85.2372 42.1105 85.2485 42.748 85.2485C43.3855 85.2485 44.023 85.2372 44.6492 85.206C45.8877 85.1294 46.9337 84.2593 47.2346 83.0555L48.9644 76.1818C50.7057 75.861 52.4173 75.3957 54.0814 74.7907L59.0114 79.8992C59.8773 80.8 61.2299 81.0299 62.3448 80.4658C62.9015 80.1825 63.4498 79.8722 64.0009 79.5563C64.552 79.2404 65.086 78.9174 65.6102 78.5817C66.6543 77.9004 67.1327 76.6184 66.7903 75.4197L64.841 68.5885C66.1812 67.4364 67.4302 66.1822 68.5767 64.8372L75.4135 66.7936C76.6128 67.1381 77.8966 66.66 78.5784 65.6149C78.9127 65.0907 79.2343 64.5538 79.553 64.0042C79.8718 63.4545 80.1721 62.9062 80.4597 62.3495C81.0269 61.2365 80.8004 59.8836 79.9016 59.0161L74.803 54.0818C75.3977 52.4148 75.8535 50.7014 76.1658 48.9592L83.055 47.2365C84.2597 46.9343 85.1298 45.8865 85.2055 44.6468C85.2367 44.0178 85.248 43.386 85.248 42.7485C85.248 42.111 85.2367 41.4735 85.2055 40.8473C85.1289 39.6089 84.2588 38.5628 83.055 38.2619ZM82.3821 44.4797C82.378 44.481 82.3735 44.481 82.3694 44.4797L75.473 46.2094C74.3974 46.4831 73.5806 47.3597 73.3835 48.452C73.0898 50.0413 72.6696 51.6046 72.1269 53.127C71.7521 54.1716 72.0218 55.3389 72.8168 56.1133L77.938 61.0306C77.6675 61.5505 77.3827 62.0647 77.0881 62.5762C76.7934 63.0876 76.4945 63.5862 76.1856 64.0566L69.3488 62.1016C68.2867 61.7995 67.146 62.1443 66.429 62.9842C65.3666 64.2169 64.214 65.3689 62.9809 66.4309C62.1448 67.1497 61.8016 68.2882 62.1011 69.3493L64.0802 76.1818C63.5915 76.4949 63.0885 76.7938 62.5828 77.0871C62.077 77.3803 61.5557 77.6679 61.0471 77.9258L56.1185 72.8172C55.3427 72.0248 54.177 71.7555 53.1322 72.1273C51.6099 72.6702 50.0466 73.0904 48.4572 73.3839C47.3633 73.5796 46.4847 74.3966 46.2104 75.4735L44.5104 82.3698C43.3458 82.4336 42.1786 82.4336 41.014 82.3698L39.2871 75.4735C39.0134 74.3978 38.1368 73.5811 37.0445 73.3839C35.4552 73.0903 33.8919 72.6701 32.3695 72.1273C32.0625 72.0208 31.7397 71.9671 31.4147 71.9687C30.6509 71.9656 29.9184 72.2723 29.3846 72.8187L24.4674 77.9399C23.9475 77.6693 23.4332 77.3846 22.9218 77.0899C22.4104 76.7952 21.9117 76.4963 21.4385 76.1875L23.3964 69.3507C23.6959 68.2886 23.3515 67.1493 22.5138 66.4309C21.2811 65.3684 20.129 64.2159 19.067 62.9827C18.3483 62.1467 17.2098 61.8034 16.1487 62.103L9.31471 64.0807C9.00163 63.5919 8.70271 63.089 8.40946 62.5832C8.11621 62.0775 7.82863 61.5562 7.5708 61.0476L12.6793 56.119C13.4743 55.3446 13.744 54.1773 13.3692 53.1327C12.8263 51.6103 12.4061 50.047 12.1126 48.4577C11.917 47.3637 11.0999 46.4852 10.023 46.2108L3.12671 44.5108C3.09271 43.9229 3.08138 43.3392 3.08138 42.7485C3.08138 42.1577 3.09271 41.5741 3.12671 41.0088L10.023 39.2876C11.0987 39.0139 11.9155 38.1373 12.1126 37.045C12.4064 35.4557 12.8266 33.8924 13.3692 32.37C13.7434 31.3257 13.4737 30.1592 12.6793 29.3851L7.55238 24.4607C7.82296 23.9408 8.10771 23.4266 8.40238 22.9151C8.69705 22.4037 8.99596 21.9051 9.3048 21.4319L16.1416 23.3897C17.2037 23.6892 18.343 23.3448 19.0614 22.5071C20.1238 21.2744 21.2764 20.1224 22.5095 19.0604C23.3456 18.3417 23.6888 17.2032 23.3893 16.1421L21.4159 9.31514C21.9046 9.00206 22.4075 8.70314 22.9133 8.40989C23.419 8.11664 23.9404 7.82906 24.449 7.57123L29.3775 12.6797C30.1514 13.4736 31.3172 13.7432 32.361 13.3696C33.8868 12.8269 35.4534 12.4067 37.046 12.1131C38.1372 11.9149 39.0124 11.0983 39.2857 10.0235L40.9857 3.12714C42.1503 3.06336 43.3175 3.06336 44.482 3.12714L46.209 10.0235C46.4827 11.0991 47.3593 11.9159 48.4515 12.1131C50.0408 12.4069 51.6041 12.8271 53.1265 13.3696C54.1714 13.7411 55.3368 13.4718 56.1129 12.6797L61.0301 7.55848C61.55 7.82906 62.0643 8.11381 62.5757 8.40848C63.0871 8.70314 63.5858 9.00206 64.059 9.31089L62.1011 16.1477C61.8016 17.2098 62.146 18.3491 62.9837 19.0675C64.2164 20.13 65.3685 21.2825 66.4305 22.5156C67.1492 23.3517 68.2877 23.6949 69.3488 23.3954L76.1814 21.4163C76.4945 21.9051 76.7934 22.408 77.0866 22.9137C77.3799 23.4195 77.6675 23.9408 77.9253 24.4494L72.8168 29.3794C72.0235 30.153 71.7539 31.3181 72.1269 32.3615C72.6696 33.8872 73.0898 35.4538 73.3835 37.0464C73.5816 38.1376 74.3982 39.0129 75.473 39.2862L82.3694 40.9862C82.3977 41.5684 82.409 42.1521 82.409 42.7428C82.409 43.3336 82.4034 43.9229 82.3821 44.4797Z" fill="#5B7B3B"/>
<path d="M42.7477 15.8315C27.8821 15.8315 15.8311 27.8825 15.8311 42.7482C15.8311 57.6139 27.8821 69.6649 42.7477 69.6649C57.6134 69.6649 69.6644 57.6139 69.6644 42.7482C69.648 27.8893 57.6066 15.8479 42.7477 15.8315ZM42.7477 66.8316C29.4469 66.8316 18.6644 56.0491 18.6644 42.7482C18.6644 29.4474 29.4469 18.6649 42.7477 18.6649C56.0486 18.6649 66.8311 29.4474 66.8311 42.7482C66.8162 56.0429 56.0424 66.8167 42.7477 66.8316Z" fill="#5B7B3B"/>
</g>
<defs>
<clipPath id="clip0_225_155">
<rect width="85" height="85" fill="white" transform="translate(0.248047 0.248535)"/>
</clipPath>
</defs>
</svg>
