<svg width="86" height="86" viewBox="0 0 86 86" fill="none" xmlns="http://www.w3.org/2000/svg">
<g clip-path="url(#clip0_225_161)">
<path d="M81.77 56.4287C79.0545 55.3624 77.263 52.7486 77.248 49.8313V37.0813C77.248 31.8821 68.9224 29.0728 62.9468 27.7313L64.4527 23.7094C64.7416 22.9457 64.7119 22.098 64.3705 21.3563C64.0515 20.6432 63.4656 20.0837 62.7386 19.7979L59.6814 18.4335C59.6858 16.8146 58.6863 15.3626 57.1724 14.7885L46.3959 10.751C44.9002 10.1819 43.2084 10.5969 42.1459 11.7938L41.6712 11.6138C40.1303 11.0449 38.4968 10.7681 36.8546 10.7978C35.575 10.8372 34.3005 10.6218 33.1047 10.1646L7.14861 0.493071C5.14314 -0.250347 2.91339 0.761187 2.15204 2.75968L0.993252 5.85089C0.633164 6.81578 0.671182 7.88409 1.09934 8.82075C1.52749 9.75741 2.31025 10.4856 3.27547 10.8446L37.4001 23.5834C37.0301 24.4151 36.5973 25.2173 36.1054 25.9831C22.6201 26.8997 9.24821 30.6481 9.24821 37.0813V49.8313C9.23294 52.749 7.4418 55.3629 4.72628 56.43C2.35641 57.3411 0.780752 59.6038 0.748047 62.1421C0.752695 65.5124 3.48365 68.2432 6.85394 68.248H14.7179C13.7288 70.5289 12.1945 72.5317 10.2498 74.0805C8.20829 75.7456 7.42005 78.5061 8.27453 80.998C9.12901 83.4901 11.4453 85.1859 14.0791 85.248C17.71 85.2482 21.3267 84.7961 24.8457 83.9021C28.3737 83.0209 31.7779 81.7026 34.9791 79.978C40.1369 77.1886 46.3539 77.1886 51.5116 79.978C57.9419 83.4243 65.1218 85.2342 72.4173 85.248C75.0204 85.1931 77.3209 83.5407 78.2043 81.0915C79.0877 78.6423 78.3713 75.9018 76.4024 74.198C74.4548 72.5741 72.8867 70.543 71.8081 68.248H79.6422C83.0124 68.2434 85.7432 65.5124 85.748 62.1421C85.6979 59.6091 84.1284 57.3549 81.77 56.4287ZM58.9221 21.1949L61.6648 22.4146C61.7832 22.4589 61.8433 22.5907 61.7995 22.7093L59.4932 28.8646C59.455 28.9681 59.2822 29.0346 59.2792 29.0318L56.4586 27.7738L58.9221 21.1949ZM44.0471 14.0237C44.1439 13.7617 44.3409 13.5492 44.5948 13.4327C44.8486 13.3163 45.1383 13.3057 45.3999 13.4031L56.1765 17.4406C56.4378 17.5377 56.6498 17.7348 56.7655 17.9883C56.8814 18.2418 56.8917 18.531 56.7941 18.7921L50.5607 35.4578C47.8797 34.8299 45.261 33.9608 42.7364 32.861C40.658 31.9894 38.6396 30.9813 36.6942 29.8435C38.4135 27.9291 39.7391 25.6951 40.5958 23.2688L44.0471 14.0237ZM34.7168 35.6646C33.6201 34.9979 32.628 34.1725 31.773 33.2152C32.728 32.857 33.6326 32.377 34.4647 31.7872C36.7419 33.2109 39.1334 34.4429 41.6146 35.4706C41.7761 35.54 41.9319 35.6037 42.0921 35.6703L34.7168 35.6646ZM3.67623 7.64585C3.56085 7.39235 3.55072 7.10348 3.64784 6.84267L4.8053 3.75993C5.01216 3.21872 5.61712 2.94612 6.15966 3.14932L32.1102 12.8152C33.6485 13.3936 35.2839 13.6706 36.9268 13.6312C38.2085 13.6055 39.4833 13.8233 40.6838 14.273L40.9019 14.3552L38.4384 20.9527L4.26426 8.18989C4.00361 8.0941 3.79194 7.8982 3.67623 7.64585ZM33.3993 29.0546C32.4688 29.8299 31.3872 30.4029 30.2231 30.7376C29.5227 30.9224 28.9541 31.4334 28.6959 32.1104C28.4413 32.7765 28.5235 33.5245 28.9169 34.1192C29.2888 34.6737 29.713 35.1912 30.1834 35.6648H21.998C21.2156 35.6648 20.5814 36.2992 20.5814 37.0814C20.5814 37.8637 21.2158 38.498 21.998 38.498H61.6647C62.4471 38.498 63.0813 37.8638 63.0813 37.0814C63.0813 36.299 62.4471 35.6648 61.6647 35.6648H53.5075L55.464 30.4373L58.2067 31.6585C59.579 32.1722 61.1229 31.6419 61.8901 30.3935C70.5204 32.2734 74.4148 35.07 74.4148 37.0816C74.4148 40.6318 62.5588 45.5816 43.2482 45.5816C23.9376 45.5816 12.0816 40.6318 12.0816 37.0816C12.0814 34.0709 20.1465 30.3593 33.3993 29.0546ZM6.85394 65.4146C5.04719 65.4131 3.58293 63.9489 3.58144 62.1421C3.62128 60.775 4.47643 59.5649 5.75176 59.0709C9.55368 57.5767 12.0612 53.9164 12.0814 49.8314V41.8286C13.3925 42.7922 14.8205 43.5852 16.3314 44.1889V60.4564C16.326 62.1302 16.107 63.7965 15.6798 65.4148H6.85394V65.4146ZM74.5847 76.3796C75.6347 77.319 76.0101 78.8013 75.5339 80.1273C75.0576 81.4532 73.825 82.358 72.4172 82.4146C65.5921 82.4012 58.8751 80.7087 52.8587 77.4861C46.8627 74.2404 39.6334 74.2404 33.6374 77.4861C27.6213 80.7095 20.9042 82.4022 14.0789 82.4146C12.6597 82.3489 11.4245 81.4229 10.9638 80.0788C10.5031 78.7347 10.9102 77.2457 11.9908 76.323C16.6777 72.4057 19.3195 66.5628 19.1648 60.4564V45.2271C22.4053 46.2272 25.7218 46.9617 29.0814 47.423V59.748C29.0814 66.0508 26.673 68.649 26.6633 68.6631C26.295 69.0188 26.1473 69.5454 26.2769 70.0408C26.4066 70.5361 26.7934 70.923 27.2886 71.0525C27.7839 71.1822 28.3106 71.0344 28.6664 70.6662C28.7982 70.5331 31.9148 67.3315 31.9148 59.748V47.7858C35.1405 48.1498 38.4952 48.3524 41.8314 48.4035V54.0816C41.8314 54.864 42.4658 55.4982 43.248 55.4982C44.0305 55.4982 44.6647 54.864 44.6647 54.0816V48.4035C48.0009 48.3582 51.3556 48.15 54.5813 47.7858V59.748C54.5813 67.3315 57.6979 70.5331 57.8297 70.6662C58.0922 70.9302 58.4491 71.0786 58.8213 71.0784C59.3941 71.0836 59.9134 70.7432 60.1376 70.2163C60.3618 69.6892 60.2466 69.0791 59.8456 68.6702C59.8229 68.649 57.4147 66.0508 57.4147 59.748V47.423C60.7743 46.9622 64.0908 46.2282 67.3313 45.2286V60.853C67.3226 66.849 69.9805 72.5385 74.5847 76.3796ZM79.6422 65.4146H70.795C70.3836 63.9288 70.1716 62.3948 70.1647 60.853V44.1887C71.6759 43.5857 73.104 42.7927 74.4147 41.8285V49.8313C74.4354 53.9177 76.9447 57.5789 80.7486 59.0722C82.017 59.5735 82.8677 60.779 82.9147 62.1421C82.9132 63.9489 81.4489 65.4131 79.6422 65.4146Z" fill="#5B7B3B"/>
<path fill-rule="evenodd" clip-rule="evenodd" d="M43.2477 59.748C42.4652 59.748 41.8311 60.3822 41.8311 61.1647V68.248C41.8311 69.0305 42.4654 69.6647 43.2477 69.6647C44.0301 69.6647 44.6643 69.0305 44.6643 68.248V61.1647C44.6643 60.3822 44.0301 59.748 43.2477 59.748Z" fill="#5B7B3B"/>
</g>
<defs>
<clipPath id="clip0_225_161">
<rect width="85" height="85" fill="white" transform="translate(0.748047 0.248535)"/>
</clipPath>
</defs>
</svg>
