<svg width="86" height="86" viewBox="0 0 86 86" fill="none" xmlns="http://www.w3.org/2000/svg">
<g clip-path="url(#clip0_225_167)">
<path d="M76.748 63.2904C73.8919 63.2987 71.2308 64.741 69.6647 67.1295V60.457C71.2295 60.457 72.498 59.1885 72.498 57.6237V51.957C72.5006 51.7912 72.4668 51.6267 72.3989 51.4754C72.3989 51.4754 72.3989 51.4754 72.3989 51.3904C72.3706 51.3033 72.3275 51.2219 72.2714 51.1495C69.3136 47.2076 64.6762 44.8837 59.748 44.8737H48.4147C46.0675 44.8737 44.1647 46.7765 44.1647 49.1237V54.337C37.9172 49.6195 27.1647 41.1337 18.6647 34.3054V26.457C18.6647 25.6746 18.0304 25.0404 17.248 25.0404C16.4656 25.0404 15.8314 25.6746 15.8314 26.457V32.0387L8.56388 26.2162C8.68241 25.8354 8.74446 25.4392 8.74805 25.0404V17.957C8.74805 15.6098 6.84526 13.707 4.49805 13.707C2.15084 13.707 0.248047 15.6098 0.248047 17.957V25.0404C0.248047 27.3876 2.15084 29.2904 4.49805 29.2904C5.36466 29.2883 6.20993 29.0214 6.92055 28.5254C14.7122 34.8012 35.8205 51.702 44.193 57.8929C44.3312 59.3409 45.5435 60.4491 46.998 60.457V62.0579L44.0372 61.3495C41.9119 59.0025 38.9017 57.6515 35.7355 57.6237L8.52138 36.6004L2.74138 32.1237C2.12286 31.648 1.23611 31.762 0.758047 32.3787C0.520554 32.6775 0.413707 33.0596 0.46171 33.4383C0.509712 33.8169 0.708502 34.1602 1.01305 34.3904L5.26305 37.6062C2.18888 40.3262 1.80638 44.8737 1.66471 47.4945C0.984714 54.7904 2.14638 60.9812 5.07888 65.7129C10.1647 73.9154 19.5855 75.8845 26.8672 76.0404C30.2805 80.3413 36.3049 81.5402 41.1047 78.8737H72.1155C73.4864 79.7921 75.098 80.2849 76.748 80.2904C81.4425 80.2904 85.248 76.4848 85.248 71.7904C85.248 67.0959 81.4425 63.2904 76.748 63.2904ZM3.08138 25.0404V17.957C3.08138 17.1746 3.71564 16.5404 4.49805 16.5404C5.28045 16.5404 5.91471 17.1746 5.91471 17.957V25.0404C5.91471 25.8228 5.28045 26.457 4.49805 26.457C3.71564 26.457 3.08138 25.8228 3.08138 25.0404ZM67.9222 69.9062L68.4464 70.0337C68.3236 70.6115 68.2572 71.1998 68.248 71.7904C68.2507 73.2832 68.6465 74.7491 69.3955 76.0404H44.4764C47.0828 72.8628 47.7407 68.5133 46.1905 64.707C51.4039 66.0245 61.5472 68.4329 67.9222 69.9062ZM69.6647 57.6237H46.998V53.3737H69.6647V57.6237ZM46.998 49.1237C46.998 48.3413 47.6323 47.707 48.4147 47.707H59.748C62.6615 47.7093 65.4862 48.7092 67.7522 50.5404H46.998V49.1237ZM49.8314 60.457H66.8314V66.747C61.6322 65.5429 54.7614 63.9137 49.8314 62.7379V60.457ZM7.48721 64.2254C4.89471 59.9754 3.84638 54.4645 4.41305 47.7212C4.68221 44.562 5.17805 41.1054 7.50138 39.4054L31.9247 58.2612C27.3779 59.8507 24.3325 64.1404 24.3314 68.957C24.3359 70.4141 24.6197 71.8568 25.1672 73.207C18.9055 72.7254 11.5814 70.7279 7.48721 64.2254ZM28.7372 73.8445L28.6239 73.7029C26.9044 71.1549 26.6946 67.8771 28.0752 65.1306C29.4557 62.3842 32.2115 60.5971 35.2822 60.457C35.4093 60.4711 35.5376 60.4711 35.6647 60.457C39.6963 60.451 43.1776 63.278 43.999 67.2251C44.8205 71.1722 42.7562 75.1533 39.0569 76.7563C35.3577 78.3593 31.0412 77.143 28.723 73.8445H28.7372ZM76.748 77.457C73.6184 77.457 71.0814 74.92 71.0814 71.7904C71.0814 68.6608 73.6184 66.1237 76.748 66.1237C79.8777 66.1237 82.4147 68.6608 82.4147 71.7904C82.4147 74.92 79.8777 77.457 76.748 77.457Z" fill="#5B7B3B"/>
<path d="M19.0753 66.3362C16.687 65.6072 14.5707 64.1815 12.9978 62.242C10.1645 58.5587 9.79617 53.1045 9.9945 49.1945C10.0375 48.4121 9.43816 47.743 8.65575 47.6999C7.87335 47.6569 7.2042 48.2563 7.16117 49.0387C6.9345 53.4445 7.37367 59.5928 10.7453 63.9704C12.6732 66.329 15.2562 68.0642 18.1687 68.957C18.3131 69.0136 18.4669 69.0425 18.622 69.042C19.4044 69.1672 20.1402 68.6344 20.2653 67.852C20.3905 67.0696 19.8577 66.3339 19.0753 66.2087V66.3362Z" fill="#5B7B3B"/>
<path d="M35.665 64.707C33.3178 64.707 31.415 66.6098 31.415 68.957C31.415 71.3042 33.3178 73.207 35.665 73.207C38.0122 73.207 39.915 71.3042 39.915 68.957C39.915 66.6098 38.0122 64.707 35.665 64.707ZM35.665 70.3737C34.8826 70.3737 34.2484 69.7394 34.2484 68.957C34.2484 68.1746 34.8826 67.5404 35.665 67.5404C36.4474 67.5404 37.0817 68.1746 37.0817 68.957C37.0817 69.7394 36.4474 70.3737 35.665 70.3737Z" fill="#5B7B3B"/>
<path d="M76.7477 73.2069C77.5301 73.2069 78.1644 72.5726 78.1644 71.7902C78.1644 71.0078 77.5301 70.3735 76.7477 70.3735C75.9653 70.3735 75.3311 71.0078 75.3311 71.7902C75.3311 72.5726 75.9653 73.2069 76.7477 73.2069Z" fill="#5B7B3B"/>
<path d="M31.4147 8.04036H32.8314C33.6138 8.04036 34.248 7.4061 34.248 6.6237C34.248 5.84129 33.6138 5.20703 32.8314 5.20703H31.4147C30.6323 5.20703 29.998 5.84129 29.998 6.6237C29.998 7.4061 30.6323 8.04036 31.4147 8.04036Z" fill="#5B7B3B"/>
<path d="M54.4355 18.7222C54.7028 19.0604 55.1095 19.2585 55.5405 19.2605C55.8666 19.2579 56.1819 19.1428 56.433 18.9347C57.0317 18.4397 57.1201 17.555 56.6313 16.9513C55.9938 16.158 55.3138 15.393 54.6338 14.6705C54.3678 14.4023 54.0057 14.2515 53.628 14.2515C53.2503 14.2515 52.8882 14.4023 52.6222 14.6705C52.354 14.9365 52.2031 15.2986 52.2031 15.6763C52.2031 16.0541 52.354 16.4162 52.6222 16.6822C53.2313 17.3055 53.8405 17.9572 54.4355 18.7222Z" fill="#5B7B3B"/>
<path d="M60.8531 31.0613C61.1222 31.9538 61.3631 32.8746 61.5756 33.7813C61.7297 34.4346 62.3212 34.8901 62.9922 34.8721H63.3181C64.0755 34.6901 64.5438 33.9306 64.3664 33.1721C64.1397 32.2088 63.8847 31.2313 63.5872 30.3388C63.4657 29.8258 63.0694 29.4227 62.5586 29.2925C62.0477 29.1623 61.5068 29.3265 61.1546 29.7188C60.8023 30.1111 60.6971 30.6665 60.8814 31.1605L60.8531 31.0613Z" fill="#5B7B3B"/>
<path d="M58.8417 25.8339C59.0761 26.3259 59.5718 26.6398 60.1167 26.6414C60.3264 26.6415 60.5339 26.5981 60.7259 26.5139C61.4339 26.1813 61.7383 25.3378 61.4059 24.6297C60.9809 23.7089 60.5134 22.8164 59.9892 21.9522C59.598 21.2715 58.7291 21.0369 58.0484 21.4281C57.3677 21.8193 57.133 22.6882 57.5242 23.3689C58.0059 24.1481 58.4451 25.0406 58.8417 25.8339Z" fill="#5B7B3B"/>
<path d="M38.2856 8.7486C39.1923 8.93277 40.0848 9.1736 40.9631 9.44277C41.0848 9.46351 41.2086 9.46828 41.3315 9.45694C41.9481 9.45451 42.4923 9.0535 42.6773 8.46527C42.7929 8.10647 42.7607 7.71639 42.5879 7.38138C42.4151 7.04636 42.1158 6.79405 41.7565 6.68027C40.7931 6.38277 39.8156 6.12777 38.8098 5.91527C38.0475 5.75792 37.3011 6.24501 37.1381 7.0061C37.0418 7.39076 37.1111 7.79818 37.3292 8.12935C37.5473 8.46053 37.8942 8.68514 38.2856 8.7486Z" fill="#5B7B3B"/>
<path d="M46.0351 11.6102C46.8426 12.0635 47.6217 12.5452 48.3867 13.0269C48.6236 13.1922 48.9054 13.2812 49.1942 13.2819C49.8123 13.2804 50.3581 12.8784 50.5428 12.2886C50.7275 11.6988 50.5086 11.0573 50.0017 10.7035C49.1659 10.1227 48.2876 9.58438 47.4093 9.08855C47.0805 8.90616 46.6928 8.86191 46.3314 8.96553C45.9701 9.06916 45.6647 9.31217 45.4826 9.64105C45.2864 9.97358 45.2345 10.3718 45.3388 10.7435C45.4431 11.1152 45.6946 11.4282 46.0351 11.6102Z" fill="#5B7B3B"/>
<path d="M62.4967 39.3344V40.0003V40.7086C62.5186 41.0846 62.6892 41.4363 62.971 41.6862C63.2528 41.9361 63.6225 42.0635 63.9983 42.0403H64.0834C64.4619 42.0185 64.816 41.8458 65.0663 41.5609C65.3166 41.276 65.4422 40.9027 65.415 40.5244V39.8303C65.415 39.6178 65.415 39.3628 65.415 39.0936C65.3884 38.6951 65.1947 38.3264 64.8818 38.0782C64.5689 37.83 64.1658 37.7255 63.7717 37.7903C62.9934 37.8649 62.4227 38.5561 62.4967 39.3344Z" fill="#5B7B3B"/>
<path d="M28.5817 13.7069H29.9984C30.7808 13.7264 31.4309 13.108 31.4505 12.3256C31.47 11.5432 30.8516 10.8931 30.0692 10.8735H28.5817C27.7993 10.8735 27.165 11.5078 27.165 12.2902C27.165 13.0726 27.7993 13.7069 28.5817 13.7069Z" fill="#5B7B3B"/>
<path d="M42.38 16.002C41.9476 16.6448 42.1117 17.5157 42.7484 17.957C43.4897 18.4854 44.1949 19.0628 44.8592 19.6853C45.1226 19.9248 45.4665 20.0563 45.8225 20.0537C46.2152 20.0524 46.5897 19.8882 46.8567 19.6003C47.406 19.0478 47.406 18.1554 46.8567 17.6028C46.1068 16.9044 45.3117 16.2561 44.4767 15.662C44.1625 15.4044 43.7528 15.2941 43.3517 15.3591C42.9506 15.4241 42.5967 15.6583 42.38 16.002Z" fill="#5B7B3B"/>
<path d="M54.7047 34.8718C55.4531 34.6648 55.8953 33.894 55.6964 33.1435C55.4414 32.166 55.1297 31.2026 54.8039 30.3101C54.5379 29.5708 53.7228 29.187 52.9835 29.4531C52.2441 29.7191 51.8604 30.5341 52.1264 31.2735C52.4381 32.1376 52.7214 33.0301 52.9622 33.9226C53.1332 34.559 53.7203 34.9935 54.3789 34.971C54.4918 34.9541 54.6016 34.9207 54.7047 34.8718Z" fill="#5B7B3B"/>
<path d="M35.3526 14.5431C36.2331 14.7682 37.0989 15.0474 37.9451 15.3789C38.1114 15.447 38.2897 15.4807 38.4693 15.4781C39.1475 15.473 39.727 14.988 39.8513 14.3212C39.9757 13.6545 39.61 12.9932 38.9793 12.7439C38.0293 12.3746 37.0598 12.0578 36.0751 11.7948C35.5842 11.6657 35.0617 11.8084 34.7044 12.169C34.3472 12.5296 34.2095 13.0535 34.3432 13.5432C34.4769 14.0329 34.8617 14.414 35.3526 14.5431Z" fill="#5B7B3B"/>
<path d="M48.7268 21.8672C48.1005 22.3271 47.9614 23.2056 48.4151 23.8364C48.9393 24.573 49.421 25.3664 49.8318 26.1739C50.0822 26.6194 50.5532 26.8955 51.0643 26.8964C51.3059 26.8958 51.5439 26.8376 51.7585 26.7264C52.0888 26.5418 52.3315 26.2329 52.4326 25.8683C52.5338 25.5037 52.4848 25.1138 52.2968 24.7855C51.801 23.893 51.2485 23.0289 50.696 22.2214C50.2494 21.5808 49.3686 21.4224 48.7268 21.8672Z" fill="#5B7B3B"/>
<path d="M55.498 42.0404H55.5688C56.3234 42.0026 56.9156 41.3793 56.9147 40.6237C56.9147 40.1562 56.9147 39.6604 56.8013 39.2071C56.7656 38.8306 56.5808 38.484 56.2881 38.2445C55.9954 38.0051 55.6191 37.8926 55.243 37.9321C54.4704 38.014 53.9079 38.7029 53.9822 39.4762C53.9822 39.9437 54.053 40.3971 54.0813 40.8221C54.1809 41.5262 54.7869 42.0474 55.498 42.0404Z" fill="#5B7B3B"/>
<path d="M46.9981 42.0404H47.0831C47.4617 42.0186 47.8158 41.8459 48.0661 41.561C48.3163 41.2761 48.442 40.9028 48.4148 40.5245C48.4148 40.5245 48.4148 39.972 48.2448 39.0229C48.1353 38.2405 47.4122 37.695 46.6298 37.8045C45.8474 37.9141 45.3019 38.6371 45.4115 39.4195C45.5248 40.1987 45.5531 40.6804 45.5531 40.7087C45.5986 41.4688 46.2368 42.0569 46.9981 42.0404Z" fill="#5B7B3B"/>
<path d="M33.2707 17.7447C32.5313 17.4865 31.7226 17.8766 31.4644 18.616C31.2062 19.3553 31.5963 20.164 32.3357 20.4222C33.172 20.7066 33.9825 21.0621 34.7582 21.4847C35.4469 21.8505 36.3017 21.5909 36.6707 20.9039C37.0387 20.2189 36.7858 19.3653 36.104 18.9914C35.1941 18.5015 34.2466 18.0846 33.2707 17.7447Z" fill="#5B7B3B"/>
<path d="M40.9919 22.7456C40.6427 22.3787 40.1242 22.2259 39.6318 22.3449C39.1394 22.4638 38.7479 22.8365 38.6047 23.3224C38.4615 23.8083 38.5885 24.3337 38.9377 24.7006C39.5525 25.344 40.1206 26.0305 40.6377 26.7548C40.9022 27.1262 41.3292 27.3477 41.7852 27.3498C42.0844 27.3453 42.3755 27.2516 42.621 27.0806C42.926 26.8594 43.1304 26.5259 43.1889 26.1537C43.2473 25.7815 43.1552 25.4013 42.9327 25.0973C42.3396 24.2704 41.6912 23.4847 40.9919 22.7456Z" fill="#5B7B3B"/>
<path d="M44.1647 34.0645C44.3622 34.6728 44.9427 35.0733 45.5814 35.042C45.7218 35.0692 45.866 35.0692 46.0064 35.042C46.7476 34.8049 47.1588 34.0142 46.9272 33.2712C46.6156 32.2937 46.2614 31.3587 45.8931 30.4379C45.5879 29.7141 44.7539 29.3748 44.0302 29.68C43.3064 29.9851 42.9671 30.8191 43.2722 31.5429C43.6122 32.3079 43.9239 33.172 44.1647 34.0645Z" fill="#5B7B3B"/>
<path d="M25.7477 19.3739H27.0794H27.1644C27.9468 19.3973 28.6001 18.7821 28.6236 17.9997C28.647 17.2173 28.0318 16.564 27.2494 16.5405C26.7536 16.5405 26.2577 16.5405 25.7477 16.5405C24.9653 16.5405 24.3311 17.1748 24.3311 17.9572C24.3311 18.7396 24.9653 19.3739 25.7477 19.3739Z" fill="#5B7B3B"/>
</g>
<defs>
<clipPath id="clip0_225_167">
<rect width="85" height="85" fill="white" transform="translate(0.248047 0.248535)"/>
</clipPath>
</defs>
</svg>
