<svg width="86" height="86" viewBox="0 0 86 86" fill="none" xmlns="http://www.w3.org/2000/svg">
<g clip-path="url(#clip0_225_192)">
<path d="M21.8321 37.3127C22.5199 37.3127 23.0773 36.7552 23.0773 36.0675V33.2956C23.0773 31.2108 24.7733 29.5148 26.8579 29.5148H29.4133C30.1012 29.5148 30.6585 28.9573 30.6585 28.2696C30.6585 27.5819 30.1012 27.0244 29.4133 27.0244H26.8579C23.4 27.0244 20.5869 29.8377 20.5869 33.2956V36.0675C20.5869 36.7552 21.1444 37.3127 21.8321 37.3127Z" fill="#5B7B3B"/>
<path d="M21.8321 46.9322C22.5199 46.9322 23.0773 46.3747 23.0773 45.6871V41.5787C23.0773 40.891 22.5199 40.3335 21.8321 40.3335C21.1443 40.3335 20.5869 40.891 20.5869 41.5787V45.6871C20.5869 46.3747 21.1444 46.9322 21.8321 46.9322Z" fill="#5B7B3B"/>
<path d="M26.4551 34.9242V40.9573C26.4551 41.645 27.0124 42.2025 27.7002 42.2025C28.3881 42.2025 28.9454 41.645 28.9454 40.9573V34.9242C28.9454 34.3774 29.4096 33.9151 29.959 33.9151H32.1566C32.8445 33.9151 33.4018 33.3576 33.4018 32.67C33.4018 31.9823 32.8445 31.4248 32.1566 31.4248H29.959C28.027 31.4248 26.4551 32.9946 26.4551 34.9242Z" fill="#5B7B3B"/>
<path d="M38.1303 35.3508C38.6188 35.6769 39.1899 35.8427 39.7721 35.8427C40.1776 35.8427 40.5888 35.7622 40.9811 35.5992L45.0918 33.8966L55.6501 34.7111L56.4239 37.3876C56.6927 38.3175 57.353 39.0601 58.2829 39.4786C58.8055 39.7139 59.3771 39.8313 59.9499 39.8313C60.5564 39.8313 61.1645 39.6996 61.717 39.4371L81.19 30.1848C82.264 29.6745 83.0868 28.689 83.3911 27.5484C83.6538 26.5636 83.4956 25.5835 82.9455 24.7893L79.0209 19.1173C81.97 15.7201 82.6636 10.8834 80.7022 6.75504C78.0007 1.0769 71.1838 -1.34637 65.5095 1.351C61.1628 3.4155 58.6043 7.99324 59.0495 12.7166L53.4436 15.3799C53.4435 15.3799 53.4435 15.3799 53.4435 15.3799C51.6629 16.226 50.8882 18.249 51.5158 20.4129L52.9676 25.4338H45.1385L40.9788 23.7109C40.022 23.3173 38.9568 23.4133 38.1287 23.9676C37.3462 24.4918 36.8975 25.3325 36.8975 26.2742V33.0414C36.8971 33.9863 37.3467 34.8278 38.1303 35.3508ZM80.8978 26.2068C81.029 26.396 81.0582 26.6315 80.9848 26.9064C80.8699 27.3369 80.5309 27.7408 80.1212 27.9356L60.6482 37.1877C60.2381 37.3824 59.7108 37.3904 59.3049 37.2076C59.0451 37.0907 58.8805 36.9186 58.8163 36.6958L55.1014 23.8481L73.2878 15.2083L80.8978 26.2068ZM66.578 3.60078C66.5782 3.60078 66.5783 3.60061 66.5785 3.60061C71.014 1.49162 76.3416 3.38677 78.4531 7.82456C79.8915 10.8523 79.504 14.3687 77.5461 16.9845L77.5422 16.9802L72.8932 10.2613C71.61 8.40846 69.5503 7.73093 67.7684 8.57499L61.4922 11.5564L61.4902 11.5569C61.5263 8.20492 63.4657 5.07888 66.578 3.60078ZM54.5121 17.6294L68.8354 10.8251C69.624 10.4514 70.4113 11.0519 70.8455 11.6789L71.8519 13.1333L54.4004 21.424L53.9078 19.7203C53.6956 18.9891 53.7269 18.0026 54.5121 17.6294ZM46.1358 27.9243H53.6862L54.9089 32.1562L46.1358 31.4793V27.9243ZM39.3875 26.2743C39.3875 26.2088 39.4006 26.113 39.5145 26.0368C39.5483 26.014 39.6425 25.9612 39.7823 25.9612C39.8532 25.9612 39.9357 25.9748 40.028 26.0129L43.6453 27.511V31.8001L40.0265 33.2988C39.7501 33.414 39.563 33.3129 39.5125 33.2792C39.4016 33.2051 39.3873 33.1133 39.3873 33.0416V26.2743H39.3875Z" fill="#5B7B3B"/>
<path d="M19.8315 77.3628C19.3452 77.849 19.3452 78.6374 19.8315 79.1235L19.8361 79.1282C20.0789 79.3707 20.3958 79.4917 20.7132 79.4917C21.032 79.4917 21.351 79.3696 21.5947 79.1258C22.081 78.6396 22.0787 77.8489 21.5924 77.3626C21.106 76.8765 20.3178 76.8765 19.8315 77.3628Z" fill="#5B7B3B"/>
<path d="M31.9448 77.993C31.4585 78.4793 31.4585 79.2677 31.9448 79.7538L31.9494 79.7584C32.1921 80.001 32.5091 80.122 32.8265 80.122C33.1452 80.122 33.4643 79.9998 33.708 79.7561C34.1943 79.2698 34.192 78.4791 33.7057 77.9928C33.2193 77.5069 32.431 77.5069 31.9448 77.993Z" fill="#5B7B3B"/>
<path d="M51.3754 77.3628C50.8892 77.849 50.8892 78.6374 51.3754 79.1235L51.3801 79.1282C51.6228 79.3707 51.9397 79.4917 52.2571 79.4917C52.5759 79.4917 52.895 79.3696 53.1387 79.1258C53.6249 78.6396 53.6226 77.8489 53.1364 77.3626C52.6499 76.8765 51.8617 76.8765 51.3754 77.3628Z" fill="#5B7B3B"/>
<path d="M62.7093 80.1223C63.028 80.1223 63.3471 80.0001 63.5908 79.7564C64.0771 79.2701 64.0748 78.4794 63.5885 77.9931C63.1021 77.5069 62.3138 77.5069 61.8276 77.9931C61.3413 78.4794 61.3413 79.2678 61.8276 79.7539L61.8322 79.7585C62.0749 80.0012 62.3919 80.1223 62.7093 80.1223Z" fill="#5B7B3B"/>
<path d="M78.4084 68.2158C82.1793 67.8376 85.2471 64.4318 85.2471 60.6237V55.8517C85.2471 55.2359 84.9899 54.6507 84.5418 54.2461C84.0949 53.8425 83.4872 53.6469 82.8799 53.7094L78.0968 54.1895C76.4493 54.3572 74.9362 55.103 73.7551 56.207L73.7656 55.3513C73.7656 51.5489 70.7212 48.1682 66.9497 47.7843L62.1711 47.3045C61.5589 47.2416 60.9534 47.4377 60.5067 47.8411C60.0586 48.2459 59.8014 48.8309 59.8014 49.4467V54.2187C59.8014 58.0211 62.8684 61.4269 66.6391 61.8108L71.2649 62.278V71.2425H62.2136C61.5257 71.2425 60.9684 71.8 60.9684 72.4877C60.9684 73.1754 61.5257 73.7329 62.2136 73.7329H82.0207C82.4265 73.7329 82.7569 74.0609 82.7569 74.4642V82.022C82.7569 82.421 82.4199 82.7582 82.0207 82.7582H3.46972C3.07326 82.7582 2.73839 82.4212 2.73839 82.022V74.4642C2.73839 74.0677 3.07342 73.7329 3.46972 73.7329H56.4629C57.1507 73.7329 57.708 73.1754 57.708 72.4877C57.708 71.8 57.1507 71.2425 56.4629 71.2425H43.9902V68.6863L48.6483 68.2159C52.4192 67.8377 55.4868 64.4319 55.4868 60.6239V55.8519C55.4868 55.2368 55.2291 54.6517 54.78 54.2466C54.3318 53.8423 53.7243 53.6469 53.1197 53.7095L48.3365 54.1897C46.6873 54.3575 45.1725 55.1039 43.9901 56.209C43.9901 56.209 44.0231 55.4737 44.0231 55.3767C44.0231 51.5736 40.956 48.168 37.1846 47.7847L32.4072 47.3049C31.7985 47.2426 31.1939 47.437 30.7474 47.8398C30.2985 48.2447 30.041 48.8304 30.041 49.4471V54.219C30.041 58.0215 33.1081 61.4273 36.8788 61.8111L41.4999 62.2781V71.2427H14.2302V68.6863L18.8831 68.2161C22.654 67.8386 25.7217 64.4326 25.7217 60.624V55.852C25.7217 55.2356 25.4642 54.6497 25.0153 54.2448C24.5689 53.842 23.9639 53.6464 23.3592 53.7095L18.5761 54.1897C16.9269 54.3575 15.4121 55.1039 14.2298 56.2088C14.2298 56.2088 14.2627 55.4733 14.2627 55.3767C14.2627 51.5743 11.1956 48.1685 7.42422 47.7847L2.64674 47.3049C2.0391 47.2428 1.43378 47.4368 0.987014 47.8398C0.538089 48.2447 0.280587 48.8306 0.280587 49.4471V54.219C0.280587 58.0215 3.34769 61.4273 7.1184 61.8111L11.7396 62.2781V67.5568V71.2427H3.46972C1.69328 71.2427 0.248047 72.6879 0.248047 74.4644V82.0222C0.248047 83.8013 1.69328 85.2487 3.46972 85.2487H82.0207C83.7998 85.2487 85.2472 83.8013 85.2472 82.0222V74.4644C85.2472 72.6879 83.7998 71.2427 82.0207 71.2427H73.7553V68.6863L78.4084 68.2158ZM73.7551 61.7814C73.7551 59.2626 75.859 56.9204 78.3473 56.6671L82.7567 56.2244V60.6237C82.7567 63.1459 80.6515 65.488 78.159 65.738L75.5998 65.9967L78.7657 62.4941C79.2267 61.9839 79.1869 61.1965 78.6769 60.7354C78.1668 60.2747 77.3796 60.3139 76.918 60.8243L73.7551 64.3235V61.7814ZM71.2648 57.887L68.1303 54.4191C67.6689 53.9091 66.8816 53.8692 66.3714 54.3303C65.8612 54.7913 65.8214 55.5788 66.2826 56.089L69.4482 59.5914L66.8901 59.333C64.3974 59.0794 62.2916 56.7373 62.2916 54.2187V49.8196L66.6992 50.2622C69.192 50.5159 71.2648 52.858 71.2648 55.3766V57.887ZM43.9902 61.7814C43.9902 59.2628 46.0962 56.9207 48.5871 56.6671L52.9965 56.2244V60.6237C52.9965 63.1459 50.8915 65.488 48.399 65.738L45.8399 65.9965L49.0056 62.4941C49.4667 61.9839 49.4268 61.1965 48.9168 60.7354C48.4068 60.2747 47.6195 60.3139 47.1579 60.8243L43.9904 64.3287V61.7814H43.9902ZM36.5225 56.0891L39.6884 59.5917L37.1302 59.3332C34.6373 59.0795 32.5315 56.7374 32.5315 54.2189V49.8201L36.9346 50.2622C39.4274 50.5156 41.5001 52.8577 41.5001 55.3766V57.882L38.3702 54.4193C37.909 53.9092 37.1215 53.8694 36.6113 54.3304C36.1012 54.7915 36.0613 55.5789 36.5225 56.0891ZM14.2302 61.7814C14.2302 59.2628 16.3362 56.9207 18.827 56.6671L23.2316 56.2249V60.6237C23.2316 63.1464 21.1266 65.4883 18.6341 65.738L16.0765 65.9965L19.2447 62.4945C19.7061 61.9844 19.6667 61.1971 19.1567 60.7358C18.6474 60.2746 17.8596 60.3137 17.398 60.8238L14.2302 64.3253V61.7814ZM6.76228 56.0891L9.92817 59.5917L7.36993 59.333C4.87709 59.0794 2.77126 56.7373 2.77126 54.2187V49.8199L7.17418 50.2621C9.66702 50.5157 11.74 52.8578 11.74 55.3764V57.882L8.60995 54.4191C8.14857 53.9091 7.36129 53.8692 6.8511 54.3303C6.34092 54.7913 6.30107 55.5789 6.76228 56.0891Z" fill="#5B7B3B"/>
</g>
<defs>
<clipPath id="clip0_225_192">
<rect width="85" height="85" fill="white" transform="translate(0.248047 0.248535)"/>
</clipPath>
</defs>
</svg>
