<svg width="86" height="86" viewBox="0 0 86 86" fill="none" xmlns="http://www.w3.org/2000/svg">
<g clip-path="url(#clip0_225_204)">
<path d="M42.748 0.248535C19.2759 0.248535 0.248047 19.2764 0.248047 42.7485C0.248047 66.2206 19.2759 85.2485 42.748 85.2485C66.2201 85.2485 85.248 66.2206 85.248 42.7485C85.2215 19.2874 66.2091 0.275079 42.748 0.248535ZM42.748 82.4152C20.8408 82.4152 3.08138 64.6558 3.08138 42.7485C3.08138 20.8412 20.8408 3.08187 42.748 3.08187C64.6553 3.08187 82.4147 20.8412 82.4147 42.7485C82.3897 64.6455 64.645 82.3902 42.748 82.4152Z" fill="#5B7B3B"/>
<path d="M17.9135 19.8908C17.3345 19.3168 16.5387 19.016 15.7248 19.0635C14.9264 19.1117 14.1869 19.4995 13.6933 20.1288C8.00934 27.4208 5.27828 36.585 6.04325 45.7988C6.64533 52.9669 9.35653 59.7961 13.8349 65.4253C13.9181 65.6111 14.0403 65.7769 14.1933 65.9112C14.2032 65.9112 14.2146 65.9211 14.2231 65.9282C20.5213 73.7171 29.7217 78.603 39.7018 79.4588C40.7048 79.541 41.7078 79.582 42.7108 79.582C50.9193 79.5926 58.895 76.8545 65.3662 71.8045C65.9966 71.3111 66.3851 70.5708 66.4329 69.7716C66.4828 68.9563 66.1805 68.1588 65.6028 67.5815L17.9135 19.8908ZM27.1643 54.0523V35.6654C27.1725 34.9658 27.3535 34.2791 27.6913 33.6665L41.331 47.2948V56.9154C41.3202 61.2538 39.3756 65.3615 36.027 68.1198C30.6187 65.5346 27.1727 60.0764 27.1643 54.082V54.0523ZM42.7477 63.799C43.644 65.811 44.9054 67.6396 46.4678 69.1922C44.0265 69.8203 41.466 69.8203 39.0247 69.1922C40.5877 67.6394 41.8499 65.8109 42.7477 63.799ZM49.474 68.1212C46.1211 65.365 44.174 61.2557 44.1643 56.9154V50.1267L56.1054 62.0579C54.5417 64.6891 52.2344 66.7988 49.474 68.1212ZM15.9117 21.8954L25.6216 31.5981C24.9715 32.5434 24.5607 33.6324 24.4245 34.7715C22.3016 33.5062 20.5205 31.7407 19.2367 29.629C17.9389 27.481 16.3921 25.4938 14.6283 23.7087C15.0433 23.0967 15.4542 22.4819 15.9117 21.8954ZM13.094 26.195C14.5026 27.6948 15.7496 29.3387 16.8142 31.0995C18.6127 34.0584 21.2212 36.4403 24.331 37.9632V44.2192C22.4078 44.3512 20.5285 44.8554 18.7975 45.7039C17.0016 46.6101 15.0084 47.055 12.9977 46.9987C12.2153 46.9987 11.581 47.633 11.581 48.4154C11.581 49.1978 12.2153 49.832 12.9977 49.832C15.4043 49.8841 17.788 49.3564 19.9478 48.2936C21.3178 47.6093 22.8052 47.1911 24.331 47.061V53.2009C21.2243 54.7238 18.6188 57.1046 16.8227 60.0618C16.3027 60.9118 15.7347 61.7207 15.1468 62.5041C11.5433 57.5407 9.36931 51.6846 8.861 45.5721C8.31645 38.836 9.79006 32.0904 13.094 26.195ZM39.9243 76.6283C31.0014 75.8674 22.7405 71.6122 16.9403 64.7892C17.7721 63.7511 18.5395 62.663 19.2381 61.5309C20.5356 59.4013 22.3384 57.6247 24.4868 56.3586C25.4389 64.0303 31.083 70.2896 38.6157 72.0274C46.1483 73.7652 53.9642 70.6111 58.1808 64.1319L63.6237 69.5705C56.8902 74.8156 48.4306 77.337 39.9243 76.634V76.6283Z" fill="#5B7B3B"/>
<path d="M73.67 22.8885C68.1198 14.1674 59.1459 8.19464 48.9582 6.44118C38.7706 4.68771 28.3162 7.31651 20.1696 13.6801C19.5404 14.173 19.1529 14.9123 19.1057 15.7102C19.0568 16.5262 19.3607 17.3239 19.9401 17.9004L67.5968 65.5571C68.1317 66.0913 68.8567 66.3914 69.6127 66.3915H69.7855C70.5837 66.3448 71.3234 65.9579 71.817 65.329C77.5112 58.0324 80.2385 48.8541 79.4529 39.6321C78.9639 33.8963 77.114 28.3598 74.0568 23.4821C73.9986 23.2855 73.8981 23.1042 73.7621 22.9508C73.7324 22.9253 73.697 22.9154 73.67 22.8885ZM42.7796 8.74873C43.7288 8.74873 44.6836 8.78698 45.6385 8.86773C55.8506 9.77882 65.1109 15.2361 70.8551 23.7286C69.0971 25.5085 67.5564 27.4905 66.2651 29.6332C64.9819 31.7425 63.2023 33.506 61.0815 34.7701C60.6988 31.7397 58.4133 29.2976 55.4149 28.7152C55.0462 25.8986 53.4887 23.3747 51.1365 21.7821C50.903 19.9372 50.071 18.2198 48.7679 16.8931C48.1201 16.2543 47.3751 15.7221 46.5607 15.3164C46.8482 14.8968 47.2167 14.539 47.6445 14.2638C48.1002 14.0382 48.4001 13.5856 48.4302 13.078C48.4603 12.5704 48.216 12.0855 47.79 11.8077C47.3641 11.5298 46.8219 11.5016 46.3695 11.7336C45.2474 12.3771 44.3345 13.3303 43.7401 14.4791C43.078 14.3941 42.4076 14.3941 41.7455 14.4791C41.1564 13.333 40.2507 12.3801 39.136 11.7336C38.4464 11.3862 37.6057 11.6601 37.2532 12.3471C36.8983 13.0372 37.1602 13.8844 37.8425 14.2539C38.2761 14.5295 38.65 14.8893 38.9419 15.3121C36.4027 16.5769 34.6687 19.0326 34.3264 21.8486C33.0509 22.7263 31.999 23.8908 31.255 25.2486L21.9135 15.9156C27.8711 11.2593 35.2183 8.73579 42.7796 8.74873ZM44.1651 38.146V31.4154H54.0818C56.429 31.4154 58.3318 33.3182 58.3318 35.6654V52.3013L44.1651 38.146ZM42.7485 17.2487C44.8787 17.2142 46.836 18.4169 47.7677 20.3328C47.0507 20.1678 46.3175 20.0836 45.5818 20.0821H39.9151C39.1691 20.0914 38.4266 20.1864 37.7023 20.3654C38.6559 18.4524 40.611 17.2449 42.7485 17.2487ZM39.9151 22.9154H45.5818C48.9465 22.9196 51.8457 25.2863 52.5235 28.5821H34.5927L33.373 27.3623C34.4435 24.6852 37.0319 22.9258 39.9151 22.9154ZM41.3318 31.4154V35.3155L37.4289 31.4154H41.3318ZM69.6 63.5596L61.1198 55.0865C61.1382 54.7521 61.1651 54.4192 61.1651 54.0821V47.0611C62.691 47.1911 64.1783 47.6093 65.5483 48.2936C67.7081 49.3564 70.0919 49.8841 72.4985 49.8321C73.2809 49.8321 73.9151 49.1978 73.9151 48.4154C73.9151 47.633 73.2809 46.9987 72.4985 46.9987C70.4877 47.0551 68.4945 46.6101 66.6986 45.7039C64.9676 44.8554 63.0883 44.3512 61.1651 44.2192V37.9632C64.274 36.4409 66.882 34.06 68.6805 31.1023C69.742 29.3443 70.9866 27.7036 72.3936 26.2077C74.7763 30.3987 76.2214 35.0566 76.6295 39.8601C77.3592 48.3638 74.8483 56.8291 69.6 63.5596Z" fill="#5B7B3B"/>
</g>
<defs>
<clipPath id="clip0_225_204">
<rect width="85" height="85" fill="white" transform="translate(0.248047 0.248535)"/>
</clipPath>
</defs>
</svg>
