<svg width="86" height="86" viewBox="0 0 86 86" fill="none" xmlns="http://www.w3.org/2000/svg">
<g clip-path="url(#clip0_225_210)">
<path d="M76.1513 77.8742V67.8263L76.3514 67.515C78.2653 64.528 80.0928 62.2982 82.0984 60.5015C84.4179 58.4256 85.748 55.4521 85.748 52.3453C85.748 49.6455 84.7734 47.1085 83.0061 45.1069V5.73241H80.2642V0.248535H61.0706V5.73241H58.3287V16.7001H52.8448V22.184H50.1029V27.6679H47.361V11.2163H44.619V5.73241H40.5061V0.248535H24.0545V5.73241H19.9416V11.2163H17.1997V22.184H6.23192V27.6679H3.48998V45.1069C1.72272 47.1085 0.748047 49.6455 0.748047 52.3453C0.748047 55.4521 2.07818 58.4256 4.39771 60.5028C6.40463 62.3002 8.2308 64.5294 10.1447 67.5163L10.3448 67.8276V77.8742C4.93659 79.5946 1.79702 81.1343 1.5065 81.2796L0.748047 81.6591V85.2485H85.748V81.6591L84.9896 81.2809C84.6991 81.1343 81.5595 79.5946 76.1513 77.8742ZM58.3287 73.9173V67.932C59.5229 66.5363 60.8129 65.3849 62.1645 64.51C64.1419 63.2307 65.533 61.3102 66.1649 59.1205C66.4092 59.4277 66.6683 59.725 66.9468 60.0088C69.018 62.1201 71.3817 64.6633 73.2119 67.519L73.4093 67.8276V77.0475C69.3085 75.8767 64.2283 74.7112 58.3287 73.9173ZM29.5564 49.6061C30.0458 49.6061 30.5405 49.6569 31.0325 49.7593C33.6332 50.3022 35.7298 52.4223 36.2506 55.0337C36.7922 57.7535 35.7486 60.4312 33.5294 62.0217C32.7395 62.5881 31.8238 63.2816 30.9093 64.0782V53.7163H28.1674V56.9817L24.667 55.2325L23.44 57.6853L28.1674 60.0476V64.0206C27.409 63.3418 26.6277 62.7293 25.8204 62.2065C23.8557 60.9386 22.6835 58.7891 22.6835 56.4582C22.6835 54.3837 23.6073 52.4437 25.22 51.135C26.4497 50.1356 27.9753 49.6061 29.5564 49.6061ZM50.7857 49.1221C49.8673 49.8979 49.0787 50.8264 48.503 51.8888L48.1194 51.1196L44.619 52.8688V49.6034H41.8771V63.1089C40.7792 61.7265 39.6613 60.4981 38.6471 59.4277C39.1485 57.8801 39.2791 56.1991 38.9403 54.4988C38.5179 52.3781 37.3404 50.5057 35.7298 49.1388C37.0158 46.2007 39.919 44.1744 43.1081 44.1208C46.4546 44.0659 49.4843 46.0896 50.7857 49.1221ZM58.3287 60.0476L63.0541 57.6839L61.8271 55.2312L58.3287 56.9817V53.7163H55.5868V64.0795C54.6723 63.2829 53.7579 62.5894 52.9667 62.0231C50.7462 60.4325 49.7039 57.7549 50.2455 55.035C50.7649 52.4236 52.8629 50.3043 55.4636 49.7614C55.9556 49.6583 56.4503 49.6074 56.9397 49.6074C58.5208 49.6074 60.0478 50.1369 61.2775 51.1363C62.8888 52.4437 63.8126 54.3837 63.8126 56.4582C63.8126 58.7891 62.6404 60.9386 60.6757 62.2078C59.8684 62.7307 59.0871 63.3432 58.3287 64.022V60.0476ZM44.619 55.9347L47.5665 54.4607C47.5638 54.4727 47.5584 54.4854 47.5558 54.4988C47.2224 56.1717 47.3442 57.8265 47.8255 59.3534C46.7277 60.4312 45.6626 61.6348 44.619 63.0098V55.9347ZM30.9093 67.9347C32.2006 66.4279 33.7637 65.2269 35.1267 64.2509C36.0023 63.623 36.7319 62.8659 37.3324 62.0311C38.8105 63.6297 40.3608 65.4585 41.6796 67.519L41.8771 67.8276V72.9232C37.9958 72.9701 34.3301 73.2117 30.9093 73.5859V67.9347ZM44.619 67.8263L44.8192 67.515C46.2283 65.3173 47.6434 63.4898 49.1088 61.9488C49.7206 62.817 50.4664 63.6036 51.3708 64.2522C52.7337 65.2283 54.2954 66.4292 55.5881 67.9361V73.5859C52.1674 73.2117 48.5016 72.9701 44.6204 72.9232V67.8263H44.619ZM80.2695 58.4584C78.8524 59.7276 77.4908 61.2305 76.1513 62.9991V55.9334L80.8767 53.5697L79.6497 51.1169L76.1513 52.8688V49.6034H73.4093V63.1049C71.9313 61.2412 70.3494 59.5623 68.9042 58.0896C67.3109 56.4649 66.4775 54.3181 66.5612 52.0407C66.7152 47.7444 70.3401 44.1905 74.6417 44.1208C74.6873 44.1195 74.7334 44.1195 74.7803 44.1195C76.9532 44.1195 78.9963 44.9543 80.548 46.4805C82.1325 48.0389 83.0061 50.1215 83.0061 52.3453C83.0061 54.6735 82.008 56.9027 80.2695 58.4584ZM63.8126 2.99047H77.5222V5.73241H63.8126V2.99047ZM61.0706 8.47434H80.2642V42.8583C78.5625 41.8736 76.6245 41.3541 74.5955 41.3789C73.7166 41.3943 72.8624 41.5282 72.0384 41.7491V27.6679H66.5545V22.184H63.8126V16.7001H61.0706V8.47434ZM55.5868 19.4421H61.0706V22.184H55.5868V19.4421ZM52.8448 24.926H63.8126V27.6679H52.8448V24.926ZM69.2964 30.4098V42.7485H69.5448C66.8122 44.2688 64.7611 46.923 64.0716 50.0351C63.7429 49.6717 63.3942 49.3222 63.0066 49.0069C60.7513 47.1741 57.7992 46.4745 54.9026 47.077C54.2928 47.2042 53.7124 47.4137 53.1494 47.6567C51.9659 45.1558 49.8793 43.2406 47.3623 42.2163V30.4098H69.2964ZM26.7964 2.99047H37.7642V5.73241H26.7964V2.99047ZM22.6835 8.47434H41.8771V11.2163H22.6835V8.47434ZM19.9416 13.9582H44.619V41.482C44.1076 41.4171 43.5908 41.3695 43.0633 41.3789C38.9403 41.4472 35.1635 43.9662 33.3741 47.6688C32.8025 47.4197 32.2147 47.2069 31.5948 47.077C30.4448 46.8367 29.2887 46.8106 28.1674 46.9726V27.6679H25.4255V22.184H19.9416V13.9582ZM8.97385 24.926H22.6835V27.6679H8.97385V24.926ZM25.4255 30.4098V47.7939C24.7413 48.1173 24.09 48.5189 23.4895 49.0069C23.1019 49.3222 22.7532 49.6717 22.4245 50.0351C21.3521 45.1986 16.9841 41.4626 11.9005 41.3789C9.8528 41.3448 7.92488 41.8656 6.23192 42.8516V30.4098H25.4255ZM6.22656 58.4584C4.48808 56.9027 3.48998 54.6735 3.48998 52.3453C3.48998 50.1215 4.36357 48.0389 5.94808 46.4805C7.49846 44.9543 9.54286 44.1195 11.7158 44.1195C11.7626 44.1195 11.8088 44.1195 11.857 44.1208C16.158 44.1925 19.7823 47.7457 19.9376 52.0407C20.0199 54.3181 19.1878 56.4662 17.5946 58.0896C16.1493 59.5623 14.5675 61.2412 13.0894 63.1049V49.6034H10.3448V52.8688L6.84444 51.1196L5.61739 53.5724L10.3448 55.9347V63.0004C9.00532 61.2305 7.64372 59.7297 6.22656 58.4584ZM13.0868 67.8263L13.2829 67.519C15.1131 64.6633 17.4781 62.1201 19.5493 60.0088C19.8278 59.725 20.0869 59.4277 20.3312 59.1205C20.9631 61.3102 22.3542 63.2307 24.3316 64.51C25.6845 65.3849 26.9745 66.5376 28.1674 67.932V73.9173C22.2678 74.7112 17.1876 75.8767 13.0868 77.0475V67.8263ZM5.57388 82.5066C11.2552 80.246 25.0385 75.6518 43.248 75.6518C61.4576 75.6518 75.2409 80.246 80.9222 82.5066H5.57388Z" fill="#5B7B3B"/>
<path d="M8.97363 33.1519H11.7156V35.8938H8.97363V33.1519Z" fill="#5B7B3B"/>
<path d="M14.458 33.1519H17.1999V35.8938H14.458V33.1519Z" fill="#5B7B3B"/>
<path d="M19.9414 33.1519H22.6833V35.8938H19.9414V33.1519Z" fill="#5B7B3B"/>
<path d="M22.6836 16.7002H25.4255V19.4421H22.6836V16.7002Z" fill="#5B7B3B"/>
<path d="M30.9092 16.7002H33.6511V19.4421H30.9092V16.7002Z" fill="#5B7B3B"/>
<path d="M39.1348 16.7002H41.8767V19.4421H39.1348V16.7002Z" fill="#5B7B3B"/>
<path d="M30.9092 22.1841H33.6511V24.926H30.9092V22.1841Z" fill="#5B7B3B"/>
<path d="M39.1348 22.1841H41.8767V24.926H39.1348V22.1841Z" fill="#5B7B3B"/>
<path d="M30.9092 27.668H33.6511V30.4099H30.9092V27.668Z" fill="#5B7B3B"/>
<path d="M39.1348 27.668H41.8767V30.4099H39.1348V27.668Z" fill="#5B7B3B"/>
<path d="M30.9092 33.1519H33.6511V35.8938H30.9092V33.1519Z" fill="#5B7B3B"/>
<path d="M39.1348 33.1519H41.8767V35.8938H39.1348V33.1519Z" fill="#5B7B3B"/>
<path d="M66.5547 11.2163H69.2966V13.9582H66.5547V11.2163Z" fill="#5B7B3B"/>
<path d="M66.5547 16.7002H69.2966V19.4421H66.5547V16.7002Z" fill="#5B7B3B"/>
<path d="M72.0381 11.2163H74.78V13.9582H72.0381V11.2163Z" fill="#5B7B3B"/>
<path d="M72.0381 16.7002H74.78V19.4421H72.0381V16.7002Z" fill="#5B7B3B"/>
<path d="M66.5542 41.3777V33.1519H50.1025V41.3777H66.5542ZM63.8122 38.6357H59.6993V35.8938H63.8122V38.6357ZM52.8445 35.8938H56.9574V38.6357H52.8445V35.8938Z" fill="#5B7B3B"/>
</g>
<defs>
<clipPath id="clip0_225_210">
<rect width="85" height="85" fill="white" transform="translate(0.748047 0.248535)"/>
</clipPath>
</defs>
</svg>
