<svg width="80" height="80" viewBox="0 0 80 80" fill="none" xmlns="http://www.w3.org/2000/svg">
<circle cx="40" cy="40" r="39" fill="white" stroke="#5B7B3B" stroke-width="2"/>
<path d="M56.8546 40.304C56.6327 40.0684 56.2619 40.0575 56.0263 40.2793C55.7908 40.5011 55.7797 40.872 56.0016 41.1075C57.8243 43.0425 58.8281 45.5728 58.8281 48.2323C58.8281 53.9635 54.1655 58.6261 48.4344 58.6261C42.7037 58.6261 38.0414 53.9635 38.0414 48.2323C38.0414 42.5016 42.7037 37.8393 48.4344 37.8393C50.5502 37.8393 52.5857 38.4711 54.3207 39.6664C54.5872 39.8499 54.9521 39.7828 55.1356 39.5163C55.3193 39.2498 55.252 38.885 54.9855 38.7014C53.0541 37.3708 50.7887 36.6675 48.4345 36.6675C47.4806 36.6675 46.5538 36.7843 45.6665 37.0031C45.2371 36.5538 44.642 36.295 44.0063 36.295H43.7762C43.9645 35.9616 44.0727 35.5771 44.0727 35.1676V33.0114C44.0727 31.7436 43.0413 30.7122 41.7734 30.7122H39.2809L34.63 22.6572C34.0832 21.7107 33.1045 21.1458 32.0116 21.1458C32.0115 21.1458 32.0112 21.1458 32.011 21.1458C30.9188 21.146 29.9408 21.7108 29.3949 22.6565L24.7434 30.7122H23.2414C21.9736 30.7122 20.9422 31.7436 20.9422 33.0114V35.1676C20.9422 36.4354 21.9736 37.4668 23.2414 37.4668H23.4715C23.2831 37.8002 23.175 38.1847 23.175 38.5942V40.7504C23.175 41.1599 23.2831 41.5444 23.4715 41.8778H22.2992C21.0314 41.8778 20 42.9089 20 44.1762V46.3325C20 47.4575 20.8124 48.3958 21.8813 48.5929C21.6791 48.9351 21.5625 49.3336 21.5625 49.7591V51.9154C21.5625 52.3781 21.7004 52.809 21.9366 53.1701C21.0377 53.4828 20.3906 54.3379 20.3906 55.3419V57.4982C20.3906 58.766 21.422 59.7974 22.6898 59.7974H41.2219C42.0922 59.7974 42.8655 59.3044 43.2546 58.5709C44.8137 59.3554 46.5733 59.7979 48.4344 59.7979C54.8117 59.7979 60 54.6097 60 48.2323C60 45.2729 58.883 42.4572 56.8546 40.304ZM22.7344 51.9154V49.7591C22.7344 49.1375 23.2401 48.6318 23.8617 48.6318H36.8772C36.9307 50.2007 37.298 51.6914 37.9185 53.0427H23.8617C23.2401 53.0427 22.7344 52.537 22.7344 51.9154ZM44.1757 37.4801C41.9577 38.3617 40.0754 39.9108 38.7768 41.8779H36.0055V37.4669H41.7734H44.0063C44.0636 37.4669 44.1201 37.4717 44.1757 37.4801ZM42.9008 33.0115V35.1677C42.9008 35.7893 42.3951 36.295 41.7734 36.295H36.0055V35.7675H36.9641C38.057 35.7675 39.0355 35.2023 39.582 34.2556C40.0075 33.5184 40.0999 32.6702 39.8625 31.884H41.7734C42.3951 31.8841 42.9008 32.3898 42.9008 33.0115ZM22.1141 35.1677V33.0115C22.1141 32.3898 22.6198 31.8841 23.2414 31.8841H24.1613C24.014 32.375 23.9936 32.8955 24.1073 33.4002C24.1784 33.7159 24.4921 33.9142 24.8077 33.843C25.1234 33.7718 25.3217 33.4583 25.2505 33.1426C25.1792 32.826 25.1572 32.3393 25.4574 31.8191L30.4098 23.2425C30.744 22.6636 31.3427 22.3179 32.0113 22.3177H32.0116C32.6809 22.3177 33.2805 22.6637 33.6152 23.2433L38.5669 31.8192C38.9015 32.3984 38.9016 33.0903 38.567 33.6698C38.2324 34.2495 37.6332 34.5956 36.9641 34.5956H35.4195C35.0959 34.5956 34.8336 34.8579 34.8336 35.1815V44.2198C34.8336 44.7423 34.4085 45.1675 33.8859 45.1675H30.1391C29.6166 45.1675 29.1914 44.7424 29.1914 44.2198V35.1815C29.1914 34.8579 28.9291 34.5956 28.6055 34.5956H27.0602C26.8376 34.5956 26.6229 34.5586 26.4221 34.4856C26.1178 34.3749 25.7818 34.5318 25.6713 34.836C25.5606 35.1401 25.7175 35.4763 26.0216 35.5868C26.3512 35.7067 26.7005 35.7675 27.0602 35.7675H28.0195V36.295H25.4742H23.2414C22.6198 36.295 22.1141 35.7893 22.1141 35.1677ZM24.3469 40.7505V38.5943C24.3469 37.9726 24.8526 37.4669 25.4742 37.4669H28.0195V41.8779H25.4742C24.8526 41.8779 24.3469 41.3722 24.3469 40.7505ZM21.1719 46.3325V44.1763C21.1719 43.5551 21.6776 43.0497 22.2992 43.0497H25.4742H28.0195V44.2198C28.0195 45.3885 28.9703 46.3393 30.1391 46.3393H33.8859C35.0546 46.3393 36.0055 45.3886 36.0055 44.2198V43.0497H38.0979C37.4221 44.3922 37.0005 45.8832 36.8959 47.4599H23.8617H22.2992C21.6776 47.4599 21.1719 46.9542 21.1719 46.3325ZM41.2219 58.6255H22.6898C22.0682 58.6255 21.5625 58.1198 21.5625 57.4982V55.3419C21.5625 54.7203 22.0682 54.2146 22.6898 54.2146H23.8617H38.54C39.4651 55.7391 40.7324 57.0337 42.2345 57.9915C42.0501 58.3688 41.6616 58.6255 41.2219 58.6255Z" fill="#5B7B3B"/>
<path d="M49.5913 47.6243C49.384 47.5639 49.1716 47.5005 48.9599 47.4342V44.8379C49.589 44.9309 49.9648 45.1958 49.9931 45.2164C50.2506 45.4088 50.6156 45.3578 50.8104 45.1014C51.0061 44.8437 50.9559 44.4761 50.6982 44.2804C50.6605 44.2517 50.013 43.772 48.9599 43.6588V43.1526C48.9599 42.829 48.6977 42.5667 48.374 42.5667C48.0503 42.5667 47.7881 42.829 47.7881 43.1526V43.6963C47.675 43.7154 47.5595 43.7392 47.4415 43.7685C46.4537 44.0136 45.7162 44.7673 45.5626 45.6886C45.4331 46.4658 45.7501 47.2053 46.39 47.6187C46.742 47.846 47.1821 48.0545 47.7881 48.2757V51.5644C47.1798 51.5388 46.7777 51.4363 46.1159 51.0798C45.8309 50.9263 45.4756 51.0328 45.3222 51.3177C45.1687 51.6026 45.2752 51.958 45.5601 52.1115C46.4349 52.5827 47.0012 52.7092 47.7881 52.737V53.3124C47.7881 53.6359 48.0504 53.8983 48.3741 53.8983C48.6977 53.8983 48.96 53.6359 48.96 53.3124V52.6989C50.5036 52.4684 51.4442 51.3724 51.5953 50.2918C51.7653 49.0752 50.9787 48.0282 49.5913 47.6243ZM47.0259 46.6342C46.6731 46.4064 46.6934 46.0317 46.7185 45.8812C46.7795 45.5151 47.0756 45.0666 47.7236 44.9059C47.7453 44.9005 47.7666 44.896 47.788 44.8911V47.0184C47.4974 46.8976 47.2356 46.7697 47.0259 46.6342ZM50.4346 50.1295C50.3523 50.7182 49.83 51.3141 48.9599 51.5066V48.6596C49.0583 48.6892 49.1589 48.7191 49.2637 48.7495C50.0966 48.992 50.5233 49.4949 50.4346 50.1295Z" fill="#5B7B3B"/>
<path d="M48.4347 40.2327C44.0237 40.2327 40.4351 43.8213 40.4351 48.2324C40.4351 52.6435 44.0237 56.2321 48.4347 56.2321C52.8458 56.2321 56.4344 52.6434 56.4344 48.2324C56.4344 43.8213 52.8458 40.2327 48.4347 40.2327ZM48.4347 55.0602C44.6699 55.0602 41.6069 51.9973 41.6069 48.2324C41.6069 44.4674 44.6699 41.4045 48.4347 41.4045C52.1996 41.4045 55.2626 44.4674 55.2626 48.2324C55.2626 51.9973 52.1996 55.0602 48.4347 55.0602Z" fill="#5B7B3B"/>
<path d="M48.5551 32.8658L48.5999 33.0331C48.6 33.0331 48.6 33.0332 48.6 33.0332C48.8073 33.8069 49.5143 34.3283 50.2897 34.3283C50.4 34.3283 50.5118 34.3177 50.6236 34.2958L52.467 33.9349C52.9405 33.8423 53.3586 33.5543 53.614 33.145C53.8694 32.7357 53.9442 32.2337 53.8193 31.7677L53.708 31.352C53.583 30.886 53.2672 30.4887 52.8414 30.2619C52.4155 30.0351 51.9096 29.9949 51.4532 30.1513L49.6764 30.7605C48.8108 31.0573 48.3183 31.9821 48.5551 32.8658ZM50.0565 31.8691L51.8333 31.26C51.9858 31.2076 52.1483 31.2206 52.2906 31.2964C52.433 31.3722 52.5344 31.4998 52.5761 31.6555L52.6874 32.0712C52.7291 32.2269 52.7051 32.388 52.6198 32.5248C52.5344 32.6617 52.4002 32.7541 52.242 32.7851L50.3986 33.1459C50.1018 33.2038 49.81 33.0212 49.732 32.7301L49.6872 32.5627C49.6091 32.2715 49.7713 31.9669 50.0565 31.8691Z" fill="#5B7B3B"/>
<path d="M45.9132 28.2898C46.2519 28.6285 46.7002 28.7997 47.1496 28.7997C47.5586 28.7997 47.9683 28.6578 48.297 28.3714L49.713 27.1372C50.0767 26.8202 50.2948 26.3619 50.3113 25.8797C50.3279 25.3975 50.1416 24.9253 49.8005 24.5842L49.4962 24.2799C49.1551 23.9388 48.6832 23.7521 48.2007 23.7691C47.7186 23.7856 47.2602 24.0037 46.9433 24.3674L45.709 25.7834C45.1079 26.4732 45.1437 27.5203 45.7907 28.1673L45.9132 28.2898ZM46.5925 26.5534L47.8268 25.1374C47.9326 25.0159 48.0797 24.9459 48.241 24.9404C48.2478 24.9402 48.2547 24.94 48.2615 24.94C48.415 24.94 48.5586 24.9995 48.6677 25.1086L48.972 25.4129C49.086 25.5269 49.1458 25.6784 49.1402 25.8396C49.1347 26.0008 49.0647 26.1479 48.9432 26.2538L47.5271 27.488C47.3001 27.686 46.9551 27.6742 46.7419 27.4611L46.6195 27.3387C46.4063 27.1255 46.3945 26.7806 46.5925 26.5534Z" fill="#5B7B3B"/>
<path d="M41.0474 25.4806L41.2146 25.5254C41.3642 25.5655 41.5151 25.5847 41.6639 25.5847C42.3935 25.5847 43.0734 25.1231 43.3199 24.4041L43.929 22.6274C44.0855 22.1709 44.0451 21.665 43.8184 21.2391C43.5916 20.8134 43.1942 20.4975 42.7283 20.3727L42.3128 20.2613C41.8467 20.1364 41.3447 20.2113 40.9353 20.4667C40.526 20.7221 40.2381 21.1402 40.1455 21.6136L39.7846 23.457C39.6089 24.3549 40.1636 25.2438 41.0474 25.4806ZM40.9347 23.682L41.2956 21.8387C41.3265 21.6805 41.4189 21.5463 41.5557 21.4609C41.6486 21.403 41.7528 21.3733 41.8589 21.3733C41.909 21.3733 41.9595 21.3799 42.0095 21.3933L42.425 21.5046C42.5808 21.5463 42.7083 21.6477 42.7841 21.79C42.8599 21.9324 42.8729 22.0948 42.8206 22.2474L42.2114 24.0241C42.1137 24.3092 41.8092 24.4713 41.5179 24.3935C41.5179 24.3935 41.5179 24.3935 41.5178 24.3935L41.3506 24.3488C41.0595 24.2706 40.8768 23.9778 40.9347 23.682Z" fill="#5B7B3B"/>
</svg>
