<svg width="80" height="80" viewBox="0 0 80 80" fill="none" xmlns="http://www.w3.org/2000/svg">
<circle cx="40" cy="40" r="39" fill="white" stroke="#5B7B3B" stroke-width="2"/>
<g clip-path="url(#clip0_51_120)">
<path d="M58.6934 47.7935C58.3237 46.9978 57.6527 46.3821 56.8282 46.0822C56.0037 45.7822 55.0936 45.823 54.2992 46.195L45.7226 50.1878C46.2914 49.1626 46.2753 47.9134 45.6809 46.9031C45.0862 45.8928 44.0015 45.2725 42.8293 45.2722H32.9004C31.1108 45.2709 29.4812 46.3023 28.7165 47.9199H26.9431V45.9341C26.9431 45.5686 26.6467 45.2722 26.2812 45.2722H19.6619C19.2964 45.2722 19 45.5686 19 45.9341V59.1726C19 59.5382 19.2964 59.8345 19.6619 59.8345H26.2812C26.6467 59.8345 26.9431 59.5382 26.9431 59.1726V57.8488H44.2278C44.7113 57.8484 45.1887 57.7424 45.6272 57.5391L57.0971 52.1927C58.7461 51.4128 59.4585 49.4496 58.6934 47.7935ZM25.6192 58.5107H20.3238V46.5961H25.6192V58.5107ZM56.5357 50.9939L45.0678 56.3391C44.8047 56.4612 44.518 56.5246 44.2278 56.5249H26.9431V49.2438H29.1606C29.4421 49.2438 29.6929 49.065 29.7853 48.799C30.2501 47.4774 31.4993 46.5938 32.9004 46.5961H42.8293C43.9259 46.5961 44.815 47.4852 44.815 48.5818C44.815 49.6788 43.9259 50.5676 42.8293 50.5676H36.8719V51.8915H44.4676C44.9501 51.8908 45.4265 51.7851 45.8642 51.5818L54.8596 47.3937C55.8492 46.9303 57.0273 47.3572 57.4902 48.3469C57.6123 48.6116 57.6757 48.8995 57.6763 49.1908C57.676 49.9616 57.2319 50.6633 56.5357 50.9939Z" fill="#5B7B3B"/>
<path d="M43.4911 26.0764V24.7526C43.4911 22.1938 41.4167 20.1191 38.8576 20.1191C36.2985 20.1191 34.2241 22.1938 34.2241 24.7526V26.0764C34.2241 28.6356 36.2985 30.7099 38.8576 30.7099C41.4167 30.7099 43.4911 28.6356 43.4911 26.0764ZM38.8576 21.443C40.4297 21.4449 41.7842 22.5509 42.101 24.0907H39.2668L38.7913 23.133C38.6963 22.943 38.5156 22.8105 38.3059 22.7762C38.0961 22.7423 37.8828 22.8108 37.7322 22.9608L36.5977 24.0907H35.6142C35.931 22.5509 37.2855 21.4449 38.8576 21.443ZM38.8576 29.3861C37.0305 29.3841 35.5502 27.9035 35.548 26.0764V25.4145H36.8718C37.0473 25.4145 37.2157 25.3447 37.3398 25.2206L38.0143 24.5461L38.2652 25.0487C38.3773 25.273 38.6068 25.4148 38.8576 25.4145H42.1672V26.0764C42.1649 27.9035 40.6847 29.3841 38.8576 29.3861Z" fill="#5B7B3B"/>
<path d="M31.5765 43.9482H46.1388C46.8699 43.9482 47.4627 43.3554 47.4627 42.6243V37.9909C47.4627 36.8936 47.2138 35.8102 46.7345 34.8231C45.5109 32.3167 42.9705 30.7223 40.1815 30.7097H37.5338C33.5145 30.7146 30.2575 33.9715 30.2527 37.9909V42.6243C30.2527 43.3554 30.8454 43.9482 31.5765 43.9482ZM45.5432 35.4023C45.9372 36.2081 46.1411 37.0937 46.1388 37.9909V42.6243H39.5196V36.2792L43.0199 32.7789C44.113 33.37 44.9947 34.2869 45.5432 35.4023ZM40.1815 32.0336C40.6903 32.0368 41.1964 32.106 41.6873 32.2394L38.8577 35.0691L36.0287 32.2394C36.5193 32.106 37.0254 32.0368 37.5338 32.0336H40.1815ZM31.5765 37.9909C31.5736 37.0933 31.7772 36.2071 32.1722 35.4007C32.7204 34.286 33.6024 33.3694 34.6955 32.7789L38.1958 36.2792V42.6243H31.5765V37.9909Z" fill="#5B7B3B"/>
<path d="M41.5054 36.667H44.1531V37.9908H41.5054V36.667Z" fill="#5B7B3B"/>
</g>
<defs>
<clipPath id="clip0_51_120">
<rect width="40" height="40" fill="white" transform="translate(19 20)"/>
</clipPath>
</defs>
</svg>
