<svg width="80" height="80" viewBox="0 0 80 80" fill="none" xmlns="http://www.w3.org/2000/svg">
<circle cx="40" cy="40" r="39" fill="white" stroke="#5B7B3B" stroke-width="2"/>
<path d="M45.789 32.721C41.8989 26.9979 36.7033 23.9561 33.9824 25.8199C33.6828 26.0308 33.4224 26.2927 33.2132 26.5935C33.2132 26.6155 26.9143 39.3627 26.9143 39.3627L23.3978 41.7451C22.8579 42.1116 22.3956 42.5808 22.0372 43.126C21.6787 43.6712 21.4312 44.2816 21.3087 44.9225C21.1863 45.5634 21.1913 46.2221 21.3235 46.861C21.4556 47.4999 21.7124 48.1066 22.0791 48.6462L22.2373 48.8792C22.9785 49.9589 24.1155 50.7028 25.4016 50.9497C26.6878 51.1966 28.0194 50.9264 29.1077 50.1979L34.756 58.5188C35.5868 59.5429 37.1824 60.5627 39.1516 59.3627C39.5005 59.1365 39.7981 58.8397 40.0252 58.4914C40.2523 58.1432 40.4039 57.7512 40.4703 57.3407C40.5499 56.9325 40.5477 56.5125 40.4639 56.1051C40.3802 55.6977 40.2165 55.3109 39.9824 54.9671L35.0066 47.6264C35.0066 47.6264 46.7692 46.6902 46.8132 46.6726C47.1804 46.5957 47.5286 46.4463 47.8373 46.233C49.2351 45.2836 49.7362 43.2924 49.2527 40.6242C48.8176 38.1671 47.5824 35.3847 45.789 32.721ZM23.5165 48.0133L23.3582 47.7803C23.1052 47.4078 22.9282 46.9891 22.8372 46.5482C22.7462 46.1072 22.7431 45.6526 22.828 45.2104C22.9129 44.7683 23.0842 44.3472 23.3321 43.9713C23.58 43.5954 23.8995 43.2721 24.2725 43.0199L27.3099 40.9539L31.3186 46.8572L28.2813 48.9232C27.9087 49.1765 27.4899 49.3539 27.0488 49.4453C26.6076 49.5366 26.1528 49.5402 25.7103 49.4557C25.2678 49.3712 24.8463 49.2003 24.4698 48.9528C24.0934 48.7053 23.7694 48.386 23.5165 48.0133ZM38.7165 55.833C38.9567 56.1905 39.0453 56.6287 38.9629 57.0514C38.8805 57.4741 38.6338 57.8469 38.2769 58.088C37.9187 58.3285 37.4799 58.4172 37.0564 58.3348C36.633 58.2524 36.2594 58.0056 36.0176 57.6484L30.3868 49.3539L32.6505 47.8155L33.2483 47.7671L38.7165 55.833ZM32.7736 46.2594L28.4044 39.8242L32.5714 31.3275C32.9758 33.7144 34.1582 36.5495 36.0483 39.3319C37.9384 42.1144 40.1362 44.2594 42.2022 45.5166L32.7736 46.2594ZM45.7406 45.2352C43.6395 45.099 40.2197 42.7297 37.323 38.4616C34.4263 34.1935 33.4857 30.1539 34.1318 28.1451C34.2485 27.7681 34.4814 27.4375 34.7971 27.2007C35.1129 26.9639 35.4954 26.8329 35.8901 26.8264C37.9736 26.8264 41.5208 29.2089 44.5011 33.6001C46.1802 36.0704 47.4022 38.655 47.7362 40.9144C48.3912 45.2352 45.7406 45.2352 45.7406 45.2352Z" fill="#5B7B3B"/>
<path d="M40.2946 32.8838C39.7561 32.778 39.202 32.7807 38.6647 32.8916C38.1273 33.0026 37.6174 33.2196 37.1649 33.5299C37.0815 33.5876 37.0103 33.6612 36.9553 33.7465C36.9003 33.8317 36.8627 33.927 36.8445 34.0268C36.8264 34.1266 36.828 34.229 36.8494 34.3281C36.8708 34.4273 36.9116 34.5212 36.9693 34.6046C37.027 34.688 37.1006 34.7593 37.1859 34.8142C37.2711 34.8692 37.3663 34.9068 37.4661 34.925C37.5659 34.9432 37.6683 34.9415 37.7675 34.9201C37.8666 34.8987 37.9606 34.858 38.044 34.8002C38.3306 34.6057 38.6527 34.4695 38.992 34.3995C39.3312 34.3294 39.6809 34.3269 40.0211 34.392C40.3613 34.4571 40.6854 34.5886 40.9747 34.7789C41.2641 34.9693 41.5132 35.2147 41.7078 35.5013C41.9023 35.7879 42.0385 36.11 42.1085 36.4493C42.1785 36.7885 42.1811 37.1382 42.116 37.4784C42.0509 37.8186 41.9194 38.1427 41.7291 38.4321C41.5387 38.7215 41.2933 38.9705 41.0067 39.1651C40.8715 39.2584 40.7698 39.3925 40.7164 39.5478C40.6629 39.7031 40.6606 39.8714 40.7098 40.0281C40.7589 40.1848 40.8569 40.3217 40.9894 40.4187C41.1219 40.5157 41.282 40.5678 41.4462 40.5673C41.6029 40.5702 41.7566 40.5241 41.8858 40.4354C42.5695 39.9723 43.1003 39.3166 43.4111 38.5515C43.7218 37.7864 43.7985 36.9463 43.6314 36.1376C43.4643 35.3289 43.0609 34.588 42.4724 34.0088C41.8838 33.4295 41.1366 33.038 40.3253 32.8838H40.2946Z" fill="#5B7B3B"/>
<path d="M46.7384 27.3715H46.8131C47.0033 27.3715 47.1868 27.3009 47.3281 27.1734C47.4693 27.046 47.5583 26.8707 47.5779 26.6814L48.1713 20.9144C48.1848 20.8124 48.1777 20.7088 48.1505 20.6096C48.1232 20.5104 48.0764 20.4177 48.0126 20.3369C47.9489 20.2562 47.8696 20.189 47.7795 20.1394C47.6894 20.0899 47.5902 20.0589 47.4879 20.0483C47.3856 20.0377 47.2822 20.0477 47.1838 20.0778C47.0854 20.1079 46.9941 20.1574 46.9152 20.2234C46.8363 20.2894 46.7714 20.3706 46.7244 20.4621C46.6775 20.5536 46.6493 20.6536 46.6417 20.7562L46.0526 26.5276C46.0317 26.7304 46.0922 26.9332 46.2208 27.0915C46.3494 27.2498 46.5355 27.3505 46.7384 27.3715Z" fill="#5B7B3B"/>
<path d="M56.6814 26.1848C56.5685 26.0146 56.3928 25.8959 56.1926 25.8547C55.9925 25.8136 55.7843 25.8532 55.6133 25.9651L50.255 29.4815C50.1159 29.5734 50.0104 29.708 49.9544 29.865C49.8984 30.0221 49.8949 30.1931 49.9445 30.3523C49.9941 30.5114 50.094 30.6502 50.2293 30.7476C50.3646 30.8451 50.5279 30.8959 50.6946 30.8925C50.8501 30.8961 51.0031 30.8533 51.1342 30.7695L56.4924 27.253C56.6586 27.136 56.7718 26.958 56.8072 26.7579C56.8426 26.5578 56.7974 26.3517 56.6814 26.1848Z" fill="#5B7B3B"/>
<path d="M58.3208 35.5737L52.0878 34.4528C51.8867 34.4167 51.6795 34.4619 51.5117 34.5786C51.344 34.6952 51.2294 34.8737 51.1933 35.0748C51.1572 35.2759 51.2024 35.4831 51.319 35.6509C51.4357 35.8186 51.6142 35.9332 51.8153 35.9693L58.0439 37.0902H58.1801C58.3761 37.0959 58.5669 37.0266 58.7135 36.8964C58.8601 36.7661 58.9514 36.5848 58.9688 36.3895C58.9862 36.1942 58.9283 35.9997 58.8071 35.8456C58.6858 35.6915 58.5103 35.5895 58.3164 35.5605L58.3208 35.5737Z" fill="#5B7B3B"/>
</svg>
