<svg width="80" height="80" viewBox="0 0 80 80" fill="none" xmlns="http://www.w3.org/2000/svg">
<circle cx="40" cy="40" r="39" fill="white" stroke="#5B7B3B" stroke-width="2"/>
<path d="M57.5307 34.4612L38.3796 24.8855C38.1406 24.766 37.8593 24.766 37.6204 24.8855L18.4692 34.4612C18.1816 34.605 18 34.8988 18 35.2204C18 35.5419 18.1816 35.8358 18.4692 35.9795L24.5987 39.0443V44.3314C24.5987 45.1736 24.9609 45.982 25.5929 46.5496C29.0049 49.6102 33.4111 51.2959 38 51.2959C42.5888 51.2959 46.995 49.6103 50.4075 46.5492C51.0391 45.9819 51.4013 45.1736 51.4013 44.3314V39.0443L53.4366 38.0266V44.634C52.52 44.9786 51.8658 45.8639 51.8658 46.8995C51.8658 47.8543 52.4217 48.6814 53.2268 49.0747L51.7666 54.1196C51.6924 54.3759 51.7431 54.6521 51.9034 54.8655C52.0637 55.0788 52.315 55.2043 52.5819 55.2043H55.9888C56.2557 55.2043 56.507 55.0788 56.6673 54.8655C56.8277 54.6522 56.8784 54.376 56.8041 54.1196L55.3439 49.0746C56.149 48.6812 56.7049 47.8542 56.7049 46.8994C56.7049 45.8639 56.0508 44.9786 55.1341 44.6339V37.1777L57.5307 35.9794C57.8183 35.8357 57.9999 35.5418 57.9999 35.2203C57.9999 34.8988 57.8183 34.605 57.5307 34.4612ZM49.7037 44.3314C49.7037 44.6925 49.5467 45.0405 49.2736 45.2859C46.1735 48.0668 42.1697 49.5983 38 49.5983C33.8302 49.5983 29.8265 48.0668 26.7267 45.2863C26.453 45.0405 26.2962 44.6925 26.2962 44.3314V39.893L37.6204 45.5551C37.7399 45.6149 37.8699 45.6447 38 45.6447C38.13 45.6447 38.26 45.6149 38.3796 45.5551L49.7037 39.893V44.3314ZM53.7112 53.5068L54.2854 51.5231L54.8596 53.5068H53.7112ZM54.2853 47.6215C53.8872 47.6215 53.5633 47.2976 53.5633 46.8995C53.5633 46.5014 53.8872 46.1775 54.2853 46.1775C54.6834 46.1775 55.0073 46.5014 55.0073 46.8995C55.0074 47.2976 54.6834 47.6215 54.2853 47.6215ZM54.1206 35.7867L38.0743 34.3748C37.6074 34.3342 37.1955 34.679 37.1544 35.1459C37.1133 35.6129 37.4586 36.0248 37.9255 36.0659L51.2223 37.2358L38 43.847L20.7466 35.2204L38 26.5937L55.2532 35.2204L54.1206 35.7867Z" fill="#5B7B3B"/>
</svg>
