<svg width="80" height="80" viewBox="0 0 80 80" fill="none" xmlns="http://www.w3.org/2000/svg">
<circle cx="40" cy="40" r="39" fill="white" stroke="#5B7B3B" stroke-width="2"/>
<g clip-path="url(#clip0_51_131)">
<path d="M53.3137 24.6863C47.0651 18.4379 36.8982 18.4379 30.6497 24.6863C24.5865 30.7496 24.4068 40.5023 30.1106 46.7844L27.9501 48.9449L26.7845 47.7793C26.6379 47.6328 26.4392 47.5505 26.232 47.5505C26.0248 47.5505 25.826 47.6328 25.6795 47.7793L18.9406 54.5183C18.334 55.1248 18 55.9312 18 56.7889C18 57.6467 18.334 58.453 18.9405 59.0595C19.547 59.6659 20.3534 60 21.2111 60C22.0688 60 22.8751 59.6659 23.4817 59.0595L30.2207 52.3206C30.3672 52.1741 30.4495 51.9753 30.4495 51.768C30.4495 51.5608 30.3672 51.362 30.2207 51.2155L29.0551 50.05L31.2156 47.8895C34.2606 50.6542 38.1212 52.0366 41.9817 52.0366C46.0855 52.0366 50.1894 50.4745 53.3137 47.3503C59.5621 41.1018 59.5621 30.9348 53.3137 24.6863ZM22.3766 57.9544C22.0653 58.2657 21.6514 58.4372 21.2111 58.4372C20.7708 58.4372 20.3568 58.2658 20.0456 57.9544C19.7342 57.6431 19.5628 57.2291 19.5628 56.7889C19.5628 56.3487 19.7342 55.9347 20.0456 55.6234L26.232 49.4369L28.5631 51.768L22.3766 57.9544ZM52.2086 46.2451C46.5695 51.8843 37.3939 51.8843 31.7548 46.2452C26.1157 40.606 26.1157 31.4305 31.7548 25.7914C34.5744 22.9718 38.278 21.562 41.9817 21.562C45.6853 21.562 49.389 22.9718 52.2085 25.7914C57.8477 31.4305 57.8477 40.606 52.2086 46.2451Z" fill="#5B7B3B"/>
<path d="M54.5482 35.8656C54.4877 35.5436 54.2153 35.292 53.8934 35.2451C53.569 35.1979 53.2357 35.3677 53.0878 35.6612C52.9406 35.9532 52.9875 36.3124 53.2122 36.5521C53.4327 36.7872 53.783 36.8626 54.0809 36.74C54.4205 36.6002 54.6213 36.2257 54.5482 35.8656Z" fill="#5B7B3B"/>
<path d="M53.4687 38.8437C53.0571 38.7138 52.6182 38.9422 52.4884 39.3538C51.9533 41.0497 51.0413 42.5503 49.7775 43.8142C47.6952 45.8964 44.9266 47.0433 41.9817 47.0433C39.0368 47.0433 36.2682 45.8965 34.1859 43.8142C29.8873 39.5156 29.8873 32.5213 34.1859 28.2227C36.2682 26.1403 39.0368 24.9935 41.9817 24.9935C44.9266 24.9935 47.6952 26.1403 49.7775 28.2227C51.0271 29.4723 51.9661 31.0196 52.4929 32.6972C52.6221 33.109 53.0608 33.3379 53.4725 33.2086C53.8842 33.0793 54.1132 32.6407 53.9839 32.229C53.3819 30.312 52.3095 28.5445 50.8825 27.1175C48.505 24.74 45.344 23.4307 41.9817 23.4307C38.6194 23.4307 35.4584 24.74 33.0808 27.1175C28.1729 32.0255 28.1729 40.0113 33.0808 44.9192C35.4584 47.2967 38.6193 48.6061 41.9817 48.6061C45.344 48.6061 48.505 47.2968 50.8825 44.9192C52.3053 43.4965 53.376 41.7346 53.9788 39.8241C54.1086 39.4124 53.8803 38.9735 53.4687 38.8437Z" fill="#5B7B3B"/>
<path d="M44.0618 32.0104L41.0328 35.0395L39.9015 33.908C38.8912 32.8978 37.2476 32.8978 36.2374 33.908C35.2272 34.9182 35.2272 36.5619 36.2374 37.5721L39.6758 41.0105C40.05 41.3846 40.5414 41.5717 41.0329 41.5717C41.5244 41.5717 42.0159 41.3846 42.39 41.0105L47.726 35.6744C48.7362 34.6642 48.7362 33.0206 47.726 32.0103C47.726 32.0103 47.726 32.0103 47.726 32.0102C46.7157 31.0001 45.072 31.0002 44.0618 32.0104ZM46.6209 34.5694L41.2849 39.9055C41.1459 40.0445 40.9198 40.0445 40.7808 39.9055L37.3425 36.4672C36.9416 36.0663 36.9416 35.4141 37.3425 35.0132C37.5429 34.8128 37.8062 34.7125 38.0695 34.7125C38.3328 34.7125 38.5961 34.8128 38.7964 35.0131L40.4804 36.697C40.6269 36.8436 40.8257 36.9259 41.0329 36.9259C41.2401 36.9259 41.4389 36.8436 41.5854 36.697L45.1669 33.1155C45.5678 32.7146 46.2201 32.7146 46.6209 33.1154C47.0217 33.5163 47.0217 34.1685 46.6209 34.5694Z" fill="#5B7B3B"/>
</g>
<defs>
<clipPath id="clip0_51_131">
<rect width="40" height="40" fill="white" transform="translate(18 20)"/>
</clipPath>
</defs>
</svg>
