<svg width="17" height="17" viewBox="0 0 17 17" fill="none" xmlns="http://www.w3.org/2000/svg">
<path d="M8.35523 0.522949C5.30061 0.522949 2.81543 3.00813 2.81543 6.06275C2.81543 9.90209 8.36068 16.4604 8.36068 16.4604C8.36068 16.4604 13.895 9.71328 13.895 6.06275C13.895 3.00813 11.4099 0.522949 8.35523 0.522949ZM10.0267 7.6848C9.56581 8.1456 8.96057 8.37604 8.35523 8.37604C7.74998 8.37604 7.14455 8.1456 6.68385 7.6848C5.76217 6.76322 5.76217 5.26364 6.68385 4.34196C7.13015 3.89547 7.72382 3.64956 8.35523 3.64956C8.98664 3.64956 9.58021 3.89556 10.0267 4.34196C10.9484 5.26364 10.9484 6.76322 10.0267 7.6848Z" fill="#5B7B3B"/>
</svg>
