<svg width="31" height="30" viewBox="0 0 31 30" fill="none" xmlns="http://www.w3.org/2000/svg">
<g clip-path="url(#clip0_11_42)">
<path d="M15.5 18.0762C17.1989 18.0762 18.5762 16.6989 18.5762 15C18.5762 13.3011 17.1989 11.9238 15.5 11.9238C13.8011 11.9238 12.4238 13.3011 12.4238 15C12.4238 16.6989 13.8011 18.0762 15.5 18.0762Z" fill="#5B7B3B"/>
<path d="M15.5 0.351562C7.4099 0.351562 0.851562 6.9099 0.851562 15C0.851562 23.0901 7.4099 29.6484 15.5 29.6484C23.5901 29.6484 30.1484 23.0901 30.1484 15C30.1484 6.9099 23.5901 0.351562 15.5 0.351562ZM24.5503 18.723C24.48 20.1157 24.0886 21.489 23.0737 22.4931C22.049 23.5068 20.6691 23.8845 19.2631 23.9541H11.737C10.3307 23.8845 8.95109 23.5071 7.92635 22.4931C6.91139 21.489 6.5201 20.1157 6.44979 18.723V11.277C6.5201 9.8843 6.91145 8.51098 7.92635 7.5068C8.95109 6.49312 10.3309 6.11543 11.737 6.04588H19.263C20.6693 6.11543 22.0489 6.49295 23.0737 7.5068C24.0886 8.51098 24.4799 9.8843 24.5502 11.277L24.5503 18.723Z" fill="#5B7B3B"/>
<path d="M19.1679 7.74246C17.3348 7.69219 13.6656 7.69219 11.8325 7.74246C10.8785 7.76865 9.79704 8.00613 9.11735 8.73211C8.41106 9.48674 8.14416 10.3985 8.11709 11.4184C8.06951 13.2086 8.11709 18.5816 8.11709 18.5816C8.14809 19.6014 8.41106 20.5133 9.11735 21.2679C9.79704 21.9941 10.8785 22.2314 11.8325 22.2576C13.6656 22.3078 17.3348 22.3078 19.1679 22.2576C20.1219 22.2314 21.2034 21.9939 21.883 21.2679C22.5893 20.5133 22.8562 19.6016 22.8833 18.5816V11.4184C22.8562 10.3985 22.5893 9.48674 21.883 8.73211C21.2031 8.0059 20.1217 7.76865 19.1679 7.74246ZM15.5 19.7681C14.5569 19.7681 13.6351 19.4884 12.851 18.9645C12.0669 18.4406 11.4557 17.6959 11.0948 16.8247C10.734 15.9534 10.6395 14.9947 10.8235 14.0698C11.0075 13.1449 11.4616 12.2953 12.1284 11.6285C12.7953 10.9616 13.6448 10.5075 14.5698 10.3236C15.4947 10.1396 16.4534 10.234 17.3246 10.5949C18.1959 10.9558 18.9405 11.5669 19.4645 12.351C19.9884 13.1351 20.268 14.057 20.268 15C20.268 16.2646 19.7657 17.4774 18.8715 18.3715C17.9773 19.2657 16.7645 19.7681 15.5 19.7681ZM20.2883 11.2161C20.0997 11.2161 19.9154 11.1601 19.7586 11.0553C19.6018 10.9505 19.4796 10.8015 19.4074 10.6273C19.3353 10.453 19.3165 10.2613 19.3533 10.0763C19.3901 9.89137 19.4809 9.72148 19.6143 9.58813C19.7477 9.45479 19.9176 9.36399 20.1026 9.32722C20.2876 9.29044 20.4793 9.30934 20.6535 9.38152C20.8278 9.4537 20.9767 9.57593 21.0815 9.73275C21.1862 9.88956 21.2422 10.0739 21.2422 10.2625C21.2422 10.3878 21.2175 10.5118 21.1695 10.6275C21.1216 10.7432 21.0513 10.8484 20.9628 10.9369C20.8742 11.0255 20.769 11.0957 20.6533 11.1436C20.5376 11.1915 20.4136 11.2162 20.2883 11.2161Z" fill="#5B7B3B"/>
</g>
<defs>
<clipPath id="clip0_11_42">
<rect width="30" height="30" fill="white" transform="translate(0.5)"/>
</clipPath>
</defs>
</svg>
