<svg width="20" height="20" viewBox="0 0 20 20" fill="none" xmlns="http://www.w3.org/2000/svg">
<path d="M19.8239 3.97348L13.7583 10L19.8239 16.0265C19.9335 15.7973 20.0001 15.544 20.0001 15.2734V4.72657C20.0001 4.45598 19.9335 4.20266 19.8239 3.97348Z" fill="#5B7B3B"/>
<path d="M18.2421 2.96875H1.75772C1.48714 2.96875 1.23382 3.03527 1.00464 3.14492L8.7571 10.8583C9.44256 11.5438 10.5573 11.5438 11.2427 10.8583L18.9952 3.14492C18.766 3.03527 18.5127 2.96875 18.2421 2.96875Z" fill="#5B7B3B"/>
<path d="M0.176172 3.97348C0.0665234 4.20266 0 4.45598 0 4.72657V15.2734C0 15.544 0.0665234 15.7974 0.176172 16.0265L6.24176 10L0.176172 3.97348Z" fill="#5B7B3B"/>
<path d="M12.9296 10.8286L12.0713 11.6869C10.9291 12.829 9.07065 12.829 7.9285 11.6869L7.07022 10.8286L1.00464 16.8551C1.23382 16.9647 1.48714 17.0312 1.75772 17.0312H18.2421C18.5127 17.0312 18.766 16.9647 18.9952 16.8551L12.9296 10.8286Z" fill="#5B7B3B"/>
</svg>
