<svg width="17" height="17" viewBox="0 0 17 17" fill="none" xmlns="http://www.w3.org/2000/svg">
<path d="M8.37878 8.18895C9.5038 8.18895 10.478 7.78545 11.2739 6.98936C12.0699 6.1934 12.4734 5.21948 12.4734 4.09434C12.4734 2.96959 12.0699 1.99555 11.2738 1.19933C10.4777 0.403494 9.50367 0 8.37878 0C7.25364 0 6.27973 0.403494 5.48377 1.19946C4.6878 1.99542 4.28418 2.96946 4.28418 4.09434C4.28418 5.21948 4.6878 6.19353 5.4839 6.98949C6.27999 7.78532 7.25403 8.18895 8.37878 8.18895Z" fill="#5B7B3B"/>
<path d="M15.5433 13.0719C15.5203 12.7407 15.4739 12.3793 15.4055 11.9977C15.3365 11.6133 15.2477 11.2499 15.1413 10.9177C15.0315 10.5744 14.8821 10.2354 14.6974 9.91049C14.5057 9.57327 14.2805 9.27963 14.0279 9.038C13.7637 8.78522 13.4402 8.58198 13.0662 8.43373C12.6934 8.28626 12.2803 8.21156 11.8384 8.21156C11.6649 8.21156 11.4971 8.28276 11.1729 8.49378C10.9735 8.62387 10.7401 8.77432 10.4797 8.94072C10.257 9.08262 9.95533 9.21556 9.5827 9.33592C9.21915 9.45355 8.85003 9.51322 8.48571 9.51322C8.12138 9.51322 7.75239 9.45355 7.38845 9.33592C7.01621 9.21569 6.71453 9.08275 6.4921 8.94085C6.23413 8.77601 6.00067 8.62556 5.79821 8.49365C5.47448 8.28263 5.30652 8.21143 5.13298 8.21143C4.69097 8.21143 4.278 8.28626 3.90538 8.43386C3.53158 8.58185 3.20799 8.78509 2.94353 9.03813C2.691 9.27989 2.46572 9.5734 2.27428 9.91049C2.08972 10.2354 1.94031 10.5743 1.83032 10.9179C1.7241 11.25 1.63525 11.6133 1.56625 11.9977C1.4979 12.3788 1.45147 12.7403 1.42851 13.0723C1.40594 13.3976 1.39453 13.7352 1.39453 14.0762C1.39453 14.9636 1.67663 15.682 2.23291 16.2118C2.78231 16.7346 3.50928 16.9998 4.39331 16.9998H12.5789C13.4629 16.9998 14.1896 16.7347 14.7392 16.2118C15.2956 15.6824 15.5777 14.9638 15.5777 14.076C15.5775 13.7335 15.566 13.3956 15.5433 13.0719Z" fill="#5B7B3B"/>
</svg>
