<svg width="50" height="50" viewBox="0 0 50 50" fill="none" xmlns="http://www.w3.org/2000/svg">
<g clip-path="url(#clip0_213_6)">
<path d="M25 0C20.0555 0 15.222 1.46622 11.1108 4.21326C6.99953 6.9603 3.79521 10.8648 1.90302 15.4329C0.0108322 20.0011 -0.484251 25.0277 0.480379 29.8773C1.44501 34.7268 3.82603 39.1814 7.32234 42.6777C10.8187 46.174 15.2732 48.555 20.1228 49.5196C24.9723 50.4843 29.9989 49.9892 34.5671 48.097C39.1352 46.2048 43.0397 43.0005 45.7868 38.8893C48.5338 34.778 50 29.9445 50 25C50 18.3696 47.3661 12.0107 42.6777 7.32233C37.9893 2.63392 31.6304 0 25 0V0ZM39.4091 34.7841C38.6818 34.8864 35.125 34.7841 34.9403 34.7841C34.0208 34.7962 33.1337 34.445 32.4716 33.8068C31.7216 33.0824 31.0511 32.2869 30.3182 31.5341C30.1022 31.303 29.8675 31.0902 29.6165 30.8977C29.0313 30.4489 28.4517 30.5483 28.1761 31.2415C27.961 31.9875 27.8108 32.7508 27.7273 33.5227C27.679 34.2216 27.2358 34.6591 26.4517 34.7074C25.9659 34.733 25.4801 34.7443 25 34.7301C23.2501 34.7206 21.5275 34.295 19.9744 33.4886C18.2935 32.5529 16.8289 31.2732 15.6761 29.733C13.7813 27.3125 12.2671 24.6534 10.9148 21.9119C10.8438 21.7727 9.4574 18.8239 9.42331 18.6847C9.29831 18.2216 9.42331 17.7756 9.80683 17.6193C10.0511 17.5256 14.6193 17.6193 14.696 17.6193C15.0359 17.617 15.3677 17.7228 15.6435 17.9215C15.9192 18.1201 16.1247 18.4013 16.2301 18.7244C17.0753 20.8864 18.2314 22.9134 19.6619 24.7415C19.8623 24.985 20.0967 25.1983 20.358 25.375C20.7301 25.6307 21.0824 25.5426 21.2358 25.1108C21.4178 24.5157 21.5247 23.9001 21.554 23.2784C21.5796 22.0455 21.554 21.2358 21.4858 20.0028C21.4404 19.2131 21.1619 18.5227 19.9972 18.2983C19.6392 18.233 19.608 17.9375 19.8381 17.642C20.3182 17.0313 20.9744 16.9318 21.7102 16.8949C22.8068 16.8324 23.9034 16.875 25 16.8949H25.2386C25.7159 16.8931 26.192 16.9417 26.6591 17.0398C26.9354 17.0962 27.1862 17.2403 27.374 17.4507C27.5619 17.661 27.6768 17.9264 27.7017 18.2074C27.7581 18.5185 27.7819 18.8346 27.7727 19.1506C27.7443 20.4943 27.679 21.8409 27.6648 23.1847C27.6516 23.7178 27.7002 24.2507 27.8097 24.7727C27.9659 25.4886 28.4574 25.6676 28.946 25.1506C29.5793 24.4837 30.1597 23.7684 30.6818 23.0114C31.6073 21.6315 32.37 20.1491 32.9546 18.5938C33.2727 17.7955 33.5227 17.6193 34.375 17.6193H39.2216C39.5098 17.6143 39.7971 17.6526 40.0739 17.733C40.1718 17.7587 40.2634 17.8044 40.3429 17.8672C40.4224 17.93 40.4881 18.0085 40.5358 18.0978C40.5836 18.1872 40.6123 18.2854 40.6204 18.3864C40.6284 18.4874 40.6155 18.5889 40.5824 18.6847C40.3438 19.7472 39.7699 20.6534 39.1619 21.5256C38.1762 22.9205 37.1364 24.2813 36.1278 25.6591C36.0065 25.8372 35.8955 26.0222 35.7955 26.2131C35.4148 26.9006 35.4432 27.2841 35.9943 27.8523C36.875 28.7585 37.8154 29.6051 38.6648 30.5369C39.2878 31.2149 39.8505 31.9459 40.3466 32.7216C40.9517 33.6989 40.5682 34.6193 39.4091 34.7841Z" fill="white"/>
</g>
<defs>
<clipPath id="clip0_213_6">
<rect width="50" height="50" fill="white"/>
</clipPath>
</defs>
</svg>
