<svg width="253" height="253" viewBox="0 0 253 253" fill="none" xmlns="http://www.w3.org/2000/svg">
<path opacity="0.03" d="M163.866 248.169L158.889 244.944L168.509 215.573L176.728 220.467C180.953 222.979 191.233 227.233 202.973 227.233C215.353 227.233 228.806 220.044 228.713 204.261C228.623 188.521 217.437 180.54 195.814 180.54C188.822 180.54 183.251 181.245 178.338 181.867L167.356 183.247L178.704 98.667H240.182V71.9233C240.181 66.971 238.222 62.2217 234.735 58.7202C231.249 55.2186 226.52 53.2515 221.589 53.2515H149.454C146.626 49.1306 143.432 45.2758 139.911 41.7344C107.992 9.67773 56.2451 9.67773 24.3261 41.7344C-2.95574 69.136 -6.91205 111.088 12.4442 142.715V232.883C12.4438 235.335 12.9244 237.763 13.8585 240.029C14.7926 242.295 16.1618 244.353 17.8881 246.087C19.6144 247.821 21.6639 249.197 23.9196 250.136C26.1752 251.074 28.5929 251.557 31.0344 251.557H170.237C168.031 250.592 165.901 249.459 163.866 248.169Z" fill="#EAEAEA"/>
<path opacity="0.06" d="M164.243 247.664L159.265 244.439L168.867 215.081L177.087 219.972C181.311 222.475 191.592 226.738 203.327 226.738C215.706 226.738 229.159 219.55 229.066 203.766C228.976 188.027 217.79 180.046 196.167 180.046C189.175 180.046 183.604 180.75 178.691 181.372L167.709 182.753L179.057 98.1725H240.553V71.4184C240.553 66.4661 238.594 61.7169 235.107 58.2153C231.62 54.7137 226.891 52.7466 221.961 52.7466H149.82C146.993 48.6257 143.799 44.7709 140.278 41.2295C108.359 9.17285 56.6115 9.17285 24.6925 41.2295C-2.58928 68.6311 -6.54559 110.581 12.8106 142.21V232.378C12.8103 234.83 13.2909 237.258 14.225 239.524C15.159 241.79 16.5283 243.848 18.2546 245.582C19.9809 247.317 22.0304 248.692 24.286 249.631C26.5416 250.569 28.9593 251.052 31.4008 251.052H170.598C168.397 250.086 166.273 248.954 164.243 247.664Z" fill="#EAEAEA"/>
<path opacity="0.08" d="M164.609 247.159L159.631 243.933L169.233 214.563L177.453 219.454C181.677 221.969 191.958 226.223 203.698 226.223C216.078 226.223 229.53 219.034 229.437 203.251C229.347 187.509 218.161 179.53 196.538 179.53C189.546 179.53 183.975 180.235 179.062 180.856L168.08 182.237L179.428 97.6567H240.925V70.9131C240.924 65.9607 238.965 61.2115 235.478 57.7099C231.991 54.2083 227.262 52.2412 222.332 52.2412H150.197C147.37 48.1193 144.176 44.2644 140.654 40.7241C108.735 8.66488 56.9879 8.66488 25.0689 40.7241C-2.22832 68.1258 -6.18464 110.075 13.1715 141.705V231.872C13.1715 236.825 15.1301 241.574 18.6164 245.076C22.1026 248.578 26.8311 250.546 31.7618 250.547H170.964C168.763 249.581 166.639 248.448 164.609 247.159Z" fill="#EAEAEA"/>
<path opacity="0.11" d="M164.975 246.654L159.997 243.429L169.599 214.058L177.819 218.949C182.044 221.464 192.324 225.718 204.064 225.718C216.444 225.718 229.896 218.529 229.803 202.743C229.713 187.004 218.528 179.025 196.904 179.025C189.912 179.025 184.342 179.73 179.428 180.351L168.446 181.732L179.795 97.1518H241.291V70.4082C241.29 65.4558 239.331 60.7066 235.844 57.205C232.357 53.7034 227.629 51.7363 222.698 51.7363H150.553C147.726 47.6144 144.532 43.7595 141.01 40.2192C109.086 8.16 57.3491 8.16 25.4198 40.227C-1.86191 67.6286 -5.81833 109.578 13.5378 141.207V231.367C13.5378 236.32 15.4964 241.069 18.9827 244.571C22.4689 248.073 27.1974 250.041 32.128 250.042H171.33C169.129 249.076 167.005 247.943 164.975 246.654Z" fill="#EAEAEA"/>
<path opacity="0.14" d="M165.342 246.148L160.364 242.921L169.966 213.55L178.186 218.449C182.41 220.961 192.69 225.218 204.431 225.218C216.81 225.218 230.263 218.027 230.17 202.243C230.08 186.503 218.894 178.525 197.271 178.525C190.279 178.525 184.708 179.23 179.795 179.851L168.813 181.229L180.161 96.6516H241.657V69.9028C241.657 64.9502 239.698 60.2007 236.211 56.6987C232.724 53.1967 227.996 51.229 223.065 51.2283H150.919C148.092 47.1078 144.898 43.2538 141.376 39.7139C109.457 7.65462 57.7103 7.65462 25.7912 39.7139C-1.49058 67.1155 -5.44701 109.065 13.9092 140.694V230.862C13.9092 235.815 15.8681 240.565 19.3549 244.067C22.8418 247.569 27.571 249.537 32.5021 249.537H171.702C169.499 248.571 167.373 247.438 165.342 246.148Z" fill="#EAEAEA"/>
<path opacity="0.17" d="M165.708 245.648L160.73 242.421L170.332 213.05L178.551 217.931C182.776 220.443 193.056 224.699 204.797 224.699C217.176 224.699 230.629 217.508 230.536 201.725C230.446 185.985 219.26 178.007 197.637 178.007C190.645 178.007 185.074 178.711 180.161 179.333L169.179 180.711L180.527 96.1335H242.013V69.3976C242.012 64.445 240.053 59.6955 236.566 56.1935C233.08 52.6915 228.351 50.7238 223.42 50.7231H151.285C148.458 46.6023 145.264 42.7475 141.743 39.2061C109.824 7.14941 58.0764 7.14941 26.1574 39.2061C-1.12949 66.6077 -5.08585 108.56 14.2781 140.189V230.365C14.2781 232.817 14.759 235.245 15.6934 237.511C16.6278 239.776 17.9974 241.835 19.7239 243.569C21.4504 245.302 23.5001 246.678 25.7558 247.616C28.0116 248.554 30.4293 249.037 32.8708 249.037H172.07C169.866 248.072 167.739 246.939 165.708 245.648Z" fill="#EAEAEA"/>
<path opacity="0.19" d="M166.074 245.13L161.096 241.905L170.698 212.535L178.918 217.428C183.142 219.941 193.423 224.197 205.165 224.197C217.545 224.197 230.995 217.006 230.902 201.223C230.812 185.483 219.626 177.502 198.003 177.502C191.011 177.502 185.441 178.209 180.527 178.831L169.54 180.214L180.888 95.6338H242.385V68.8927C242.384 63.9401 240.425 59.1906 236.938 55.6886C233.451 52.1866 228.723 50.2189 223.792 50.2182H151.652C148.825 46.0968 145.631 42.2419 142.109 38.7012C110.19 6.64453 58.4428 6.64453 26.5238 38.7012C-0.757983 66.1028 -4.71428 108.055 14.6419 139.684V229.847C14.6419 232.299 15.1228 234.727 16.0573 236.993C16.9917 239.258 18.3612 241.317 20.0877 243.051C21.8143 244.785 23.8639 246.16 26.1197 247.098C28.3754 248.036 30.7931 248.519 33.2346 248.519H172.429C170.227 247.555 168.103 246.422 166.074 245.13Z" fill="#EAEAEA"/>
<path opacity="0.22" d="M166.445 244.63L161.468 241.405L171.07 212.035L179.289 216.928C183.514 219.441 193.794 223.694 205.537 223.694C217.916 223.694 231.367 216.506 231.274 200.722C231.181 184.983 219.993 177.002 198.369 177.002C191.377 177.002 185.807 177.706 180.893 178.331L169.912 179.709L181.26 95.1284H242.756V68.3873C242.756 63.4346 240.797 58.6846 237.31 55.1825C233.823 51.6804 229.094 49.7129 224.163 49.7129H152.018C149.191 45.5914 145.997 41.7365 142.475 38.1958C110.556 6.13916 58.8087 6.13916 26.8897 38.1958C-0.397269 65.5974 -4.35358 107.55 15.0026 139.181V229.347C15.0026 231.799 15.4836 234.227 16.418 236.493C17.3524 238.758 18.7219 240.817 20.4485 242.551C22.175 244.284 24.2246 245.66 26.4804 246.598C28.7362 247.536 31.1539 248.019 33.5954 248.019H172.795C170.595 247.054 168.472 245.922 166.445 244.63Z" fill="#EAEAEA"/>
<path opacity="0.25" d="M166.806 244.125L161.829 240.9L171.431 211.53L179.65 216.423C183.875 218.936 194.155 223.189 205.898 223.189C218.277 223.189 231.727 216.001 231.635 200.217C231.544 184.478 220.359 176.497 198.736 176.497C191.744 176.497 186.173 177.201 181.26 177.823L170.28 179.204L181.615 94.6261H243.112V67.8799C243.111 62.9275 241.152 58.1783 237.665 54.6767C234.178 51.1751 229.45 49.208 224.519 49.208H152.384C149.557 45.0865 146.363 41.2316 142.841 37.6909C110.922 5.63428 59.1751 5.63428 27.2561 37.6909C-0.0308082 65.0951 -3.98711 107.045 15.3691 138.664V228.839C15.3687 231.292 15.8494 233.72 16.7837 235.986C17.7179 238.252 19.0875 240.311 20.814 242.045C22.5406 243.779 24.5904 245.154 26.8463 246.093C29.1023 247.031 31.52 247.514 33.9618 247.514H173.151C170.954 246.547 168.833 245.415 166.806 244.125Z" fill="#EAEAEA"/>
<path opacity="0.28" d="M167.175 243.62L162.195 240.395L171.797 211.025L180.016 215.915C184.241 218.431 194.521 222.684 206.264 222.684C218.643 222.684 232.094 215.496 232.001 199.712C231.91 183.973 220.725 175.991 199.104 175.991C192.11 175.991 186.539 176.696 181.626 177.318L170.646 178.698L181.982 94.1078H243.478V67.3745C243.478 64.9222 242.997 62.494 242.062 60.2285C241.128 57.9629 239.758 55.9044 238.032 54.1706C236.305 52.4367 234.256 51.0614 232 50.1232C229.744 49.185 227.326 48.7023 224.885 48.7026H152.75C149.923 44.5812 146.729 40.7263 143.207 37.1855C111.288 5.12891 59.5415 5.12891 27.6226 37.1855C0.351169 64.5768 -3.62073 106.542 15.7354 138.166V228.334C15.7351 230.786 16.2158 233.215 17.15 235.481C18.0843 237.746 19.4538 239.805 21.1804 241.539C22.9069 243.274 24.9567 244.649 27.2127 245.587C29.4686 246.526 31.8865 247.009 34.3282 247.008H173.527C171.327 246.043 169.203 244.91 167.175 243.62Z" fill="#EAEAEA"/>
<path opacity="0.31" d="M167.541 243.115L162.561 239.89L172.163 210.52L180.372 215.41C184.597 217.926 194.877 222.179 206.62 222.179C218.999 222.179 232.45 214.991 232.357 199.207C232.266 183.465 221.081 175.487 199.46 175.487C192.466 175.487 186.895 176.191 181.982 176.813L171.002 178.194L182.338 93.6132H243.844V66.8696C243.844 64.4171 243.363 61.9887 242.428 59.723C241.494 57.4573 240.124 55.3987 238.397 53.6648C236.67 51.9308 234.62 50.5556 232.364 49.6175C230.108 48.6795 227.69 48.197 225.249 48.1977H153.116C150.291 44.0752 147.097 40.2202 143.574 36.6807C111.655 4.62142 59.9075 4.62142 27.9886 36.6807C0.704224 64.0823 -3.25994 106.024 16.1014 137.661V227.829C16.1014 232.782 18.0603 237.532 21.5471 241.034C25.0339 244.536 29.7631 246.503 34.6942 246.503H173.894C171.693 245.538 169.57 244.405 167.541 243.115Z" fill="#EAEAEA"/>
<path opacity="0.33" d="M167.908 242.61L162.927 239.385L172.529 210.014L180.749 214.905C184.973 217.42 195.254 221.674 206.996 221.674C219.376 221.674 232.826 214.485 232.736 198.702C232.643 182.96 221.458 174.981 199.837 174.981C192.842 174.981 187.272 175.686 182.358 176.307L171.379 177.688L182.714 93.1079H244.21V66.3642C244.21 63.912 243.729 61.4837 242.795 59.2182C241.861 56.9527 240.491 54.8942 238.765 53.1603C237.038 51.4264 234.988 50.0511 232.733 49.1129C230.477 48.1747 228.059 47.692 225.618 47.6924H153.483C150.658 43.5693 147.464 39.7142 143.94 36.1753C112.021 4.11605 60.2737 4.11605 28.3547 36.1753C1.07544 63.5769 -2.88358 105.526 16.4726 137.156V227.324C16.4726 232.276 18.4315 237.026 21.9183 240.528C25.4052 244.03 30.1344 245.998 35.0655 245.998H174.26C172.06 245.033 169.936 243.9 167.908 242.61Z" fill="#EAEAEA"/>
<path opacity="0.36" d="M168.274 242.105L163.293 238.877L172.893 209.507L181.112 214.4C185.337 216.913 195.617 221.169 207.36 221.169C219.74 221.169 233.19 213.978 233.099 198.194C233.007 182.455 221.821 174.476 200.2 174.476C193.206 174.476 187.635 175.181 182.722 175.802L171.743 177.183L183.078 92.6027H244.574V65.872C244.574 60.9193 242.615 56.1693 239.128 52.6672C235.641 49.1651 230.912 47.1976 225.981 47.1976H153.849C151.023 43.0758 147.829 39.2217 144.306 35.6831C112.387 3.62386 60.64 3.62386 28.721 35.6831C1.44182 63.0847 -2.51706 105.034 16.8391 136.663V226.818C16.8391 231.77 18.7972 236.519 22.2829 240.021C25.7686 243.523 30.4964 245.492 35.4267 245.493H174.626C172.426 244.528 170.302 243.395 168.274 242.105Z" fill="#EAEAEA"/>
<path opacity="0.39" d="M168.64 241.599L163.66 238.372L173.262 209.001L181.481 213.895C185.706 216.407 195.986 220.664 207.729 220.664C220.108 220.664 233.559 213.472 233.468 197.689C233.375 181.949 222.19 173.971 200.569 173.971C193.575 173.971 188.004 174.676 183.091 175.297L172.119 176.675L183.454 92.0976H244.95V65.354C244.95 60.4012 242.992 55.6513 239.505 52.1491C236.018 48.647 231.289 46.6795 226.358 46.6795H154.215C151.389 42.5578 148.195 38.7036 144.672 35.165C112.753 3.1058 61.006 3.1058 29.087 35.165C1.80778 62.5641 -2.1511 104.516 17.2051 136.145V226.313C17.2051 228.766 17.686 231.194 18.6204 233.459C19.5549 235.725 20.9244 237.783 22.6509 239.517C24.3775 241.251 26.4271 242.626 28.6829 243.565C30.9386 244.503 33.3563 244.985 35.7978 244.985H174.997C172.795 244.022 170.669 242.89 168.64 241.599Z" fill="#EAEAEA"/>
<path opacity="0.42" d="M169.006 241.092L164.029 237.867L173.628 208.497L181.848 213.39C186.072 215.903 196.353 220.159 208.095 220.159C220.475 220.159 233.925 212.968 233.835 197.184C233.742 181.445 222.556 173.464 200.936 173.464C193.941 173.464 188.37 174.171 183.457 174.792L172.478 176.171L183.813 91.5902H245.309V64.8491C245.306 59.8982 243.346 55.1509 239.86 51.651C236.373 48.1511 231.646 46.185 226.716 46.185H154.581C151.755 42.063 148.561 38.208 145.039 34.668C113.122 2.61133 61.3724 2.61133 29.4559 34.668C2.17409 62.0696 -1.78487 104.022 17.5713 135.651V225.808C17.5713 228.261 18.0523 230.689 18.9867 232.954C19.9211 235.22 21.2907 237.278 23.0172 239.012C24.7437 240.746 26.7934 242.122 29.0491 243.06C31.3049 243.998 33.7226 244.481 36.1641 244.48H175.364C173.161 243.517 171.035 242.384 169.006 241.092Z" fill="#EAEAEA"/>
<path opacity="0.44" d="M169.373 240.587L164.395 237.362L173.994 207.991L182.214 212.885C186.439 215.397 196.719 219.651 208.462 219.651C220.841 219.651 234.291 212.463 234.201 196.679C234.108 180.94 222.922 172.958 201.302 172.958C194.307 172.958 188.736 173.663 183.823 174.287L172.844 175.665L184.179 91.0851H245.675V64.344C245.676 61.8913 245.196 59.4626 244.262 57.1964C243.327 54.9303 241.958 52.8712 240.231 51.1368C238.505 49.4023 236.455 48.0266 234.199 47.088C231.943 46.1495 229.525 45.6666 227.083 45.667H154.948C152.121 41.5449 148.927 37.69 145.405 34.1499C113.488 2.09326 61.7388 2.09326 29.8223 34.1499C2.54055 61.5515 -1.4184 103.504 17.9378 135.133V225.303C17.9378 227.756 18.4187 230.184 19.3531 232.449C20.2875 234.715 21.6571 236.773 23.3836 238.507C25.1102 240.241 27.1598 241.616 29.4156 242.555C31.6713 243.493 34.089 243.976 36.5305 243.975H175.73C173.527 243.012 171.402 241.879 169.373 240.587Z" fill="#EAEAEA"/>
<path opacity="0.47" d="M169.739 240.081L164.761 236.856L174.361 207.486L182.58 212.379C186.805 214.892 197.085 219.145 208.828 219.145C221.207 219.145 234.657 211.957 234.567 196.174C234.474 180.434 223.289 172.453 201.668 172.453C194.674 172.453 189.103 173.157 184.19 173.782L173.21 175.16L184.558 90.5796H246.055V63.8359C246.055 61.3837 245.574 58.9554 244.639 56.6899C243.705 54.4244 242.335 52.3659 240.609 50.632C238.882 48.8981 236.833 47.5228 234.577 46.5846C232.321 45.6464 229.903 45.1637 227.462 45.164H155.314C152.488 41.042 149.294 37.187 145.771 33.647C113.855 1.59033 62.105 1.59033 30.1885 33.647C2.90676 61.0486 -1.05219 103.001 18.304 134.627V224.798C18.3047 229.75 20.2639 234.499 23.7506 238.001C27.2373 241.503 31.9662 243.47 36.8969 243.47H176.091C173.89 242.505 171.767 241.373 169.739 240.081Z" fill="#EAEAEA"/>
<path opacity="0.5" d="M170.105 239.577L165.128 236.351L174.727 206.981L182.952 211.874C187.176 214.387 197.457 218.641 209.199 218.641C221.579 218.641 235.029 211.452 234.939 195.669C234.846 179.929 223.66 171.948 202.04 171.948C195.045 171.948 189.474 172.653 184.561 173.274L173.582 174.655L184.93 90.0747H246.398V63.331C246.398 58.3825 244.442 53.6364 240.96 50.1353C237.478 46.6343 232.755 44.6647 227.828 44.6592H155.68C152.854 40.5371 149.66 36.6822 146.137 33.1421C114.221 1.08545 62.4713 1.08545 30.5549 33.1421C3.26795 60.5437 -0.680622 102.496 18.6627 134.122V224.29C18.6627 226.743 19.1435 229.171 20.0779 231.437C21.0123 233.702 22.3819 235.761 24.1084 237.495C25.8349 239.229 27.8845 240.605 30.1403 241.543C32.3961 242.482 34.8138 242.965 37.2554 242.965H176.455C174.256 241.999 172.133 240.867 170.105 239.577Z" fill="#EAEAEA"/>
<path opacity="0.53" d="M170.471 239.071L165.493 235.846L175.095 206.476L183.312 211.366C187.537 213.882 197.817 218.135 209.56 218.135C221.94 218.135 235.39 210.947 235.299 195.163C235.207 179.424 224.021 171.443 202.4 171.443C195.406 171.443 189.838 172.147 184.922 172.769L173.942 174.152L185.291 89.572H246.787V62.8257C246.787 60.3735 246.306 57.9452 245.371 55.6797C244.437 53.4142 243.067 51.3557 241.341 49.6218C239.614 47.8879 237.565 46.5126 235.309 45.5744C233.053 44.6362 230.635 44.1535 228.194 44.1539H156.046C153.221 40.0313 150.027 36.1763 146.503 32.6368C114.582 0.593081 62.8321 0.593081 30.9157 32.6368C3.63398 60.0384 -0.324841 101.988 19.0313 133.617V223.785C19.0313 228.738 20.9901 233.488 24.4769 236.99C27.9637 240.492 32.6929 242.459 37.624 242.459H176.823C174.623 241.494 172.499 240.361 170.471 239.071Z" fill="#EAEAEA"/>
<path opacity="0.56" d="M170.83 238.566L165.852 235.341L175.472 205.971L183.689 210.862C187.914 213.377 198.194 217.63 209.937 217.63C222.317 217.63 235.767 210.442 235.676 194.658C235.584 178.916 224.398 170.938 202.777 170.938C195.783 170.938 190.215 171.642 185.299 172.264L174.309 173.634L185.644 89.0541H247.141V62.3208C247.141 59.8685 246.66 57.4403 245.725 55.1748C244.791 52.9092 243.421 50.8507 241.695 49.1169C239.968 47.383 237.918 46.0077 235.663 45.0695C233.407 44.1313 230.989 43.6486 228.548 43.6489H156.413C153.588 39.5258 150.394 35.6708 146.87 32.1318C114.948 0.0751944 63.1987 0.0751944 31.2823 32.1318C4.00051 59.5335 0.0415578 101.483 19.3977 133.112V223.28C19.3984 228.233 21.3575 232.982 24.8442 236.484C28.3309 239.986 33.0596 241.954 37.9905 241.955H177.19C174.987 240.99 172.861 239.857 170.83 238.566Z" fill="#EAEAEA"/>
<path opacity="0.58" d="M171.204 238.061L166.226 234.836L175.828 205.463L184.045 210.356C188.27 212.871 198.55 217.125 210.293 217.125C222.672 217.125 236.123 209.934 236.032 194.15C235.939 178.411 224.754 170.432 203.133 170.432C196.139 170.432 190.57 171.137 185.655 171.759L174.675 173.139L186.011 88.559H247.507V61.8154C247.507 59.3631 247.026 56.9349 246.091 54.6693C245.157 52.4038 243.787 50.3453 242.061 48.6114C240.334 46.8776 238.285 45.5023 236.029 44.5641C233.773 43.6259 231.355 43.1432 228.914 43.1435H156.779C153.954 39.0204 150.76 35.1653 147.236 31.6264C115.315 -0.443179 63.5649 -0.443179 31.6485 31.6264C4.36672 59.028 0.407769 100.978 19.764 132.607V222.775C19.7646 227.727 21.7238 232.477 25.2104 235.979C28.6971 239.481 33.4258 241.448 38.3567 241.449H177.556C175.356 240.484 173.232 239.351 171.204 238.061Z" fill="#EAEAEA"/>
<path opacity="0.61" d="M171.57 237.556L166.592 234.328L176.194 204.958L184.411 209.851C188.636 212.364 198.916 216.62 210.659 216.62C223.039 216.62 236.489 209.429 236.398 193.646C236.305 177.906 225.12 169.927 203.499 169.927C196.505 169.927 190.936 170.632 186.021 171.254L175.041 172.632L186.376 88.0542H247.873V61.3105C247.873 56.3577 245.914 51.6078 242.427 48.1057C238.94 44.6035 234.211 42.6361 229.28 42.6361H157.145C154.319 38.5143 151.125 34.6602 147.602 31.1216C115.686 -0.93766 63.9361 -0.93766 32.0197 31.1216C4.73534 58.5206 0.773809 100.473 20.13 132.102V222.27C20.1307 227.222 22.0898 231.972 25.5765 235.474C29.0631 238.976 33.7918 240.944 38.7227 240.944H177.922C175.722 239.979 173.598 238.846 171.57 237.556Z" fill="#EAEAEA"/>
<path opacity="0.64" d="M171.936 237.051L166.961 233.823L176.56 204.46L184.78 209.354C189.002 211.867 199.282 216.123 211.025 216.123C223.405 216.123 236.855 208.932 236.764 193.148C236.672 177.409 225.489 169.427 203.865 169.427C196.871 169.427 191.302 170.135 186.387 170.756L175.408 172.134L186.743 87.5541H248.239V60.8053C248.239 55.853 246.28 51.1034 242.794 47.6014C239.308 44.0993 234.579 42.1315 229.649 42.1309H157.511C154.685 38.0088 151.491 34.1538 147.968 30.6138C116.052 -1.44287 64.3022 -1.44287 32.3858 30.6138C5.10402 58.0154 1.14508 99.9675 20.5013 131.597V221.765C20.5019 226.717 22.4611 231.466 25.9479 234.968C29.4346 238.469 34.1635 240.436 39.0941 240.436H178.294C176.091 239.473 173.966 238.341 171.936 237.051Z" fill="#EAEAEA"/>
<path opacity="0.67" d="M172.303 236.543L167.325 233.318L176.927 203.942L185.146 208.836C189.368 211.348 199.649 215.604 211.391 215.604C223.771 215.604 237.221 208.413 237.131 192.63C237.038 176.89 225.855 168.909 204.232 168.909C197.237 168.909 191.669 169.616 186.753 170.238L175.774 171.616L187.109 87.0358H248.605V60.2999C248.605 55.3476 246.647 50.5981 243.161 47.096C239.674 43.594 234.946 41.6262 230.015 41.6255H157.878C155.051 37.5034 151.857 33.6485 148.335 30.1084C116.418 -1.94824 64.6687 -1.94824 32.7523 30.1084C5.47048 57.51 1.51153 99.4622 20.8677 131.091V221.259C20.8684 226.212 22.8276 230.961 26.3143 234.462C29.8011 237.964 34.5299 239.931 39.4606 239.931H178.66C176.457 238.968 174.331 237.835 172.303 236.543Z" fill="#EAEAEA"/>
<path opacity="0.69" d="M172.668 236.038L167.691 232.813L177.293 203.443L185.512 208.346C189.734 210.859 200.015 215.113 211.757 215.113C224.137 215.113 237.587 207.924 237.497 192.141C237.404 176.401 226.221 168.42 204.598 168.42C197.603 168.42 192.035 169.125 187.119 169.749L176.14 171.127L187.475 86.5466H248.976V59.7952C248.977 57.343 248.496 54.9147 247.562 52.649C246.628 50.3833 245.259 48.3246 243.532 46.5905C241.806 44.8564 239.757 43.4808 237.501 42.5423C235.245 41.6038 232.828 41.1208 230.386 41.1208H158.244C155.417 36.9987 152.223 33.1437 148.701 29.6037C116.779 -2.45296 65.0296 -2.45296 33.1055 29.6063C5.83148 57.0053 1.87256 98.9574 21.2416 130.587V220.755C21.2409 225.704 23.1963 230.451 26.6781 233.953C30.16 237.455 34.8836 239.425 39.8111 239.432H179.01C176.813 238.466 174.692 237.332 172.668 236.038Z" fill="#EAEAEA"/>
<path opacity="0.72" d="M173.035 235.545L168.057 232.32L177.659 202.95L185.879 207.828C190.101 210.341 200.381 214.594 212.123 214.594C224.503 214.594 237.953 207.406 237.863 191.622C237.77 175.883 226.587 167.901 204.964 167.901C197.969 167.901 192.401 168.606 187.485 169.228L176.503 170.611L187.852 86.0307H249.337V59.2871C249.337 54.335 247.379 49.5857 243.892 46.0841C240.406 42.5824 235.678 40.6152 230.747 40.6152H158.61C155.784 36.4932 152.589 32.6382 149.067 29.0981C117.151 -2.9585 65.401 -2.9585 33.4846 29.0981C6.20291 56.4998 2.24396 98.4519 21.6001 130.078V220.246C21.6001 222.699 22.081 225.127 23.0154 227.393C23.9497 229.658 25.3193 231.717 27.0458 233.451C28.7723 235.185 30.822 236.561 33.0778 237.499C35.3335 238.438 37.7512 238.921 40.1928 238.921H179.392C177.191 237.96 175.065 236.831 173.035 235.545Z" fill="#EAEAEA"/>
<path opacity="0.75" d="M173.409 235.028L168.431 231.803L178.033 202.432L186.253 207.323C190.475 209.838 200.755 214.092 212.498 214.092C224.878 214.092 238.328 206.903 238.237 191.12C238.144 175.38 226.961 167.399 205.338 167.399C198.344 167.399 192.775 168.104 187.86 168.725L176.88 170.106L188.216 85.5259H249.712V58.7822C249.712 53.8301 247.753 49.0809 244.267 45.5792C240.781 42.0775 236.052 40.1103 231.122 40.1103H158.966C156.14 35.9883 152.946 32.1333 149.423 28.5933C117.507 -3.46338 65.7571 -3.46338 33.8406 28.5933C6.55886 55.9949 2.59991 97.9444 21.9561 129.574V219.744C21.9561 224.697 23.915 229.447 27.4018 232.949C30.8886 236.451 35.6177 238.419 40.5488 238.419H179.754C177.556 237.452 175.435 236.318 173.409 235.028Z" fill="#EAEAEA"/>
<path opacity="0.78" d="M173.768 234.522L168.79 231.297L178.392 201.927L186.611 206.818C190.833 209.333 201.114 213.586 212.856 213.586C225.236 213.586 238.686 206.398 238.596 190.614C238.506 174.872 227.312 166.899 205.697 166.899C198.702 166.899 193.134 167.604 188.218 168.225L177.239 169.606L188.574 85.0257H250.07V58.2768C250.07 53.3247 248.112 48.5755 244.625 45.0738C241.139 41.5722 236.411 39.605 231.48 39.605H159.343C156.517 35.4824 153.323 31.6274 149.8 28.0879C117.883 -3.97135 66.1337 -3.97135 34.2173 28.0879C6.93032 55.4895 2.97136 97.439 22.3276 129.079V219.226C22.3282 224.178 24.2874 228.928 27.774 232.43C31.2607 235.932 35.9894 237.9 40.9203 237.9H180.115C177.917 236.938 175.795 235.809 173.768 234.522Z" fill="#EAEAEA"/>
<path opacity="0.81" d="M174.133 234.017L169.156 230.792L178.758 201.422L186.977 206.313C191.199 208.828 201.48 213.082 213.222 213.082C225.602 213.082 239.052 205.893 238.962 190.11C238.872 174.367 227.686 166.389 206.063 166.389C199.068 166.389 193.5 167.094 188.584 167.715L177.605 169.096L188.94 84.5234H250.436V57.7719C250.436 52.8199 248.478 48.0706 244.991 44.5689C241.505 41.0673 236.777 39.1001 231.846 39.1001H159.708C156.884 34.977 153.689 31.1219 150.166 27.583C118.249 -4.47624 66.4995 -4.47624 34.583 27.583C7.29604 54.9924 3.33708 96.9342 22.6933 128.561V218.731C22.694 223.684 24.6531 228.433 28.1398 231.935C31.6264 235.437 36.3553 237.405 41.2862 237.406H180.486C178.286 236.44 176.162 235.308 174.133 234.017Z" fill="#EAEAEA"/>
<path opacity="0.83" d="M174.5 233.512L169.522 230.284L179.124 200.914L187.336 205.807C191.558 208.32 201.838 212.576 213.581 212.576C225.961 212.576 239.411 205.385 239.321 189.602C239.23 173.862 228.045 165.884 206.422 165.884C199.427 165.884 193.859 166.588 188.943 167.21L177.964 168.588L189.312 84.0102H250.808V57.2666C250.808 54.814 250.327 52.3854 249.392 50.1196C248.458 47.8537 247.088 45.7949 245.361 44.0608C243.635 42.3267 241.585 40.9512 239.329 40.0129C237.072 39.0745 234.654 38.5918 232.213 38.5921H160.075C157.249 34.4704 154.055 30.6162 150.532 27.0776C118.616 -4.9816 66.8661 -4.9816 34.9497 27.0776C7.66274 54.4741 3.70379 96.4391 23.06 128.058V218.226C23.0607 223.178 25.0198 227.928 28.5064 231.43C31.9931 234.932 36.7219 236.9 41.6528 236.9H180.852C178.652 235.935 176.528 234.802 174.5 233.512Z" fill="#EAEAEA"/>
<path opacity="0.86" d="M174.866 233.007L169.888 229.78L179.49 200.409L187.71 205.303C191.932 207.815 202.212 212.071 213.955 212.071C226.334 212.071 239.784 204.88 239.694 189.097C239.604 173.357 228.418 165.379 206.795 165.379C199.801 165.379 194.232 166.083 189.319 166.705L178.337 168.083L189.685 83.5054H251.169V56.7617C251.169 51.8094 249.21 47.0598 245.724 43.5578C242.238 40.0557 237.509 38.0879 232.578 38.0872H160.441C157.615 33.9655 154.421 30.1114 150.898 26.5728C118.982 -5.48649 67.2322 -5.48649 35.3158 26.5728C8.02888 53.9718 4.07006 95.9213 23.4262 127.553V217.721C23.4269 222.673 25.3861 227.423 28.8728 230.924C32.3595 234.426 37.0883 236.393 42.0189 236.393H181.218C179.018 235.429 176.894 234.298 174.866 233.007Z" fill="#EAEAEA"/>
<path opacity="0.89" d="M175.232 232.499L170.255 229.274L179.857 199.904L188.077 204.797C192.299 207.31 202.579 211.566 214.321 211.566C226.701 211.566 240.151 204.375 240.061 188.591C239.971 172.852 228.785 164.871 207.162 164.871C200.167 164.871 194.599 165.578 189.686 166.2L178.704 167.578L190.039 82.9975H251.535V56.2565C251.535 51.3041 249.577 46.5546 246.091 43.0526C242.604 39.5505 237.876 37.5827 232.945 37.582H160.808C157.981 33.46 154.787 29.605 151.265 26.0649C119.348 -5.9917 67.5987 -5.9917 35.6822 26.0649C8.40041 53.4666 4.44146 95.4187 23.7977 127.048V217.216C23.7983 222.168 25.7575 226.917 29.2443 230.419C32.731 233.921 37.4597 235.888 42.3904 235.888H181.585C179.384 234.924 177.26 233.792 175.232 232.499Z" fill="#EAEAEA"/>
<path opacity="0.92" d="M175.599 231.994L170.621 228.769L180.223 199.399L188.443 204.292C192.665 206.805 202.945 211.059 214.687 211.059C227.067 211.059 240.517 203.87 240.427 188.087C240.337 172.347 229.151 164.366 207.528 164.366C200.533 164.366 194.965 165.071 190.052 165.695L179.083 167.073L190.418 82.4927H251.914V55.7516C251.915 53.2993 251.434 50.8711 250.5 48.6054C249.566 46.3397 248.197 44.281 246.47 42.5469C244.744 40.8128 242.694 39.4372 240.439 38.4987C238.183 37.5602 235.766 37.0771 233.324 37.0771H161.186C158.36 32.9551 155.166 29.1001 151.644 25.5601C119.727 -6.49658 67.9776 -6.49658 36.0612 25.5601C8.77944 52.9617 4.82307 94.9138 24.1767 126.543V216.711C24.1774 221.663 26.1365 226.412 29.6233 229.914C33.11 233.416 37.8389 235.383 42.7695 235.383H181.969C179.762 234.42 177.632 233.287 175.599 231.994Z" fill="#EAEAEA"/>
<path opacity="0.94" d="M175.965 231.489L170.987 228.264L180.589 198.894L188.809 203.787C193.031 206.3 203.311 210.553 215.054 210.553C227.434 210.553 240.884 203.365 240.793 187.581C240.703 171.842 229.517 163.861 207.894 163.861C200.9 163.861 195.331 164.565 190.418 165.187L179.436 166.568L190.771 81.9873H252.268V55.2514C252.268 50.2994 250.309 45.5501 246.823 42.0484C243.337 38.5468 238.608 36.5796 233.678 36.5796H161.545C158.719 32.4575 155.525 28.6026 152.002 25.0625C120.086 -6.99414 68.3361 -6.99414 36.4196 25.0625C9.11974 52.4564 5.17109 94.4085 24.5247 126.035V216.203C24.5247 221.156 26.4836 225.906 29.9704 229.408C33.4573 232.91 38.1864 234.877 43.1175 234.877H182.317C180.117 233.912 177.993 232.779 175.965 231.489Z" fill="#EAEAEA"/>
<path opacity="0.97" d="M176.331 230.984L171.346 227.759L180.948 198.389L189.167 203.279C193.389 205.795 203.669 210.048 215.412 210.048C227.792 210.048 241.242 202.86 241.152 187.076C241.061 171.337 229.876 163.356 208.253 163.356C201.258 163.356 195.69 164.06 190.777 164.682L179.795 166.063L191.13 81.4822H252.626V54.7334C252.626 49.7813 250.667 45.032 247.181 41.5304C243.695 38.0287 238.966 36.0615 234.036 36.0615H161.906C159.08 31.9394 155.886 28.0845 152.363 24.5444C120.447 -7.51221 68.6971 -7.51221 36.7807 24.5444C9.49892 51.9461 5.54255 93.8956 24.8962 125.525V215.698C24.8962 220.651 26.8551 225.401 30.3419 228.903C33.8287 232.405 38.5578 234.372 43.4889 234.372H182.694C180.49 233.407 178.363 232.275 176.331 230.984Z" fill="#EAEAEA"/>
<path d="M176.697 230.479L171.719 227.256L181.321 197.886L189.541 202.777C193.763 205.292 204.043 209.545 215.786 209.545C228.166 209.545 241.5 202.357 241.525 186.573C241.316 170.834 230.25 162.853 208.626 162.853C201.632 162.853 196.064 163.557 191.15 164.179L180.169 165.56L191.504 80.9795H253V54.2332C252.999 49.2816 251.04 44.533 247.554 41.0319C244.068 37.5308 239.34 35.5639 234.41 35.5639H162.275C159.448 31.442 156.254 27.5871 152.732 24.0469C120.816 -8.01237 69.066 -8.01237 37.1496 24.0469C9.86783 51.4485 5.9114 93.398 25.2676 125.027V215.193C25.2676 220.145 27.2261 224.894 30.7124 228.396C34.1987 231.898 38.9271 233.866 43.8578 233.867H183.057C180.854 232.902 178.728 231.769 176.697 230.479Z" fill="#EAEAEA"/>
<path opacity="0.03" d="M205.671 130.203L202.669 150.344C203.443 150.323 204.263 150.313 205.137 150.313C218.082 150.313 229.866 153.408 239.38 158.991L240.182 159.467V130.195L205.671 130.203Z" fill="#EAEAEA"/>
<path opacity="0.06" d="M206.037 129.698L203.035 149.838C203.809 149.818 204.629 149.807 205.503 149.807C218.448 149.807 230.232 152.9 239.746 158.485L240.548 158.962V129.69L206.037 129.698Z" fill="#EAEAEA"/>
<path opacity="0.08" d="M206.403 129.193L203.401 149.333C204.175 149.313 204.995 149.3 205.87 149.3C218.814 149.3 230.598 152.408 240.112 157.98L240.914 158.457V129.185L206.403 129.193Z" fill="#EAEAEA"/>
<path opacity="0.11" d="M206.77 128.687L203.768 148.828C204.541 148.807 205.361 148.794 206.236 148.794C219.18 148.794 230.964 151.89 240.478 157.475L241.281 157.952V128.68L206.77 128.687Z" fill="#EAEAEA"/>
<path opacity="0.14" d="M207.136 128.183L204.134 148.323C204.908 148.302 205.728 148.29 206.602 148.29C219.547 148.29 231.33 151.398 240.845 156.97C241.116 157.126 241.379 157.286 241.647 157.447V128.175L207.136 128.183Z" fill="#EAEAEA"/>
<path opacity="0.17" d="M207.502 127.677L204.5 147.818C205.274 147.795 206.094 147.784 206.968 147.784C219.913 147.784 231.697 150.88 241.211 156.462C241.469 156.62 241.745 156.781 242.013 156.941V127.669L207.502 127.677Z" fill="#EAEAEA"/>
<path opacity="0.19" d="M207.868 127.172L204.874 147.311C205.648 147.29 206.468 147.279 207.342 147.279C220.287 147.279 232.071 150.388 241.585 155.957C241.843 156.115 242.122 156.276 242.387 156.434V127.162L207.868 127.172Z" fill="#EAEAEA"/>
<path opacity="0.22" d="M208.227 126.665L205.225 146.805C205.998 146.784 206.819 146.774 207.693 146.774C220.637 146.774 232.421 149.883 241.936 155.452C242.206 155.61 242.472 155.771 242.738 155.929V126.657L208.227 126.665Z" fill="#EAEAEA"/>
<path opacity="0.25" d="M208.601 126.16L205.599 146.3C206.372 146.28 207.192 146.269 208.067 146.269C221.011 146.269 232.795 149.365 242.309 154.947C242.58 155.105 242.846 155.266 243.111 155.424V126.152L208.601 126.16Z" fill="#EAEAEA"/>
<path opacity="0.28" d="M208.967 125.654L205.965 145.795C206.739 145.774 207.559 145.764 208.433 145.764C221.38 145.764 233.161 148.857 242.676 154.442C242.946 154.6 243.212 154.76 243.478 154.918V125.646L208.967 125.654Z" fill="#EAEAEA"/>
<path opacity="0.31" d="M209.333 125.149L206.331 145.29C207.105 145.269 207.925 145.259 208.799 145.259C221.746 145.259 233.528 148.352 243.042 153.937C243.313 154.095 243.578 154.253 243.844 154.413V125.142L209.333 125.149Z" fill="#EAEAEA"/>
<path opacity="0.33" d="M209.699 124.644L206.697 144.785C207.471 144.764 208.291 144.751 209.166 144.751C222.113 144.751 233.894 147.859 243.408 153.432C243.679 153.59 243.945 153.748 244.21 153.908V124.636L209.699 124.644Z" fill="#EAEAEA"/>
<path opacity="0.36" d="M210.065 124.139L207.063 144.279C207.837 144.259 208.657 144.246 209.532 144.246C222.479 144.246 234.26 147.354 243.774 152.926C244.045 153.084 244.311 153.242 244.577 153.403V124.131L210.065 124.139Z" fill="#EAEAEA"/>
<path opacity="0.39" d="M210.432 123.639L207.43 143.779C208.203 143.759 209.024 143.746 209.898 143.746C222.845 143.746 234.626 146.841 244.141 152.424C244.411 152.582 244.677 152.742 244.943 152.903V123.639H210.432Z" fill="#EAEAEA"/>
<path opacity="0.42" d="M210.806 123.121L207.804 143.261C208.577 143.238 209.398 143.228 210.272 143.228C223.219 143.228 235 146.336 244.515 151.906C244.786 152.064 245.051 152.224 245.317 152.385V123.121H210.806Z" fill="#EAEAEA"/>
<path opacity="0.44" d="M211.164 122.621L208.162 142.762C208.936 142.741 209.756 142.731 210.63 142.731C223.578 142.731 235.359 145.826 244.873 151.409C245.144 151.567 245.41 151.727 245.675 151.885V122.613L211.164 122.621Z" fill="#EAEAEA"/>
<path opacity="0.47" d="M211.531 122.116L208.529 142.256C209.302 142.236 210.123 142.225 210.997 142.225C223.944 142.225 235.725 145.334 245.239 150.903C245.51 151.061 245.776 151.222 246.042 151.38V122.108L211.531 122.116Z" fill="#EAEAEA"/>
<path opacity="0.5" d="M211.897 121.611L208.895 141.751C209.668 141.731 210.489 141.72 211.363 141.72C224.31 141.72 236.091 144.813 245.606 150.398C245.864 150.556 246.142 150.717 246.408 150.875V121.603L211.897 121.611Z" fill="#EAEAEA"/>
<path opacity="0.53" d="M212.263 121.105L209.258 141.254C210.032 141.233 210.852 141.223 211.726 141.223C224.674 141.223 236.455 144.316 245.969 149.901C246.227 150.059 246.506 150.217 246.771 150.377V121.105H212.263Z" fill="#EAEAEA"/>
<path opacity="0.56" d="M212.629 120.6L209.627 140.736C210.401 140.715 211.221 140.702 212.095 140.702C225.042 140.702 236.824 143.811 246.338 149.383C246.596 149.541 246.875 149.699 247.14 149.859V120.587L212.629 120.6Z" fill="#EAEAEA"/>
<path opacity="0.58" d="M212.996 120.095L209.993 140.236C210.767 140.215 211.587 140.202 212.462 140.202C225.409 140.202 237.19 143.298 246.705 148.883C246.975 149.041 247.241 149.199 247.507 149.359V120.087L212.996 120.095Z" fill="#EAEAEA"/>
<path opacity="0.61" d="M213.362 119.59L210.359 139.731C211.133 139.71 211.953 139.697 212.828 139.697C225.775 139.697 237.556 142.806 247.07 148.375C247.341 148.533 247.607 148.694 247.873 148.854V119.583L213.362 119.59Z" fill="#EAEAEA"/>
<path opacity="0.64" d="M213.728 119.085L210.726 139.226C211.5 139.202 212.32 139.192 213.194 139.192C226.141 139.192 237.922 142.3 247.437 147.87C247.708 148.028 247.973 148.188 248.239 148.349V119.077L213.728 119.085Z" fill="#EAEAEA"/>
<path opacity="0.67" d="M214.094 118.577L211.092 138.718C211.866 138.697 212.686 138.687 213.56 138.687C226.507 138.687 238.289 141.782 247.803 147.365C248.074 147.523 248.34 147.683 248.605 147.841V118.569L214.094 118.577Z" fill="#EAEAEA"/>
<path opacity="0.69" d="M214.46 118.072L211.458 138.213C212.232 138.192 213.052 138.182 213.927 138.182C226.874 138.182 238.655 141.275 248.172 146.86L248.971 147.336V118.064L214.46 118.072Z" fill="#EAEAEA"/>
<path opacity="0.72" d="M214.827 117.567L211.837 137.707C212.611 137.687 213.431 137.676 214.306 137.676C227.253 137.676 239.034 140.769 248.551 146.354L249.351 146.831V117.559L214.827 117.567Z" fill="#EAEAEA"/>
<path opacity="0.75" d="M215.19 117.062L212.188 137.203C212.962 137.182 213.782 137.172 214.657 137.172C227.604 137.172 239.387 140.265 248.902 145.85L249.701 146.326V117.054L215.19 117.062Z" fill="#EAEAEA"/>
<path opacity="0.78" d="M215.559 116.557L212.557 136.697C213.331 136.676 214.151 136.664 215.025 136.664C227.972 136.664 239.756 139.772 249.271 145.344L250.07 145.821V116.549L215.559 116.557Z" fill="#EAEAEA"/>
<path opacity="0.81" d="M215.925 116.052L212.923 136.192C213.697 136.172 214.517 136.159 215.392 136.159C228.339 136.159 240.123 139.254 249.637 144.839L250.437 145.316V116.044L215.925 116.052Z" fill="#EAEAEA"/>
<path opacity="0.83" d="M216.292 115.546L213.29 135.687C214.063 135.666 214.884 135.653 215.758 135.653C228.705 135.653 240.489 138.762 250.003 144.334L250.803 144.81V115.539L216.292 115.546Z" fill="#EAEAEA"/>
<path opacity="0.86" d="M216.658 115.041L213.656 135.182C214.429 135.161 215.25 135.148 216.124 135.148C229.071 135.148 240.855 138.257 250.369 143.826C250.627 143.984 250.903 144.145 251.169 144.306V115.034L216.658 115.041Z" fill="#EAEAEA"/>
<path opacity="0.89" d="M217.024 114.536L214.022 134.674C214.796 134.653 215.616 134.643 216.49 134.643C229.437 134.643 241.221 137.739 250.735 143.321C250.993 143.479 251.269 143.64 251.535 143.8V114.528L217.024 114.536Z" fill="#EAEAEA"/>
<path opacity="0.92" d="M217.39 114.028L214.388 134.169C215.162 134.148 215.982 134.138 216.856 134.138C229.803 134.138 241.587 137.231 251.102 142.816L251.901 143.292V114.021L217.39 114.028Z" fill="#EAEAEA"/>
<path opacity="0.94" d="M217.769 113.536L214.767 133.677C215.541 133.656 216.361 133.646 217.236 133.646C230.183 133.646 241.967 136.739 251.481 142.324L252.281 142.8V113.536H217.769Z" fill="#EAEAEA"/>
<path opacity="0.97" d="M218.123 113.018L215.121 133.159C215.894 133.138 216.714 133.128 217.589 133.128C230.536 133.128 242.32 136.221 251.834 141.806L252.634 142.282V113.018H218.123Z" fill="#EAEAEA"/>
<path d="M218.489 112.513L215.487 132.654C216.261 132.633 217.081 132.623 217.955 132.623C230.902 132.623 242.74 135.622 252.2 141.301C252.471 141.456 252.734 141.617 253 141.777V112.505L218.489 112.513Z" fill="#EAEAEA"/>
<path d="M176.697 230.479L171.719 227.256L181.321 197.886L189.541 202.777C193.763 205.292 204.043 209.545 215.786 209.545C228.166 209.545 241.5 202.357 241.525 186.573C241.316 170.834 230.25 162.853 208.626 162.853C201.632 162.853 196.064 163.557 191.15 164.179L180.169 165.56L191.504 80.9795H253V54.2332C252.999 49.2816 251.04 44.533 247.554 41.0319C244.068 37.5308 239.34 35.5639 234.41 35.5639H162.275C159.448 31.442 156.254 27.5871 152.732 24.0469C120.816 -8.01237 69.066 -8.01237 37.1496 24.0469C9.86783 51.4485 5.91141 93.398 25.2676 125.027V215.193C25.2676 220.145 27.2261 224.894 30.7124 228.396C34.1987 231.898 38.9271 233.866 43.8578 233.867H183.057C180.854 232.902 178.728 231.769 176.697 230.479Z" fill="#5D7C3D"/>
<path d="M94.494 152.599C132.874 152.599 163.988 121.348 163.988 82.7993C163.988 44.2502 132.874 13 94.494 13C56.1135 13 25 44.2502 25 82.7993C25 121.348 56.1135 152.599 94.494 152.599Z" fill="url(#paint0_linear_53_323)"/>
<g clip-path="url(#clip0_53_323)">
<path d="M123.786 65.4511C125.771 65.4511 127.491 64.739 128.895 63.3342C130.3 61.9295 131.012 60.2109 131.012 58.2253C131.012 56.2405 130.3 54.5216 128.895 53.1165C127.49 51.712 125.771 51 123.786 51C121.801 51 120.082 51.712 118.677 53.1167C117.273 54.5213 116.56 56.2402 116.56 58.2253C116.56 60.2109 117.273 61.9298 118.677 63.3344C120.082 64.7388 121.801 65.4511 123.786 65.4511V65.4511Z" fill="#5D7C3D"/>
<path d="M136.429 74.0685C136.389 73.484 136.307 72.8463 136.186 72.1729C136.064 71.4945 135.908 70.8532 135.72 70.267C135.526 69.6612 135.262 69.0629 134.937 68.4896C134.598 67.8945 134.201 67.3763 133.755 66.9499C133.289 66.5038 132.718 66.1451 132.058 65.8835C131.4 65.6233 130.671 65.4914 129.891 65.4914C129.585 65.4914 129.289 65.6171 128.717 65.9895C128.365 66.2191 127.953 66.4846 127.494 66.7782C127.101 67.0286 126.568 67.2632 125.911 67.4756C125.269 67.6832 124.618 67.7885 123.975 67.7885C123.332 67.7885 122.681 67.6832 122.038 67.4756C121.382 67.2634 120.849 67.0288 120.457 66.7784C120.001 66.4875 119.589 66.222 119.232 65.9893C118.661 65.6169 118.364 65.4912 118.058 65.4912C117.278 65.4912 116.549 65.6233 115.892 65.8837C115.232 66.1449 114.661 66.5036 114.194 66.9501C113.749 67.3767 113.351 67.8947 113.013 68.4896C112.688 69.0629 112.424 69.661 112.23 70.2673C112.043 70.8534 111.886 71.4945 111.764 72.1729C111.643 72.8454 111.561 73.4833 111.521 74.0692C111.481 74.6432 111.461 75.239 111.461 75.8407C111.461 77.4068 111.959 78.6745 112.94 79.6095C113.91 80.5321 115.193 81.0002 116.753 81.0002H131.198C132.758 81.0002 134.04 80.5324 135.01 79.6095C135.992 78.6752 136.49 77.4072 136.49 75.8405C136.49 75.236 136.469 74.6398 136.429 74.0685V74.0685Z" fill="#5D7C3D"/>
</g>
<g clip-path="url(#clip1_53_323)">
<path d="M77.7861 99.4511C79.7714 99.4511 81.4905 98.739 82.8952 97.3342C84.2998 95.9295 85.0118 94.2109 85.0118 92.2253C85.0118 90.2405 84.2998 88.5216 82.8949 87.1165C81.4901 85.712 79.7712 85 77.7861 85C75.8005 85 74.0819 85.712 72.6772 87.1167C71.2726 88.5213 70.5603 90.2402 70.5603 92.2253C70.5603 94.2109 71.2726 95.9298 72.6775 97.3344C74.0823 98.7388 75.8012 99.4511 77.7861 99.4511V99.4511Z" fill="#5D7C3D"/>
<path d="M90.4293 108.069C90.3888 107.484 90.3069 106.846 90.1863 106.173C90.0645 105.495 89.9077 104.853 89.72 104.267C89.5262 103.661 89.2625 103.063 88.9366 102.49C88.5983 101.894 88.2009 101.376 87.7551 100.95C87.2889 100.504 86.718 100.145 86.0579 99.8835C85.4001 99.6233 84.6711 99.4914 83.8913 99.4914C83.5851 99.4914 83.2889 99.6171 82.717 99.9895C82.3649 100.219 81.9532 100.485 81.4936 100.778C81.1006 101.029 80.5682 101.263 79.9106 101.476C79.2691 101.683 78.6177 101.788 77.9748 101.788C77.3318 101.788 76.6807 101.683 76.0384 101.476C75.3816 101.263 74.8492 101.029 74.4566 100.778C74.0014 100.488 73.5894 100.222 73.2321 99.9893C72.6608 99.6169 72.3644 99.4912 72.0582 99.4912C71.2782 99.4912 70.5494 99.6233 69.8918 99.8837C69.2322 100.145 68.6612 100.504 68.1945 100.95C67.7488 101.377 67.3513 101.895 67.0134 102.49C66.6877 103.063 66.4241 103.661 66.23 104.267C66.0425 104.853 65.8857 105.495 65.764 106.173C65.6434 106.845 65.5614 107.483 65.5209 108.069C65.4811 108.643 65.4609 109.239 65.4609 109.841C65.4609 111.407 65.9588 112.675 66.9404 113.61C67.91 114.532 69.1928 115 70.7529 115H85.198C86.7581 115 88.0405 114.532 89.0103 113.61C89.9922 112.675 90.49 111.407 90.49 109.841C90.4897 109.236 90.4694 108.64 90.4293 108.069V108.069Z" fill="#5D7C3D"/>
</g>
<g clip-path="url(#clip2_53_323)">
<path d="M93.7861 65.4511C95.7714 65.4511 97.4905 64.739 98.8952 63.3342C100.3 61.9295 101.012 60.2109 101.012 58.2253C101.012 56.2405 100.3 54.5216 98.8949 53.1165C97.4901 51.712 95.7712 51 93.7861 51C91.8005 51 90.0819 51.712 88.6772 53.1167C87.2726 54.5213 86.5603 56.2402 86.5603 58.2253C86.5603 60.2109 87.2726 61.9298 88.6775 63.3344C90.0823 64.7388 91.8012 65.4511 93.7861 65.4511V65.4511Z" fill="#5D7C3D"/>
<path d="M106.429 74.0685C106.389 73.484 106.307 72.8463 106.186 72.1729C106.064 71.4945 105.908 70.8532 105.72 70.267C105.526 69.6612 105.262 69.0629 104.937 68.4896C104.598 67.8945 104.201 67.3763 103.755 66.9499C103.289 66.5038 102.718 66.1451 102.058 65.8835C101.4 65.6233 100.671 65.4914 99.8913 65.4914C99.5851 65.4914 99.2889 65.6171 98.717 65.9895C98.3649 66.2191 97.9532 66.4846 97.4936 66.7782C97.1006 67.0286 96.5682 67.2632 95.9106 67.4756C95.2691 67.6832 94.6177 67.7885 93.9748 67.7885C93.3318 67.7885 92.6807 67.6832 92.0384 67.4756C91.3816 67.2634 90.8492 67.0288 90.4566 66.7784C90.0014 66.4875 89.5894 66.222 89.2321 65.9893C88.6608 65.6169 88.3644 65.4912 88.0582 65.4912C87.2782 65.4912 86.5494 65.6233 85.8918 65.8837C85.2322 66.1449 84.6612 66.5036 84.1945 66.9501C83.7488 67.3767 83.3513 67.8947 83.0134 68.4896C82.6877 69.0629 82.4241 69.661 82.23 70.2673C82.0425 70.8534 81.8857 71.4945 81.764 72.1729C81.6434 72.8454 81.5614 73.4833 81.5209 74.0692C81.4811 74.6432 81.4609 75.239 81.4609 75.8407C81.4609 77.4068 81.9588 78.6745 82.9404 79.6095C83.91 80.5321 85.1928 81.0002 86.7529 81.0002H101.198C102.758 81.0002 104.04 80.5324 105.01 79.6095C105.992 78.6752 106.49 77.4072 106.49 75.8405C106.49 75.236 106.469 74.6398 106.429 74.0685V74.0685Z" fill="#5D7C3D"/>
</g>
<g clip-path="url(#clip3_53_323)">
<path d="M63.7861 65.4511C65.7714 65.4511 67.4905 64.739 68.8952 63.3342C70.2998 61.9295 71.0118 60.2109 71.0118 58.2253C71.0118 56.2405 70.2998 54.5216 68.8949 53.1165C67.4901 51.712 65.7712 51 63.7861 51C61.8005 51 60.0819 51.712 58.6772 53.1167C57.2726 54.5213 56.5603 56.2402 56.5603 58.2253C56.5603 60.2109 57.2726 61.9298 58.6775 63.3344C60.0823 64.7388 61.8012 65.4511 63.7861 65.4511V65.4511Z" fill="#5D7C3D"/>
<path d="M76.4293 74.0685C76.3888 73.484 76.3069 72.8463 76.1863 72.1729C76.0645 71.4945 75.9077 70.8532 75.72 70.267C75.5262 69.6612 75.2625 69.0629 74.9366 68.4896C74.5983 67.8945 74.2009 67.3763 73.7551 66.9499C73.2889 66.5038 72.718 66.1451 72.0579 65.8835C71.4001 65.6233 70.6711 65.4914 69.8913 65.4914C69.5851 65.4914 69.2889 65.6171 68.717 65.9895C68.3649 66.2191 67.9532 66.4846 67.4936 66.7782C67.1006 67.0286 66.5682 67.2632 65.9106 67.4756C65.2691 67.6832 64.6177 67.7885 63.9748 67.7885C63.3318 67.7885 62.6807 67.6832 62.0384 67.4756C61.3816 67.2634 60.8492 67.0288 60.4566 66.7784C60.0014 66.4875 59.5894 66.222 59.2321 65.9893C58.6608 65.6169 58.3644 65.4912 58.0582 65.4912C57.2782 65.4912 56.5494 65.6233 55.8918 65.8837C55.2322 66.1449 54.6612 66.5036 54.1945 66.9501C53.7488 67.3767 53.3513 67.8947 53.0134 68.4896C52.6877 69.0629 52.4241 69.661 52.23 70.2673C52.0425 70.8534 51.8857 71.4945 51.764 72.1729C51.6434 72.8454 51.5614 73.4833 51.5209 74.0692C51.4811 74.6432 51.4609 75.239 51.4609 75.8407C51.4609 77.4068 51.9588 78.6745 52.9404 79.6095C53.91 80.5321 55.1928 81.0002 56.7529 81.0002H71.198C72.7581 81.0002 74.0405 80.5324 75.0103 79.6095C75.9922 78.6752 76.49 77.4072 76.49 75.8405C76.4897 75.236 76.4694 74.6398 76.4293 74.0685V74.0685Z" fill="#5D7C3D"/>
</g>
<g clip-path="url(#clip4_53_323)">
<path d="M107.786 99.4511C109.771 99.4511 111.491 98.739 112.895 97.3342C114.3 95.9295 115.012 94.2109 115.012 92.2253C115.012 90.2405 114.3 88.5216 112.895 87.1165C111.49 85.712 109.771 85 107.786 85C105.801 85 104.082 85.712 102.677 87.1167C101.273 88.5213 100.56 90.2402 100.56 92.2253C100.56 94.2109 101.273 95.9298 102.677 97.3344C104.082 98.7388 105.801 99.4511 107.786 99.4511V99.4511Z" fill="#5D7C3D"/>
<path d="M120.429 108.069C120.389 107.484 120.307 106.846 120.186 106.173C120.064 105.495 119.908 104.853 119.72 104.267C119.526 103.661 119.262 103.063 118.937 102.49C118.598 101.894 118.201 101.376 117.755 100.95C117.289 100.504 116.718 100.145 116.058 99.8835C115.4 99.6233 114.671 99.4914 113.891 99.4914C113.585 99.4914 113.289 99.6171 112.717 99.9895C112.365 100.219 111.953 100.485 111.494 100.778C111.101 101.029 110.568 101.263 109.911 101.476C109.269 101.683 108.618 101.788 107.975 101.788C107.332 101.788 106.681 101.683 106.038 101.476C105.382 101.263 104.849 101.029 104.457 100.778C104.001 100.488 103.589 100.222 103.232 99.9893C102.661 99.6169 102.364 99.4912 102.058 99.4912C101.278 99.4912 100.549 99.6233 99.8918 99.8837C99.2322 100.145 98.6612 100.504 98.1945 100.95C97.7488 101.377 97.3513 101.895 97.0134 102.49C96.6877 103.063 96.4241 103.661 96.23 104.267C96.0425 104.853 95.8857 105.495 95.764 106.173C95.6434 106.845 95.5614 107.483 95.5209 108.069C95.4811 108.643 95.4609 109.239 95.4609 109.841C95.4609 111.407 95.9588 112.675 96.9404 113.61C97.91 114.532 99.1928 115 100.753 115H115.198C116.758 115 118.04 114.532 119.01 113.61C119.992 112.675 120.49 111.407 120.49 109.841C120.49 109.236 120.469 108.64 120.429 108.069V108.069Z" fill="#5D7C3D"/>
</g>
<path d="M218.489 112.513L215.487 132.654C216.261 132.633 217.081 132.623 217.955 132.623C230.902 132.623 242.74 135.622 252.2 141.301C252.471 141.456 252.734 141.617 253 141.777V112.505L218.489 112.513Z" fill="#5D7C3D"/>
<defs>
<linearGradient id="paint0_linear_53_323" x1="143.652" y1="33.4564" x2="44.942" y2="131.735" gradientUnits="userSpaceOnUse">
<stop stop-color="#E6E6E6"/>
<stop offset="0.03" stop-color="#E9E9E9"/>
<stop offset="0.21" stop-color="#F6F6F6"/>
<stop offset="0.45" stop-color="#FDFDFD"/>
<stop offset="1" stop-color="white"/>
</linearGradient>
<clipPath id="clip0_53_323">
<rect width="29.9999" height="30" fill="white" transform="translate(109 51)"/>
</clipPath>
<clipPath id="clip1_53_323">
<rect width="29.9999" height="30" fill="white" transform="translate(63 85)"/>
</clipPath>
<clipPath id="clip2_53_323">
<rect width="29.9999" height="30" fill="white" transform="translate(79 51)"/>
</clipPath>
<clipPath id="clip3_53_323">
<rect width="29.9999" height="30" fill="white" transform="translate(49 51)"/>
</clipPath>
<clipPath id="clip4_53_323">
<rect width="29.9999" height="30" fill="white" transform="translate(93 85)"/>
</clipPath>
</defs>
</svg>
