<svg width="254" height="253" viewBox="0 0 254 253" fill="none" xmlns="http://www.w3.org/2000/svg">
<path opacity="0.03" d="M222.191 53.4404H150.218C135.497 31.8232 110.758 17.6328 82.71 17.6328C37.5757 17.6328 0.980812 54.3859 0.980812 99.7211C0.957065 114.992 5.19583 129.964 13.2161 142.937V232.825C13.2161 237.778 15.175 242.528 18.6618 246.03C22.1486 249.532 26.8777 251.5 31.8088 251.5H163.307V235.271L216.315 161.806C218.626 158.698 220.502 155.288 221.894 151.67C223.204 148.199 223.859 144.969 223.859 141.981V141.759C223.859 137.355 222.514 133.958 219.823 131.568C217.132 129.178 213.307 127.983 208.348 127.983C203.534 127.983 199.639 129.644 196.663 132.967C193.686 136.289 191.881 141.012 191.246 147.134V147.245H161.393V147.134C162.031 136.983 164.352 128.248 168.357 120.929C172.361 113.61 177.761 108.029 184.556 104.184C191.358 100.34 199.22 98.4181 208.142 98.4181C217.771 98.4181 226.003 100.079 232.84 103.4C235.697 104.773 238.368 106.507 240.788 108.56V72.1149C240.788 69.6621 240.307 67.2333 239.373 64.9673C238.438 62.7012 237.068 60.6423 235.341 58.9082C233.614 57.174 231.564 55.7986 229.307 54.8604C227.051 53.9222 224.633 53.4397 222.191 53.4404Z" fill="#EAEAEA"/>
<path opacity="0.06" d="M222.564 52.938H150.589C135.868 31.3208 111.129 17.1304 83.0813 17.1304C37.947 17.1304 1.35214 53.8835 1.35214 99.2187C1.32963 114.489 5.56834 129.461 13.5874 142.435V232.323C13.5881 237.276 15.5472 242.025 19.0339 245.527C22.5205 249.029 27.2493 250.997 32.1802 250.997H163.678V234.768L216.689 161.301C218.997 158.194 220.873 154.786 222.265 151.17C223.575 147.699 224.231 144.469 224.231 141.482V141.259C224.231 136.853 222.885 133.456 220.194 131.068C217.503 128.68 213.679 127.485 208.72 127.483C203.905 127.483 200.01 129.144 197.034 132.467C194.058 135.79 192.252 140.512 191.618 146.634V146.745H161.765V146.634C162.403 136.481 164.724 127.745 168.728 120.427C172.733 113.108 178.135 107.526 184.935 103.682C191.734 99.8378 199.595 97.9157 208.519 97.9157C218.147 97.9157 226.381 99.5762 233.219 102.897C236.073 104.272 238.741 106.006 241.16 108.057V71.6124C241.16 69.1598 240.679 66.7313 239.744 64.4654C238.81 62.1996 237.44 60.1408 235.713 58.4067C233.986 56.6726 231.936 55.2971 229.68 54.3587C227.424 53.4204 225.006 52.9376 222.564 52.938Z" fill="#EAEAEA"/>
<path opacity="0.08" d="M222.936 52.4355H150.961C136.24 30.8183 111.501 16.6279 83.453 16.6279C38.3186 16.6279 1.72372 53.381 1.72372 98.7163C1.70122 113.987 5.93989 128.959 13.959 141.933V231.821C13.9597 236.773 15.9189 241.522 19.4056 245.024C22.8924 248.525 27.6211 250.493 32.5518 250.493H164.045V234.266L217.056 160.799C219.365 157.691 221.241 154.282 222.632 150.665C223.942 147.194 224.597 143.964 224.597 140.977V140.754C224.597 136.348 223.252 132.951 220.561 130.56C217.87 128.17 214.045 126.976 209.086 126.978C204.272 126.978 200.378 128.639 197.403 131.962C194.428 135.285 192.623 140.007 191.987 146.129V146.248H162.136V146.137C162.772 135.986 165.094 127.25 169.1 119.929C173.106 112.609 178.507 107.028 185.302 103.187C192.1 99.3431 199.961 97.4202 208.885 97.4184C218.514 97.4184 226.747 99.0798 233.585 102.402C236.441 103.777 239.111 105.511 241.531 107.563V71.11C241.531 68.6574 241.05 66.2288 240.116 63.963C239.181 61.6971 237.812 59.6384 236.085 57.9042C234.358 56.1701 232.308 54.7946 230.052 53.8563C227.796 52.918 225.378 52.4352 222.936 52.4355Z" fill="#EAEAEA"/>
<path opacity="0.11" d="M223.307 51.9331H151.332C136.613 30.3159 111.872 16.1255 83.8266 16.1255C38.6923 16.1255 2.09481 52.8786 2.09481 98.2138C2.07258 113.485 6.31127 128.456 14.3301 141.43V231.318C14.3308 236.27 16.29 241.02 19.7767 244.521C23.2634 248.023 27.9922 249.99 32.9229 249.99H164.421V233.764L217.432 160.296C219.741 157.189 221.617 153.78 223.008 150.162C224.318 146.691 224.973 143.462 224.973 140.474V140.251C224.973 135.846 223.628 132.448 220.937 130.058C218.246 127.668 214.421 126.474 209.463 126.475C204.648 126.475 200.754 128.137 197.779 131.459C194.805 134.782 192.999 139.504 192.363 145.627V145.73H162.51V145.619C163.148 135.464 165.469 126.728 169.474 119.411C173.478 112.094 178.878 106.514 185.673 102.669C192.471 98.8251 200.333 96.9022 209.256 96.9005C218.885 96.9005 227.118 98.5618 233.956 101.884C236.813 103.259 239.484 104.993 241.905 107.045V70.6075C241.905 68.1548 241.423 65.7262 240.489 63.4603C239.554 61.1945 238.184 59.1357 236.457 57.4016C234.73 55.6675 232.68 54.2921 230.424 53.3538C228.167 52.4155 225.749 51.9327 223.307 51.9331Z" fill="#EAEAEA"/>
<path opacity="0.14" d="M223.679 51.438H151.704C136.985 29.8208 112.243 15.6304 84.1982 15.6304C39.0639 15.6304 2.46637 52.3835 2.46637 97.7187C2.44835 112.988 6.69154 127.957 14.7145 140.927V230.815C14.7145 235.767 16.6731 240.517 20.1595 244.018C23.6458 247.52 28.3743 249.487 33.3047 249.487H164.793V233.261L217.804 159.793C220.113 156.686 221.989 153.277 223.38 149.66C224.69 146.187 225.346 142.957 225.347 139.971V139.748C225.347 135.343 224.001 131.945 221.309 129.555C218.616 127.165 214.792 125.971 209.837 125.973C205.022 125.973 201.127 127.634 198.151 130.957C195.174 134.279 193.369 139.002 192.735 145.124V145.235H162.882V145.124C163.519 134.969 165.841 126.233 169.845 118.916C173.85 111.599 179.249 106.018 186.044 102.174C192.843 98.33 200.704 96.4071 209.628 96.4053C219.256 96.4053 227.49 98.0667 234.328 101.389C237.184 102.764 239.855 104.497 242.277 106.547V70.1046C242.274 65.1525 240.313 60.4042 236.826 56.9038C233.338 53.4033 228.609 51.4373 223.679 51.438Z" fill="#EAEAEA"/>
<path opacity="0.17" d="M224.05 50.9199H152.075C137.356 29.3001 112.615 15.1123 84.5696 15.1123C39.4352 15.1123 2.83774 51.8654 2.83774 97.2006C2.81518 112.472 7.05485 127.443 15.0756 140.417V230.305C15.0756 235.257 17.0342 240.006 20.5205 243.508C24.0069 247.01 28.7354 248.977 33.6658 248.977H165.164V232.768L218.175 159.301C220.484 156.193 222.361 152.784 223.754 149.167C225.064 145.693 225.719 142.463 225.719 139.479V139.254C225.719 134.85 224.372 131.453 221.68 129.063C218.987 126.673 215.164 125.475 210.211 125.47C205.396 125.47 201.501 127.131 198.525 130.454C195.548 133.777 193.743 138.499 193.109 144.621V144.732H163.253V144.621C163.891 134.467 166.212 125.731 170.216 118.414C174.221 111.097 179.621 105.516 186.416 101.672C193.216 97.8275 201.077 95.9045 209.999 95.9028C219.628 95.9028 227.861 97.5641 234.699 100.887C237.556 102.261 240.227 103.994 242.648 106.044V69.6021C242.649 67.1486 242.169 64.7188 241.235 62.4517C240.301 60.1846 238.931 58.1247 237.204 56.3897C235.477 54.6546 233.426 53.2785 231.169 52.34C228.912 51.4014 226.493 50.9189 224.05 50.9199Z" fill="#EAEAEA"/>
<path opacity="0.19" d="M224.424 50.4253H152.439C137.717 28.8055 112.978 14.6177 84.9305 14.6177C39.7962 14.6177 3.20127 51.3682 3.20127 96.706C3.1778 111.977 7.41658 126.949 15.4366 139.922V229.81C15.4362 232.263 15.9169 234.691 16.8511 236.957C17.7854 239.223 19.1549 241.282 20.8815 243.016C22.608 244.75 24.6578 246.126 26.9138 247.064C29.1697 248.002 31.5876 248.485 34.0293 248.485H165.528V232.251L218.536 158.783C220.854 155.678 222.739 152.27 224.138 148.652C225.448 145.181 226.103 141.952 226.103 138.966V138.736C226.103 134.332 224.757 130.935 222.067 128.545C219.376 126.155 215.551 124.961 210.592 124.962C205.778 124.962 201.883 126.624 198.906 129.946C195.93 133.269 194.125 137.991 193.49 144.114V144.225H163.624V144.114C164.26 133.959 166.582 125.223 170.588 117.906C174.594 110.589 179.992 105.012 186.782 101.174C193.582 97.3303 201.444 95.4073 210.368 95.4056C219.996 95.4056 228.229 97.0669 235.065 100.39C237.922 101.764 240.593 103.497 243.014 105.547V69.0997C243.014 66.6475 242.534 64.2192 241.6 61.9535C240.666 59.6878 239.296 57.6292 237.57 55.895C235.844 54.1609 233.794 52.7853 231.539 51.8468C229.283 50.9083 226.865 50.4253 224.424 50.4253Z" fill="#EAEAEA"/>
<path opacity="0.22" d="M224.795 49.9228H152.82C138.099 28.303 113.36 14.1152 85.3123 14.1152C40.178 14.1152 3.58309 50.8657 3.58309 96.2035C3.56086 111.474 7.79955 126.446 15.8184 139.42V229.308C15.8184 234.261 17.7772 239.011 21.2641 242.513C24.7509 246.015 29.48 247.982 34.4111 247.982H165.909V231.753L218.92 158.286C221.23 155.178 223.106 151.768 224.496 148.15C225.805 144.678 226.459 141.454 226.459 138.477V138.251C226.459 133.848 225.113 130.451 222.423 128.061C219.732 125.671 215.907 124.476 210.948 124.478C206.134 124.478 202.239 126.139 199.262 129.46C196.286 132.78 194.481 137.503 193.846 143.627V143.741H163.996V143.627C164.632 133.474 166.953 124.739 170.959 117.422C174.965 110.105 180.364 104.516 187.156 100.657C193.954 96.8123 201.816 94.8893 210.739 94.8876C220.368 94.8876 228.601 96.5489 235.439 99.8716C238.295 101.245 240.965 102.978 243.386 105.029V68.5973C243.386 66.145 242.905 63.7167 241.971 61.4511C241.037 59.1854 239.668 57.1267 237.942 55.3926C236.215 53.6585 234.166 52.2829 231.91 51.3444C229.654 50.4059 227.237 49.9228 224.795 49.9228Z" fill="#EAEAEA"/>
<path opacity="0.25" d="M225.169 49.42H153.192C138.47 27.8003 113.731 13.6099 85.6837 13.6099C40.5493 13.6099 3.95443 50.363 3.95443 95.7008C3.9322 110.971 8.17086 125.943 16.1897 138.917V228.805C16.1897 233.758 18.1486 238.508 21.6354 242.01C25.1222 245.512 29.8514 247.48 34.7825 247.48H166.281V231.251L219.292 157.783C221.602 154.675 223.478 151.265 224.868 147.647C226.178 144.176 226.833 140.947 226.833 137.961V137.736C226.833 133.332 225.487 129.935 222.797 127.545C220.106 125.155 216.281 123.963 211.322 123.97C206.508 123.97 202.613 125.631 199.639 128.952C196.664 132.273 194.859 136.995 194.223 143.119V143.233H164.367V143.119C165.003 132.968 167.324 124.233 171.331 116.914C175.337 109.595 180.737 104.013 187.532 100.169C194.331 96.3251 202.192 94.403 211.116 94.403C220.744 94.403 228.978 96.0643 235.816 99.387C238.67 100.761 241.34 102.493 243.76 104.542V68.0919C243.759 63.14 241.8 58.3912 238.314 54.8897C234.828 51.3882 230.1 49.4207 225.169 49.42Z" fill="#EAEAEA"/>
<path opacity="0.28" d="M225.538 48.9176H153.563C138.844 27.2978 114.103 13.1074 86.0576 13.1074C40.9233 13.1074 4.32577 49.8605 4.32577 95.1983C4.30354 110.469 8.54223 125.44 16.5611 138.415V228.303C16.5617 233.255 18.5208 238.005 22.0075 241.507C25.4942 245.009 30.2229 246.976 35.1538 246.977H166.652V230.748L219.663 157.281C221.972 154.173 223.848 150.762 225.239 147.144C226.549 143.673 227.204 140.445 227.204 137.459V137.233C227.204 132.83 225.859 129.433 223.168 127.043C220.477 124.652 216.653 123.456 211.696 123.452C206.882 123.452 202.986 125.114 200.01 128.436C197.034 131.759 195.229 136.481 194.594 142.603V142.715H164.741V142.621C165.379 132.469 167.7 123.734 171.705 116.417C175.709 109.099 181.109 103.518 187.904 99.672C194.702 95.8278 202.564 93.9057 211.487 93.9057C221.116 93.9057 229.349 95.567 236.187 98.8897C239.041 100.256 241.71 101.981 244.131 104.024V67.5895C244.13 62.6371 242.171 57.8879 238.684 54.3863C235.198 50.8847 230.469 48.9176 225.538 48.9176Z" fill="#EAEAEA"/>
<path opacity="0.31" d="M225.91 48.4152H153.935C139.216 26.7954 114.474 12.605 86.4292 12.605C41.2948 12.605 4.69736 49.3581 4.69736 94.6959C4.6748 109.967 8.91444 124.939 16.9352 137.912V227.8C16.9352 232.753 18.8937 237.502 22.38 241.004C25.8663 244.506 30.5947 246.474 35.5254 246.475H167.024V230.246L220.034 156.778C222.344 153.67 224.22 150.26 225.61 146.642C226.921 143.171 227.577 139.941 227.578 136.954V136.731C227.578 132.327 226.232 128.93 223.539 126.54C220.847 124.15 217.023 122.955 212.068 122.955C207.253 122.955 203.358 124.616 200.382 127.939C197.405 131.262 195.6 135.984 194.966 142.106V142.217H165.112V142.103C165.749 131.952 168.07 123.217 172.076 115.899C176.082 108.58 181.482 102.998 188.275 99.154C195.07 95.3202 202.93 93.4033 211.854 93.4033C221.482 93.4033 229.716 95.0646 236.554 98.3872C239.414 99.7551 242.088 101.484 244.513 103.532V67.087C244.512 64.634 244.031 62.2051 243.096 59.939C242.161 57.673 240.79 55.6141 239.062 53.8802C237.335 52.1463 235.284 50.7712 233.027 49.8334C230.771 48.8957 228.352 48.4138 225.91 48.4152Z" fill="#EAEAEA"/>
<path opacity="0.33" d="M226.281 47.9127H154.306C139.587 26.2929 114.846 12.1025 86.8004 12.1025C41.6661 12.1025 5.07114 48.8556 5.07114 94.1934C5.04733 109.464 9.28615 124.435 17.3064 137.407V227.295C17.3064 232.248 19.2653 236.998 22.7521 240.5C26.2389 244.002 30.9681 245.97 35.8992 245.97H167.397V229.741L220.408 156.276C222.718 153.167 224.594 149.757 225.987 146.139C227.297 142.668 227.952 139.439 227.952 136.451V136.228C227.952 131.825 226.606 128.428 223.913 126.038C221.221 123.648 217.397 122.453 212.442 122.453C207.627 122.453 203.732 124.114 200.756 127.437C197.779 130.759 195.974 135.482 195.339 141.604V141.715H165.484V141.604C166.12 131.451 168.441 122.716 172.447 115.399C176.454 108.082 181.853 102.5 188.647 98.6542C195.445 94.8082 203.305 92.8853 212.227 92.8853C221.856 92.8853 230.089 94.5466 236.925 97.8693C239.783 99.2413 242.454 100.975 244.874 103.027V66.5846C244.874 64.1323 244.393 61.7041 243.458 59.4386C242.524 57.173 241.154 55.1145 239.428 53.3807C237.701 51.6468 235.652 50.2715 233.396 49.3333C231.14 48.3951 228.723 47.9124 226.281 47.9127Z" fill="#EAEAEA"/>
<path opacity="0.36" d="M226.655 47.4072H154.68C139.958 25.79 115.22 11.5996 87.1719 11.5996C42.0376 11.5996 5.44272 48.3527 5.44272 93.6905C5.41932 108.961 9.65808 123.931 17.678 136.904V226.792C17.678 231.745 19.6368 236.495 23.1237 239.997C26.6105 243.499 31.3396 245.467 36.2707 245.467H167.769V229.238L220.785 155.773C223.095 152.665 224.972 149.255 226.364 145.637C227.674 142.165 228.329 138.936 228.329 135.948V135.726C228.329 131.322 226.983 127.925 224.293 125.535C221.602 123.145 217.777 121.95 212.818 121.95C208.004 121.95 204.109 123.611 201.132 126.934C198.156 130.256 196.351 134.979 195.716 141.101V141.212H165.85V141.101C166.486 130.95 168.807 122.215 172.814 114.896C176.82 107.577 182.22 101.995 189.013 98.1512C195.815 94.307 203.677 92.3849 212.599 92.3849C222.228 92.3849 230.461 94.0463 237.299 97.3689C240.155 98.7416 242.826 100.475 245.245 102.526V66.0816C245.245 61.1293 243.287 56.3798 239.8 52.8777C236.314 49.3757 231.586 47.4079 226.655 47.4072Z" fill="#EAEAEA"/>
<path opacity="0.39" d="M227.026 46.9048H155.051C140.33 25.2876 115.591 11.0972 87.5433 11.0972C42.409 11.0972 5.81406 47.8503 5.81406 93.1855C5.79107 108.457 10.0298 123.43 18.0493 136.404V226.292C18.05 231.245 20.0091 235.994 23.4958 239.496C26.9825 242.998 31.7112 244.966 36.6421 244.967H168.14V228.735L221.151 155.27C223.457 152.161 225.329 148.751 226.717 145.134C228.027 141.663 228.682 138.433 228.682 135.446V135.223C228.682 130.816 227.337 127.419 224.646 125.032C221.955 122.646 218.13 121.451 213.171 121.447C208.357 121.447 204.462 123.108 201.486 126.431C198.509 129.754 196.704 134.476 196.069 140.598V140.71H166.227V140.598C166.863 130.445 169.184 121.71 173.19 114.393C177.196 107.076 182.597 101.495 189.392 97.6488C196.191 93.8046 204.052 91.8825 212.975 91.8825C222.604 91.8825 230.837 93.5429 237.676 96.8639C240.532 98.2384 243.202 99.9724 245.622 102.024V65.5792C245.622 63.1266 245.141 60.6981 244.206 58.4322C243.272 56.1663 241.902 54.1076 240.175 52.3735C238.448 50.6393 236.398 49.2638 234.142 48.3255C231.886 47.3872 229.468 46.9044 227.026 46.9048Z" fill="#EAEAEA"/>
<path opacity="0.42" d="M227.398 46.4023H155.423C140.704 24.7851 115.962 10.5947 87.9146 10.5947C42.7803 10.5947 6.18539 47.3478 6.18539 92.6831C6.16289 107.954 10.4016 122.925 18.4206 135.899V225.787C18.4213 230.74 20.3804 235.489 23.8671 238.991C27.3538 242.493 32.0825 244.461 37.0134 244.462H168.512V228.233L221.523 154.765C223.832 151.658 225.708 148.249 227.099 144.632C228.409 141.16 229.064 137.931 229.064 134.943V134.721C229.064 130.315 227.718 126.918 225.028 124.53C222.337 122.141 218.515 120.946 213.563 120.945C208.749 120.945 204.855 122.606 201.88 125.929C198.906 129.251 197.1 133.974 196.464 140.096V140.207H166.598V140.096C167.234 129.943 169.555 121.207 173.562 113.888C177.568 106.57 182.968 100.989 189.763 97.1464C196.562 93.3022 204.423 91.3801 213.347 91.3801C222.975 91.3801 231.209 93.0405 238.047 96.3615C240.903 97.7365 243.574 99.4704 245.996 101.522V65.0768C245.995 62.6241 245.514 60.1954 244.579 57.9296C243.644 55.6637 242.274 53.6049 240.547 51.8709C238.82 50.1368 236.77 48.7613 234.514 47.823C232.258 46.8847 229.84 46.402 227.398 46.4023Z" fill="#EAEAEA"/>
<path opacity="0.44" d="M227.769 45.8999H155.792C141.073 24.2827 116.331 10.0923 88.2861 10.0923C43.1518 10.0923 6.55429 46.8454 6.55429 92.1806C6.53173 107.452 10.7714 122.423 18.7922 135.397V225.285C18.7922 230.237 20.7508 234.986 24.2371 238.488C27.7234 241.99 32.4519 243.957 37.3823 243.957H168.881V227.73L221.894 154.263C224.203 151.156 226.079 147.746 227.47 144.129C228.78 140.658 229.435 137.429 229.435 134.441V134.218C229.435 129.813 228.09 126.415 225.399 124.025C222.708 121.635 218.884 120.441 213.927 120.442C209.113 120.442 205.218 122.104 202.241 125.426C199.265 128.749 197.46 133.471 196.825 139.593V139.705H166.972V139.593C167.608 129.439 169.929 120.703 173.936 113.386C177.942 106.069 183.342 100.488 190.135 96.6439C196.933 92.7997 204.795 90.8768 213.718 90.875C223.347 90.875 231.58 92.5364 238.418 95.859C241.275 97.234 243.946 98.968 246.367 101.019V64.5743C246.367 62.1216 245.886 59.693 244.951 57.4271C244.016 55.1613 242.646 53.1025 240.919 51.3684C239.192 49.6343 237.142 48.2589 234.886 47.3206C232.629 46.3823 230.211 45.8995 227.769 45.8999Z" fill="#EAEAEA"/>
<path opacity="0.47" d="M228.141 45.3974H156.166C141.447 23.7803 116.705 9.58984 88.6601 9.58984C43.5258 9.58984 6.92831 46.343 6.92831 91.6782C6.90575 106.949 11.1454 121.921 19.1661 134.894V224.783C19.1661 229.735 21.1247 234.484 24.6111 237.986C28.0974 241.487 32.8259 243.454 37.7563 243.454H169.255V227.228L222.265 153.761C224.575 150.653 226.451 147.244 227.841 143.627C229.152 140.154 229.808 136.924 229.809 133.939V133.716C229.809 129.31 228.463 125.912 225.77 123.522C223.078 121.132 219.254 119.938 214.299 119.94C209.484 119.94 205.589 121.601 202.613 124.924C199.636 128.246 197.831 132.969 197.197 139.091V139.202H167.343V139.091C167.98 128.936 170.301 120.201 174.307 112.883C178.313 105.566 183.713 99.9857 190.506 96.1415C197.305 92.2973 205.166 90.3743 214.09 90.3726C223.718 90.3726 231.952 92.0339 238.79 95.3566C241.646 96.7305 244.317 98.4636 246.739 100.514V64.0719C246.739 61.6191 246.258 59.1903 245.323 56.9243C244.388 54.6583 243.018 52.5994 241.291 50.8652C239.564 49.1311 237.514 47.7556 235.257 46.8175C233.001 45.8793 230.583 45.3968 228.141 45.3974Z" fill="#EAEAEA"/>
<path opacity="0.5" d="M228.522 44.8945H156.54C141.818 23.2747 117.079 9.08691 89.0316 9.08691C43.8972 9.08691 7.30234 45.84 7.30234 91.1752C7.27887 106.446 11.5176 121.418 19.5376 134.391V224.28C19.5376 226.732 20.0185 229.16 20.953 231.426C21.8874 233.691 23.2569 235.75 24.9835 237.483C26.71 239.217 28.7597 240.593 31.0154 241.531C33.2712 242.469 35.6889 242.952 38.1304 242.951H169.626V226.725L222.637 153.258C224.947 150.15 226.824 146.741 228.215 143.124C229.526 139.649 230.181 136.42 230.181 133.436V133.213C230.181 128.807 228.835 125.41 226.144 123.019C223.454 120.629 219.629 119.435 214.67 119.437C209.856 119.437 205.96 121.098 202.984 124.421C200.008 127.744 198.202 132.466 197.568 138.588V138.699H167.715V138.588C168.351 128.433 170.672 119.698 174.678 112.381C178.685 105.063 184.081 99.4827 190.867 95.6385C197.669 91.7943 205.531 89.8714 214.453 89.8696C224.082 89.8696 232.314 91.531 239.151 94.8536C242.007 96.2276 244.678 97.9606 247.1 100.011V63.5689C247.1 58.6189 245.143 53.8713 241.659 50.3696C238.176 46.8679 233.451 44.8986 228.522 44.8945Z" fill="#EAEAEA"/>
<path opacity="0.53" d="M228.886 44.3921H156.911C142.189 22.7723 117.45 8.58447 89.4027 8.58447C44.2683 8.58447 7.67343 45.335 7.67343 90.6728C7.6512 105.944 11.8899 120.915 19.9087 133.889V223.777C19.9087 228.73 21.8676 233.48 25.3544 236.982C28.8412 240.484 33.5704 242.452 38.5015 242.452H170V226.223L223.011 152.755C225.319 149.648 227.195 146.238 228.587 142.621C229.897 139.15 230.552 135.922 230.552 132.936V132.71C230.552 128.307 229.206 124.91 226.516 122.52C223.825 120.13 220 118.935 215.041 118.937C210.227 118.937 206.332 120.598 203.355 123.921C200.379 127.244 198.574 131.966 197.939 138.088V138.2H168.086V138.088C168.722 127.934 171.043 119.198 175.05 111.881C179.056 104.564 184.456 98.9829 191.252 95.1387C198.05 91.2945 205.911 89.3715 214.835 89.3698C224.464 89.3698 232.697 91.0311 239.535 94.3538C242.39 95.7284 245.06 97.4614 247.481 99.5114V63.0665C247.481 60.6138 247.001 58.1851 246.066 55.9191C245.132 53.6531 243.762 51.5942 242.035 49.86C240.308 48.1258 238.258 46.7503 236.002 45.8121C233.746 44.8739 231.328 44.3914 228.886 44.3921Z" fill="#EAEAEA"/>
<path opacity="0.56" d="M229.257 43.8896H157.282C142.561 22.2698 117.822 8.08203 89.7742 8.08203C44.6399 8.08203 8.04501 44.8325 8.04501 90.1703C8.02278 105.441 12.2614 120.412 20.2803 133.387V223.275C20.2803 228.227 22.2392 232.977 25.726 236.479C29.2128 239.982 33.9419 241.949 38.8731 241.949H170.371V225.72L223.382 152.253C225.692 149.145 227.568 145.735 228.958 142.116C230.268 138.645 230.923 135.417 230.923 132.431V132.205C230.923 127.802 229.578 124.405 226.887 122.015C224.196 119.624 220.372 118.43 215.413 118.432C210.598 118.432 206.704 120.092 203.729 123.413C200.755 126.734 198.949 131.457 198.313 137.58V137.7H168.458V137.586C169.095 127.435 171.417 118.7 175.421 111.381C179.426 104.062 184.826 98.4813 191.623 94.6388C198.422 90.7946 206.283 88.8717 215.206 88.8699C224.835 88.8699 233.068 90.5313 239.906 93.8539C242.762 95.2275 245.433 96.9606 247.853 99.0115V62.577C247.855 60.1232 247.375 57.6931 246.442 55.4256C245.508 53.1581 244.138 51.0977 242.411 49.3621C240.684 47.6266 238.634 46.2499 236.377 45.3109C234.12 44.3719 231.7 43.8889 229.257 43.8896Z" fill="#EAEAEA"/>
<path opacity="0.58" d="M229.629 43.3868H157.654C142.935 21.7671 118.193 7.57666 90.1482 7.57666C45.0139 7.57666 8.41636 44.3298 8.41636 89.6676C8.39258 104.938 12.6295 119.909 20.6465 132.884V222.772C20.6465 227.725 22.6053 232.475 26.0922 235.977C29.579 239.479 34.3081 241.446 39.2392 241.446H170.75V225.217L223.761 151.75C226.071 148.642 227.947 145.232 229.337 141.614C230.647 138.142 231.303 134.914 231.303 131.928V131.703C231.303 127.299 229.957 123.902 227.266 121.512C224.575 119.122 220.751 117.927 215.792 117.929C210.978 117.929 207.083 119.59 204.108 122.911C201.134 126.232 199.329 130.954 198.692 137.078V137.181H168.832V137.067C169.468 126.915 171.789 118.18 175.795 110.863C179.801 103.545 185.201 97.9647 191.994 94.1205C198.793 90.2729 206.654 88.3499 215.578 88.3516C225.206 88.3516 233.44 90.0129 240.278 93.3356C243.134 94.7098 245.805 96.4429 248.227 98.4932V62.0587C248.226 59.6061 247.745 57.1776 246.81 54.9119C245.875 52.6462 244.505 50.5876 242.778 48.8537C241.051 47.1198 239.001 45.7446 236.745 44.8066C234.489 43.8686 232.071 43.3862 229.629 43.3868Z" fill="#EAEAEA"/>
<path opacity="0.61" d="M230 42.8898H158.025C143.306 21.27 118.565 7.07959 90.5195 7.07959C45.3852 7.07959 8.78769 43.8327 8.78769 89.1705C8.76513 104.442 13.0048 119.413 21.0255 132.387V222.275C21.0255 227.227 22.9841 231.977 26.4703 235.479C29.9566 238.981 34.6851 240.949 39.6157 240.949H171.114V224.715L224.138 151.248C226.448 148.14 228.324 144.73 229.714 141.111C231.024 137.64 231.68 134.412 231.682 131.426V131.2C231.682 126.797 230.335 123.4 227.643 121.01C224.95 118.619 221.126 117.424 216.171 117.424C211.357 117.424 207.461 119.086 204.485 122.408C201.509 125.731 199.703 130.453 199.069 136.575V136.687H169.203V136.575C169.839 126.424 172.16 117.689 176.166 110.371C180.173 103.052 185.572 97.4703 192.366 93.6261C199.164 89.7818 207.025 87.8597 215.949 87.8597C225.578 87.8597 233.811 89.5211 240.649 92.8437C243.506 94.217 246.177 95.9501 248.598 98.0013V61.5565C248.596 56.6041 246.635 51.8554 243.148 48.3548C239.66 44.8542 234.931 42.8884 230 42.8898Z" fill="#EAEAEA"/>
<path opacity="0.64" d="M230.372 42.3717H158.397C143.678 20.7519 118.936 6.56152 90.8911 6.56152C45.7568 6.56152 9.15927 43.3146 9.15927 88.6524C9.13671 103.924 13.3764 118.895 21.3971 131.869V221.757C21.3971 226.709 23.3556 231.459 26.8419 234.961C30.3282 238.463 35.0567 240.431 39.9873 240.431H171.486V224.22L224.496 150.753C226.805 147.642 228.68 144.229 230.07 140.609C231.38 137.138 232.035 133.908 232.035 130.921V130.706C232.035 126.302 230.689 122.905 227.996 120.515C225.304 118.125 221.48 116.93 216.524 116.93C211.71 116.93 207.815 118.591 204.839 121.914C201.862 125.236 200.057 129.959 199.422 136.081V136.192H169.574V136.081C170.211 125.928 172.532 117.193 176.538 109.876C180.544 102.559 185.944 96.9772 192.737 93.1313C199.538 89.2871 207.399 87.365 216.321 87.365C225.949 87.365 234.183 89.0263 241.021 92.349C243.878 93.721 246.55 95.4542 248.97 97.5065V61.0539C248.971 58.6004 248.491 56.1706 247.557 53.9035C246.623 51.6365 245.253 49.5765 243.526 47.8415C241.798 46.1064 239.748 44.7303 237.491 43.7918C235.234 42.8532 232.814 42.3707 230.372 42.3717Z" fill="#EAEAEA"/>
<path opacity="0.67" d="M230.745 41.8795H158.77C144.049 20.2597 119.31 6.06934 91.2623 6.06934C46.128 6.06934 9.53306 42.8224 9.53306 88.1603C9.50924 103.43 13.748 118.401 21.7683 131.374V221.262C21.7683 226.215 23.7272 230.965 27.214 234.467C30.7008 237.969 35.43 239.936 40.3611 239.936H171.859V223.702L224.868 150.235C227.178 147.127 229.055 143.717 230.446 140.098C231.756 136.627 232.411 133.398 232.411 130.41V130.187C232.411 125.784 231.066 122.387 228.375 119.997C225.684 117.607 221.86 116.412 216.901 116.412C212.086 116.412 208.191 118.073 205.215 121.396C202.239 124.718 200.433 129.441 199.799 135.563V135.674H169.946V135.563C170.582 125.412 172.903 116.677 176.909 109.358C180.915 102.039 186.313 96.4617 193.103 92.6262C199.904 88.782 207.766 86.8599 216.689 86.8599C226.318 86.8599 234.55 88.5212 241.387 91.8438C244.244 93.2159 246.916 94.9491 249.336 97.0014V60.5514C249.336 58.0994 248.855 55.6714 247.92 53.406C246.986 51.1406 245.617 49.0822 243.891 47.3484C242.164 45.6145 240.115 44.2392 237.86 43.3008C235.604 42.3625 233.187 41.8795 230.745 41.8795Z" fill="#EAEAEA"/>
<path opacity="0.69" d="M231.117 41.3745H159.144C144.423 19.7573 119.684 5.56689 91.6363 5.56689C46.502 5.56689 9.90707 42.32 9.90707 87.6578C9.88491 102.928 14.1236 117.898 22.1424 130.871V220.76C22.143 225.712 24.1021 230.462 27.5888 233.964C31.0755 237.466 35.8042 239.433 40.7351 239.434H172.233V223.205L225.244 149.74C227.554 146.632 229.43 143.222 230.82 139.604C232.13 136.133 232.785 132.903 232.785 129.916V129.693C232.785 125.289 231.44 121.892 228.749 119.502C226.058 117.112 222.234 115.917 217.275 115.917C212.46 115.917 208.565 117.578 205.589 120.901C202.613 124.224 200.807 128.946 200.173 135.068V135.179H170.317V135.068C170.955 124.915 173.276 116.18 177.281 108.863C181.285 101.546 186.684 95.961 193.477 92.1082C200.276 88.264 208.137 86.3419 217.061 86.3419C226.689 86.3419 234.923 88.0032 241.761 91.3259C244.617 92.6985 247.287 94.4317 249.707 96.4834V60.0489C249.707 55.0966 247.748 50.3471 244.262 46.845C240.776 43.343 236.047 41.3752 231.117 41.3745Z" fill="#EAEAEA"/>
<path opacity="0.72" d="M231.488 40.8716H159.513C144.792 19.2544 120.053 5.06396 92.0052 5.06396C46.8709 5.06396 10.276 41.8171 10.276 87.1523C10.2535 102.423 14.4921 117.395 22.5112 130.369V220.257C22.5119 225.209 24.471 229.959 27.9577 233.461C31.4444 236.963 36.1731 238.93 41.104 238.931H172.602V222.702L225.613 149.237C227.922 146.129 229.798 142.719 231.189 139.101C232.499 135.63 233.154 132.4 233.154 129.413V129.19C233.154 124.786 231.809 121.389 229.118 118.999C226.427 116.609 222.602 115.417 217.644 115.422C212.829 115.422 208.935 117.083 205.96 120.406C202.986 123.728 201.18 128.451 200.544 134.573V134.684H170.689V134.573C171.326 124.422 173.648 115.687 177.652 108.368C181.657 101.049 187.057 95.4676 193.854 91.6234C200.653 87.7792 208.514 85.857 217.437 85.857C227.066 85.857 235.299 87.5175 242.137 90.8385C244.992 92.2122 247.661 93.9444 250.081 95.9934V59.546C250.08 54.5934 248.121 49.8439 244.635 46.3419C241.148 42.8399 236.419 40.8722 231.488 40.8716Z" fill="#EAEAEA"/>
<path opacity="0.75" d="M231.86 40.3692H159.885C145.166 18.752 120.422 4.55127 92.3791 4.55127C47.2448 4.55127 10.6473 41.3044 10.6473 86.6396C10.6248 101.91 14.8635 116.882 22.8826 129.856V219.744C22.8833 224.696 24.8424 229.446 28.329 232.948C31.8157 236.45 36.5444 238.418 41.4753 238.418H172.974V222.2L225.984 148.732C228.294 145.625 230.17 142.216 231.56 138.599C232.871 135.127 233.526 131.898 233.526 128.91V128.688C233.526 124.282 232.18 120.885 229.489 118.497C226.799 116.108 222.975 114.911 218.018 114.904C213.203 114.904 209.308 116.565 206.332 119.888C203.355 123.21 201.553 127.939 200.926 134.073V134.184H171.062V134.073C171.699 123.92 174.02 115.184 178.026 107.866C182.032 100.547 187.43 94.9626 194.22 91.1133C201.019 87.2691 208.88 85.3469 217.803 85.3469C227.432 85.3469 235.665 87.0074 242.504 90.3284C245.357 91.7039 248.026 93.4378 250.445 95.4885V59.0437C250.444 54.0924 248.486 49.3441 245.001 45.8423C241.516 42.3406 236.789 40.372 231.86 40.3692Z" fill="#EAEAEA"/>
<path opacity="0.78" d="M232.231 39.8667H160.256C145.537 18.2495 120.796 4.05908 92.7504 4.05908C47.6161 4.05908 11.0186 40.8122 11.0186 86.1474C10.9961 101.419 15.2357 116.39 23.2565 129.364V219.252C23.2565 224.204 25.2151 228.953 28.7014 232.455C32.1877 235.956 36.9162 237.924 41.8467 237.924H173.345V221.697L226.356 148.23C228.665 145.123 230.541 141.713 231.932 138.096C233.242 134.625 233.898 131.395 233.9 128.408V128.185C233.9 123.78 232.553 120.382 229.861 117.992C227.168 115.602 223.344 114.407 218.389 114.409C213.575 114.409 209.679 116.07 206.703 119.393C203.727 122.716 201.921 127.438 201.287 133.56V133.672H171.434V133.555C172.07 123.4 174.391 114.665 178.397 107.348C182.404 100.03 187.803 94.4497 194.597 90.6055C201.395 86.7717 209.255 84.8548 218.175 84.8548C227.804 84.8548 236.037 86.5161 242.875 89.8388C245.732 91.2132 248.403 92.9472 250.824 94.9989V58.5411C250.823 53.5886 248.864 48.839 245.377 45.337C241.891 41.8351 237.162 39.8674 232.231 39.8667Z" fill="#EAEAEA"/>
<path opacity="0.81" d="M232.602 39.3642H160.627C145.908 17.747 121.167 3.55664 93.1218 3.55664C47.9875 3.55664 11.39 40.3097 11.39 85.6449C11.3674 100.916 15.6071 115.888 23.6279 128.861V218.749C23.6279 221.202 24.1088 223.63 25.0432 225.895C25.9776 228.161 27.3472 230.219 29.0737 231.953C30.8002 233.687 32.8499 235.062 35.1057 236.001C37.3614 236.939 39.7791 237.422 42.2206 237.421H173.716V221.195L226.717 147.727C229.026 144.62 230.903 141.21 232.296 137.594C233.606 134.119 234.261 130.889 234.261 127.905V127.683C234.261 123.277 232.915 119.879 230.222 117.489C227.529 115.099 223.705 113.905 218.75 113.907C213.936 113.907 210.04 115.568 207.064 118.891C204.088 122.213 202.283 126.936 201.648 133.058V133.169H171.805V133.058C172.443 122.903 174.764 114.167 178.769 106.85C182.773 99.5331 188.173 93.9525 194.968 90.1083C201.767 86.2606 209.627 84.3368 218.549 84.3368C228.178 84.3368 236.41 85.9981 243.246 89.3208C246.104 90.6946 248.775 92.4287 251.195 94.4809V58.0387C251.195 55.5863 250.714 53.158 249.78 50.8923C248.846 48.6266 247.476 46.5679 245.75 44.8338C244.023 43.0998 241.973 41.7242 239.718 40.7857C237.462 39.8473 235.044 39.3642 232.602 39.3642Z" fill="#EAEAEA"/>
<path opacity="0.83" d="M232.976 38.8613H161.001C146.28 17.2441 121.541 3.05371 93.4932 3.05371C48.3589 3.05371 11.764 39.8068 11.764 85.142C11.7405 100.413 15.9793 115.385 23.9993 128.358V218.246C23.9993 220.699 24.4802 223.127 25.4146 225.392C26.349 227.658 27.7186 229.716 29.4451 231.45C31.1716 233.184 33.2213 234.559 35.4771 235.498C37.7328 236.436 40.1505 236.919 42.592 236.918H174.103V220.692L227.111 147.224C229.422 144.117 231.299 140.708 232.69 137.091C234 133.618 234.655 130.388 234.655 127.402V127.18C234.655 122.774 233.31 119.376 230.619 116.986C227.928 114.596 224.103 113.402 219.145 113.404C214.33 113.404 210.435 115.065 207.459 118.388C204.482 121.71 202.677 126.433 202.043 132.555V132.666H172.177V132.555C172.814 122.4 175.136 113.664 179.14 106.347C183.145 99.0302 188.544 93.4496 195.339 89.6053C202.141 85.7611 210.003 83.8382 218.925 83.8364C228.554 83.8364 236.787 85.4978 243.626 88.8204C246.481 90.195 249.151 91.9281 251.572 93.978V57.5358C251.572 55.0832 251.091 52.6546 250.156 50.3888C249.222 48.1229 247.852 46.0641 246.125 44.33C244.398 42.5959 242.348 41.2204 240.092 40.2821C237.836 39.3437 235.418 38.861 232.976 38.8613Z" fill="#EAEAEA"/>
<path opacity="0.86" d="M233.348 38.3589H161.373C146.651 16.7391 121.912 2.55127 93.8646 2.55127C48.7303 2.55127 12.1353 39.3018 12.1353 84.6396C12.1131 99.9103 16.3518 114.882 24.3706 127.856V217.744C24.3706 222.697 26.3295 227.447 29.8163 230.949C33.3031 234.451 38.0323 236.418 42.9634 236.418H174.462V220.189L227.473 146.722C229.782 143.615 231.658 140.205 233.049 136.588C234.359 133.114 235.014 129.884 235.014 126.9V126.675C235.014 122.271 233.668 118.874 230.978 116.484C228.287 114.094 224.459 112.9 219.495 112.901C214.681 112.901 210.786 114.563 207.809 117.885C204.833 121.208 203.028 125.93 202.393 132.052V132.164H172.556V132.052C173.194 121.898 175.515 113.162 179.519 105.845C183.524 98.5278 188.924 92.9471 195.721 89.1029C202.52 85.2587 210.381 83.3357 219.305 83.334C228.933 83.334 237.167 84.9953 244.005 88.318C246.86 89.6926 249.53 91.4256 251.951 93.4756V57.0333C251.951 54.58 251.47 52.1506 250.535 49.8841C249.6 47.6176 248.23 45.5583 246.502 43.8241C244.775 42.0898 242.724 40.7145 240.466 39.7767C238.209 38.839 235.79 38.3572 233.348 38.3589Z" fill="#EAEAEA"/>
<path opacity="0.89" d="M233.719 37.8564H161.744C147.023 16.2366 122.284 2.04883 94.2362 2.04883C49.1018 2.04883 12.5069 38.7993 12.5069 84.1372C12.4847 99.4079 16.7234 114.379 24.7422 127.353V217.242C24.7422 222.194 26.7011 226.944 30.1879 230.446C33.6747 233.948 38.4039 235.916 43.335 235.916H174.833V219.687L227.844 146.22C230.155 143.112 232.032 139.702 233.423 136.083C234.733 132.612 235.388 129.383 235.388 126.398V126.172C235.388 121.768 234.043 118.371 231.352 115.981C228.661 113.591 224.836 112.397 219.877 112.399C215.063 112.399 211.168 114.059 208.194 117.38C205.219 120.701 203.414 125.424 202.778 131.547V131.661H172.919V131.547C173.557 121.395 175.879 112.66 179.883 105.342C183.888 98.0253 189.288 92.4447 196.085 88.6005C202.883 84.7563 210.745 82.8333 219.668 82.8316C229.297 82.8316 237.53 84.4929 244.368 87.8156C247.225 89.1898 249.896 90.9228 252.317 92.9731V56.5309C252.317 54.0781 251.836 51.6493 250.901 49.3833C249.967 47.1172 248.597 45.0584 246.87 43.3242C245.143 41.5901 243.092 40.2146 240.836 39.2764C238.58 38.3383 236.161 37.8557 233.719 37.8564Z" fill="#EAEAEA"/>
<path opacity="0.92" d="M234.091 37.354H162.116C147.397 15.7342 122.655 1.54639 94.6101 1.54639C49.4758 1.54639 12.8783 38.2969 12.8783 83.6347C12.8557 98.9058 17.0953 113.878 25.1161 126.851V216.739C25.1158 219.191 25.5964 221.62 26.5305 223.885C27.4646 226.151 28.8339 228.21 30.5602 229.944C32.2864 231.678 34.3359 233.053 36.5916 233.992C38.8472 234.93 41.2648 235.414 43.7063 235.414H175.205V219.184L228.216 145.73C230.525 142.622 232.402 139.212 233.792 135.594C235.102 132.122 235.757 128.894 235.757 125.908V125.683C235.757 121.279 234.411 117.882 231.721 115.492C229.03 113.102 225.206 111.908 220.249 111.909C215.434 111.909 211.539 113.57 208.563 116.891C205.586 120.212 203.781 124.934 203.147 131.058V131.172H173.293V131.058C173.931 120.907 176.253 112.172 180.257 104.853C184.262 97.5341 189.661 91.9535 196.456 88.111C203.255 84.265 211.116 82.3421 220.04 82.3421C229.668 82.3421 237.902 84.0034 244.74 87.3261C247.596 88.7003 250.267 90.4333 252.689 92.4836V56.0284C252.689 53.5756 252.208 51.1469 251.273 48.8808C250.338 46.6148 248.968 44.5559 247.241 42.8218C245.514 41.0876 243.464 39.7122 241.207 38.774C238.951 37.8358 236.533 37.3533 234.091 37.354Z" fill="#EAEAEA"/>
<path opacity="0.94" d="M234.454 36.8512H162.497C147.778 15.2314 123.037 1.04102 94.9917 1.04102C49.8574 1.04102 13.2599 37.7941 13.2599 83.1319C13.2373 98.403 17.477 113.375 25.4977 126.348V216.236C25.4977 221.189 27.4562 225.938 30.9425 229.44C34.4288 232.942 39.1572 234.91 44.0879 234.911H175.586V218.682L228.587 145.212C230.897 142.104 232.773 138.694 234.163 135.075C235.473 131.604 236.129 128.376 236.131 125.39V125.164C236.131 120.761 234.784 117.364 232.092 114.974C229.399 112.583 225.575 111.388 220.62 111.388C215.806 111.388 211.91 113.05 208.934 116.372C205.958 119.695 204.152 124.417 203.518 130.539V130.653H173.665V130.539C174.303 120.387 176.624 111.652 180.628 104.335C184.633 97.0175 190.033 91.436 196.828 87.59C203.626 83.7458 211.487 81.8237 220.411 81.8237C230.04 81.8237 238.273 83.4851 245.111 86.8077C247.968 88.1813 250.639 89.9144 253.06 91.9653V55.523C253.06 53.0698 252.578 50.6407 251.643 48.3744C250.707 46.1082 249.337 44.0493 247.609 42.3153C245.881 40.5813 243.83 39.2063 241.573 38.2687C239.316 37.3312 236.897 36.8495 234.454 36.8512Z" fill="#EAEAEA"/>
<path opacity="0.97" d="M234.834 36.3487H162.861C148.139 14.729 123.401 0.538574 95.3529 0.538574C50.2186 0.538574 13.6236 37.2917 13.6236 82.6295C13.6002 97.9004 17.8389 112.872 25.8589 125.846V215.734C25.8589 220.687 27.8178 225.436 31.3046 228.939C34.7914 232.441 39.5206 234.408 44.4517 234.408H175.947V218.179L228.958 144.712C231.268 141.603 233.144 138.193 234.537 134.575C235.847 131.104 236.502 127.875 236.502 124.887V124.664C236.502 120.261 235.157 116.864 232.466 114.474C229.775 112.084 225.95 110.889 220.991 110.889C216.177 110.889 212.282 112.55 209.306 115.873C206.329 119.195 204.524 123.918 203.889 130.04V130.151H174.036V130.04C174.674 119.889 176.995 111.154 181 103.835C185.004 96.5159 190.404 90.9344 197.199 87.0902C204.001 83.246 211.863 81.3239 220.785 81.3239C230.414 81.3239 238.646 82.9852 245.483 86.3079C248.34 87.6799 251.011 89.4131 253.431 91.4654V55.0206C253.431 52.5679 252.95 50.1393 252.016 47.8734C251.081 45.6075 249.711 43.5488 247.984 41.8149C246.257 40.0809 244.206 38.7057 241.95 37.7678C239.694 36.8299 237.275 36.3477 234.834 36.3487Z" fill="#EAEAEA"/>
<path d="M235.207 35.8463H163.232C148.511 14.2265 123.772 0.0361328 95.7242 0.0361328C50.5899 0.0361328 13.995 36.7892 13.995 82.127C13.9724 97.397 18.2111 112.368 26.2302 125.341V215.229C26.2309 220.181 28.19 224.931 31.6767 228.433C35.1634 231.935 39.8921 233.903 44.823 233.903H176.321V217.677L229.33 144.209C231.64 141.101 233.517 137.691 234.908 134.073C236.218 130.602 236.873 127.372 236.873 124.385V124.162C236.873 119.758 235.528 116.361 232.837 113.971C230.146 111.581 226.321 110.386 221.363 110.386C216.548 110.386 212.653 112.047 209.677 115.37C206.701 118.693 204.895 123.415 204.261 129.537V129.649H174.408V129.537C175.045 119.384 177.367 110.649 181.371 103.332C185.376 96.0152 190.776 90.4337 197.573 86.5878C204.372 82.7436 212.233 80.8215 221.156 80.8215C230.785 80.8215 239.018 82.4828 245.856 85.8055C248.711 87.1785 251.38 88.9117 253.798 90.963V54.5182C253.798 49.5661 251.839 44.8168 248.353 41.3152C244.866 37.8135 240.138 35.8463 235.207 35.8463Z" fill="#EAEAEA"/>
<path opacity="0.03" d="M242.467 178.9C242.173 179.312 241.884 179.732 241.583 180.139L203.551 230.758H242.449C242.449 230.577 242.465 230.398 242.465 230.217L242.467 178.9Z" fill="#EAEAEA"/>
<path opacity="0.06" d="M242.79 178.473C242.496 178.885 242.21 179.305 241.908 179.711L203.874 230.331H242.777C242.777 230.15 242.79 229.971 242.79 229.79V178.473Z" fill="#EAEAEA"/>
<path opacity="0.08" d="M243.115 178.043C242.821 178.457 242.534 178.875 242.23 179.284L204.199 229.903H243.099C243.099 229.722 243.115 229.543 243.115 229.36V178.043Z" fill="#EAEAEA"/>
<path opacity="0.11" d="M243.437 177.616C243.143 178.03 242.857 178.447 242.555 178.854L204.521 229.476H243.424C243.424 229.295 243.424 229.116 243.424 228.932L243.437 177.616Z" fill="#EAEAEA"/>
<path opacity="0.14" d="M243.762 177.188C243.468 177.602 243.182 178.02 242.878 178.426L204.846 229.046H243.739C243.739 228.867 243.752 228.686 243.752 228.505L243.762 177.188Z" fill="#EAEAEA"/>
<path opacity="0.17" d="M244.084 176.761C243.793 177.175 243.504 177.592 243.202 177.999L205.171 228.624H244.072C244.072 228.445 244.084 228.264 244.084 228.082V176.761Z" fill="#EAEAEA"/>
<path opacity="0.19" d="M244.41 176.333C244.116 176.745 243.829 177.165 243.525 177.572L205.493 228.191H244.397C244.397 228.01 244.397 227.831 244.397 227.65L244.41 176.333Z" fill="#EAEAEA"/>
<path opacity="0.22" d="M244.735 175.906C244.441 176.318 244.152 176.737 243.85 177.144L205.826 227.764H244.719C244.719 227.582 244.735 227.404 244.735 227.222V175.906Z" fill="#EAEAEA"/>
<path opacity="0.25" d="M245.057 175.476C244.763 175.891 244.477 176.308 244.175 176.714L206.141 227.329H245.044C245.044 227.147 245.057 226.969 245.057 226.785V175.476Z" fill="#EAEAEA"/>
<path opacity="0.28" d="M245.382 175.048C245.088 175.463 244.802 175.88 244.497 176.287L206.466 226.909H245.366C245.366 226.728 245.382 226.546 245.382 226.365V175.048Z" fill="#EAEAEA"/>
<path opacity="0.31" d="M245.704 174.621C245.41 175.036 245.124 175.453 244.822 175.859L206.788 226.479H245.691C245.691 226.3 245.691 226.119 245.691 225.938L245.704 174.621Z" fill="#EAEAEA"/>
<path opacity="0.33" d="M246.029 174.194C245.735 174.606 245.449 175.025 245.145 175.432L207.116 226.052H246.016C246.016 225.87 246.032 225.692 246.032 225.51L246.029 174.194Z" fill="#EAEAEA"/>
<path opacity="0.36" d="M246.352 173.766C246.06 174.178 245.771 174.598 245.47 175.004L207.438 225.624H246.339C246.339 225.443 246.352 225.264 246.352 225.083V173.766Z" fill="#EAEAEA"/>
<path opacity="0.39" d="M246.677 173.339C246.383 173.751 246.096 174.17 245.792 174.577L207.761 225.197H246.664C246.664 225.015 246.664 224.837 246.664 224.655L246.677 173.339Z" fill="#EAEAEA"/>
<path opacity="0.42" d="M246.999 172.909C246.707 173.323 246.419 173.74 246.117 174.147L208.085 224.769H246.986C246.986 224.588 246.986 224.409 246.986 224.225L246.999 172.909Z" fill="#EAEAEA"/>
<path opacity="0.44" d="M247.324 172.481C247.03 172.896 246.744 173.313 246.439 173.72L208.405 224.342H247.309C247.309 224.161 247.321 223.979 247.321 223.798L247.324 172.481Z" fill="#EAEAEA"/>
<path opacity="0.47" d="M247.649 172.054C247.355 172.469 247.066 172.886 246.764 173.292L208.733 223.912H247.634C247.634 223.733 247.649 223.552 247.649 223.371V172.054Z" fill="#EAEAEA"/>
<path opacity="0.5" d="M247.971 171.634C247.677 172.046 247.391 172.466 247.089 172.873L209.055 223.484H247.958C247.958 223.303 247.958 223.124 247.958 222.943L247.971 171.634Z" fill="#EAEAEA"/>
<path opacity="0.53" d="M248.296 171.199C248.002 171.611 247.716 172.031 247.412 172.437L209.38 223.057H248.281C248.281 222.876 248.296 222.697 248.296 222.516V171.199Z" fill="#EAEAEA"/>
<path opacity="0.56" d="M248.619 170.769C248.325 171.184 248.038 171.601 247.737 172.01L209.695 222.63H248.595C248.595 222.448 248.608 222.27 248.608 222.086L248.619 170.769Z" fill="#EAEAEA"/>
<path opacity="0.58" d="M248.944 170.339C248.65 170.753 248.363 171.17 248.059 171.577L210.028 222.202H248.931C248.931 222.021 248.931 221.839 248.931 221.658L248.944 170.339Z" fill="#EAEAEA"/>
<path opacity="0.61" d="M249.266 169.914C248.975 170.329 248.686 170.746 248.384 171.152L210.353 221.772H249.253C249.253 221.593 249.253 221.412 249.253 221.231L249.266 169.914Z" fill="#EAEAEA"/>
<path opacity="0.64" d="M249.591 169.487C249.297 169.899 249.011 170.318 248.706 170.725L210.675 221.345H249.578C249.578 221.166 249.591 220.985 249.591 220.803V169.487Z" fill="#EAEAEA"/>
<path opacity="0.67" d="M249.929 169.06C249.635 169.471 249.346 169.891 249.044 170.298L211 220.918H249.9C249.9 220.736 249.916 220.557 249.916 220.376L249.929 169.06Z" fill="#EAEAEA"/>
<path opacity="0.69" d="M250.238 168.632C249.944 169.044 249.658 169.463 249.356 169.87L211.322 220.49H250.225C250.225 220.308 250.225 220.13 250.225 219.948L250.238 168.632Z" fill="#EAEAEA"/>
<path opacity="0.72" d="M250.563 168.202C250.269 168.617 249.983 169.034 249.679 169.44L211.647 220.076H250.548C250.548 219.894 250.563 219.716 250.563 219.532V168.202Z" fill="#EAEAEA"/>
<path opacity="0.75" d="M250.886 167.774C250.592 168.189 250.305 168.606 250.004 169.013L211.972 219.635H250.873C250.873 219.454 250.886 219.272 250.886 219.091V167.774Z" fill="#EAEAEA"/>
<path opacity="0.78" d="M251.218 167.347C250.924 167.762 250.638 168.179 250.334 168.585L212.294 219.205H251.198C251.198 219.026 251.198 218.845 251.198 218.664L251.218 167.347Z" fill="#EAEAEA"/>
<path opacity="0.81" d="M251.533 166.92C251.242 167.332 250.953 167.751 250.651 168.158L212.62 218.78H251.52C251.52 218.599 251.52 218.42 251.52 218.239L251.533 166.92Z" fill="#EAEAEA"/>
<path opacity="0.83" d="M251.858 166.492C251.564 166.904 251.278 167.324 250.973 167.73L212.942 218.35H251.845C251.845 218.169 251.858 217.99 251.858 217.809V166.492Z" fill="#EAEAEA"/>
<path opacity="0.86" d="M252.183 166.065C251.889 166.477 251.6 166.894 251.298 167.303L213.267 217.923H252.167C252.167 217.742 252.183 217.563 252.183 217.379V166.065Z" fill="#EAEAEA"/>
<path opacity="0.89" d="M252.508 165.635C252.214 166.049 251.928 166.466 251.626 166.873L213.589 217.485H252.493C252.493 217.304 252.493 217.125 252.493 216.941L252.508 165.635Z" fill="#EAEAEA"/>
<path opacity="0.92" d="M252.83 165.208C252.536 165.622 252.25 166.039 251.946 166.446L213.914 217.068H252.815C252.815 216.887 252.83 216.705 252.83 216.524V165.208Z" fill="#EAEAEA"/>
<path opacity="0.94" d="M253.153 164.78C252.859 165.194 252.572 165.611 252.271 166.018L214.237 216.638H253.14C253.14 216.459 253.153 216.278 253.153 216.096V164.78Z" fill="#EAEAEA"/>
<path opacity="0.97" d="M253.478 164.353C253.184 164.764 252.897 165.184 252.593 165.591L214.562 216.21H253.465C253.465 216.029 253.478 215.85 253.478 215.669V164.353Z" fill="#EAEAEA"/>
<path d="M253.798 163.925C253.506 164.337 253.217 164.757 252.916 165.164L214.887 215.783H253.798C253.798 215.602 253.811 215.423 253.811 215.242L253.798 163.925Z" fill="#EAEAEA"/>
<path d="M253.797 163.912C253.503 164.327 253.217 164.744 252.915 165.15L214.881 215.77H253.797C253.797 215.591 253.81 215.41 253.81 215.229L253.797 163.912Z" fill="#748E3F"/>
<path d="M235.207 35.8463H163.232C148.511 14.2265 123.772 0.0361328 95.7242 0.0361328C50.5899 0.0361328 13.995 36.7892 13.995 82.127C13.9724 97.397 18.2111 112.368 26.2302 125.341V215.229C26.2302 220.182 28.1891 224.932 31.6759 228.434C35.1628 231.936 39.8919 233.903 44.823 233.903H176.321V217.677L229.33 144.209C231.64 141.101 233.517 137.691 234.908 134.073C236.218 130.602 236.873 127.372 236.873 124.385V124.162C236.873 119.758 235.528 116.361 232.837 113.971C230.146 111.581 226.321 110.386 221.363 110.386C216.548 110.386 212.653 112.047 209.677 115.37C206.701 118.693 204.895 123.415 204.261 129.537V129.649H174.408V129.537C175.045 119.384 177.367 110.649 181.371 103.332C185.376 96.0152 190.776 90.4337 197.573 86.5878C204.372 82.7436 212.233 80.8215 221.156 80.8215C230.785 80.8215 239.018 82.4828 245.856 85.8055C248.711 87.1785 251.38 88.9117 253.798 90.963V54.5182C253.798 49.5661 251.839 44.8168 248.353 41.3152C244.866 37.8135 240.138 35.8463 235.207 35.8463Z" fill="#748E3F"/>
<path d="M95.5437 150.599C133.924 150.599 165.038 119.348 165.038 80.7993C165.038 42.2502 133.924 11 95.5437 11C57.1633 11 26.0498 42.2502 26.0498 80.7993C26.0498 119.348 57.1633 150.599 95.5437 150.599Z" fill="url(#paint0_linear_53_320)"/>
<g clip-path="url(#clip0_53_320)">
<path d="M110.786 80.4511C112.771 80.4511 114.491 79.739 115.895 78.3342C117.3 76.9295 118.012 75.2109 118.012 73.2253C118.012 71.2405 117.3 69.5216 115.895 68.1165C114.49 66.712 112.771 66 110.786 66C108.801 66 107.082 66.712 105.677 68.1167C104.273 69.5213 103.56 71.2402 103.56 73.2253C103.56 75.2109 104.273 76.9298 105.677 78.3344C107.082 79.7388 108.801 80.4511 110.786 80.4511V80.4511Z" fill="#748E3F"/>
<path d="M123.429 89.0685C123.389 88.484 123.307 87.8463 123.186 87.1729C123.064 86.4945 122.908 85.8532 122.72 85.267C122.526 84.6612 122.262 84.0629 121.937 83.4896C121.598 82.8945 121.201 82.3763 120.755 81.9499C120.289 81.5038 119.718 81.1451 119.058 80.8835C118.4 80.6233 117.671 80.4914 116.891 80.4914C116.585 80.4914 116.289 80.6171 115.717 80.9895C115.365 81.2191 114.953 81.4846 114.494 81.7782C114.101 82.0286 113.568 82.2632 112.911 82.4756C112.269 82.6832 111.618 82.7885 110.975 82.7885C110.332 82.7885 109.681 82.6832 109.038 82.4756C108.382 82.2634 107.849 82.0288 107.457 81.7784C107.001 81.4875 106.589 81.222 106.232 80.9893C105.661 80.6169 105.364 80.4912 105.058 80.4912C104.278 80.4912 103.549 80.6233 102.892 80.8837C102.232 81.1449 101.661 81.5036 101.194 81.9501C100.749 82.3767 100.351 82.8947 100.013 83.4896C99.6877 84.0629 99.4241 84.661 99.23 85.2673C99.0425 85.8534 98.8857 86.4945 98.764 87.1729C98.6434 87.8454 98.5614 88.4833 98.5209 89.0692C98.4811 89.6432 98.4609 90.239 98.4609 90.8407C98.4609 92.4068 98.9588 93.6745 99.9404 94.6095C100.91 95.5321 102.193 96.0002 103.753 96.0002H118.198C119.758 96.0002 121.04 95.5324 122.01 94.6095C122.992 93.6752 123.49 92.4072 123.49 90.8405C123.49 90.236 123.469 89.6398 123.429 89.0685V89.0685Z" fill="#748E3F"/>
</g>
<g clip-path="url(#clip1_53_320)">
<path d="M80.7861 80.4511C82.7714 80.4511 84.4905 79.739 85.8952 78.3342C87.2998 76.9295 88.0118 75.2109 88.0118 73.2253C88.0118 71.2405 87.2998 69.5216 85.8949 68.1165C84.4901 66.712 82.7712 66 80.7861 66C78.8005 66 77.0819 66.712 75.6772 68.1167C74.2726 69.5213 73.5603 71.2402 73.5603 73.2253C73.5603 75.2109 74.2726 76.9298 75.6775 78.3344C77.0823 79.7388 78.8012 80.4511 80.7861 80.4511V80.4511Z" fill="#748E3F"/>
<path d="M93.4293 89.0685C93.3888 88.484 93.3069 87.8463 93.1863 87.1729C93.0645 86.4945 92.9077 85.8532 92.72 85.267C92.5262 84.6612 92.2625 84.0629 91.9366 83.4896C91.5983 82.8945 91.2009 82.3763 90.7551 81.9499C90.2889 81.5038 89.718 81.1451 89.0579 80.8835C88.4001 80.6233 87.6711 80.4914 86.8913 80.4914C86.5851 80.4914 86.2889 80.6171 85.717 80.9895C85.3649 81.2191 84.9532 81.4846 84.4936 81.7782C84.1006 82.0286 83.5682 82.2632 82.9106 82.4756C82.2691 82.6832 81.6177 82.7885 80.9748 82.7885C80.3318 82.7885 79.6807 82.6832 79.0384 82.4756C78.3816 82.2634 77.8492 82.0288 77.4566 81.7784C77.0014 81.4875 76.5894 81.222 76.2321 80.9893C75.6608 80.6169 75.3644 80.4912 75.0582 80.4912C74.2782 80.4912 73.5494 80.6233 72.8918 80.8837C72.2322 81.1449 71.6612 81.5036 71.1945 81.9501C70.7488 82.3767 70.3513 82.8947 70.0134 83.4896C69.6877 84.0629 69.4241 84.661 69.23 85.2673C69.0425 85.8534 68.8857 86.4945 68.764 87.1729C68.6434 87.8454 68.5614 88.4833 68.5209 89.0692C68.4811 89.6432 68.4609 90.239 68.4609 90.8407C68.4609 92.4068 68.9588 93.6745 69.9404 94.6095C70.91 95.5321 72.1928 96.0002 73.7529 96.0002H88.198C89.7581 96.0002 91.0405 95.5324 92.0103 94.6095C92.9922 93.6752 93.49 92.4072 93.49 90.8405C93.4897 90.236 93.4694 89.6398 93.4293 89.0685V89.0685Z" fill="#748E3F"/>
</g>
<path d="M143.193 34.4498C170.015 61.3903 170.325 104.894 144.108 132.218C144.42 131.915 144.735 131.612 145.044 131.301C172.184 104.042 172.184 59.8464 145.044 32.5899C117.904 5.33332 73.905 5.33072 46.7651 32.5899C46.4556 32.9007 46.1538 33.2142 45.8521 33.5302C73.0564 7.19843 116.362 7.50151 143.193 34.4498Z" fill="white"/>
<defs>
<linearGradient id="paint0_linear_53_320" x1="144.695" y1="31.4549" x2="45.9848" y2="129.733" gradientUnits="userSpaceOnUse">
<stop stop-color="#E6E6E6"/>
<stop offset="0.03" stop-color="#E9E9E9"/>
<stop offset="0.21" stop-color="#F6F6F6"/>
<stop offset="0.45" stop-color="#FDFDFD"/>
<stop offset="1" stop-color="white"/>
</linearGradient>
<clipPath id="clip0_53_320">
<rect width="29.9999" height="30" fill="white" transform="translate(96 66)"/>
</clipPath>
<clipPath id="clip1_53_320">
<rect width="29.9999" height="30" fill="white" transform="translate(66 66)"/>
</clipPath>
</defs>
</svg>
