<svg width="254" height="252" viewBox="0 0 254 252" fill="none" xmlns="http://www.w3.org/2000/svg">
<path opacity="0.03" d="M221.596 53.4043H149.639C146.768 49.1896 143.514 45.2516 139.918 41.6411C107.999 9.58187 56.2519 9.58187 24.3329 41.6411C-3.04427 69.1256 -6.9387 111.249 12.6187 142.912V232.8C12.6187 237.752 14.5772 242.502 18.0634 246.004C21.5497 249.506 26.2782 251.473 31.2089 251.474H164.972C163.297 249.592 161.787 247.568 160.458 245.426C156.16 238.53 153.804 230.327 153.391 220.816H183.242C183.665 224.189 184.597 227.056 186.038 229.417C187.376 231.676 189.288 233.538 191.578 234.812C193.827 236.047 196.429 236.666 199.384 236.667C204.868 236.667 209.104 235.037 212.094 231.776C215.084 228.516 216.579 223.926 216.577 218.006V214.162C216.577 207.944 215.364 203.148 212.938 199.772C210.512 196.395 207.048 194.709 202.546 194.713H189.574V165.031H202.546C206.204 165.031 209.035 163.551 211.04 160.591C213.044 157.631 214.047 153.491 214.047 148.17V145.36C214.047 140.339 212.939 136.461 210.722 133.723C208.506 130.986 205.395 129.618 201.388 129.62C198.855 129.599 196.375 130.342 194.268 131.755C192.122 133.179 190.31 135.24 188.833 137.938C187.356 140.635 186.302 143.899 185.669 147.73H155.921C156.766 137.762 159.28 129.162 163.465 121.929C167.65 114.697 173.118 109.188 179.868 105.402C186.619 101.617 194.144 99.7238 202.443 99.7238C216.015 99.7238 226.511 103.415 233.932 110.798C236.449 113.314 238.56 116.209 240.186 119.38V72.0891C240.187 69.6362 239.707 67.2071 238.773 64.9405C237.839 62.6739 236.47 60.6143 234.744 58.8792C233.018 57.1442 230.968 55.7676 228.712 54.8282C226.456 53.8888 224.038 53.405 221.596 53.4043Z" fill="#EAEAEA"/>
<path opacity="0.06" d="M221.964 52.9018H150.007C147.136 48.6871 143.882 44.7492 140.287 41.1387C108.37 9.07943 56.6206 9.07943 24.7042 41.1387C-2.66005 68.6232 -6.56227 110.746 12.9951 142.409V232.297C12.9951 237.25 14.954 242 18.4408 245.502C21.9276 249.004 26.6567 250.972 31.5878 250.972H165.348C163.673 249.089 162.163 247.066 160.834 244.923C156.546 238.027 154.191 229.824 153.768 220.314H183.621C184.042 223.683 184.974 226.55 186.417 228.914C187.753 231.174 189.664 233.036 191.954 234.31C194.203 235.545 196.805 236.163 199.761 236.165C205.247 236.165 209.484 234.535 212.471 231.274C215.457 228.014 216.951 223.416 216.953 217.483V213.659C216.953 207.442 215.74 202.645 213.314 199.269C210.888 195.893 207.425 194.207 202.925 194.21H189.95V164.529H202.925C206.581 164.529 209.411 163.049 211.416 160.089C213.421 157.129 214.423 152.984 214.423 147.655V144.857C214.423 139.835 213.316 135.956 211.101 133.221C208.887 130.485 205.774 129.118 201.765 129.118C199.232 129.096 196.751 129.84 194.644 131.252C192.498 132.677 190.687 134.738 189.21 137.436C187.733 140.133 186.677 143.392 186.042 147.212H156.293C157.139 137.244 159.653 128.644 163.836 121.411C168.02 114.179 173.487 108.67 180.24 104.884C186.992 101.099 194.517 99.2059 202.814 99.2059C216.386 99.2059 226.882 102.897 234.303 110.28C236.821 112.795 238.931 115.691 240.557 118.862V71.5711C240.556 66.6192 238.596 61.8706 235.109 58.3696C231.623 54.8686 226.894 52.9018 221.964 52.9018Z" fill="#EAEAEA"/>
<path opacity="0.08" d="M222.339 52.4018H150.382C147.509 48.1877 144.254 44.2498 140.658 40.6387C108.742 8.57943 56.9922 8.57943 25.0758 40.6387C-2.28847 68.1232 -6.1907 110.246 13.3667 141.909V231.797C13.3667 236.75 15.3255 241.5 18.8124 245.002C22.2992 248.504 27.0283 250.472 31.9594 250.472H165.722C164.046 248.59 162.535 246.566 161.206 244.423C156.916 237.527 154.561 229.32 154.139 219.801H183.992C184.415 223.174 185.347 226.041 186.788 228.404C188.125 230.664 190.036 232.526 192.326 233.8C194.578 235.034 197.18 235.653 200.133 235.654C205.617 235.654 209.854 234.024 212.842 230.764C215.831 227.503 217.326 222.912 217.327 216.99V213.156C217.327 206.939 216.114 202.143 213.688 198.767C211.262 195.39 207.794 193.704 203.284 193.708H190.309V164.026H203.284C206.938 164.026 209.768 162.546 211.775 159.586C213.781 156.626 214.784 152.482 214.782 147.152V144.362C214.782 139.342 213.675 135.464 211.46 132.729C209.245 129.993 206.133 128.625 202.124 128.623C199.591 128.603 197.11 129.348 195.003 130.76C192.857 132.185 191.046 134.246 189.571 136.943C188.096 139.641 187.041 142.901 186.407 146.725H156.667C157.509 136.757 160.023 128.157 164.208 120.924C168.393 113.692 173.861 108.183 180.611 104.397C187.363 100.612 194.888 98.7188 203.186 98.7188C216.757 98.7188 227.254 102.41 234.674 109.793C237.196 112.304 239.309 115.196 240.939 118.365V71.0737C240.939 68.6209 240.457 66.1922 239.522 63.9263C238.587 61.6604 237.217 59.6017 235.49 57.8678C233.762 56.1339 231.712 54.7587 229.456 53.8209C227.199 52.883 224.781 52.4008 222.339 52.4018Z" fill="#EAEAEA"/>
<path opacity="0.11" d="M222.71 51.8969H150.753C147.882 47.6816 144.627 43.7436 141.03 40.1338C109.113 8.07455 57.3636 8.07455 25.4471 40.1338C-1.91718 67.6183 -5.81934 109.741 13.738 141.404V231.292C13.7387 236.245 15.6979 240.994 19.1846 244.495C22.6714 247.997 27.4001 249.964 32.3307 249.964H166.093C164.417 248.084 162.906 246.061 161.577 243.918C157.288 237.022 154.932 228.819 154.511 219.309H184.364C184.787 222.682 185.719 225.548 187.16 227.909C188.496 230.17 190.407 232.034 192.697 233.308C194.948 234.542 197.55 235.161 200.504 235.162C205.989 235.162 210.226 233.532 213.216 230.272C216.206 227.011 217.7 222.42 217.699 216.498V212.654C217.699 206.437 216.486 201.641 214.06 198.264C211.634 194.888 208.17 193.202 203.668 193.205H190.693V163.532H203.668C207.326 163.532 210.157 162.052 212.161 159.092C214.166 156.132 215.168 151.987 215.166 146.658V143.844C215.166 138.824 214.059 134.945 211.844 132.208C209.63 129.471 206.518 128.105 202.51 128.11C199.977 128.091 197.497 128.835 195.39 130.247C193.244 131.672 191.433 133.733 189.958 136.431C188.483 139.128 187.423 142.389 186.778 146.212H157.038C157.882 136.244 160.396 127.643 164.58 120.409C168.763 113.175 174.231 107.666 180.983 103.884C187.735 100.099 195.26 98.2061 203.558 98.2061C217.129 98.2061 227.625 101.898 235.046 109.28C237.564 111.795 239.675 114.691 241.3 117.862V70.5714C241.3 65.6191 239.342 60.8695 235.855 57.3675C232.369 53.8654 227.641 51.8976 222.71 51.8969Z" fill="#EAEAEA"/>
<path opacity="0.14" d="M223.081 51.3942H151.124C148.253 47.1791 144.999 43.2404 141.404 39.6284C109.485 7.57178 57.7375 7.57178 25.8185 39.6284C-1.54584 67.1155 -5.448 109.239 14.1094 140.899V230.787C14.11 235.739 16.0692 240.489 19.5559 243.99C23.0427 247.492 27.7715 249.459 32.7021 249.459H166.465C164.788 247.579 163.277 245.556 161.949 243.413C157.659 236.517 155.303 228.314 154.882 218.804H184.735C185.158 222.176 186.09 225.043 187.531 227.404C188.867 229.665 190.78 231.528 193.071 232.8C195.32 234.038 197.921 234.657 200.875 234.657C206.362 234.657 210.599 233.027 213.588 229.766C216.576 226.506 218.07 221.915 218.07 215.993V212.151C218.07 205.934 216.857 201.137 214.431 197.759C212.005 194.381 208.541 192.696 204.04 192.702H191.059V163.013H204.035C207.692 163.013 210.523 161.533 212.528 158.573C214.532 155.613 215.534 151.469 215.532 146.139V143.347C215.532 138.327 214.425 134.448 212.21 131.711C209.996 128.973 206.884 127.606 202.874 127.607C200.341 127.588 197.86 128.333 195.753 129.744C193.607 131.169 191.797 133.23 190.322 135.928C188.846 138.625 187.791 141.886 187.157 145.709H157.41C158.252 135.741 160.766 127.14 164.951 119.906C169.136 112.672 174.606 107.164 181.362 103.382C188.114 99.5961 195.639 97.7034 203.937 97.7034C217.511 97.7034 228.007 101.395 235.425 108.778C237.944 111.293 240.055 114.188 241.682 117.36V70.0686C241.681 67.6157 241.2 65.1869 240.265 62.9208C239.33 60.6548 237.96 58.5959 236.233 56.8618C234.505 55.1277 232.455 53.7523 230.198 52.8141C227.942 51.876 225.523 51.3935 223.081 51.3942Z" fill="#EAEAEA"/>
<path opacity="0.17" d="M223.453 50.8917H151.496C148.625 46.6762 145.371 42.7374 141.775 39.126C109.856 7.06933 58.1089 7.06933 26.1899 39.126C-1.17436 66.6105 -5.074 108.736 14.4833 140.396V230.285C14.4833 235.237 16.442 239.986 19.9283 243.488C23.4146 246.989 28.1431 248.956 33.0735 248.956H166.836C165.16 247.076 163.65 245.053 162.323 242.91C158.024 236.015 155.668 227.807 155.253 218.288H185.101C185.524 221.661 186.456 224.528 187.897 226.889C189.234 229.149 191.146 231.011 193.437 232.284C195.686 233.523 198.287 234.142 201.241 234.142C206.726 234.142 210.964 232.512 213.954 229.251C216.944 225.991 218.438 221.399 218.436 215.478V211.649C218.436 205.432 217.223 200.634 214.797 197.257C212.371 193.879 208.907 192.192 204.406 192.197H191.433V162.519H204.406C208.063 162.519 210.894 161.039 212.899 158.079C214.904 155.119 215.906 150.974 215.906 145.645V142.844C215.906 137.824 214.798 133.945 212.582 131.208C210.365 128.471 207.254 127.103 203.248 127.105C200.715 127.084 198.234 127.829 196.127 129.242C193.981 130.667 192.17 132.728 190.693 135.425C189.216 138.123 188.161 141.383 187.528 145.207H157.781C158.625 135.239 161.139 126.638 165.322 119.404C169.505 112.169 174.974 106.661 181.728 102.879C188.478 99.0937 196.003 97.201 204.303 97.201C217.874 97.201 228.37 100.892 235.791 108.275C238.309 110.79 240.419 113.686 242.045 116.857V69.5662C242.045 64.6136 240.086 59.8641 236.599 56.3621C233.112 52.8601 228.383 50.8924 223.453 50.8917Z" fill="#EAEAEA"/>
<path opacity="0.19" d="M223.824 50.3893H151.867C148.996 46.1738 145.742 42.2349 142.146 38.6235C110.23 6.56689 58.4803 6.56689 26.5613 38.6235C-0.803024 66.1081 -4.70267 108.234 14.8547 139.894V229.782C14.8547 234.734 16.8133 239.484 20.2996 242.985C23.786 246.487 28.5145 248.454 33.4449 248.454H167.202C165.527 246.573 164.017 244.55 162.689 242.408C158.391 235.512 156.035 227.305 155.622 217.786H185.488C185.91 221.159 186.841 224.025 188.284 226.386C189.62 228.646 191.532 230.509 193.821 231.782C196.07 233.02 198.673 233.638 201.628 233.637C207.112 233.637 211.348 232.007 214.338 228.746C217.328 225.486 218.822 220.895 218.821 214.975V211.147C218.821 204.93 217.608 200.132 215.182 196.754C212.755 193.376 209.292 191.69 204.79 191.695H191.817V162.016H204.79C208.448 162.016 211.279 160.536 213.283 157.576C215.288 154.616 216.291 150.472 216.291 145.142V142.342C216.291 137.322 215.182 133.443 212.966 130.706C210.75 127.969 207.639 126.601 203.632 126.603C201.099 126.582 198.618 127.326 196.511 128.74C194.366 130.164 192.554 132.225 191.077 134.923C189.6 137.621 188.545 140.88 187.913 144.702H158.15C158.992 134.737 161.507 126.137 165.694 118.901C169.88 111.665 175.348 106.156 182.097 102.374C188.847 98.5921 196.372 96.7002 204.672 96.6985C218.243 96.6985 228.739 100.39 236.16 107.773C238.678 110.288 240.788 113.184 242.414 116.355V69.0638C242.415 66.6115 241.934 64.1832 241 61.9175C240.066 59.6519 238.697 57.5932 236.97 55.8591C235.244 54.125 233.195 52.7494 230.939 51.8109C228.683 50.8723 226.266 50.3893 223.824 50.3893Z" fill="#EAEAEA"/>
<path opacity="0.22" d="M224.196 49.8864H152.239C149.366 45.6714 146.111 41.7327 142.515 38.1206C110.599 6.06396 58.8492 6.06396 26.9328 38.1206C-0.434086 65.6129 -4.33367 107.731 15.2211 139.391V229.279C15.2208 231.732 15.7015 234.16 16.6357 236.426C17.57 238.692 18.9394 240.751 20.666 242.485C22.3926 244.219 24.4424 245.595 26.6983 246.533C28.9543 247.471 31.3721 247.954 33.8138 247.954H167.574C165.899 246.073 164.389 244.05 163.061 241.908C158.771 235.012 156.415 226.809 155.994 217.298H185.847C186.268 220.671 187.2 223.538 188.643 225.899C189.979 228.159 191.89 230.021 194.18 231.295C196.429 232.533 199.031 233.151 201.987 233.149C207.474 233.149 211.71 231.519 214.697 228.259C217.684 224.998 219.178 220.408 219.182 214.488V210.641C219.182 204.424 217.969 199.627 215.543 196.251C213.117 192.875 209.653 191.189 205.152 191.192H192.176V161.513H205.152C208.807 161.513 211.637 160.033 213.642 157.073C215.647 154.113 216.649 149.969 216.649 144.639V141.839C216.649 136.819 215.542 132.94 213.327 130.203C211.113 127.466 208.001 126.098 203.991 126.1C201.458 126.079 198.977 126.824 196.87 128.237C194.724 129.661 192.914 131.723 191.439 134.42C189.963 137.118 188.908 140.377 188.274 144.199H158.524C159.37 134.233 161.885 125.632 166.068 118.398C170.251 111.164 175.719 105.655 182.471 101.871C189.223 98.0892 196.748 96.1973 205.046 96.1956C218.617 96.1956 229.113 99.887 236.534 107.27C239.052 109.784 241.163 112.679 242.788 115.849V68.5608C242.789 66.1084 242.308 63.6799 241.374 61.414C240.44 59.1482 239.07 57.0894 237.344 55.3552C235.617 53.6211 233.567 52.2455 231.311 51.3072C229.055 50.3688 226.637 49.886 224.196 49.8864Z" fill="#EAEAEA"/>
<path opacity="0.25" d="M224.569 49.3839H152.612C149.74 45.1684 146.485 41.2296 142.889 37.6182C110.973 5.56152 59.2229 5.56152 27.3065 37.6182C-0.0578015 65.1027 -3.95996 107.228 15.5974 138.889V228.777C15.5974 233.73 17.5563 238.479 21.0431 241.982C24.5299 245.484 29.2591 247.451 34.1902 247.451H167.95C166.274 245.57 164.763 243.546 163.434 241.403C159.144 234.509 156.789 226.305 156.368 216.793H186.221C186.644 220.166 187.576 223.033 189.016 225.394C190.353 227.654 192.264 229.516 194.554 230.79C196.804 232.028 199.407 232.646 202.361 232.644C207.846 232.644 212.083 231.014 215.073 227.754C218.063 224.493 219.557 219.903 219.556 213.983V210.139C219.556 203.922 218.343 199.125 215.916 195.749C213.49 192.373 210.027 190.686 205.525 190.69H192.55V161.011H205.525C209.181 161.011 212.012 159.531 214.018 156.571C216.025 153.611 217.026 149.466 217.023 144.137V141.337C217.023 136.316 215.916 132.438 213.701 129.7C211.486 126.963 208.374 125.595 204.365 125.597C201.831 125.577 199.35 126.321 197.244 127.734C195.098 129.157 193.287 131.218 191.812 133.915C190.337 136.613 189.282 139.873 188.648 143.697H158.898C159.742 133.732 162.256 125.132 166.439 117.896C170.622 110.66 176.09 105.151 182.842 101.369C189.594 97.5868 197.119 95.6949 205.417 95.6931C218.988 95.6931 229.484 99.3845 236.905 106.767C239.424 109.282 241.534 112.178 243.16 115.349V68.0584C243.16 65.6061 242.679 63.1778 241.745 60.9122C240.811 58.6465 239.442 56.5878 237.716 54.8537C235.989 53.1196 233.94 51.744 231.684 50.8055C229.429 49.867 227.011 49.3839 224.569 49.3839Z" fill="#EAEAEA"/>
<path opacity="0.28" d="M224.949 48.8813H152.992C150.117 44.6656 146.859 40.7276 143.258 37.1182C111.339 5.06152 59.5894 5.06152 27.673 37.1182C0.308693 64.6027 -3.59353 106.726 15.9638 138.389V228.277C15.9638 233.23 17.9227 237.979 21.4095 241.482C24.8964 244.984 29.6255 246.951 34.5566 246.951H168.319C166.643 245.069 165.132 243.046 163.803 240.903C159.513 234.009 157.158 225.805 156.737 216.293H186.59C187.013 219.666 187.945 222.533 189.385 224.894C190.722 227.153 192.633 229.016 194.923 230.29C197.175 231.524 199.778 232.143 202.73 232.144C208.216 232.144 212.454 230.514 215.442 227.254C218.43 223.993 219.925 219.403 219.925 213.483V209.641C219.925 203.424 218.712 198.628 216.285 195.251C213.859 191.875 210.396 190.189 205.894 190.192H192.919V160.508H205.894C209.551 160.508 212.382 159.028 214.387 156.066C216.392 153.104 217.394 148.964 217.392 143.645V140.834C217.392 135.814 216.285 131.935 214.07 129.198C211.855 126.461 208.743 125.093 204.734 125.095C202.201 125.074 199.72 125.818 197.613 127.229C195.467 128.654 193.656 130.715 192.181 133.412C190.706 136.11 189.651 139.37 189.017 143.194H159.269C160.112 133.228 162.626 124.627 166.811 117.393C170.996 110.159 176.463 104.65 183.214 100.866C189.966 97.0842 197.491 95.1923 205.789 95.1906C219.36 95.1906 229.856 98.8811 237.277 106.262C239.795 108.778 241.906 111.674 243.534 114.844V67.5532C243.533 62.6022 241.575 57.8541 238.09 54.3528C234.605 50.8514 229.878 48.8834 224.949 48.8813Z" fill="#EAEAEA"/>
<path opacity="0.31" d="M225.312 48.3791H153.355C150.485 44.163 147.231 40.2241 143.635 36.6133C111.716 4.55664 59.9684 4.55664 28.0494 36.6133C0.685037 64.0978 -3.21461 106.221 16.3402 137.884V227.775C16.3409 232.727 18.3 237.477 21.7866 240.979C25.2733 244.481 30.0021 246.448 34.933 246.449H168.696C167.02 244.567 165.51 242.543 164.182 240.4C159.884 233.508 157.527 225.305 157.113 215.791H186.966C187.389 219.164 188.321 222.031 189.762 224.391C191.099 226.642 193.006 228.496 195.289 229.764C197.538 231 200.139 231.619 203.093 231.619C208.578 231.619 212.816 229.989 215.806 226.728C218.796 223.468 220.296 218.877 220.306 212.957V209.123C220.306 202.906 219.093 198.11 216.667 194.734C214.241 191.357 210.774 189.678 206.266 189.695H193.29V160.006H206.266C209.923 160.006 212.754 158.525 214.759 155.564C216.763 152.602 217.765 148.457 217.763 143.129V140.332C217.763 135.312 216.656 131.433 214.441 128.696C212.227 125.958 209.115 124.591 205.105 124.592C202.572 124.572 200.092 125.316 197.984 126.727C195.84 128.152 194.029 130.213 192.552 132.91C191.075 135.608 190.021 138.868 189.388 142.692H159.64C160.485 132.724 162.998 124.123 167.182 116.891C171.365 109.658 176.833 104.149 183.585 100.364C190.337 96.5819 197.862 94.69 206.16 94.6883C219.734 94.6883 230.231 98.3788 237.648 105.76C240.166 108.275 242.278 111.171 243.905 114.342V67.0509C243.904 62.0986 241.945 57.3493 238.458 53.8478C234.972 50.3462 230.243 48.3791 225.312 48.3791Z" fill="#EAEAEA"/>
<path opacity="0.33" d="M225.684 47.8766H153.727C150.856 43.6606 147.602 39.7217 144.006 36.1108C112.087 4.0516 60.3398 4.0516 28.4209 36.1108C1.05656 63.5953 -2.84302 105.718 16.7143 137.381V227.256C16.7143 232.209 18.6728 236.958 22.1591 240.46C25.6454 243.962 30.3738 245.93 35.3045 245.931H169.067C167.392 244.049 165.882 242.025 164.554 239.882C160.255 232.99 157.899 224.787 157.484 215.273H187.337C187.76 218.646 188.692 221.513 190.133 223.873C191.472 226.133 193.384 227.995 195.673 229.269C197.922 230.504 200.524 231.122 203.478 231.124C208.964 231.124 213.202 229.494 216.19 226.233C219.178 222.973 220.672 218.383 220.672 212.463V208.631C220.672 202.414 219.459 197.618 217.033 194.241C214.607 190.865 211.142 189.177 206.637 189.177H193.664V159.504H206.637C210.294 159.504 213.125 158.023 215.13 155.061C217.135 152.099 218.137 147.959 218.137 142.64V139.829C218.137 134.809 217.029 130.93 214.813 128.193C212.596 125.456 209.485 124.088 205.479 124.09C202.945 124.07 200.464 124.815 198.358 126.229C196.212 127.654 194.401 129.715 192.924 132.413C191.447 135.11 190.392 138.371 189.759 142.194H160.012C160.856 132.226 163.37 123.626 167.553 116.394C171.736 109.161 177.205 103.652 183.959 99.8666C190.708 96.0829 198.233 94.1901 206.534 94.1884C220.105 94.1884 230.601 97.8798 238.022 105.262C240.54 107.778 242.65 110.674 244.276 113.845V66.5484C244.276 61.5961 242.317 56.8469 238.83 53.3453C235.343 49.8437 230.614 47.8766 225.684 47.8766Z" fill="#EAEAEA"/>
<path opacity="0.36" d="M226.055 47.3737H154.098C151.228 43.1576 147.974 39.2188 144.378 35.6079C112.461 3.54867 60.7113 3.54867 28.7949 35.6079C1.42795 63.0924 -2.47163 105.215 17.0857 136.878V226.766C17.0857 231.719 19.0442 236.468 22.5305 239.97C26.0168 243.472 30.7452 245.44 35.6759 245.441H169.439C167.764 243.558 166.254 241.535 164.925 239.392C160.627 232.5 158.271 224.297 157.859 214.783H187.707C188.128 218.156 189.06 221.023 190.502 223.383C191.839 225.643 193.75 227.505 196.04 228.779C198.29 230.009 200.893 230.624 203.847 230.624C209.33 230.624 213.566 228.993 216.556 225.733C219.546 222.472 221.041 217.882 221.039 211.962V208.128C221.039 201.911 219.826 197.115 217.4 193.738C214.974 190.362 211.511 188.676 207.011 188.679H194.036V159.001H207.011C210.667 159.001 213.497 157.52 215.502 154.558C217.506 151.596 218.509 147.452 218.509 142.124V139.326C218.509 134.306 217.401 130.427 215.187 127.69C212.972 124.953 209.864 123.585 205.863 123.587C203.33 123.565 200.85 124.309 198.742 125.721C196.597 127.146 194.785 129.207 193.308 131.905C191.831 134.602 190.772 137.863 190.131 141.686H160.383C161.226 131.718 163.741 123.118 167.927 115.885C172.114 108.653 177.582 103.144 184.33 99.3585C191.079 95.5747 198.604 93.682 206.905 93.6803C220.477 93.6803 230.973 97.3717 238.394 104.754C240.911 107.27 243.022 110.166 244.648 113.336V66.0455C244.648 63.5933 244.167 61.1651 243.233 58.8995C242.298 56.634 240.929 54.5755 239.202 52.8416C237.476 51.1077 235.426 49.7324 233.17 48.7942C230.914 47.856 228.497 47.3733 226.055 47.3737Z" fill="#EAEAEA"/>
<path opacity="0.39" d="M226.429 46.8686H154.472C151.599 42.6545 148.344 38.7166 144.749 35.1055C112.832 3.04623 61.0825 3.04623 29.1661 35.1055C1.80182 62.59 -2.10034 104.713 17.457 136.376V226.264C17.457 231.217 19.4159 235.967 22.9027 239.469C26.3895 242.971 31.1187 244.939 36.0498 244.939H169.81C168.135 243.056 166.625 241.032 165.296 238.89C161.006 231.994 158.651 223.791 158.23 214.281H188.067C188.488 217.653 189.42 220.52 190.863 222.881C192.2 225.141 194.111 227.003 196.4 228.277C198.649 229.512 201.252 230.13 204.207 230.132C209.692 230.132 213.929 228.501 216.917 225.241C219.905 221.98 221.404 217.385 221.412 211.455V207.626C221.412 201.409 220.199 196.612 217.773 193.236C215.347 189.86 211.883 188.173 207.382 188.177H194.407V158.496H207.382C211.037 158.496 213.868 157.016 215.872 154.056C217.877 151.096 218.88 146.955 218.88 141.635V138.824C218.88 133.802 217.772 129.923 215.558 127.188C213.343 124.452 210.231 123.084 206.221 123.084C203.688 123.063 201.208 123.807 199.101 125.219C196.955 126.644 195.144 128.705 193.669 131.402C192.194 134.1 191.139 137.36 190.504 141.184H160.755C161.6 131.216 164.115 122.616 168.298 115.383C172.482 108.151 177.949 102.642 184.701 98.8561C191.454 95.0723 198.978 93.1796 207.276 93.1778C220.848 93.1778 231.344 96.8692 238.765 104.252C241.283 106.767 243.393 109.663 245.019 112.834V65.5431C245.019 60.5908 243.06 55.8412 239.574 52.3392C236.088 48.8371 231.359 46.8693 226.429 46.8686Z" fill="#EAEAEA"/>
<path opacity="0.42" d="M226.8 46.3662H154.843C151.972 42.1514 148.717 38.2135 145.12 34.603C113.204 2.54379 61.4541 2.54379 29.5377 34.603C2.17344 62.0875 -1.72878 104.211 17.8286 135.873V225.762C17.8292 230.714 19.7884 235.464 23.275 238.966C26.7617 242.468 31.4904 244.435 36.4213 244.436H170.184C168.508 242.554 166.997 240.531 165.668 238.387C161.378 231.492 159.022 223.289 158.601 213.778H188.454C188.877 217.151 189.809 220.019 191.25 222.381C192.587 224.641 194.498 226.503 196.787 227.777C199.04 229.013 201.642 229.632 204.594 229.632C210.081 229.632 214.318 228.001 217.307 224.741C220.295 221.48 221.788 216.879 221.784 210.937V207.123C221.784 200.906 220.571 196.11 218.145 192.734C215.719 189.357 212.255 187.671 207.754 187.674H194.773V157.993H207.749C211.404 157.993 214.235 156.513 216.242 153.553C218.248 150.593 219.25 146.449 219.246 141.119V138.319C219.246 133.299 218.139 129.421 215.924 126.685C213.71 123.95 210.598 122.581 206.588 122.579C204.055 122.56 201.574 123.305 199.467 124.716C197.321 126.141 195.511 128.202 194.035 130.9C192.56 133.597 191.505 136.858 190.871 140.681H161.129C161.971 130.713 164.485 122.113 168.67 114.881C172.855 107.648 178.323 102.139 185.073 98.3536C191.825 94.5681 199.35 92.6754 207.648 92.6754C221.219 92.6754 231.715 96.3668 239.136 103.75C241.655 106.265 243.765 109.16 245.391 112.332V65.0406C245.391 60.0883 243.432 55.3388 239.946 51.8367C236.46 48.3347 231.731 46.3669 226.8 46.3662Z" fill="#EAEAEA"/>
<path opacity="0.44" d="M227.171 45.8637H155.214C152.344 41.649 149.089 37.7111 145.494 34.1006C113.575 2.04134 61.8277 2.04134 29.9088 34.1006C2.5445 61.5851 -1.35766 103.708 18.1997 135.371V225.259C18.2004 230.212 20.1595 234.961 23.6463 238.462C27.133 241.964 31.8617 243.931 36.7924 243.931H170.555C168.878 242.051 167.367 240.028 166.039 237.885C161.749 230.989 159.393 222.786 158.972 213.276H188.825C189.248 216.649 190.18 219.515 191.621 221.876C192.959 224.129 194.868 225.986 197.153 227.256C199.404 228.491 202.006 229.109 204.96 229.111C210.445 229.111 214.683 227.481 217.673 224.22C220.663 220.96 222.157 216.369 222.155 210.447V206.621C222.155 200.404 220.942 195.607 218.516 192.231C216.09 188.855 212.626 187.169 208.125 187.172H195.149V157.491H208.125C211.782 157.491 214.613 156.011 216.618 153.051C218.623 150.091 219.624 145.946 219.622 140.617V137.816C219.622 132.796 218.515 128.917 216.3 126.18C214.086 123.443 210.974 122.078 206.964 122.085C204.431 122.065 201.95 122.81 199.843 124.222C197.697 125.647 195.887 127.708 194.412 130.405C192.936 133.103 191.882 136.363 191.247 140.187H161.502C162.347 130.219 164.86 121.618 169.044 114.383C173.227 107.149 178.695 101.641 185.447 97.859C192.199 94.0735 199.724 92.1807 208.022 92.1807C221.593 92.1807 232.089 95.8721 239.51 103.255C242.028 105.77 244.139 108.666 245.767 111.837V64.5382C245.766 59.5852 243.807 54.8353 240.319 51.3332C236.832 47.8311 232.103 45.8637 227.171 45.8637Z" fill="#EAEAEA"/>
<path opacity="0.47" d="M227.543 45.361H155.571C152.699 41.1459 149.445 37.2072 145.85 33.5952C113.931 1.53857 62.1839 1.53857 30.2649 33.5952C2.91094 61.0823 -0.980888 103.205 18.5687 134.866V224.754C18.5687 229.706 20.5273 234.455 24.0137 237.957C27.5 241.458 32.2284 243.426 37.1589 243.426H170.922C169.246 241.545 167.736 239.522 166.408 237.38C162.11 230.484 159.753 222.281 159.339 212.77H189.192C189.615 216.143 190.547 219.01 191.988 221.371C193.329 223.621 195.24 225.473 197.528 226.738C199.776 227.976 202.378 228.595 205.332 228.595C210.818 228.595 215.056 226.965 218.044 223.705C221.033 220.444 222.527 215.853 222.527 209.931V206.118C222.527 199.901 221.314 195.104 218.888 191.726C216.462 188.348 212.998 186.662 208.496 186.669H195.521V156.988H208.496C212.154 156.988 214.985 155.508 216.989 152.548C218.994 149.588 219.996 145.443 219.994 140.114V137.314C219.994 132.293 218.887 128.415 216.672 125.677C214.458 122.94 211.346 121.57 207.338 121.566C204.805 121.547 202.323 122.291 200.215 123.704C198.073 125.128 196.262 127.189 194.783 129.887C193.305 132.584 192.25 135.845 191.619 139.668H161.871C162.716 129.7 165.229 121.099 169.413 113.865C173.596 106.631 179.064 101.123 185.816 97.3407C192.568 93.5552 200.093 91.6624 208.391 91.6624C221.964 91.6624 232.46 95.3538 239.879 102.737C242.398 105.252 244.509 108.147 246.136 111.319V64.0354C246.135 59.0829 244.176 54.3333 240.689 50.8314C237.203 47.3294 232.474 45.3617 227.543 45.361Z" fill="#EAEAEA"/>
<path opacity="0.5" d="M227.915 44.8585H155.958C153.087 40.643 149.833 36.7042 146.237 33.0928C114.318 1.03613 62.5708 1.03613 30.6518 33.0928C3.28752 60.5773 -0.612061 102.703 18.9453 134.363V224.251C18.9453 229.203 20.9039 233.953 24.3902 237.454C27.8766 240.956 32.605 242.923 37.5355 242.923H171.303C169.627 241.043 168.117 239.02 166.79 236.877C162.491 229.981 160.136 221.774 159.723 212.255H189.563C189.986 215.628 190.918 218.495 192.359 220.855C193.696 223.116 195.608 224.978 197.899 226.251C200.148 227.489 202.75 228.109 205.706 228.109C211.189 228.109 215.426 226.478 218.416 223.218C221.406 219.957 222.9 215.366 222.898 209.444V205.616C222.898 199.399 221.685 194.601 219.259 191.223C216.833 187.845 213.369 186.16 208.868 186.167H195.895V156.486H208.868C212.525 156.486 215.356 155.006 217.361 152.046C219.366 149.086 220.368 144.941 220.368 139.611V136.811C220.368 131.791 219.26 127.912 217.044 125.175C214.827 122.438 211.716 121.07 207.71 121.072C205.177 121.051 202.696 121.796 200.589 123.209C198.443 124.634 196.632 126.695 195.155 129.392C193.678 132.09 192.623 135.353 191.99 139.181H162.243C163.085 129.213 165.599 120.612 169.784 113.378C173.969 106.144 179.438 100.636 186.19 96.8538C192.94 93.0683 200.465 91.1755 208.765 91.1755C222.336 91.1755 232.832 94.8669 240.253 102.25C242.771 104.765 244.881 107.661 246.507 110.832V63.5408C246.508 61.0878 246.028 58.6588 245.093 56.3924C244.159 54.1259 242.79 52.0665 241.064 50.3317C239.337 48.5968 237.287 47.2206 235.031 46.2815C232.775 45.3424 230.357 44.8589 227.915 44.8585Z" fill="#EAEAEA"/>
<path opacity="0.53" d="M228.286 44.3561H156.329C153.458 40.1406 150.204 36.2017 146.608 32.5903C114.692 0.533691 62.9422 0.533691 31.0258 32.5903C3.66148 60.0749 -0.240747 102.201 19.3166 133.861V223.749C19.3166 226.201 19.7976 228.629 20.732 230.895C21.6664 233.161 23.0359 235.219 24.7624 236.953C26.489 238.687 28.5387 240.062 30.7944 241C33.0502 241.938 35.4679 242.421 37.9094 242.421H171.664C169.989 240.54 168.479 238.517 167.151 236.375C162.852 229.479 160.497 221.276 160.084 211.766H189.937C190.359 215.138 191.29 218.005 192.733 220.366C194.069 222.626 195.981 224.489 198.27 225.762C200.519 227 203.122 227.618 206.077 227.616C211.561 227.616 215.797 225.986 218.787 222.726C221.777 219.465 223.271 214.875 223.27 208.955V205.113C223.27 198.896 222.057 194.099 219.63 190.721C217.204 187.343 213.742 185.657 209.242 185.662H196.266V155.983H209.242C212.897 155.983 215.727 154.503 217.732 151.543C219.737 148.583 220.74 144.438 220.74 139.109V136.309C220.74 131.289 219.632 127.41 217.418 124.673C215.203 121.935 212.091 120.568 208.081 120.569C205.549 120.549 203.069 121.294 200.963 122.706C198.817 124.131 197.006 126.192 195.529 128.89C194.052 131.587 192.997 134.845 192.364 138.663H162.614C163.46 128.695 165.975 120.094 170.158 112.86C174.341 105.626 179.809 100.118 186.561 96.3358C193.313 92.5503 200.838 90.6575 209.136 90.6575C222.707 90.6575 233.203 94.3489 240.624 101.732C243.141 104.249 245.249 107.148 246.871 110.322V63.0228C246.87 58.0725 244.911 53.3253 241.426 49.8249C237.941 46.3246 233.215 44.3575 228.286 44.3561Z" fill="#EAEAEA"/>
<path opacity="0.56" d="M228.66 43.8536H156.703C153.83 39.6387 150.575 35.6999 146.98 32.0879C115.063 0.03125 63.3135 0.03125 31.3971 32.0879C4.03282 59.5724 0.130592 101.698 19.6879 133.358V223.247C19.6876 225.699 20.1683 228.127 21.1025 230.393C22.0368 232.659 23.4063 234.718 25.1329 236.452C26.8595 238.186 28.9093 239.562 31.1652 240.5C33.4211 241.438 35.839 241.921 38.2807 241.921H172.043C170.367 240.041 168.856 238.018 167.527 235.875C163.238 228.979 160.882 220.772 160.461 211.253H190.314C190.737 214.626 191.669 217.492 193.11 219.853C194.446 222.109 196.355 223.968 198.642 225.239C200.891 226.477 203.493 227.095 206.449 227.093C211.935 227.093 216.172 225.463 219.158 222.203C222.145 218.942 223.64 214.352 223.644 208.432V204.611C223.644 198.394 222.431 193.596 220.004 190.218C217.578 186.841 214.115 185.154 209.613 185.159H196.638V155.481H209.613C213.269 155.481 216.099 154.001 218.104 151.041C220.108 148.081 221.111 143.936 221.111 138.607V135.814C221.111 130.794 220.004 126.915 217.789 124.178C215.574 121.441 212.459 120.07 208.442 120.067C205.909 120.046 203.428 120.791 201.321 122.204C199.176 123.629 197.365 125.69 195.89 128.387C194.415 131.085 193.36 134.344 192.725 138.166H162.988C163.831 128.2 166.344 119.6 170.529 112.365C174.714 105.131 180.182 99.6223 186.933 95.8385C193.685 92.0565 201.21 90.1646 209.507 90.1629C223.079 90.1629 233.575 93.8542 240.996 101.237C243.515 103.751 245.625 106.647 247.25 109.819V62.5281C247.25 60.0759 246.77 57.6476 245.836 55.3819C244.902 53.1162 243.532 51.0575 241.806 49.3234C240.08 47.5893 238.03 46.2137 235.775 45.2752C233.519 44.3367 231.101 43.8536 228.66 43.8536Z" fill="#EAEAEA"/>
<path opacity="0.58" d="M229.031 43.3507H157.074C154.203 39.1345 150.948 35.1956 147.351 31.585C115.435 -0.471681 63.6848 -0.471681 31.7684 31.585C4.40411 59.0695 0.501951 101.195 20.0593 132.855V222.744C20.0593 227.696 22.0181 232.446 25.505 235.948C28.9918 239.451 33.7209 241.418 38.652 241.418H172.415C170.738 239.537 169.226 237.513 167.899 235.369C163.609 228.477 161.253 220.274 160.832 210.76H190.685C191.108 214.133 192.04 217 193.481 219.36C194.817 221.621 196.728 223.483 199.018 224.756C201.269 225.995 203.871 226.613 206.825 226.611C212.31 226.611 216.548 224.981 219.538 221.72C222.528 218.46 224.022 213.87 224.02 207.95V204.105C224.02 197.888 222.807 193.092 220.381 189.716C217.955 186.339 214.491 184.653 209.99 184.656H197.014V154.983H209.99C213.647 154.983 216.478 153.503 218.483 150.543C220.488 147.583 221.489 143.438 221.487 138.109V135.296C221.487 130.275 220.38 126.397 218.165 123.659C215.951 120.922 212.839 119.554 208.829 119.556C206.296 119.536 203.815 120.28 201.708 121.693C199.562 123.116 197.752 125.177 196.277 127.874C194.801 130.572 193.747 133.832 193.112 137.656H163.36C164.202 127.689 166.716 119.089 170.901 111.855C175.086 104.621 180.554 99.1116 187.304 95.3278C194.056 91.5458 201.581 89.6539 209.879 89.6522C223.45 89.6522 233.946 93.3435 241.367 100.726C243.885 103.24 245.996 106.135 247.621 109.306V62.0252C247.622 59.5729 247.141 57.1446 246.207 54.879C245.273 52.6133 243.904 50.5546 242.177 48.8205C240.451 47.0864 238.402 45.7108 236.146 44.7723C233.89 43.8338 231.473 43.3507 229.031 43.3507Z" fill="#EAEAEA"/>
<path opacity="0.61" d="M229.403 42.8483H157.446C154.575 38.6323 151.321 34.6934 147.725 31.0826C115.801 -0.96112 64.0536 -0.96112 32.1346 31.0826C4.77032 58.5671 0.868163 100.69 20.4255 132.353V222.241C20.4255 227.194 22.3844 231.944 25.8712 235.446C29.358 238.948 34.0872 240.916 39.0183 240.916H172.781C171.105 239.034 169.594 237.01 168.265 234.867C163.977 227.973 161.621 219.77 161.198 210.258H191.051C191.474 213.631 192.406 216.497 193.847 218.858C195.184 221.119 197.096 222.981 199.387 224.254C201.636 225.492 204.237 226.11 207.191 226.109C212.678 226.109 216.915 224.478 219.904 221.218C222.892 217.958 224.386 213.367 224.386 207.447V203.603C224.386 197.386 223.173 192.589 220.747 189.213C218.321 185.837 214.857 184.151 210.356 184.154H197.38V154.465H210.356C214.013 154.465 216.844 152.984 218.849 150.022C220.854 147.061 221.855 142.924 221.854 137.612V134.801C221.854 129.781 220.746 125.902 218.532 123.165C216.317 120.428 213.205 119.06 209.195 119.062C206.662 119.041 204.182 119.785 202.074 121.196C199.929 122.621 198.118 124.682 196.643 127.379C195.168 130.077 194.114 133.337 193.483 137.161H163.731C164.575 127.195 167.089 118.594 171.272 111.36C175.455 104.126 180.923 98.617 187.675 94.8332C194.427 91.0512 201.952 89.1593 210.25 89.1576C223.823 89.1576 234.319 92.8481 241.738 100.229C244.256 102.745 246.367 105.641 247.995 108.811V61.5202C247.995 56.5679 246.035 51.8186 242.549 48.317C239.062 44.8155 234.333 42.8483 229.403 42.8483Z" fill="#EAEAEA"/>
<path opacity="0.64" d="M229.774 42.3458H157.817C154.945 38.1296 151.689 34.1907 148.091 30.5801C116.172 -1.47917 64.4251 -1.47917 32.5061 30.5801C5.1418 58.0646 1.24216 100.188 20.7995 131.851V221.739C20.7995 226.691 22.758 231.441 26.2443 234.943C29.7305 238.445 34.459 240.412 39.3897 240.413H173.152C171.477 238.531 169.967 236.508 168.639 234.365C164.34 227.47 161.984 219.267 161.57 209.755H191.42C191.843 213.128 192.775 215.995 194.216 218.356C195.554 220.616 197.466 222.478 199.756 223.751C202.005 224.986 204.606 225.605 207.56 225.606C213.045 225.606 217.283 223.976 220.273 220.715C223.263 217.455 224.757 212.865 224.755 206.945V203.101C224.755 196.883 223.542 192.087 221.116 188.711C218.69 185.334 215.226 183.648 210.725 183.652H197.752V153.973H210.725C214.382 153.973 217.213 152.492 219.218 149.53C221.223 146.569 222.225 142.424 222.225 137.096V134.299C222.225 129.278 221.117 125.4 218.9 122.662C216.684 119.925 213.573 118.557 209.567 118.559C207.033 118.538 204.552 119.282 202.443 120.694C200.299 122.118 198.489 124.179 197.012 126.877C195.535 129.574 194.48 132.835 193.847 136.658H164.102C164.945 126.69 167.459 118.09 171.644 110.858C175.829 103.625 181.297 98.1162 188.049 94.3307C194.8 90.5487 202.325 88.6568 210.624 88.6551C224.195 88.6551 234.691 92.3456 242.11 99.7266C244.629 102.241 246.74 105.137 248.367 108.309V61.0177C248.366 56.0654 246.407 51.3161 242.92 47.8145C239.433 44.313 234.705 42.3458 229.774 42.3458Z" fill="#EAEAEA"/>
<path opacity="0.67" d="M230.145 41.8434H158.188C155.318 37.6274 152.064 33.6885 148.468 30.0776C116.551 -1.98161 64.8016 -1.98161 32.8826 30.0776C5.51827 57.5622 1.61862 99.6852 21.176 131.348V221.236C21.176 226.189 23.1345 230.938 26.6208 234.44C30.1071 237.942 34.8355 239.91 39.7662 239.911H173.529C171.854 238.028 170.344 236.005 169.015 233.862C164.717 226.97 162.361 218.767 161.949 209.253H191.802C192.223 212.626 193.155 215.492 194.598 217.853C195.934 220.113 197.846 221.975 200.135 223.249C202.384 224.484 204.986 225.102 207.942 225.104C213.425 225.104 217.662 223.474 220.652 220.213C223.642 216.953 225.136 212.362 225.134 206.442V202.598C225.134 196.381 223.921 191.584 221.495 188.208C219.069 184.832 215.605 183.146 211.104 183.149H198.126V153.47H211.099C214.756 153.47 217.587 151.99 219.592 149.028C221.596 146.066 222.599 141.921 222.599 136.594V133.796C222.599 128.776 221.491 124.897 219.274 122.16C217.058 119.423 213.947 118.055 209.941 118.057C207.408 118.035 204.927 118.779 202.82 120.191C200.674 121.616 198.862 123.677 197.386 126.374C195.909 129.072 194.854 132.333 194.221 136.156H164.474C165.318 126.188 167.832 117.588 172.017 110.355C176.203 103.123 181.67 97.6138 188.421 93.8283C195.171 90.0428 202.696 88.15 210.995 88.15C224.567 88.15 235.063 91.8414 242.484 99.2241C245.001 101.74 247.112 104.635 248.738 107.806V60.5153C248.738 58.063 248.257 55.6348 247.323 53.3692C246.388 51.1037 245.019 49.0452 243.292 47.3113C241.566 45.5775 239.516 44.2022 237.26 43.264C235.005 42.3258 232.587 41.8431 230.145 41.8434Z" fill="#EAEAEA"/>
<path opacity="0.69" d="M230.517 41.3409H158.56C155.69 37.1249 152.435 33.186 148.839 29.5752C116.923 -2.48405 65.1729 -2.48405 33.2565 29.5752C5.89215 57.0597 1.98999 99.1828 21.5473 130.846V220.734C21.5473 225.687 23.5062 230.436 26.993 233.939C30.4798 237.441 35.209 239.408 40.1401 239.408H173.9C172.226 237.526 170.716 235.502 169.387 233.36C165.097 226.467 162.741 218.264 162.32 208.75H192.168C192.589 212.123 193.521 214.99 194.964 217.351C196.301 219.61 198.212 221.473 200.501 222.747C202.75 223.981 205.352 224.6 208.308 224.601C213.795 224.601 218.031 222.971 221.018 219.711C224.004 216.45 225.499 211.86 225.5 205.94V202.096C225.5 195.879 224.288 191.082 221.864 187.706C219.439 184.33 215.976 182.643 211.473 182.647H198.497V152.968H211.473C215.128 152.968 217.958 151.487 219.963 148.525C221.968 145.564 222.97 141.419 222.97 136.091V133.294C222.97 128.273 221.863 124.395 219.648 121.657C217.434 118.92 214.322 117.552 210.312 117.554C207.779 117.533 205.298 118.276 203.191 119.689C201.045 121.113 199.234 123.175 197.757 125.872C196.28 128.57 195.226 131.83 194.595 135.654H164.855C165.701 125.686 168.216 117.085 172.399 109.853C176.582 102.62 182.05 97.1113 188.802 93.3258C195.554 89.5403 203.079 87.6476 211.377 87.6476C224.948 87.6476 235.444 91.3389 242.865 98.7217C245.384 101.237 247.494 104.133 249.12 107.304V60.0128C249.12 57.5597 248.639 55.1306 247.703 52.8644C246.768 50.5982 245.398 48.5392 243.67 46.8052C241.943 45.0712 239.892 43.6961 237.635 42.7585C235.378 41.8209 232.959 41.3392 230.517 41.3409Z" fill="#EAEAEA"/>
<path opacity="0.72" d="M230.88 40.8354H158.923C156.051 36.6213 152.796 32.6834 149.2 29.0723C117.284 -2.98697 65.5339 -2.98697 33.6175 29.0723C6.25324 56.5568 2.35108 98.6798 21.9084 130.343V220.231C21.9091 225.183 23.8682 229.933 27.3549 233.435C30.8416 236.937 35.5703 238.905 40.5012 238.905H174.269C172.593 237.02 171.083 234.993 169.756 232.846C165.467 225.951 163.112 217.747 162.689 208.237H192.542C192.965 211.61 193.897 214.477 195.338 216.837C196.675 219.097 198.586 220.959 200.875 222.233C203.126 223.468 205.728 224.086 208.682 224.088C214.167 224.088 218.404 222.458 221.394 219.197C224.384 215.937 225.879 211.346 225.877 205.426V201.593C225.877 195.376 224.664 190.579 222.238 187.203C219.812 183.827 216.348 182.14 211.847 182.144H198.871V152.462H211.847C215.502 152.462 218.332 150.982 220.337 148.022C222.342 145.062 223.344 140.918 223.344 135.588V132.791C223.344 127.769 222.237 123.89 220.022 121.154C217.808 118.419 214.696 117.051 210.686 117.051C208.153 117.031 205.673 117.775 203.565 119.186C201.419 120.61 199.609 122.672 198.133 125.369C196.658 128.067 195.603 131.327 194.969 135.151H165.219C166.061 125.183 168.575 116.582 172.76 109.35C176.945 102.117 182.413 96.6084 189.163 92.8229C195.915 89.0374 203.44 87.1446 211.738 87.1446C225.309 87.1446 235.806 90.836 243.227 98.2187C245.745 100.734 247.855 103.63 249.481 106.801V59.5099C249.481 57.0569 249 54.6279 248.065 52.3617C247.13 50.0955 245.76 48.0365 244.032 46.3023C242.305 44.5681 240.255 43.1927 237.998 42.2547C235.741 41.3167 233.323 40.8344 230.88 40.8354Z" fill="#EAEAEA"/>
<path opacity="0.75" d="M231.262 40.333H159.305C156.433 36.118 153.177 32.1801 149.579 28.5698C117.658 -3.48942 65.9107 -3.48942 33.9943 28.5698C6.62998 56.0543 2.72776 98.1774 22.2851 129.84V219.728C22.2878 224.68 24.2478 229.427 27.7343 232.927C31.2207 236.428 35.9483 238.394 40.8779 238.395H174.641C172.965 236.513 171.454 234.49 170.125 232.346C165.836 225.451 163.481 217.248 163.058 207.737H192.911C193.334 211.11 194.266 213.978 195.707 216.34C197.044 218.6 198.955 220.462 201.244 221.736C203.497 222.971 206.099 223.589 209.051 223.591C214.538 223.591 218.775 221.96 221.763 218.7C224.752 215.439 226.243 210.843 226.238 204.911V201.093C226.238 194.876 225.025 190.079 222.599 186.703C220.173 183.327 216.709 181.64 212.208 181.644H199.232V151.96H212.208C215.865 151.96 218.696 150.48 220.701 147.52C222.706 144.56 223.707 140.415 223.706 135.086V132.286C223.706 127.265 222.598 123.388 220.384 120.652C218.169 117.917 215.057 116.549 211.047 116.549C208.514 116.529 206.034 117.272 203.926 118.683C201.781 120.108 199.97 122.169 198.495 124.867C197.02 127.564 195.965 130.825 195.33 134.648H165.591C166.435 124.68 168.949 116.08 173.132 108.847C177.315 101.615 182.783 96.1059 189.535 92.3204C196.287 88.5349 203.812 86.6422 212.11 86.6422C225.681 86.6422 236.177 90.3336 243.598 97.7163C246.117 100.232 248.228 103.128 249.855 106.298V59.0074C249.854 54.0549 247.895 49.3053 244.409 45.8034C240.922 42.3014 236.193 40.3337 231.262 40.333Z" fill="#EAEAEA"/>
<path opacity="0.78" d="M231.633 39.8305H159.676C156.806 35.6158 153.551 31.6779 149.956 28.0674C118.037 -3.99186 66.2897 -3.99186 34.3708 28.0674C7.0142 55.5519 3.10166 97.675 22.6564 129.338V219.226C22.6571 224.179 24.6162 228.928 28.1029 232.43C31.5896 235.932 36.3183 237.9 41.2492 237.9H175.012C173.337 236.019 171.826 233.995 170.498 231.852C166.2 224.956 163.843 216.749 163.429 207.23H193.282C193.705 210.602 194.637 213.469 196.078 215.83C197.415 218.091 199.327 219.954 201.618 221.228C203.867 222.463 206.468 223.081 209.422 223.083C214.907 223.083 219.145 221.453 222.135 218.192C225.125 214.932 226.619 210.341 226.617 204.419V200.588C226.617 194.371 225.404 189.574 222.978 186.198C220.552 182.822 217.088 181.138 212.587 181.147H199.611V151.458H212.587C216.244 151.458 219.075 149.978 221.08 147.018C223.085 144.058 224.086 139.913 224.084 134.583V131.783C224.084 126.763 222.977 122.884 220.763 120.147C218.548 117.41 215.436 116.042 211.426 116.044C208.893 116.024 206.413 116.769 204.305 118.181C202.159 119.606 200.349 121.667 198.874 124.364C197.398 127.062 196.344 130.322 195.709 134.146H165.962C166.804 124.178 169.318 115.577 173.503 108.342C177.688 101.108 183.156 95.6 189.906 91.818C196.658 88.0325 204.183 86.1398 212.481 86.1398C226.056 86.1398 236.552 89.8311 243.969 97.2139C246.487 99.7296 248.597 102.625 250.224 105.796V58.505C250.223 53.5529 248.264 48.8037 244.778 45.3018C241.292 41.7999 236.564 39.8319 231.633 39.8305Z" fill="#EAEAEA"/>
<path opacity="0.81" d="M232.005 39.3278H160.048C157.176 35.1127 153.922 31.174 150.327 27.562C118.408 -4.49463 66.6611 -4.49463 34.7421 27.562C7.37785 55.0491 3.47827 97.1722 23.0356 128.832V218.708C23.0356 221.16 23.5164 223.588 24.4507 225.853C25.3849 228.118 26.7542 230.177 28.4805 231.911C30.2068 233.645 32.2561 235.02 34.5116 235.958C36.7671 236.897 39.1844 237.38 41.6257 237.38H175.388C173.713 235.499 172.202 233.476 170.875 231.333C166.576 224.438 164.22 216.235 163.806 206.724H193.659C194.082 210.097 195.014 212.964 196.454 215.325C197.793 217.582 199.705 219.443 201.994 220.715C204.243 221.95 206.845 222.568 209.799 222.57C215.285 222.57 219.523 220.94 222.511 217.679C225.5 214.419 226.994 209.828 226.994 203.906V200.085C226.994 193.868 225.781 189.071 223.355 185.695C220.928 182.319 217.463 180.63 212.958 180.628H199.985V150.955H212.958C216.615 150.955 219.446 149.475 221.451 146.515C223.456 143.555 224.458 139.41 224.458 134.081V131.28C224.458 126.26 223.35 122.381 221.134 119.644C218.918 116.907 215.805 115.539 211.795 115.541C209.262 115.52 206.781 116.265 204.674 117.678C202.528 119.103 200.717 121.164 199.24 123.861C197.763 126.559 196.708 129.819 196.075 133.643H166.333C167.177 123.675 169.694 115.073 173.882 107.837C178.071 100.601 183.539 95.0929 190.288 91.3126C197.038 87.5271 204.563 85.6344 212.863 85.6344C226.434 85.6344 236.93 89.3258 244.351 96.7085C246.869 99.2241 248.979 102.12 250.605 105.291V58.0022C250.605 55.5493 250.124 53.1205 249.189 50.8544C248.254 48.5884 246.883 46.5295 245.156 44.7954C243.429 43.0613 241.378 41.6859 239.122 40.7477C236.865 39.8096 234.447 39.3271 232.005 39.3278Z" fill="#EAEAEA"/>
<path opacity="0.83" d="M232.376 38.8253H160.419C157.548 34.6103 154.294 30.6715 150.699 27.0596C118.782 -4.99707 67.0326 -4.99707 35.1161 27.0596C7.74924 54.5441 3.84966 96.6698 23.407 128.33V218.218C23.407 220.67 23.8879 223.098 24.8221 225.364C25.7564 227.629 27.1257 229.687 28.8519 231.421C30.5782 233.155 32.6276 234.53 34.883 235.469C37.1385 236.407 39.5559 236.89 41.9972 236.89H175.76C174.085 235.009 172.575 232.986 171.246 230.844C166.948 223.948 164.592 215.741 164.18 206.222H194.033C194.452 209.595 195.384 212.461 196.829 214.822C198.164 217.083 200.075 218.946 202.366 220.218C204.615 221.456 207.217 222.075 210.173 222.075C215.656 222.075 219.893 220.445 222.883 217.185C225.873 213.924 227.367 209.333 227.365 203.411V199.583C227.365 193.366 226.152 188.568 223.726 185.19C221.3 181.812 217.839 180.127 213.343 180.134H200.367V150.452H213.343C216.998 150.452 219.828 148.972 221.833 146.012C223.838 143.052 224.84 138.908 224.84 133.578V130.778C224.84 125.758 223.732 121.879 221.516 119.142C219.299 116.405 216.188 115.037 212.182 115.039C209.649 115.019 207.168 115.763 205.061 117.176C202.915 118.6 201.104 120.661 199.627 123.359C198.15 126.057 197.095 129.317 196.462 133.14H166.705C167.547 123.173 170.062 114.571 174.249 107.337C178.435 100.103 183.903 94.5948 190.652 90.8128C197.402 87.029 204.927 85.1363 213.227 85.1345C226.798 85.1345 237.294 88.8259 244.715 96.2087C247.233 98.7238 249.343 101.62 250.969 104.791V57.4998C250.969 52.547 249.01 47.7971 245.524 44.2949C242.037 40.7928 237.308 38.8253 232.376 38.8253Z" fill="#EAEAEA"/>
<path opacity="0.86" d="M232.748 38.3229H160.791C157.918 34.1079 154.663 30.1692 151.067 26.5571C119.151 -5.49951 67.4012 -5.49951 35.4849 26.5571C8.11799 54.0416 4.21584 96.1803 23.7783 127.828V217.716C23.7783 220.168 24.2593 222.596 25.1937 224.862C26.1281 227.127 27.4976 229.186 29.2242 230.92C30.9507 232.654 33.0004 234.029 35.2562 234.967C37.5119 235.905 39.9296 236.388 42.3711 236.388H176.126C174.451 234.507 172.941 232.484 171.612 230.342C167.324 223.446 164.969 215.243 164.546 205.732H194.399C194.818 209.105 195.75 211.972 197.195 214.333C198.53 216.594 200.442 218.456 202.732 219.729C204.981 220.967 207.583 221.585 210.539 221.583C216.024 221.583 220.26 219.954 223.249 216.695C226.237 213.436 227.732 208.84 227.734 202.906V199.08C227.734 192.863 226.521 188.066 224.095 184.688C221.669 181.31 218.205 179.623 213.703 179.629H200.728V149.95H213.703C217.359 149.95 220.189 148.47 222.194 145.51C224.199 142.55 225.201 138.405 225.201 133.076V130.276C225.201 125.255 224.094 121.377 221.879 118.639C219.665 115.902 216.552 114.534 212.543 114.536C210.01 114.515 207.529 115.26 205.422 116.673C203.276 118.098 201.466 120.159 199.99 122.857C198.515 125.554 197.464 128.815 196.836 132.638H167.076C167.922 122.67 170.436 114.069 174.62 106.835C178.803 99.6005 184.271 94.0924 191.023 90.3103C197.775 86.5266 205.3 84.6338 213.598 84.6321C227.169 84.6321 237.665 88.3235 245.086 95.7062C247.605 98.2207 249.715 101.117 251.34 104.288V56.9973C251.34 52.0446 249.381 47.2946 245.895 43.7925C242.408 40.2904 237.679 38.3229 232.748 38.3229Z" fill="#EAEAEA"/>
<path opacity="0.89" d="M233.122 37.8204H161.165C158.293 33.6049 155.038 29.6661 151.442 26.0547C119.525 -6.00195 67.7755 -6.00195 35.859 26.0547C8.49473 53.5392 4.5925 95.6649 24.1499 127.325V217.213C24.1499 222.166 26.1088 226.916 29.5956 230.418C33.0824 233.92 37.8116 235.888 42.7427 235.888H176.505C174.829 234.007 173.318 231.984 171.989 229.842C167.701 222.946 165.346 214.739 164.923 205.22H194.773C195.196 208.592 196.128 211.459 197.569 213.82C198.905 216.08 200.816 217.943 203.106 219.216C205.359 220.454 207.961 221.072 210.913 221.07C216.4 221.07 220.637 219.44 223.626 216.18C226.614 212.919 228.107 208.322 228.106 202.388V198.578C228.106 192.361 226.893 187.563 224.466 184.185C222.04 180.807 218.577 179.121 214.075 179.126H201.1V149.447H214.075C217.731 149.447 220.562 147.967 222.568 145.007C224.575 142.047 225.576 137.903 225.573 132.573V129.773C225.573 124.753 224.466 120.874 222.251 118.137C220.036 115.4 216.924 114.032 212.915 114.034C210.381 114.013 207.9 114.758 205.794 116.171C203.648 117.595 201.837 119.657 200.362 122.354C198.887 125.052 197.832 128.311 197.198 132.133H167.45C168.294 122.168 170.808 113.568 174.991 106.332C179.175 99.0963 184.642 93.5873 191.395 89.8053C198.147 86.0233 205.672 84.1314 213.969 84.1297C227.541 84.1297 238.037 87.821 245.458 95.2038C247.977 97.7183 250.087 100.614 251.712 103.786V56.4949C251.712 54.0426 251.232 51.6144 250.298 49.3487C249.364 47.083 247.994 45.0243 246.268 43.2902C244.542 41.5561 242.492 40.1805 240.237 39.242C237.981 38.3035 235.563 37.8204 233.122 37.8204Z" fill="#EAEAEA"/>
<path opacity="0.92" d="M233.493 37.318H161.536C158.665 33.1025 155.411 29.1636 151.816 25.5522C119.897 -6.50439 68.1494 -6.50439 36.2304 25.5522C8.86607 53.0368 4.96384 95.1624 24.5212 126.823V216.711C24.5239 221.663 26.4851 226.412 29.9733 229.912C33.4615 233.412 38.1911 235.377 43.1217 235.375H176.884C175.203 233.495 173.688 231.472 172.356 229.329C168.066 222.433 165.71 214.23 165.289 204.72H195.142C195.565 208.092 196.497 210.959 197.938 213.32C199.276 215.577 201.187 217.436 203.475 218.708C205.727 219.946 208.33 220.565 211.282 220.563C216.767 220.563 221.004 218.933 223.994 215.672C226.984 212.412 228.479 207.821 228.477 201.901V198.073C228.477 191.856 227.264 187.059 224.838 183.683C222.412 180.307 218.948 178.62 214.447 178.624H201.479V148.945H214.454C218.111 148.945 220.942 147.465 222.947 144.505C224.952 141.545 225.954 137.4 225.952 132.071V129.271C225.952 124.25 224.845 120.372 222.63 117.634C220.415 114.897 217.301 113.531 213.286 113.536C210.753 113.516 208.272 114.26 206.165 115.673C204.019 117.097 202.209 119.157 200.733 121.854C199.258 124.552 198.203 127.812 197.569 131.636H167.821C168.664 121.669 171.178 113.069 175.363 105.835C179.548 98.6008 185.016 93.0918 191.766 89.308C198.518 85.526 206.043 83.6341 214.341 83.6324C227.912 83.6324 238.408 87.3238 245.829 94.7065C248.347 97.2211 250.459 100.116 252.086 103.286V55.9924C252.086 51.0397 250.127 46.2898 246.64 42.7876C243.153 39.2855 238.424 37.318 233.493 37.318Z" fill="#EAEAEA"/>
<path opacity="0.94" d="M233.864 36.8151H161.907C159.037 32.599 155.783 28.6602 152.187 25.0493C120.268 -7.00732 68.5205 -7.00732 36.6015 25.0493C9.23725 52.5338 5.33767 94.6569 24.8924 126.32V216.208C24.8924 221.161 26.8513 225.911 30.3381 229.413C33.8249 232.915 38.554 234.882 43.4851 234.882H177.235C175.56 233.001 174.05 230.977 172.721 228.834C168.423 221.941 166.067 213.738 165.652 204.225H195.505C195.928 207.597 196.86 210.464 198.301 212.825C199.645 215.074 201.56 216.926 203.849 218.19C206.098 219.428 208.699 220.046 211.653 220.044C217.138 220.044 221.375 218.414 224.365 215.154C227.355 211.893 228.85 207.303 228.848 201.383V197.57C228.848 191.353 227.635 186.556 225.209 183.18C222.783 179.804 219.319 178.117 214.818 178.121H201.842V148.442H214.818C218.475 148.442 221.306 146.962 223.311 144.002C225.315 141.042 226.317 136.897 226.315 131.568V128.768C226.315 123.747 225.208 119.869 222.993 117.132C220.779 114.394 217.667 113.023 213.657 113.018C211.124 112.998 208.644 113.741 206.536 115.152C204.394 116.577 202.583 118.638 201.105 121.336C199.626 124.033 198.571 127.294 197.94 131.117H168.193C169.037 121.153 171.551 112.552 175.734 105.317C179.917 98.0806 185.385 92.5716 192.137 88.7896C198.889 85.0075 206.414 83.1157 214.712 83.1139C228.287 83.1139 238.783 86.8053 246.2 94.188C248.718 96.7026 250.83 99.5975 252.457 102.768V55.4895C252.457 50.5368 250.498 45.7868 247.011 42.2847C243.525 38.7826 238.795 36.8151 233.864 36.8151Z" fill="#EAEAEA"/>
<path opacity="0.97" d="M234.233 36.3126H162.276C159.406 32.0966 156.152 28.1577 152.556 24.5469C120.637 -7.50977 68.8894 -7.50977 36.9704 24.5469C9.60612 52.0314 5.70654 94.1545 25.2639 125.817V215.705C25.2639 220.658 27.2224 225.407 30.7087 228.909C34.1949 232.411 38.9234 234.379 43.8541 234.38H177.617C175.942 232.498 174.431 230.474 173.103 228.331C168.805 221.437 166.448 213.234 166.034 203.722H195.887C196.31 207.095 197.242 209.962 198.683 212.322C200.021 214.582 201.933 216.445 204.223 217.718C206.472 218.953 209.073 219.571 212.027 219.573C217.514 219.573 221.751 217.943 224.74 214.682C227.728 211.422 229.222 206.832 229.222 200.911V197.067C229.222 190.85 228.009 186.054 225.583 182.677C223.157 179.301 219.693 177.615 215.192 177.618H202.219V147.94H215.192C218.849 147.94 221.68 146.459 223.685 143.497C225.69 140.535 226.692 136.395 226.692 131.076V128.265C226.692 123.245 225.584 119.366 223.368 116.629C221.151 113.892 218.04 112.524 214.034 112.526C211.501 112.504 209.02 113.248 206.913 114.66C204.767 116.085 202.956 118.146 201.479 120.844C200.002 123.541 198.946 126.804 198.312 130.633H168.564C169.407 120.667 171.92 112.066 176.105 104.832C180.29 97.598 185.759 92.089 192.511 88.3053C199.261 84.5232 206.786 82.6314 215.086 82.6296C228.657 82.6296 239.153 86.3201 246.574 93.7011C249.092 96.2167 251.202 99.1124 252.829 102.283V54.9923C252.829 52.5392 252.349 50.1101 251.415 47.8437C250.48 45.5772 249.111 43.5178 247.384 41.7832C245.657 40.0485 243.607 38.6725 241.35 37.7339C239.094 36.7952 236.676 36.3123 234.233 36.3126Z" fill="#EAEAEA"/>
<path d="M234.607 35.8234H162.65C159.78 31.6073 156.526 27.6685 152.93 24.0576C121.013 -8.00163 69.2635 -8.00163 37.3471 24.0576C9.98024 51.5421 6.08059 93.6652 25.6379 125.328V215.216C25.6379 220.169 27.5965 224.918 31.0827 228.42C34.569 231.922 39.2975 233.89 44.2281 233.891H177.991C176.316 232.008 174.806 229.985 173.477 227.842C169.179 220.948 166.823 212.745 166.411 203.233H196.264C196.683 206.606 197.615 209.472 199.06 211.833C200.396 214.093 202.307 215.956 204.597 217.229C206.846 218.464 209.448 219.082 212.404 219.084C217.887 219.084 222.124 217.453 225.114 214.193C228.104 210.933 229.596 206.331 229.591 200.389V196.565C229.591 190.348 228.378 185.551 225.952 182.175C223.526 178.799 220.063 177.113 215.563 177.116H202.588V147.437H215.563C219.219 147.437 222.049 145.957 224.054 142.995C226.058 140.033 227.061 135.888 227.061 130.561V127.763C227.061 122.743 225.954 118.864 223.739 116.127C221.524 113.39 218.412 112.022 214.403 112.024C211.87 112.002 209.389 112.746 207.282 114.158C205.136 115.583 203.324 117.644 201.848 120.342C200.371 123.039 199.317 126.297 198.686 130.115H168.936C169.78 120.147 172.294 111.547 176.479 104.314C180.665 97.082 186.132 91.573 192.883 87.7875C199.635 84.002 207.16 82.1101 215.457 82.1119C229.029 82.1119 239.525 85.8024 246.946 93.1834C249.463 95.6989 251.574 98.5947 253.2 101.765V54.4745C253.195 49.5256 251.233 44.7812 247.747 41.284C244.261 37.7867 239.535 35.8227 234.607 35.8234Z" fill="#EAEAEA"/>
<path opacity="0.03" d="M244.978 182.755V158.923C244.812 159.203 244.647 159.48 244.462 159.752C240.882 165.38 235.787 169.576 229.176 172.339C235.781 173.954 241.049 177.426 244.978 182.755Z" fill="#EAEAEA"/>
<path opacity="0.06" d="M245.212 182.457V158.625C245.047 158.903 244.882 159.18 244.697 159.452C241.112 165.073 236.014 169.27 229.403 172.044C236.012 173.657 241.282 177.128 245.212 182.457Z" fill="#EAEAEA"/>
<path opacity="0.08" d="M245.447 182.162V158.33C245.282 158.607 245.117 158.884 244.931 159.156C241.346 164.778 236.248 168.975 229.637 171.749C236.247 173.351 241.517 176.822 245.447 182.162Z" fill="#EAEAEA"/>
<path opacity="0.11" d="M245.682 181.864V158.032C245.517 158.309 245.352 158.587 245.166 158.859C241.581 164.48 236.483 168.677 229.872 171.451C236.483 173.062 241.753 176.533 245.682 181.864Z" fill="#EAEAEA"/>
<path opacity="0.14" d="M245.919 181.566V157.734C245.751 158.012 245.586 158.289 245.403 158.563C241.818 164.185 236.72 168.381 230.109 171.153C236.72 172.766 241.99 176.237 245.919 181.566Z" fill="#EAEAEA"/>
<path opacity="0.17" d="M246.154 181.269V157.437C245.987 157.714 245.821 157.991 245.638 158.263C242.053 163.884 236.955 168.082 230.344 170.855C236.955 172.468 242.225 175.939 246.154 181.269Z" fill="#EAEAEA"/>
<path opacity="0.19" d="M246.389 180.971V157.139C246.221 157.416 246.056 157.693 245.873 157.965C242.286 163.586 237.187 167.784 230.576 170.557C237.187 172.17 242.458 175.641 246.389 180.971Z" fill="#EAEAEA"/>
<path opacity="0.22" d="M246.613 180.675V156.843C246.448 157.12 246.28 157.398 246.097 157.67C242.51 163.291 237.412 167.488 230.801 170.262C237.42 171.873 242.691 175.344 246.613 180.675Z" fill="#EAEAEA"/>
<path opacity="0.25" d="M246.871 180.37V156.538C246.706 156.815 246.538 157.092 246.355 157.367C242.768 162.984 237.669 167.181 231.058 169.956C237.663 171.572 242.933 175.044 246.871 180.37Z" fill="#EAEAEA"/>
<path opacity="0.28" d="M247.093 180.079V156.247C246.928 156.524 246.76 156.801 246.577 157.076C242.989 162.697 237.89 166.895 231.28 169.668C237.891 171.276 243.162 174.746 247.093 180.079Z" fill="#EAEAEA"/>
<path opacity="0.31" d="M247.327 179.781V155.949C247.162 156.226 246.995 156.504 246.812 156.776C243.225 162.397 238.126 166.594 231.515 169.368C238.128 170.981 243.399 174.452 247.327 179.781Z" fill="#EAEAEA"/>
<path opacity="0.33" d="M247.562 179.486V155.654C247.397 155.931 247.229 156.209 247.046 156.481C243.459 162.102 238.361 166.299 231.75 169.073C238.362 170.684 243.633 174.155 247.562 179.486Z" fill="#EAEAEA"/>
<path opacity="0.36" d="M247.797 179.188V155.356C247.632 155.633 247.467 155.91 247.281 156.182C243.693 161.804 238.594 166.001 231.984 168.774C238.596 170.386 243.866 173.857 247.797 179.188Z" fill="#EAEAEA"/>
<path opacity="0.39" d="M248.032 178.89V155.058C247.867 155.335 247.701 155.612 247.516 155.887C243.929 161.508 238.831 165.705 232.222 168.477C238.831 170.088 244.101 173.559 248.032 178.89Z" fill="#EAEAEA"/>
<path opacity="0.42" d="M248.266 178.592V154.76C248.101 155.04 247.936 155.317 247.75 155.589C244.165 161.21 239.067 165.408 232.456 168.181C239.066 169.791 244.336 173.261 248.266 178.592Z" fill="#EAEAEA"/>
<path opacity="0.44" d="M248.501 178.297V154.465C248.336 154.742 248.171 155.019 247.985 155.291C244.4 160.912 239.302 165.11 232.691 167.883C239.304 169.495 244.574 172.966 248.501 178.297Z" fill="#EAEAEA"/>
<path opacity="0.47" d="M248.738 177.999V154.167C248.571 154.444 248.405 154.721 248.222 154.993C244.637 160.615 239.539 164.812 232.928 167.585C239.539 169.2 244.809 172.671 248.738 177.999Z" fill="#EAEAEA"/>
<path opacity="0.5" d="M248.973 177.701V153.869C248.805 154.146 248.64 154.423 248.457 154.695C244.872 160.317 239.774 164.514 233.163 167.288C239.772 168.899 245.042 172.37 248.973 177.701Z" fill="#EAEAEA"/>
<path opacity="0.53" d="M249.207 177.403V153.571C249.04 153.848 248.875 154.126 248.692 154.4C245.107 160.021 240.009 164.218 233.398 166.99C240.009 168.603 245.279 172.074 249.207 177.403Z" fill="#EAEAEA"/>
<path opacity="0.56" d="M249.45 177.105V153.273C249.285 153.551 249.117 153.828 248.934 154.1C245.346 159.721 240.247 163.918 233.637 166.692C240.245 168.303 245.516 171.774 249.45 177.105Z" fill="#EAEAEA"/>
<path opacity="0.58" d="M249.677 176.808V152.976C249.512 153.253 249.344 153.53 249.161 153.802C245.575 159.423 240.476 163.621 233.865 166.394C240.472 168.007 245.743 171.478 249.677 176.808Z" fill="#EAEAEA"/>
<path opacity="0.61" d="M249.912 176.512V152.68C249.747 152.957 249.579 153.235 249.396 153.507C245.809 159.128 240.71 163.325 234.099 166.099C240.712 167.71 245.983 171.181 249.912 176.512Z" fill="#EAEAEA"/>
<path opacity="0.64" d="M250.146 176.225V152.393C249.981 152.67 249.814 152.947 249.63 153.222C246.044 158.841 240.945 163.038 234.334 165.811C240.947 167.415 246.217 170.887 250.146 176.225Z" fill="#EAEAEA"/>
<path opacity="0.67" d="M250.381 175.916V152.084C250.216 152.362 250.048 152.639 249.865 152.913C246.277 158.535 241.178 162.732 234.569 165.506C241.18 167.117 246.451 170.587 250.381 175.916Z" fill="#EAEAEA"/>
<path opacity="0.69" d="M250.616 175.619V151.787C250.451 152.064 250.283 152.341 250.1 152.613C246.513 158.234 241.414 162.432 234.803 165.205C241.416 166.818 246.687 170.289 250.616 175.619Z" fill="#EAEAEA"/>
<path opacity="0.72" d="M250.851 175.323V151.491C250.685 151.768 250.52 152.046 250.335 152.318C246.748 157.939 241.649 162.136 235.038 164.91C241.651 166.521 246.922 169.992 250.851 175.323Z" fill="#EAEAEA"/>
<path opacity="0.75" d="M251.085 175.025V151.193C250.92 151.471 250.755 151.748 250.569 152.02C246.984 157.641 241.886 161.838 235.275 164.612C241.885 166.223 247.155 169.694 251.085 175.025Z" fill="#EAEAEA"/>
<path opacity="0.78" d="M251.32 174.728V150.896C251.155 151.173 250.99 151.45 250.804 151.724C247.226 157.351 242.132 161.546 235.523 164.309C242.127 165.925 247.393 169.398 251.32 174.728Z" fill="#EAEAEA"/>
<path opacity="0.81" d="M251.555 174.43V150.598C251.389 150.875 251.224 151.152 251.039 151.424C247.454 157.045 242.356 161.243 235.745 164.016C242.357 165.629 247.627 169.1 251.555 174.43Z" fill="#EAEAEA"/>
<path opacity="0.83" d="M251.792 174.132V150.3C251.624 150.577 251.459 150.854 251.276 151.126C247.691 156.747 242.593 160.945 235.982 163.718C242.593 165.331 247.863 168.802 251.792 174.132Z" fill="#EAEAEA"/>
<path opacity="0.86" d="M252.029 173.836V150.004C251.862 150.282 251.696 150.559 251.513 150.831C247.928 156.452 242.83 160.649 236.219 163.423C242.829 165.034 248.099 168.505 252.029 173.836Z" fill="#EAEAEA"/>
<path opacity="0.89" d="M252.261 173.539V149.707C252.094 149.984 251.928 150.261 251.745 150.535C248.159 156.153 243.06 160.35 236.449 163.125C243.053 164.735 248.324 168.206 252.261 173.539Z" fill="#EAEAEA"/>
<path opacity="0.92" d="M252.496 173.241V149.409C252.331 149.686 252.163 149.963 251.98 150.238C248.394 155.859 243.295 160.055 236.684 162.827C243.303 164.44 248.574 167.911 252.496 173.241Z" fill="#EAEAEA"/>
<path opacity="0.94" d="M252.73 172.943V149.111C252.565 149.388 252.398 149.665 252.215 149.937C248.626 155.558 243.527 159.756 236.918 162.529C243.531 164.142 248.802 167.613 252.73 172.943Z" fill="#EAEAEA"/>
<path opacity="0.97" d="M252.965 172.645V148.813C252.8 149.09 252.632 149.367 252.449 149.639C248.863 155.261 243.764 159.458 237.153 162.231C243.764 163.844 249.035 167.316 252.965 172.645Z" fill="#EAEAEA"/>
<path d="M253.2 172.339V148.507C253.035 148.785 252.867 149.062 252.684 149.334C249.098 154.955 243.999 159.152 237.388 161.926C244 163.544 249.271 167.015 253.2 172.339Z" fill="#EAEAEA"/>
<path d="M253.2 172.339V148.507C253.035 148.785 252.867 149.062 252.684 149.334C249.098 154.955 243.999 159.152 237.388 161.926C244 163.544 249.271 167.015 253.2 172.339Z" fill="#6B873E"/>
<path d="M234.607 35.8234H162.65C159.78 31.6073 156.526 27.6685 152.93 24.0576C121.013 -8.00163 69.2635 -8.00163 37.3471 24.0576C9.98024 51.5421 6.08059 93.6652 25.6379 125.328V215.216C25.6379 220.169 27.5965 224.918 31.0827 228.42C34.569 231.922 39.2975 233.89 44.2281 233.891H177.991C176.316 232.008 174.806 229.985 173.477 227.842C169.179 220.948 166.823 212.745 166.411 203.233H196.264C196.683 206.606 197.615 209.472 199.06 211.833C200.396 214.093 202.307 215.956 204.597 217.229C206.846 218.464 209.448 219.082 212.404 219.084C217.887 219.084 222.124 217.454 225.114 214.193C228.104 210.933 229.596 206.331 229.591 200.389V196.565C229.591 190.348 228.378 185.551 225.952 182.175C223.526 178.799 220.063 177.113 215.563 177.116H202.588V147.437H215.563C219.219 147.437 222.049 145.957 224.054 142.995C226.058 140.033 227.061 135.888 227.061 130.561V127.763C227.061 122.743 225.954 118.864 223.739 116.127C221.524 113.39 218.412 112.022 214.403 112.024C211.87 112.002 209.389 112.746 207.282 114.158C205.136 115.583 203.324 117.644 201.848 120.342C200.371 123.039 199.317 126.297 198.686 130.115H168.936C169.78 120.147 172.294 111.547 176.479 104.314C180.665 97.082 186.132 91.573 192.883 87.7875C199.635 84.002 207.16 82.1101 215.457 82.1119C229.029 82.1119 239.525 85.8024 246.946 93.1834C249.463 95.6989 251.574 98.5947 253.2 101.765V54.4745C253.195 49.5256 251.233 44.7812 247.747 41.284C244.261 37.7867 239.535 35.8227 234.607 35.8234Z" fill="#6B873E"/>
<path d="M94.9515 152.599C133.332 152.599 164.445 121.348 164.445 82.7993C164.445 44.2502 133.332 13 94.9515 13C56.5711 13 25.4575 44.2502 25.4575 82.7993C25.4575 121.348 56.5711 152.599 94.9515 152.599Z" fill="url(#paint0_linear_53_321)"/>
<g clip-path="url(#clip0_53_321)">
<path d="M124.786 80.4511C126.771 80.4511 128.491 79.739 129.895 78.3342C131.3 76.9295 132.012 75.2109 132.012 73.2253C132.012 71.2405 131.3 69.5216 129.895 68.1165C128.49 66.712 126.771 66 124.786 66C122.801 66 121.082 66.712 119.677 68.1167C118.273 69.5213 117.56 71.2402 117.56 73.2253C117.56 75.2109 118.273 76.9298 119.677 78.3344C121.082 79.7388 122.801 80.4511 124.786 80.4511V80.4511Z" fill="#6B873E"/>
<path d="M137.429 89.0685C137.389 88.484 137.307 87.8463 137.186 87.1729C137.064 86.4945 136.908 85.8532 136.72 85.267C136.526 84.6612 136.262 84.0629 135.937 83.4896C135.598 82.8945 135.201 82.3763 134.755 81.9499C134.289 81.5038 133.718 81.1451 133.058 80.8835C132.4 80.6233 131.671 80.4914 130.891 80.4914C130.585 80.4914 130.289 80.6171 129.717 80.9895C129.365 81.2191 128.953 81.4846 128.494 81.7782C128.101 82.0286 127.568 82.2632 126.911 82.4756C126.269 82.6832 125.618 82.7885 124.975 82.7885C124.332 82.7885 123.681 82.6832 123.038 82.4756C122.382 82.2634 121.849 82.0288 121.457 81.7784C121.001 81.4875 120.589 81.222 120.232 80.9893C119.661 80.6169 119.364 80.4912 119.058 80.4912C118.278 80.4912 117.549 80.6233 116.892 80.8837C116.232 81.1449 115.661 81.5036 115.194 81.9501C114.749 82.3767 114.351 82.8947 114.013 83.4896C113.688 84.0629 113.424 84.661 113.23 85.2673C113.043 85.8534 112.886 86.4945 112.764 87.1729C112.643 87.8454 112.561 88.4833 112.521 89.0692C112.481 89.6432 112.461 90.239 112.461 90.8407C112.461 92.4068 112.959 93.6745 113.94 94.6095C114.91 95.5321 116.193 96.0002 117.753 96.0002H132.198C133.758 96.0002 135.04 95.5324 136.01 94.6095C136.992 93.6752 137.49 92.4072 137.49 90.8405C137.49 90.236 137.469 89.6398 137.429 89.0685V89.0685Z" fill="#6B873E"/>
</g>
<g clip-path="url(#clip1_53_321)">
<path d="M94.7861 80.4511C96.7714 80.4511 98.4905 79.739 99.8952 78.3342C101.3 76.9295 102.012 75.2109 102.012 73.2253C102.012 71.2405 101.3 69.5216 99.8949 68.1165C98.4901 66.712 96.7712 66 94.7861 66C92.8005 66 91.0819 66.712 89.6772 68.1167C88.2726 69.5213 87.5603 71.2402 87.5603 73.2253C87.5603 75.2109 88.2726 76.9298 89.6775 78.3344C91.0823 79.7388 92.8012 80.4511 94.7861 80.4511V80.4511Z" fill="#6B873E"/>
<path d="M107.429 89.0685C107.389 88.484 107.307 87.8463 107.186 87.1729C107.064 86.4945 106.908 85.8532 106.72 85.267C106.526 84.6612 106.262 84.0629 105.937 83.4896C105.598 82.8945 105.201 82.3763 104.755 81.9499C104.289 81.5038 103.718 81.1451 103.058 80.8835C102.4 80.6233 101.671 80.4914 100.891 80.4914C100.585 80.4914 100.289 80.6171 99.717 80.9895C99.3649 81.2191 98.9532 81.4846 98.4936 81.7782C98.1006 82.0286 97.5682 82.2632 96.9106 82.4756C96.2691 82.6832 95.6177 82.7885 94.9748 82.7885C94.3318 82.7885 93.6807 82.6832 93.0384 82.4756C92.3816 82.2634 91.8492 82.0288 91.4566 81.7784C91.0014 81.4875 90.5894 81.222 90.2321 80.9893C89.6608 80.6169 89.3644 80.4912 89.0582 80.4912C88.2782 80.4912 87.5494 80.6233 86.8918 80.8837C86.2322 81.1449 85.6612 81.5036 85.1945 81.9501C84.7488 82.3767 84.3513 82.8947 84.0134 83.4896C83.6877 84.0629 83.4241 84.661 83.23 85.2673C83.0425 85.8534 82.8857 86.4945 82.764 87.1729C82.6434 87.8454 82.5614 88.4833 82.5209 89.0692C82.4811 89.6432 82.4609 90.239 82.4609 90.8407C82.4609 92.4068 82.9588 93.6745 83.9404 94.6095C84.91 95.5321 86.1928 96.0002 87.7529 96.0002H102.198C103.758 96.0002 105.04 95.5324 106.01 94.6095C106.992 93.6752 107.49 92.4072 107.49 90.8405C107.49 90.236 107.469 89.6398 107.429 89.0685V89.0685Z" fill="#6B873E"/>
</g>
<g clip-path="url(#clip2_53_321)">
<path d="M64.7861 80.4511C66.7714 80.4511 68.4905 79.739 69.8952 78.3342C71.2998 76.9295 72.0118 75.2109 72.0118 73.2253C72.0118 71.2405 71.2998 69.5216 69.8949 68.1165C68.4901 66.712 66.7712 66 64.7861 66C62.8005 66 61.0819 66.712 59.6772 68.1167C58.2726 69.5213 57.5603 71.2402 57.5603 73.2253C57.5603 75.2109 58.2726 76.9298 59.6775 78.3344C61.0823 79.7388 62.8012 80.4511 64.7861 80.4511V80.4511Z" fill="#6B873E"/>
<path d="M77.4293 89.0685C77.3888 88.484 77.3069 87.8463 77.1863 87.1729C77.0645 86.4945 76.9077 85.8532 76.72 85.267C76.5262 84.6612 76.2625 84.0629 75.9366 83.4896C75.5983 82.8945 75.2009 82.3763 74.7551 81.9499C74.2889 81.5038 73.718 81.1451 73.0579 80.8835C72.4001 80.6233 71.6711 80.4914 70.8913 80.4914C70.5851 80.4914 70.2889 80.6171 69.717 80.9895C69.3649 81.2191 68.9532 81.4846 68.4936 81.7782C68.1006 82.0286 67.5682 82.2632 66.9106 82.4756C66.2691 82.6832 65.6177 82.7885 64.9748 82.7885C64.3318 82.7885 63.6807 82.6832 63.0384 82.4756C62.3816 82.2634 61.8492 82.0288 61.4566 81.7784C61.0014 81.4875 60.5894 81.222 60.2321 80.9893C59.6608 80.6169 59.3644 80.4912 59.0582 80.4912C58.2782 80.4912 57.5494 80.6233 56.8918 80.8837C56.2322 81.1449 55.6612 81.5036 55.1945 81.9501C54.7488 82.3767 54.3513 82.8947 54.0134 83.4896C53.6877 84.0629 53.4241 84.661 53.23 85.2673C53.0425 85.8534 52.8857 86.4945 52.764 87.1729C52.6434 87.8454 52.5614 88.4833 52.5209 89.0692C52.4811 89.6432 52.4609 90.239 52.4609 90.8407C52.4609 92.4068 52.9588 93.6745 53.9404 94.6095C54.91 95.5321 56.1928 96.0002 57.7529 96.0002H72.198C73.7581 96.0002 75.0405 95.5324 76.0103 94.6095C76.9922 93.6752 77.49 92.4072 77.49 90.8405C77.4897 90.236 77.4694 89.6398 77.4293 89.0685V89.0685Z" fill="#6B873E"/>
</g>
<path d="M142.6 34.4142C169.423 61.3547 169.732 104.858 143.516 132.182C143.828 131.879 144.143 131.576 144.452 131.265C171.592 104.006 171.592 59.8108 144.452 32.5542C117.312 5.29767 73.3127 5.29508 46.1728 32.5542C45.8633 32.8651 45.5615 33.1811 45.2598 33.4946C72.4641 7.16278 115.772 7.46586 142.6 34.4142Z" fill="white"/>
<defs>
<linearGradient id="paint0_linear_53_321" x1="144.107" y1="33.4546" x2="45.3955" y2="131.735" gradientUnits="userSpaceOnUse">
<stop stop-color="#E6E6E6"/>
<stop offset="0.03" stop-color="#E9E9E9"/>
<stop offset="0.21" stop-color="#F6F6F6"/>
<stop offset="0.45" stop-color="#FDFDFD"/>
<stop offset="1" stop-color="white"/>
</linearGradient>
<clipPath id="clip0_53_321">
<rect width="29.9999" height="30" fill="white" transform="translate(110 66)"/>
</clipPath>
<clipPath id="clip1_53_321">
<rect width="29.9999" height="30" fill="white" transform="translate(80 66)"/>
</clipPath>
<clipPath id="clip2_53_321">
<rect width="29.9999" height="30" fill="white" transform="translate(50 66)"/>
</clipPath>
</defs>
</svg>
