<svg width="254" height="252" viewBox="0 0 254 252" fill="none" xmlns="http://www.w3.org/2000/svg">
<path opacity="0.03" d="M215.035 231.678H155.79V204.673L197.664 99.8689H226.641L185.891 203.388H215.035V163.951H240.586V71.83C240.585 66.8777 238.626 62.1285 235.139 58.6269C231.653 55.1253 226.924 53.1582 221.993 53.1582H149.858C147.032 49.0363 143.838 45.1814 140.316 41.6411C108.397 9.58187 56.6468 9.58187 24.7303 41.6411C-2.55144 69.0427 -6.50774 110.992 12.8484 142.621V232.789C12.8484 237.742 14.8069 242.491 18.2932 245.993C21.7795 249.495 26.5079 251.463 31.4386 251.464H215.04L215.035 231.678Z" fill="#EAEAEA"/>
<path opacity="0.06" d="M215.411 231.176H156.161V204.171L198.036 99.3641H227.017L186.267 202.886H215.411V163.449H240.962V71.3278C240.96 66.3773 239.001 61.6301 235.516 58.1298C232.03 54.6295 227.304 52.6625 222.375 52.6611H150.229C147.403 48.5393 144.209 44.6843 140.687 41.144C108.768 9.0848 57.0205 9.0848 25.1016 41.144C-2.18537 68.5405 -6.13401 110.49 13.2093 142.119V232.287C13.2093 237.239 15.1678 241.989 18.654 245.491C22.1403 248.993 26.8688 250.961 31.7995 250.962H215.411V231.176Z" fill="#EAEAEA"/>
<path opacity="0.08" d="M215.777 230.673H156.533V203.668L198.41 98.8614H227.386L186.631 202.388H215.775V162.946H241.326V70.8251C241.327 68.3723 240.847 65.9434 239.913 63.6769C238.979 61.4105 237.61 59.3511 235.884 57.6162C234.158 55.8813 232.108 54.505 229.852 53.5659C227.596 52.6268 225.178 52.1432 222.736 52.1429H150.601C147.775 48.0218 144.581 44.1677 141.058 40.6284C109.139 8.56917 57.3922 8.56917 25.4733 40.6284C-1.80848 68.03 -5.76484 109.98 13.5913 141.609V231.784C13.5913 236.737 15.5502 241.487 19.037 244.989C22.5238 248.491 27.253 250.459 32.1841 250.459H215.783L215.777 230.673Z" fill="#EAEAEA"/>
<path opacity="0.11" d="M216.149 230.171H156.904V203.165L198.781 98.359H227.757L187.002 201.87H216.146V162.444H241.697V70.3227C241.697 65.3704 239.739 60.6209 236.253 57.1188C232.766 53.6167 228.038 51.649 223.107 51.6483H150.97C148.144 47.5265 144.95 43.6724 141.427 40.1338C109.511 8.07455 57.7609 8.07455 25.8445 40.1338C-1.43723 67.5328 -5.39618 109.485 13.96 141.114V231.282C13.9607 236.234 15.9199 240.984 19.4066 244.485C22.8934 247.987 27.6221 249.954 32.5528 249.954H216.151L216.149 230.171Z" fill="#EAEAEA"/>
<path opacity="0.14" d="M216.523 229.668H157.276V202.663L199.163 97.8562H228.139L187.389 201.378H216.533V161.941H242.082V69.8199C242.082 64.8676 240.123 60.1181 236.637 56.616C233.151 53.114 228.422 51.1462 223.492 51.1455H151.354C148.528 47.0234 145.334 43.1685 141.811 39.6284C109.895 7.57178 58.1453 7.57178 26.2288 39.6284C-1.05296 67.03 -5.01191 108.982 14.3443 140.611V230.779C14.345 235.732 16.3042 240.481 19.7909 243.982C23.2777 247.484 28.0064 249.451 32.9371 249.451H216.538L216.523 229.668Z" fill="#EAEAEA"/>
<path opacity="0.17" d="M216.894 229.166H157.639V202.16L199.524 97.3538H228.5L187.75 200.873H216.894V161.439H242.443V69.3175C242.443 64.3652 240.484 59.6157 236.998 56.1136C233.512 52.6115 228.783 50.6437 223.852 50.6431H151.707C148.88 46.5217 145.686 42.6668 142.164 39.126C110.248 7.06933 58.4984 7.06933 26.5819 39.126C-0.699838 66.5276 -4.6562 108.48 14.7 140.109V230.277C14.7 235.229 16.6586 239.978 20.1449 243.48C23.6313 246.982 28.3598 248.949 33.2902 248.949H216.891L216.894 229.166Z" fill="#EAEAEA"/>
<path opacity="0.19" d="M217.266 228.663H158.021V201.658L199.895 96.8514H228.872L188.122 200.37H217.266V160.941H242.817V68.8151C242.817 63.8623 240.858 59.1124 237.371 55.6102C233.884 52.1081 229.155 50.1406 224.224 50.1406H152.089C149.261 46.0198 146.067 42.1649 142.546 38.6235C110.627 6.56689 58.8803 6.56689 26.9613 38.6235C-0.320443 66.0252 -4.27681 107.977 15.0794 139.607V229.774C15.0794 234.726 17.038 239.476 20.5243 242.977C24.0107 246.479 28.7391 248.446 33.6696 248.446H217.271L217.266 228.663Z" fill="#EAEAEA"/>
<path opacity="0.22" d="M217.637 228.16H158.393V201.155L200.267 96.3484H229.246L188.496 199.867H217.64V160.423H243.191V68.3121C243.191 65.8597 242.711 63.4312 241.776 61.1653C240.842 58.8995 239.472 56.8407 237.746 55.1066C236.019 53.3724 233.97 51.9969 231.714 51.0585C229.458 50.1201 227.04 49.6373 224.598 49.6377H152.461C149.633 45.5168 146.439 41.662 142.918 38.1206C110.999 6.06396 59.2518 6.06396 27.3329 38.1206C0.0562639 65.5222 -3.91042 107.474 15.4457 139.104V229.271C15.4457 231.724 15.9267 234.152 16.8611 236.417C17.7955 238.683 19.1651 240.742 20.8916 242.475C22.6182 244.209 24.6678 245.585 26.9236 246.523C29.1793 247.461 31.597 247.944 34.0385 247.943H217.637V228.16Z" fill="#EAEAEA"/>
<path opacity="0.25" d="M218.008 227.658H158.764V200.652L200.641 95.846H229.617L188.867 199.365H218.011V159.931H243.562V67.8071C243.562 65.3549 243.081 62.9266 242.147 60.6611C241.212 58.3956 239.843 56.3371 238.116 54.6032C236.39 52.8693 234.34 51.494 232.084 50.5558C229.829 49.6176 227.411 49.1349 224.969 49.1353H152.832C150.006 45.0132 146.812 41.1582 143.289 37.6182C111.373 5.56152 59.623 5.56152 27.7066 37.6182C0.424828 65.0198 -3.53412 106.972 15.8221 138.599V228.766C15.8221 233.719 17.7809 238.469 21.2678 241.971C24.7546 245.473 29.4837 247.441 34.4148 247.441H218.014L218.008 227.658Z" fill="#EAEAEA"/>
<path opacity="0.28" d="M218.38 227.155H159.135V200.15L201.012 95.3436H229.988L189.238 198.863H218.382V159.426H243.933V67.3047C243.933 62.3526 241.975 57.6033 238.488 54.1017C235.002 50.6 230.274 48.6328 225.343 48.6328H153.203C150.377 44.5107 147.183 40.6558 143.66 37.1157C111.744 5.05908 59.9943 5.05908 28.0779 37.1157C0.796126 64.5174 -3.16276 106.469 16.1934 138.096V228.264C16.1934 233.217 18.1522 237.967 21.6391 241.469C25.1259 244.971 29.855 246.938 34.7861 246.938H218.385L218.38 227.155Z" fill="#EAEAEA"/>
<path opacity="0.31" d="M218.764 226.65H159.509V199.648L201.383 94.8411H230.37L189.62 198.36H218.764V158.923H244.297V66.8022C244.297 61.8501 242.338 57.1009 238.852 53.5992C235.366 50.0976 230.637 48.1304 225.707 48.1304H153.577C150.75 44.009 147.556 40.1541 144.034 36.6133C112.118 4.55664 60.3682 4.55664 28.4518 36.6133C1.16228 64.0149 -2.78119 105.964 16.5621 137.594V227.775C16.5618 230.227 17.0423 232.655 17.9764 234.921C18.9105 237.186 20.2798 239.245 22.0061 240.979C23.7324 242.713 25.7819 244.089 28.0375 245.027C30.2932 245.966 32.7108 246.449 35.1523 246.449H218.764V226.65Z" fill="#EAEAEA"/>
<path opacity="0.33" d="M219.125 226.148H159.88V199.142L201.755 94.3386H230.731L189.981 197.858H219.125V158.421H244.676V66.2998C244.676 61.3474 242.716 56.5982 239.23 53.0966C235.743 49.595 231.014 47.6279 226.083 47.6279H153.948C151.121 43.5066 147.927 39.6517 144.406 36.1108C112.487 4.0516 60.7397 4.0516 28.8207 36.1108C1.53893 63.5125 -2.41743 105.462 16.9387 137.091V227.256C16.9387 232.209 18.8973 236.958 22.3835 240.46C25.8698 243.962 30.5983 245.93 35.5289 245.931H219.125V226.148Z" fill="#EAEAEA"/>
<path opacity="0.36" d="M219.497 225.645H160.252V198.64L202.126 93.8487H231.105L190.355 197.368H219.499V157.918H245.05V65.7968C245.05 60.8445 243.09 56.0953 239.604 52.5937C236.117 49.0921 231.388 47.125 226.458 47.125H154.32C151.494 43.0031 148.3 39.1482 144.777 35.6079C112.858 3.54867 61.1112 3.54867 29.1922 35.6079C1.90526 63.0225 -2.0511 104.959 17.3051 136.591V226.756C17.3051 231.708 19.2636 236.458 22.7499 239.96C26.2362 243.462 30.9646 245.43 35.8953 245.431H219.497V225.645Z" fill="#EAEAEA"/>
<path opacity="0.39" d="M219.868 225.142H160.623V198.137L202.5 93.3307H231.476L190.727 196.852H219.87V157.415H245.422V65.2944C245.422 62.8422 244.941 60.4139 244.006 58.1484C243.072 55.8828 241.702 53.8244 239.976 52.0905C238.249 50.3566 236.2 48.9813 233.944 48.0431C231.688 47.1049 229.27 46.6222 226.829 46.6225H154.691C151.867 42.4994 148.672 38.6444 145.149 35.1055C113.232 3.04623 61.4824 3.04623 29.5634 35.1055C2.2791 62.5045 -1.67979 104.47 17.6764 136.086V226.254C17.6771 231.206 19.6361 235.956 23.1228 239.458C26.6095 242.96 31.3382 244.927 36.2691 244.928H219.868V225.142Z" fill="#EAEAEA"/>
<path opacity="0.42" d="M220.239 224.64H160.992V197.635L202.869 92.8282H231.845L191.096 196.35H220.239V156.913H245.791V64.792C245.791 59.8396 243.832 55.0901 240.346 51.588C236.86 48.086 232.131 46.1182 227.2 46.1175H155.06C152.235 41.9958 149.041 38.1416 145.518 34.603C113.601 2.54379 61.8515 2.54379 29.9351 34.603C2.65072 62.0046 -1.30823 103.952 18.0479 135.583V225.751C18.0486 230.704 20.0077 235.453 23.4944 238.955C26.9811 242.457 31.7098 244.425 36.6407 244.426H220.239V224.64Z" fill="#EAEAEA"/>
<path opacity="0.44" d="M220.613 224.148H161.369V197.132L203.243 92.3258H232.219L191.469 195.847H220.613V156.411H246.162V64.2895C246.162 59.3372 244.203 54.5877 240.717 51.0856C237.231 47.5835 232.502 45.6157 227.572 45.6151H155.437C152.61 41.494 149.416 37.6399 145.894 34.1006C113.978 2.04134 62.228 2.04134 30.3116 34.1006C3.0299 61.4996 -0.926456 103.452 18.4297 135.081V225.249C18.4297 230.201 20.3883 234.95 23.8746 238.452C27.361 241.953 32.0895 243.921 37.0199 243.921H220.621L220.613 224.148Z" fill="#EAEAEA"/>
<path opacity="0.47" d="M220.985 223.63H161.74V196.63L203.614 91.8232H232.591L191.841 195.345H220.985V155.908H246.536V63.7999C246.535 58.8474 244.576 54.0978 241.089 50.5958C237.603 47.0939 232.874 45.1262 227.943 45.1255H155.808C152.98 41.0046 149.786 37.1498 146.265 33.6084C114.346 1.55176 62.5991 1.55176 30.6801 33.6084C3.39831 61.01 -0.55806 102.962 18.7981 134.591V224.746C18.7981 229.698 20.7567 234.448 24.2431 237.949C27.7294 241.451 32.4579 243.418 37.3883 243.418H220.99L220.985 223.63Z" fill="#EAEAEA"/>
<path opacity="0.5" d="M221.356 223.132H162.111V196.127L203.986 91.3206H232.962L192.199 194.84H221.343V155.405H246.894V63.2817C246.893 58.3305 244.934 53.5824 241.449 50.0811C237.963 46.5799 233.236 44.6119 228.307 44.6099H156.179C153.352 40.489 150.158 36.6342 146.637 33.0928C114.718 1.03613 62.9705 1.03613 31.0515 33.0928C3.7646 60.4944 -0.202021 102.447 19.1645 134.076V224.244C19.1645 226.696 19.6453 229.124 20.5795 231.389C21.5138 233.654 22.8831 235.713 24.6094 237.447C26.3356 239.18 28.385 240.556 30.6405 241.494C32.8959 242.433 35.3133 242.915 37.7546 242.915H221.356V223.132Z" fill="#EAEAEA"/>
<path opacity="0.53" d="M221.727 222.63H162.483V195.624L204.36 90.8178H233.336L192.586 194.337H221.73V154.903H247.281V62.7816C247.281 60.3293 246.8 57.9012 245.865 55.6357C244.93 53.3703 243.56 51.312 241.834 49.5784C240.107 47.8448 238.057 46.4697 235.801 45.5319C233.545 44.594 231.127 44.1116 228.686 44.1123H156.551C153.725 39.9902 150.531 36.1353 147.008 32.5952C115.092 0.538575 63.342 0.538575 31.423 32.5952C4.14376 59.9968 0.184812 101.949 19.541 133.578V223.741C19.541 226.193 20.022 228.621 20.9564 230.887C21.8908 233.152 23.2603 235.211 24.9868 236.945C26.7134 238.679 28.7631 240.054 31.0188 240.992C33.2746 241.93 35.6922 242.413 38.1337 242.413H221.733L221.727 222.63Z" fill="#EAEAEA"/>
<path opacity="0.56" d="M222.099 222.127H162.854V195.135L204.731 90.3283H233.707L192.952 193.84H222.096V154.4H247.65V62.279C247.652 59.8259 247.172 57.3965 246.239 55.1297C245.305 52.8628 243.936 50.8029 242.21 49.0677C240.483 47.3325 238.433 45.9559 236.177 45.0168C233.921 44.0776 231.502 43.5942 229.06 43.5942H156.922C154.096 39.4722 150.902 35.6172 147.38 32.0772C115.463 0.0205078 63.7134 0.0205078 31.797 32.0772C4.51006 59.4891 0.551122 101.441 19.915 133.07V223.238C19.9157 228.191 21.8749 232.94 25.3616 236.442C28.8484 239.943 33.5772 241.91 38.5078 241.91H222.106L222.099 222.127Z" fill="#EAEAEA"/>
<path opacity="0.58" d="M222.473 221.625H163.228V194.617L205.095 89.8128H234.071L193.324 193.321H222.468V153.898H248.016V61.7739C248.016 56.8218 246.058 52.0726 242.571 48.5709C239.085 45.0692 234.357 43.102 229.426 43.102H157.296C154.469 38.9807 151.275 35.1258 147.754 31.585C115.837 -0.47168 64.0874 -0.47168 32.1709 31.585C4.88915 58.9866 0.930206 100.939 20.289 132.565V222.733C20.2886 225.185 20.7692 227.614 21.7033 229.879C22.6374 232.145 24.0067 234.204 25.733 235.938C27.4593 237.672 29.5088 239.048 31.7644 239.986C34.0201 240.925 36.4377 241.408 38.8792 241.408H222.481L222.473 221.625Z" fill="#EAEAEA"/>
<path opacity="0.61" d="M222.844 221.122H163.599V194.117L205.474 89.3104H234.45L193.7 192.829H222.844V153.393H248.395V61.2715C248.394 56.3192 246.435 51.5699 242.949 48.0684C239.462 44.5668 234.733 42.5997 229.802 42.5997H157.667C154.84 38.4788 151.646 34.624 148.125 31.0826C116.201 -0.96112 64.4535 -0.96112 32.5345 31.0826C5.25276 58.4842 1.29646 100.436 20.6526 132.063V222.231C20.6523 224.683 21.1329 227.111 22.067 229.377C23.0011 231.643 24.3703 233.701 26.0966 235.436C27.8229 237.17 29.8724 238.545 32.128 239.484C34.3836 240.422 36.8012 240.905 39.2428 240.905H222.844V221.122Z" fill="#EAEAEA"/>
<path opacity="0.64" d="M223.216 220.617H163.971V193.614L205.845 88.8079H234.821L194.072 192.327H223.216V152.89H248.767V60.769C248.766 55.8167 246.807 51.0674 243.32 47.5659C239.833 44.0643 235.105 42.0971 230.174 42.0971H158.039C155.211 37.9763 152.017 34.1215 148.496 30.5801C116.572 -1.47916 64.8253 -1.47916 32.9063 30.5801C5.62463 57.9817 1.66827 99.9312 21.0244 131.56V221.728C21.0241 224.181 21.5047 226.609 22.4388 228.875C23.3729 231.14 24.7421 233.199 26.4684 234.933C28.1947 236.667 30.2442 238.043 32.4998 238.981C34.7555 239.92 37.173 240.403 39.6145 240.403H223.216V220.617Z" fill="#EAEAEA"/>
<path opacity="0.67" d="M223.587 220.115H164.345V193.109L206.219 88.3055H235.196L194.446 191.824H223.59V152.393H249.141V60.2666C249.141 57.8143 248.66 55.3861 247.726 53.1206C246.791 50.855 245.422 48.7965 243.695 47.0627C241.968 45.3288 239.919 43.9535 237.663 43.0153C235.407 42.0771 232.99 41.5944 230.548 41.5947H158.413C155.587 37.4727 152.393 33.6178 148.87 30.0776C116.954 -1.98161 65.2043 -1.98161 33.2853 30.0776C5.98806 57.4793 2.03943 99.4288 21.3956 131.058V221.226C21.3956 223.678 21.8765 226.107 22.8109 228.372C23.7453 230.638 25.1148 232.697 26.8413 234.431C28.5678 236.165 30.6175 237.54 32.8733 238.479C35.129 239.417 37.5468 239.9 39.9884 239.9H223.587V220.115Z" fill="#EAEAEA"/>
<path opacity="0.69" d="M223.958 219.612H164.714V192.607L206.591 87.803H235.567L194.817 191.322H223.961V151.875H249.512V59.7641C249.512 54.812 247.554 50.0628 244.067 46.5611C240.581 43.0595 235.852 41.0923 230.922 41.0923H158.784C155.96 36.9692 152.765 33.1141 149.242 29.5752C117.325 -2.48405 65.5756 -2.48405 33.6592 29.5752C6.37746 56.9768 2.41852 98.9263 21.7747 130.556V220.723C21.7754 225.676 23.7345 230.425 27.2212 233.927C30.7078 237.429 35.4366 239.397 40.3675 239.398H223.966L223.958 219.612Z" fill="#EAEAEA"/>
<path opacity="0.72" d="M224.332 219.109H165.085V192.104L206.962 87.2975H235.938L195.189 190.819H224.332V151.382H249.881V59.2612C249.881 54.3091 247.922 49.5598 244.436 46.0582C240.95 42.5565 236.221 40.5893 231.291 40.5893H159.153C156.328 36.4662 153.134 32.6112 149.611 29.0723C117.694 -2.98698 65.9443 -2.98698 34.0279 29.0723C6.74611 56.4739 2.78716 98.4234 22.1434 130.053V220.22C22.144 225.173 24.1032 229.923 27.5898 233.425C31.0765 236.927 35.8053 238.894 40.7362 238.895H224.338L224.332 219.109Z" fill="#EAEAEA"/>
<path opacity="0.75" d="M224.696 218.607H165.459V191.601L207.333 86.795H236.302L195.552 190.317H224.696V150.88H250.247V58.7588C250.246 53.8071 248.288 49.0584 244.802 45.5565C241.317 42.0547 236.59 40.0864 231.66 40.0843H159.527C156.701 35.9632 153.507 32.1092 149.984 28.5698C118.068 -3.48942 66.3182 -3.48942 34.4018 28.5698C7.11232 55.9714 3.15085 97.921 22.5122 129.55V219.718C22.5122 224.67 24.4707 229.42 27.957 232.922C31.4432 236.424 36.1717 238.392 41.1023 238.392H224.696V218.607Z" fill="#EAEAEA"/>
<path opacity="0.78" d="M225.075 218.104H165.83V191.099L207.705 86.2926H236.681L195.931 189.814H225.075V150.377H250.626V58.2563C250.625 53.3037 248.666 48.5542 245.18 45.0522C241.693 41.5502 236.964 39.5825 232.033 39.5819H159.898C157.071 35.4613 153.877 31.6073 150.356 28.0674C118.437 -3.99186 66.6894 -3.99186 34.7704 28.0674C7.48864 55.4664 3.53227 97.4185 22.8885 129.048V219.226C22.8885 224.178 24.847 228.928 28.3332 232.43C31.8195 235.932 36.548 237.9 41.4787 237.9H225.08L225.075 218.104Z" fill="#EAEAEA"/>
<path opacity="0.81" d="M225.446 217.602H166.202V190.596L208.079 85.7898H237.055L196.305 189.311H225.449V149.875H251.003V57.7535C251.003 52.8008 249.044 48.0508 245.557 44.5487C242.07 41.0466 237.341 39.0791 232.41 39.0791H160.27C157.443 34.9576 154.249 31.1027 150.727 27.562C118.808 -4.49463 67.0608 -4.49463 35.1418 27.562C7.85482 54.9636 3.89846 96.9158 23.2676 128.545V218.708C23.2662 223.657 25.2214 228.405 28.7034 231.907C32.1854 235.409 36.9094 237.379 41.8371 237.385H225.436L225.446 217.602Z" fill="#EAEAEA"/>
<path opacity="0.83" d="M225.818 217.099H166.573V190.094L208.448 85.3003H237.424L196.674 188.819H225.818V149.372H251.369V57.2511C251.369 52.2988 249.411 47.5492 245.924 44.0472C242.438 40.5451 237.71 38.5773 232.779 38.5766H160.641C157.815 34.4546 154.621 30.5996 151.099 27.0596C119.182 -4.99707 67.4325 -4.99707 35.5161 27.0596C8.22914 54.4741 4.27019 96.4133 23.6264 128.043V218.21C23.6271 223.163 25.5863 227.912 29.073 231.414C32.5598 234.915 37.2885 236.882 42.2192 236.882H225.818V217.099Z" fill="#EAEAEA"/>
<path opacity="0.86" d="M226.192 216.597H166.945V189.591L208.822 84.7823H237.798L197.048 188.301H226.192V148.87H251.74V56.7487C251.741 54.2964 251.26 51.8681 250.326 49.6024C249.392 47.3368 248.023 45.2781 246.296 43.544C244.57 41.8099 242.521 40.4343 240.265 39.4958C238.009 38.5573 235.592 38.0742 233.15 38.0742H161.013C158.187 33.9521 154.993 30.0972 151.47 26.5571C119.554 -5.49951 67.804 -5.49951 35.8876 26.5571C8.60069 53.9562 4.64181 95.9212 23.998 127.54V217.708C23.9987 222.66 25.9578 227.41 29.4446 230.911C32.9313 234.413 37.66 236.38 42.5907 236.38H226.192V216.597Z" fill="#EAEAEA"/>
<path opacity="0.89" d="M226.563 216.094H167.319V189.089L209.193 84.2825H238.169L197.419 187.801H226.563V148.367H252.112V56.2462C252.112 53.794 251.632 51.3657 250.697 49.1C249.763 46.8343 248.394 44.7757 246.668 43.0415C244.942 41.3074 242.892 39.9318 240.636 38.9933C238.381 38.0548 235.963 37.5718 233.522 37.5718H161.387C158.56 33.4504 155.366 29.5955 151.844 26.0547C119.928 -6.00195 68.1779 -6.00195 36.2614 26.0547C8.97194 53.4563 5.01563 95.4032 24.3718 127.038V217.206C24.3718 222.158 26.3304 226.907 29.8168 230.409C33.3031 233.91 38.0316 235.877 42.962 235.877H226.563V216.094Z" fill="#EAEAEA"/>
<path opacity="0.92" d="M226.935 215.6H167.698V188.586L209.572 83.7801H238.549L197.799 187.299H226.943V147.865H252.494V55.7412C252.493 50.7889 250.534 46.0396 247.047 42.538C243.56 39.0364 238.832 37.0693 233.901 37.0693H161.766C158.938 32.9485 155.744 29.0936 152.223 25.5522C120.304 -6.50439 68.5572 -6.50439 36.6382 25.5522C9.3409 52.9539 5.3871 94.906 24.7433 126.533V216.7C24.743 219.153 25.2236 221.581 26.1576 223.847C27.0917 226.112 28.461 228.171 30.1873 229.905C31.9136 231.639 33.9631 233.015 36.2187 233.953C38.4744 234.892 40.892 235.375 43.3335 235.375H226.935V215.6Z" fill="#EAEAEA"/>
<path opacity="0.94" d="M227.306 215.081H168.061V188.084L209.936 83.2774H238.914L198.165 186.796H227.308V147.362H252.86V55.2514C252.86 52.7992 252.379 50.371 251.444 48.1054C250.51 45.8399 249.14 43.7814 247.414 42.0475C245.687 40.3136 243.638 38.9383 241.382 38.0001C239.126 37.062 236.708 36.5792 234.267 36.5796H162.129C159.302 32.4587 156.108 28.6039 152.587 25.0625C120.668 -6.99414 68.9206 -6.99414 37.0016 25.0625C9.71984 52.4641 5.76348 94.4162 25.1197 126.043V216.198C25.1193 218.65 25.6 221.079 26.5343 223.345C27.4685 225.61 28.838 227.669 30.5646 229.403C32.2912 231.138 34.341 232.513 36.5969 233.451C38.8528 234.39 41.2707 234.873 43.7124 234.872H227.311L227.306 215.081Z" fill="#EAEAEA"/>
<path opacity="0.97" d="M227.677 214.584H168.433V187.581L210.31 82.7748H239.286L198.536 186.294H227.68V146.857H253.231V54.7334C253.231 52.2811 252.75 49.8529 251.816 47.5874C250.881 45.3218 249.512 43.2633 247.785 41.5295C246.059 39.7956 244.009 38.4203 241.753 37.4821C239.497 36.5439 237.08 36.0612 234.638 36.0615H162.501C159.675 31.9394 156.481 28.0845 152.958 24.5444C121.042 -7.51221 69.2919 -7.51221 37.3755 24.5444C10.0937 51.9461 6.13485 93.8956 25.491 125.525V215.695C25.491 218.148 25.9719 220.576 26.9063 222.842C27.8406 225.107 29.2102 227.166 30.9367 228.9C32.6632 230.634 34.7128 232.01 36.9686 232.948C39.2244 233.887 41.6421 234.37 44.0837 234.37H227.682L227.677 214.584Z" fill="#EAEAEA"/>
<path d="M228.049 214.081H168.804V187.079L210.681 82.2721H239.655L198.905 185.791H228.049V146.354H253.6V54.2332C253.599 49.282 251.641 44.5338 248.155 41.0328C244.669 37.5318 239.942 35.5646 235.012 35.5639H162.875C160.049 31.4414 156.855 27.5864 153.332 24.0469C121.416 -8.01237 69.666 -8.01237 37.7496 24.0469C10.4601 51.4459 6.50381 93.3954 25.8471 125.025V215.193C25.8478 220.145 27.8069 224.895 31.2935 228.397C34.7802 231.899 39.509 233.866 44.4399 233.867H228.049V214.081Z" fill="#EAEAEA"/>
<path d="M228.049 214.081H168.804V187.079L210.681 82.2721H239.655L198.905 185.791H228.049V146.354H253.6V54.2332C253.599 49.282 251.641 44.5338 248.155 41.0328C244.669 37.5318 239.942 35.5646 235.012 35.5639H162.875C160.049 31.4414 156.855 27.5864 153.332 24.0469C121.416 -8.01237 69.666 -8.01237 37.7496 24.0469C10.4601 51.4459 6.50381 93.3954 25.8471 125.025V215.193C25.8478 220.145 27.8069 224.895 31.2935 228.397C34.7802 231.899 39.509 233.866 44.4399 233.867H228.049V214.081Z" fill="#617F3B"/>
<path d="M95.494 152.599C133.874 152.599 164.988 121.348 164.988 82.7993C164.988 44.2502 133.874 13 95.494 13C57.1135 13 26 44.2502 26 82.7993C26 121.348 57.1135 152.599 95.494 152.599Z" fill="url(#paint0_linear_53_322)"/>
<g clip-path="url(#clip0_53_322)">
<path d="M109.786 64.4511C111.771 64.4511 113.491 63.739 114.895 62.3342C116.3 60.9295 117.012 59.2109 117.012 57.2253C117.012 55.2405 116.3 53.5216 114.895 52.1165C113.49 50.712 111.771 50 109.786 50C107.801 50 106.082 50.712 104.677 52.1167C103.273 53.5213 102.56 55.2402 102.56 57.2253C102.56 59.2109 103.273 60.9298 104.677 62.3344C106.082 63.7388 107.801 64.4511 109.786 64.4511V64.4511Z" fill="#617F3B"/>
<path d="M122.429 73.0685C122.389 72.484 122.307 71.8463 122.186 71.1729C122.064 70.4945 121.908 69.8532 121.72 69.267C121.526 68.6612 121.262 68.0629 120.937 67.4896C120.598 66.8945 120.201 66.3763 119.755 65.9499C119.289 65.5038 118.718 65.1451 118.058 64.8835C117.4 64.6233 116.671 64.4914 115.891 64.4914C115.585 64.4914 115.289 64.6171 114.717 64.9895C114.365 65.2191 113.953 65.4846 113.494 65.7782C113.101 66.0286 112.568 66.2632 111.911 66.4756C111.269 66.6832 110.618 66.7885 109.975 66.7885C109.332 66.7885 108.681 66.6832 108.038 66.4756C107.382 66.2634 106.849 66.0288 106.457 65.7784C106.001 65.4875 105.589 65.222 105.232 64.9893C104.661 64.6169 104.364 64.4912 104.058 64.4912C103.278 64.4912 102.549 64.6233 101.892 64.8837C101.232 65.1449 100.661 65.5036 100.194 65.9501C99.7488 66.3767 99.3513 66.8947 99.0134 67.4896C98.6877 68.0629 98.4241 68.661 98.23 69.2673C98.0425 69.8534 97.8857 70.4945 97.764 71.1729C97.6434 71.8454 97.5614 72.4833 97.5209 73.0692C97.4811 73.6432 97.4609 74.239 97.4609 74.8407C97.4609 76.4068 97.9588 77.6745 98.9404 78.6095C99.91 79.5321 101.193 80.0002 102.753 80.0002H117.198C118.758 80.0002 120.04 79.5324 121.01 78.6095C121.992 77.6752 122.49 76.4072 122.49 74.8405C122.49 74.236 122.469 73.6398 122.429 73.0685V73.0685Z" fill="#617F3B"/>
</g>
<g clip-path="url(#clip1_53_322)">
<path d="M79.7861 99.4511C81.7714 99.4511 83.4905 98.739 84.8952 97.3342C86.2998 95.9295 87.0118 94.2109 87.0118 92.2253C87.0118 90.2405 86.2998 88.5216 84.8949 87.1165C83.4901 85.712 81.7712 85 79.7861 85C77.8005 85 76.0819 85.712 74.6772 87.1167C73.2726 88.5213 72.5603 90.2402 72.5603 92.2253C72.5603 94.2109 73.2726 95.9298 74.6775 97.3344C76.0823 98.7388 77.8012 99.4511 79.7861 99.4511V99.4511Z" fill="#617F3B"/>
<path d="M92.4293 108.069C92.3888 107.484 92.3069 106.846 92.1863 106.173C92.0645 105.495 91.9077 104.853 91.72 104.267C91.5262 103.661 91.2625 103.063 90.9366 102.49C90.5983 101.894 90.2009 101.376 89.7551 100.95C89.2889 100.504 88.718 100.145 88.0579 99.8835C87.4001 99.6233 86.6711 99.4914 85.8913 99.4914C85.5851 99.4914 85.2889 99.6171 84.717 99.9895C84.3649 100.219 83.9532 100.485 83.4936 100.778C83.1006 101.029 82.5682 101.263 81.9106 101.476C81.2691 101.683 80.6177 101.788 79.9748 101.788C79.3318 101.788 78.6807 101.683 78.0384 101.476C77.3816 101.263 76.8492 101.029 76.4566 100.778C76.0014 100.488 75.5894 100.222 75.2321 99.9893C74.6608 99.6169 74.3644 99.4912 74.0582 99.4912C73.2782 99.4912 72.5494 99.6233 71.8918 99.8837C71.2322 100.145 70.6612 100.504 70.1945 100.95C69.7488 101.377 69.3513 101.895 69.0134 102.49C68.6877 103.063 68.4241 103.661 68.23 104.267C68.0425 104.853 67.8857 105.495 67.764 106.173C67.6434 106.845 67.5614 107.483 67.5209 108.069C67.4811 108.643 67.4609 109.239 67.4609 109.841C67.4609 111.407 67.9588 112.675 68.9404 113.61C69.91 114.532 71.1928 115 72.7529 115H87.198C88.7581 115 90.0405 114.532 91.0103 113.61C91.9922 112.675 92.49 111.407 92.49 109.841C92.4897 109.236 92.4694 108.64 92.4293 108.069V108.069Z" fill="#617F3B"/>
</g>
<g clip-path="url(#clip2_53_322)">
<path d="M79.7861 64.4511C81.7714 64.4511 83.4905 63.739 84.8952 62.3342C86.2998 60.9295 87.0118 59.2109 87.0118 57.2253C87.0118 55.2405 86.2998 53.5216 84.8949 52.1165C83.4901 50.712 81.7712 50 79.7861 50C77.8005 50 76.0819 50.712 74.6772 52.1167C73.2726 53.5213 72.5603 55.2402 72.5603 57.2253C72.5603 59.2109 73.2726 60.9298 74.6775 62.3344C76.0823 63.7388 77.8012 64.4511 79.7861 64.4511V64.4511Z" fill="#617F3B"/>
<path d="M92.4293 73.0685C92.3888 72.484 92.3069 71.8463 92.1863 71.1729C92.0645 70.4945 91.9077 69.8532 91.72 69.267C91.5262 68.6612 91.2625 68.0629 90.9366 67.4896C90.5983 66.8945 90.2009 66.3763 89.7551 65.9499C89.2889 65.5038 88.718 65.1451 88.0579 64.8835C87.4001 64.6233 86.6711 64.4914 85.8913 64.4914C85.5851 64.4914 85.2889 64.6171 84.717 64.9895C84.3649 65.2191 83.9532 65.4846 83.4936 65.7782C83.1006 66.0286 82.5682 66.2632 81.9106 66.4756C81.2691 66.6832 80.6177 66.7885 79.9748 66.7885C79.3318 66.7885 78.6807 66.6832 78.0384 66.4756C77.3816 66.2634 76.8492 66.0288 76.4566 65.7784C76.0014 65.4875 75.5894 65.222 75.2321 64.9893C74.6608 64.6169 74.3644 64.4912 74.0582 64.4912C73.2782 64.4912 72.5494 64.6233 71.8918 64.8837C71.2322 65.1449 70.6612 65.5036 70.1945 65.9501C69.7488 66.3767 69.3513 66.8947 69.0134 67.4896C68.6877 68.0629 68.4241 68.661 68.23 69.2673C68.0425 69.8534 67.8857 70.4945 67.764 71.1729C67.6434 71.8454 67.5614 72.4833 67.5209 73.0692C67.4811 73.6432 67.4609 74.239 67.4609 74.8407C67.4609 76.4068 67.9588 77.6745 68.9404 78.6095C69.91 79.5321 71.1928 80.0002 72.7529 80.0002H87.198C88.7581 80.0002 90.0405 79.5324 91.0103 78.6095C91.9922 77.6752 92.49 76.4072 92.49 74.8405C92.4897 74.236 92.4694 73.6398 92.4293 73.0685V73.0685Z" fill="#617F3B"/>
</g>
<g clip-path="url(#clip3_53_322)">
<path d="M109.786 99.4511C111.771 99.4511 113.491 98.739 114.895 97.3342C116.3 95.9295 117.012 94.2109 117.012 92.2253C117.012 90.2405 116.3 88.5216 114.895 87.1165C113.49 85.712 111.771 85 109.786 85C107.801 85 106.082 85.712 104.677 87.1167C103.273 88.5213 102.56 90.2402 102.56 92.2253C102.56 94.2109 103.273 95.9298 104.677 97.3344C106.082 98.7388 107.801 99.4511 109.786 99.4511V99.4511Z" fill="#617F3B"/>
<path d="M122.429 108.069C122.389 107.484 122.307 106.846 122.186 106.173C122.064 105.495 121.908 104.853 121.72 104.267C121.526 103.661 121.262 103.063 120.937 102.49C120.598 101.894 120.201 101.376 119.755 100.95C119.289 100.504 118.718 100.145 118.058 99.8835C117.4 99.6233 116.671 99.4914 115.891 99.4914C115.585 99.4914 115.289 99.6171 114.717 99.9895C114.365 100.219 113.953 100.485 113.494 100.778C113.101 101.029 112.568 101.263 111.911 101.476C111.269 101.683 110.618 101.788 109.975 101.788C109.332 101.788 108.681 101.683 108.038 101.476C107.382 101.263 106.849 101.029 106.457 100.778C106.001 100.488 105.589 100.222 105.232 99.9893C104.661 99.6169 104.364 99.4912 104.058 99.4912C103.278 99.4912 102.549 99.6233 101.892 99.8837C101.232 100.145 100.661 100.504 100.194 100.95C99.7488 101.377 99.3513 101.895 99.0134 102.49C98.6877 103.063 98.4241 103.661 98.23 104.267C98.0425 104.853 97.8857 105.495 97.764 106.173C97.6434 106.845 97.5614 107.483 97.5209 108.069C97.4811 108.643 97.4609 109.239 97.4609 109.841C97.4609 111.407 97.9588 112.675 98.9404 113.61C99.91 114.532 101.193 115 102.753 115H117.198C118.758 115 120.04 114.532 121.01 113.61C121.992 112.675 122.49 111.407 122.49 109.841C122.49 109.236 122.469 108.64 122.429 108.069V108.069Z" fill="#617F3B"/>
</g>
<path d="M143.031 34.4142C169.854 61.3547 170.163 104.858 143.947 132.182C144.261 131.879 144.573 131.576 144.883 131.265C172.023 104.006 172.023 59.8108 144.883 32.5542C117.743 5.29767 73.7436 5.29508 46.6037 32.5542C46.2942 32.8651 45.9924 33.1811 45.6907 33.4946C72.895 7.16278 116.203 7.46586 143.031 34.4142Z" fill="white"/>
<defs>
<linearGradient id="paint0_linear_53_322" x1="144.652" y1="33.4564" x2="45.942" y2="131.735" gradientUnits="userSpaceOnUse">
<stop stop-color="#E6E6E6"/>
<stop offset="0.03" stop-color="#E9E9E9"/>
<stop offset="0.21" stop-color="#F6F6F6"/>
<stop offset="0.45" stop-color="#FDFDFD"/>
<stop offset="1" stop-color="white"/>
</linearGradient>
<clipPath id="clip0_53_322">
<rect width="29.9999" height="30" fill="white" transform="translate(95 50)"/>
</clipPath>
<clipPath id="clip1_53_322">
<rect width="29.9999" height="30" fill="white" transform="translate(65 85)"/>
</clipPath>
<clipPath id="clip2_53_322">
<rect width="29.9999" height="30" fill="white" transform="translate(65 50)"/>
</clipPath>
<clipPath id="clip3_53_322">
<rect width="29.9999" height="30" fill="white" transform="translate(95 85)"/>
</clipPath>
</defs>
</svg>
