<svg width="254" height="254" viewBox="0 0 254 254" fill="none" xmlns="http://www.w3.org/2000/svg">
<path opacity="0.03" d="M221.597 54.4404H149.614C134.892 32.8259 110.154 18.6406 82.1136 18.6406C36.9793 18.6406 0.384374 55.3937 0.384374 100.732C0.360903 116.002 4.59967 130.974 12.6196 143.948V233.836C12.6196 238.789 14.5785 243.539 18.0653 247.041C21.5522 250.543 26.2813 252.51 31.2124 252.51H216.748V127.333L189.606 142.712V117.16L216.748 100.449H240.2V73.1123C240.2 70.6592 239.719 68.2301 238.783 65.9639C237.848 63.6977 236.478 61.6387 234.75 59.9047C233.023 58.1707 230.972 56.7956 228.715 55.858C226.458 54.9204 224.039 54.4387 221.597 54.4404Z" fill="#EAEAEA"/>
<path opacity="0.06" d="M221.978 53.9354H149.996C135.274 32.3234 110.535 18.1382 82.4952 18.1382C37.3609 18.1382 0.765962 54.8887 0.765962 100.226C0.742958 115.497 4.98073 130.468 12.9987 143.443V233.331C12.9987 238.284 14.9575 243.034 18.4443 246.536C21.9312 250.038 26.6603 252.005 31.5914 252.005H217.117V126.828L189.987 142.207V116.655L217.117 99.9441H240.571V72.6099C240.571 70.1575 240.09 67.7291 239.156 65.4635C238.221 63.1978 236.852 61.1391 235.125 59.405C233.399 57.671 231.349 56.2954 229.094 55.3569C226.838 54.4184 224.42 53.9354 221.978 53.9354Z" fill="#EAEAEA"/>
<path opacity="0.08" d="M222.36 53.43H150.38C135.658 31.818 110.919 17.6328 82.8923 17.6328C37.758 17.6328 1.16052 54.3833 1.16052 99.7211C1.13409 114.991 5.36925 129.963 13.3855 142.937V232.825C13.3855 237.778 15.3441 242.527 18.8304 246.028C22.3168 249.53 27.0452 251.497 31.9757 251.497H217.498V126.325L190.371 141.704V116.163L217.498 99.4517H240.953V72.1045C240.953 67.1517 238.994 62.4018 235.507 58.8997C232.02 55.3975 227.291 53.43 222.36 53.43Z" fill="#EAEAEA"/>
<path opacity="0.11" d="M222.744 52.9252H150.762C136.04 31.3132 111.301 17.1279 83.2613 17.1279C38.127 17.1279 1.53206 53.881 1.53206 99.2163C1.51138 114.487 5.75185 129.459 13.7725 142.432V232.321C13.7732 237.273 15.7324 242.022 19.2191 245.524C22.7058 249.025 27.4346 250.992 32.3653 250.992H217.883V125.82L190.753 141.199V115.645L217.883 98.9365H241.335V71.6074C241.336 69.1546 240.856 66.7256 239.922 64.4592C238.988 62.1928 237.619 60.1333 235.893 58.3984C234.166 56.6636 232.117 55.2873 229.861 54.3482C227.605 53.409 225.187 52.9255 222.744 52.9252Z" fill="#EAEAEA"/>
<path opacity="0.14" d="M223.126 52.4198H151.143C136.422 30.8078 111.683 16.6226 83.6429 16.6226C38.506 16.6226 1.90854 53.3757 1.90854 98.7109C1.88603 113.982 6.12472 128.953 14.1438 141.927V231.815C14.1445 236.768 16.1036 241.517 19.5903 245.019C23.0769 248.521 27.8057 250.489 32.7366 250.49H218.264V125.315L191.135 140.694V115.142L218.264 98.4311H241.719V71.0891C241.717 66.1374 239.757 61.3892 236.271 57.8883C232.784 54.3875 228.056 52.4205 223.126 52.4198Z" fill="#EAEAEA"/>
<path opacity="0.17" d="M223.508 51.9199H151.528C136.806 30.3053 112.067 16.1201 84.0273 16.1201C38.893 16.1201 2.29547 52.8732 2.29547 98.211C2.27692 113.482 6.52109 128.452 14.5462 141.422V231.31C14.5489 236.257 16.5058 241.001 19.9873 244.5C23.4689 247.999 28.1905 249.968 33.1158 249.974H218.649V124.81L191.519 140.189V114.637L218.649 97.9261H242.101V70.5892C242.1 68.1372 241.619 65.7092 240.685 63.444C239.75 61.1787 238.38 59.1206 236.654 57.387C234.927 55.6534 232.878 54.2783 230.622 53.3403C228.367 52.4022 225.949 51.9196 223.508 51.9199Z" fill="#EAEAEA"/>
<path opacity="0.19" d="M223.892 51.4019H151.909C137.188 29.7873 112.449 15.6021 84.409 15.6021C39.2747 15.6021 2.67977 52.3552 2.67977 97.693C2.65754 112.964 6.89621 127.935 14.915 140.909V230.795C14.9157 235.747 16.8748 240.497 20.3615 243.999C23.8482 247.501 28.5769 249.469 33.5078 249.469H219.031V124.305L191.901 139.684V114.132L219.031 97.421H242.482V70.0841C242.484 67.6312 242.004 65.2021 241.07 62.9355C240.137 60.6689 238.767 58.6093 237.041 56.8744C235.315 55.1395 233.265 53.7632 231.009 52.8242C228.753 51.8852 226.334 51.4019 223.892 51.4019Z" fill="#EAEAEA"/>
<path opacity="0.22" d="M224.274 50.9071H152.291C137.569 29.2951 112.833 15.1099 84.7932 15.1099C39.6589 15.1099 3.06137 51.8604 3.06137 97.1982C3.03914 112.469 7.2778 127.44 15.2966 140.414V230.303C15.3001 235.253 17.2604 240 20.7469 243.499C24.2333 246.998 28.9605 248.964 33.8894 248.964H219.412V123.799L192.282 139.179V113.627L219.412 96.9158H242.866V69.5815C242.866 64.6288 240.908 59.8789 237.421 56.3767C233.934 52.8746 229.205 50.9071 224.274 50.9071Z" fill="#EAEAEA"/>
<path opacity="0.25" d="M224.655 50.402H152.675C137.954 28.79 113.215 14.6177 85.1749 14.6177C40.0354 14.6177 3.45593 51.3578 3.45593 96.693C3.42937 111.963 7.66454 126.935 15.6809 139.909V229.797C15.6809 234.749 17.6395 239.499 21.1258 243C24.6122 246.502 29.3407 248.469 34.2711 248.469H219.796V123.297L192.667 138.676V113.124L219.796 96.4133H243.248V69.0764C243.248 64.1236 241.289 59.3737 237.803 55.8716C234.316 52.3694 229.587 50.402 224.655 50.402Z" fill="#EAEAEA"/>
<path opacity="0.28" d="M225.04 49.8968H153.057C138.343 28.2848 113.597 14.0996 85.5567 14.0996C40.4224 14.0996 3.82748 50.8527 3.82748 96.1879C3.80525 111.459 8.04392 126.43 16.0628 139.404V229.292C16.0662 234.244 18.0276 238.992 21.5157 242.492C25.0039 245.991 29.733 247.956 34.6633 247.954H220.178V122.792L193.049 138.181V112.619L220.178 95.9082H243.63V68.5713C243.63 63.619 241.672 58.8694 238.185 55.3674C234.699 51.8653 229.971 49.8975 225.04 49.8968Z" fill="#EAEAEA"/>
<path opacity="0.31" d="M225.421 49.392H153.439C138.72 27.78 113.978 13.5947 85.9409 13.5947C40.8066 13.5947 4.20907 50.3478 4.20907 95.6831C4.18657 110.954 8.42526 125.925 16.4443 138.899V228.787C16.445 233.74 18.4041 238.49 21.8908 241.992C25.3775 245.494 30.1062 247.461 35.0371 247.462H220.56V122.287L193.43 137.664V112.114L220.56 95.4033H244.014V68.0664C244.013 63.1139 242.054 58.3643 238.568 54.8623C235.081 51.3604 230.352 49.3927 225.421 49.392Z" fill="#EAEAEA"/>
<path opacity="0.33" d="M225.803 48.8892H153.818C139.101 27.2746 114.357 13.0894 86.3226 13.0894C41.1883 13.0894 4.59336 49.8424 4.59336 95.1803C4.56955 110.45 8.80836 125.421 16.8286 138.394V228.282C16.8286 233.235 18.7875 237.985 22.2743 241.487C24.0008 243.221 26.0505 244.596 28.3063 245.535C30.562 246.473 32.9798 246.956 35.4214 246.956H220.944V121.781L193.815 137.161V111.609L220.944 94.8979H244.396V67.561C244.396 65.1088 243.915 62.6806 242.981 60.415C242.046 58.1495 240.677 56.091 238.95 54.3571C237.224 52.6232 235.174 51.2479 232.918 50.3097C230.662 49.3715 228.245 48.8888 225.803 48.8892Z" fill="#EAEAEA"/>
<path opacity="0.36" d="M226.188 48.3843H154.205C139.483 26.7697 114.744 12.5845 86.7044 12.5845C41.5701 12.5845 4.97518 49.3376 4.97518 94.6754C4.95295 109.946 9.19162 124.918 17.2105 137.892V227.78C17.2105 232.733 19.1693 237.482 22.6561 240.985C26.143 244.487 30.8721 246.454 35.8032 246.454H221.326V121.277L194.196 136.656V111.104L221.326 94.4034H244.778V67.0562C244.778 62.1041 242.819 57.3548 239.333 53.8532C235.846 50.3515 231.118 48.3843 226.188 48.3843Z" fill="#EAEAEA"/>
<path opacity="0.39" d="M226.569 47.8788H154.591C139.867 26.2745 115.131 12.0815 87.0886 12.0815C41.9543 12.0815 5.35678 48.8321 5.35678 94.1699C5.33422 109.441 9.57388 124.413 17.5946 137.386V227.274C17.5953 232.226 19.5542 236.974 23.0405 240.476C26.5267 243.977 31.2548 245.943 36.1848 245.943H221.708V120.771L194.568 136.15V110.601L221.708 93.8849H245.162V66.5532C245.162 61.6004 243.203 56.8505 239.716 53.3484C236.229 49.8463 231.5 47.8788 226.569 47.8788Z" fill="#EAEAEA"/>
<path opacity="0.42" d="M226.951 47.3739H154.971C140.249 25.7619 115.51 11.5767 87.4703 11.5767C42.336 11.5767 5.74107 48.3298 5.74107 93.665C5.71664 108.938 9.95544 123.911 17.9763 136.886V226.775C17.9818 231.723 19.9432 236.468 23.4295 239.965C26.9158 243.462 31.6418 245.426 36.5691 245.426H222.092V120.269L194.962 135.648V110.096L222.092 93.3852H245.544V66.0483C245.544 63.596 245.063 61.1676 244.128 58.9019C243.194 56.6363 241.824 54.5776 240.098 52.8435C238.371 51.1094 236.322 49.7339 234.066 48.7954C231.81 47.8569 229.392 47.3739 226.951 47.3739Z" fill="#EAEAEA"/>
<path opacity="0.44" d="M227.335 46.8685H155.365C140.644 25.2565 115.905 11.0713 87.8649 11.0713C42.7305 11.0713 6.13561 47.8244 6.13561 93.1596C6.11095 108.426 10.3451 123.395 18.358 136.368V226.256C18.3587 231.209 20.3178 235.958 23.8046 239.459C27.2913 242.961 32.0201 244.928 36.9507 244.928H222.474V119.763L195.341 135.143V109.591L222.471 92.8799H245.923V65.543C245.923 60.5911 243.965 55.842 240.479 52.34C236.993 48.838 232.265 46.8699 227.335 46.8685Z" fill="#EAEAEA"/>
<path opacity="0.47" d="M227.717 46.3636H155.734C141.015 24.7516 116.274 10.5664 88.2363 10.5664C43.102 10.5664 6.50449 47.3195 6.50449 92.6547C6.48151 107.926 10.7212 122.898 18.7423 135.871V225.738C18.7423 230.691 20.7009 235.44 24.1871 238.942C27.6734 242.444 32.4019 244.412 37.3325 244.413H222.855V119.271L195.726 134.638V109.086L222.855 92.3749H246.31V65.0381C246.309 60.0855 244.35 55.336 240.863 51.834C237.376 48.332 232.648 46.3643 227.717 46.3636Z" fill="#EAEAEA"/>
<path opacity="0.5" d="M228.096 45.8609H156.118C141.397 24.2463 116.658 10.061 88.618 10.061C43.4837 10.061 6.88877 46.8141 6.88877 92.1519C6.86496 107.422 11.1038 122.393 19.124 135.366V225.254C19.124 230.206 21.0829 234.956 24.5697 238.459C28.0566 241.961 32.7857 243.928 37.7168 243.928H223.24V118.753L196.115 134.133V108.58L223.245 91.8696H246.696V64.5327C246.696 62.0798 246.215 59.651 245.28 57.3849C244.346 55.1189 242.975 53.06 241.248 51.3261C239.521 49.5921 237.47 48.2169 235.213 47.2792C232.957 46.3414 230.538 45.8595 228.096 45.8609Z" fill="#EAEAEA"/>
<path opacity="0.53" d="M228.483 45.356H156.5C141.779 23.7414 117.04 9.55615 88.9999 9.55615C43.8655 9.55615 7.27059 46.3092 7.27059 91.647C7.24836 106.918 11.487 121.889 19.5059 134.863V224.738C19.5059 229.691 21.4647 234.441 24.9516 237.943C28.4384 241.445 33.1675 243.413 38.0986 243.413H223.621V118.248L196.492 133.628V108.076L223.621 91.3647H247.073V64.0278C247.073 61.5758 246.592 59.1478 245.658 56.8824C244.724 54.6171 243.355 52.5587 241.628 50.8248C239.902 49.091 237.853 47.7156 235.597 46.7773C233.342 45.8389 230.924 45.356 228.483 45.356Z" fill="#EAEAEA"/>
<path opacity="0.56" d="M228.87 44.8509H156.882C142.163 23.2389 117.421 9.05371 89.384 9.05371C44.2497 9.05371 7.65219 45.8042 7.65219 91.142C7.62963 106.413 11.8693 121.385 19.89 134.358V224.246C19.8897 226.699 20.3703 229.127 21.3044 231.393C22.2385 233.658 23.6078 235.717 25.3341 237.451C27.0604 239.185 29.1098 240.561 31.3655 241.499C33.6211 242.438 36.0387 242.921 38.4802 242.921H224.003V117.743L196.873 133.123V107.573L224.003 90.8597H247.457V63.5254C247.457 58.5735 245.499 53.8244 242.013 50.3224C238.528 46.8204 233.8 44.8523 228.87 44.8509Z" fill="#EAEAEA"/>
<path opacity="0.58" d="M229.246 44.3456H157.266C142.544 22.7336 117.806 8.54834 89.7657 8.54834C44.6314 8.54834 8.03647 45.3014 8.03647 90.6367C8.013 105.908 12.2518 120.879 20.2717 133.853V223.741C20.2717 226.193 20.7527 228.621 21.6871 230.887C22.6215 233.153 23.9911 235.211 25.7176 236.945C27.4441 238.679 29.4938 240.054 31.7496 240.992C34.0053 241.931 36.423 242.413 38.8645 242.413H224.387V117.24L197.258 132.62V107.068L224.387 90.3569H247.839V63.02C247.839 58.0672 245.88 53.3173 242.393 49.8152C238.906 46.313 234.177 44.3456 229.246 44.3456Z" fill="#EAEAEA"/>
<path opacity="0.61" d="M229.644 43.8402H157.648C142.926 22.2282 118.188 8.04297 90.1475 8.04297C45.0132 8.04297 8.4183 44.7961 8.4183 90.1313C8.3958 105.402 12.6345 120.374 20.6536 133.348V223.236C20.6543 228.188 22.6134 232.938 26.1 236.44C29.5867 239.942 34.3154 241.909 39.2463 241.91H224.769V116.735L197.639 132.115V106.562L224.769 89.8515H248.213V62.5147C248.212 57.5661 246.257 52.8201 242.775 49.3188C239.293 45.8175 234.57 43.8471 229.644 43.8402Z" fill="#EAEAEA"/>
<path opacity="0.64" d="M230.012 43.3353H158.032C143.31 21.7233 118.572 7.53809 90.5317 7.53809C45.3974 7.53809 8.79989 44.2912 8.79989 89.629C8.77727 104.899 13.0169 119.87 21.0377 132.843V222.731C21.0377 227.683 22.9963 232.433 26.4825 235.935C29.9688 239.437 34.6973 241.404 39.6279 241.405H225.151V116.23L198.024 131.61V106.06L225.151 89.3492H248.605V62.0227C248.606 59.5694 248.126 57.1398 247.193 54.8727C246.259 52.6057 244.89 50.5457 243.163 48.8103C241.436 47.0749 239.386 45.6982 237.13 44.7588C234.873 43.8193 232.455 43.3357 230.012 43.3353Z" fill="#EAEAEA"/>
<path opacity="0.67" d="M230.397 42.8325H158.414C143.692 21.2179 118.953 7.03271 90.9134 7.03271C45.7791 7.03271 9.18418 43.7858 9.18418 89.1236C9.16071 104.395 13.3995 119.366 21.4194 132.34V222.215C21.4194 227.168 23.3783 231.918 26.8651 235.42C30.352 238.922 35.0811 240.889 40.0122 240.889H225.535V115.725L198.405 131.104V105.542L225.535 88.8309H248.987V61.5044C248.987 56.5523 247.028 51.803 243.542 48.3014C240.055 44.7997 235.327 42.8325 230.397 42.8325Z" fill="#EAEAEA"/>
<path opacity="0.69" d="M230.778 42.3353H158.796C144.074 20.7233 119.335 6.53809 91.2952 6.53809C46.1609 6.53809 9.56599 43.2886 9.56599 88.6264C9.54521 103.894 13.7838 118.863 21.8013 131.835V221.723C21.8013 226.676 23.7601 231.426 27.247 234.928C30.7338 238.43 35.4629 240.397 40.394 240.397H225.917V115.22L198.787 130.599V105.047L225.917 88.3363H249.371V61.002C249.369 56.0506 247.409 51.3027 243.923 47.8022C240.436 44.3017 235.708 42.3353 230.778 42.3353Z" fill="#EAEAEA"/>
<path opacity="0.72" d="M231.16 41.8173H159.18C144.458 20.2052 119.719 6.02002 91.6794 6.02002C46.5451 6.02002 9.9476 42.7705 9.9476 88.1083C9.92504 103.379 14.1647 118.351 22.1854 131.325V221.213C22.1854 226.165 24.1441 230.914 27.6304 234.416C31.1167 237.917 35.8452 239.885 40.7756 239.885H226.291V114.717L199.171 130.094V104.545L226.291 87.8312H249.76V60.4969C249.761 58.0434 249.28 55.6139 248.346 53.3471C247.411 51.0803 246.041 49.0207 244.314 47.286C242.587 45.5512 240.536 44.1754 238.279 43.237C236.022 42.2987 233.603 41.8162 231.16 41.8173Z" fill="#EAEAEA"/>
<path opacity="0.75" d="M231.544 41.3173H159.561C144.84 19.7052 120.101 5.52002 92.0611 5.52002C46.9268 5.52002 10.3319 42.2731 10.3319 87.6083C10.3096 102.879 14.5483 117.85 22.5671 130.825V220.713C22.5671 223.165 23.0481 225.593 23.9825 227.859C24.9169 230.124 26.2865 232.183 28.013 233.917C29.7395 235.65 31.7892 237.026 34.045 237.964C36.3007 238.902 38.7184 239.385 41.1599 239.385H226.683V114.212L199.553 129.592V104.039L226.683 87.3286H250.134V59.9917C250.134 55.0394 248.176 50.2898 244.69 46.7878C241.203 43.2857 236.475 41.3179 231.544 41.3173Z" fill="#EAEAEA"/>
<path opacity="0.78" d="M231.926 40.8124H159.943C145.221 19.2004 120.483 5.01514 92.4427 5.01514C47.3084 5.01514 10.7135 41.7682 10.7135 87.1035C10.691 102.374 14.9297 117.346 22.9487 130.32V220.208C22.9494 225.16 24.9085 229.91 28.3952 233.412C31.8819 236.914 36.6106 238.882 41.5415 238.882H227.064V113.707L199.935 129.087V103.535L227.064 86.8237H250.519V59.4868C250.518 54.5343 248.559 49.7847 245.072 46.2828C241.585 42.7808 236.857 40.8131 231.926 40.8124Z" fill="#EAEAEA"/>
<path opacity="0.81" d="M232.308 40.3098H160.327C145.606 18.6952 120.867 4.51514 92.8271 4.51514C47.6928 4.51514 11.0953 41.2682 11.0953 86.606C11.0734 101.875 15.313 116.844 23.3332 129.814V219.703C23.3332 224.655 25.2917 229.404 28.7779 232.907C32.2642 236.409 36.9927 238.376 41.9233 238.377H227.449V113.202L200.319 128.581V103.029L227.449 86.3185H250.9V58.9816C250.9 56.5294 250.419 54.1012 249.485 51.8356C248.551 49.5701 247.181 47.5116 245.455 45.7777C243.728 44.0438 241.678 42.6685 239.423 41.7303C237.167 40.7921 234.749 40.3094 232.308 40.3098Z" fill="#EAEAEA"/>
<path opacity="0.83" d="M232.692 39.8047H160.709C145.988 18.1901 121.249 3.99707 93.2088 3.99707C48.0745 3.99707 11.4796 40.7502 11.4796 86.088C11.4573 101.359 15.696 116.33 23.7149 129.304V219.192C23.7155 224.145 25.6746 228.894 29.1613 232.396C32.648 235.898 37.3767 237.866 42.3076 237.867H227.838V112.697L200.701 128.079V102.524L227.838 85.8134H251.29V58.4765C251.29 56.0238 250.809 53.5952 249.874 51.3293C248.939 49.0634 247.569 47.0047 245.842 45.2708C244.115 43.5368 242.065 42.1616 239.808 41.2237C237.552 40.2858 235.134 39.8036 232.692 39.8047Z" fill="#EAEAEA"/>
<path opacity="0.86" d="M233.074 39.2992H161.091C146.369 17.6872 121.631 3.50195 93.5933 3.50195C48.4589 3.50195 11.8614 40.2525 11.8614 85.5903C11.8369 100.86 16.0729 115.832 24.089 128.806V218.695C24.089 223.647 26.0478 228.397 29.5347 231.899C33.0215 235.402 37.7506 237.369 42.6817 237.369H228.204V112.191L201.083 127.561V102.019L228.212 85.3079H251.667V57.9736C251.667 55.5213 251.186 53.0929 250.251 50.8272C249.317 48.5615 247.947 46.5029 246.221 44.7688C244.494 43.0347 242.445 41.6592 240.189 40.7207C237.933 39.7822 235.515 39.2992 233.074 39.2992Z" fill="#EAEAEA"/>
<path opacity="0.89" d="M233.455 38.7943H161.475C146.754 17.1823 122.015 2.99707 93.9826 2.99707C48.8482 2.99707 12.243 39.745 12.243 85.0776C12.2205 100.349 16.4601 115.32 24.4809 128.294V218.182C24.4809 223.134 26.4395 227.883 29.9258 231.385C33.4121 234.887 38.1406 236.854 43.071 236.854H228.596V111.689L201.467 127.069V101.517L228.596 84.803H252.048V57.4688C252.048 55.0163 251.568 52.5878 250.634 50.322C249.699 48.0561 248.33 45.9973 246.603 44.2632C244.877 42.529 242.827 41.1535 240.571 40.2151C238.315 39.2768 235.897 38.794 233.455 38.7943Z" fill="#EAEAEA"/>
<path opacity="0.92" d="M233.84 38.2889H161.857C147.135 16.6769 122.397 2.4917 94.3565 2.4917C49.2222 2.4917 12.6273 39.2448 12.6273 84.58C12.6051 99.8507 16.8437 114.822 24.8626 127.796V217.684C24.8626 222.637 26.8214 227.387 30.3083 230.889C33.7951 234.391 38.5242 236.359 43.4553 236.359H228.978V111.184L201.848 126.563V101.011L228.978 84.3002H252.43V56.9634C252.43 52.0111 250.471 47.2615 246.985 43.7595C243.499 40.2574 238.77 38.2896 233.84 38.2889Z" fill="#EAEAEA"/>
<path opacity="0.94" d="M234.221 37.784H162.238C147.52 16.172 122.781 1.98682 94.7407 1.98682C49.6064 1.98682 13.0089 38.7399 13.0089 84.0751C12.9845 99.3494 17.2232 114.325 25.2442 127.302V217.19C25.251 222.138 27.2128 226.882 30.6988 230.379C34.1848 233.876 38.9101 235.84 43.8369 235.841H229.36V110.679L202.23 126.058V100.506L229.36 83.7954H252.814V56.4585C252.813 51.5059 250.854 46.7564 247.368 43.2544C243.881 39.7524 239.152 37.7847 234.221 37.784Z" fill="#EAEAEA"/>
<path opacity="0.97" d="M234.603 37.2813H162.623C147.901 15.6667 123.163 1.48145 95.1226 1.48145C49.9883 1.48145 13.3934 38.2345 13.3934 83.5723C13.3724 98.8423 17.6139 113.812 25.6364 126.783V216.672C25.6364 221.624 27.5953 226.374 31.0821 229.876C34.5689 233.378 39.2981 235.346 44.2292 235.346H229.752V110.174L202.615 125.553V100.001L229.744 83.29H253.196V55.9531C253.196 53.5009 252.715 51.0727 251.781 48.8071C250.846 46.5416 249.477 44.4831 247.75 42.7492C246.024 41.0153 243.974 39.64 241.718 38.7018C239.462 37.7636 237.045 37.2809 234.603 37.2813Z" fill="#EAEAEA"/>
<path d="M234.987 36.7764H163.005C148.283 15.1618 123.544 0.976562 95.5042 0.976562C50.3699 0.976562 13.775 37.7297 13.775 83.0675C13.7528 98.3382 17.9914 113.31 26.0103 126.284V216.154C26.0109 221.106 27.97 225.856 31.4567 229.358C34.9434 232.86 39.6721 234.827 44.603 234.828H230.126V109.669L202.996 125.048V99.496L230.126 82.7851H253.578V55.4482C253.578 50.4962 251.619 45.7469 248.133 42.2452C244.646 38.7436 239.918 36.7764 234.987 36.7764Z" fill="#EAEAEA"/>
<path d="M235.212 36.8462H163.23C148.5 15.2316 123.772 1.04639 95.7319 1.04639C50.5976 1.04639 14.0001 37.7995 14.0001 83.1373C13.981 98.4089 18.2252 113.38 26.2508 126.351V216.239C26.2535 221.186 28.2104 225.93 31.6919 229.429C35.1734 232.928 39.8951 234.897 44.8204 234.903H230.343V109.738L203.221 125.118V99.5658L230.351 82.8549H253.805V55.5181C253.805 50.5657 251.845 45.8165 248.359 42.3149C244.872 38.8133 240.143 36.8462 235.212 36.8462Z" fill="#7C9440"/>
<path d="M95.494 151.599C133.874 151.599 164.988 120.348 164.988 81.7993C164.988 43.2502 133.874 12 95.494 12C57.1135 12 26 43.2502 26 81.7993C26 120.348 57.1135 151.599 95.494 151.599Z" fill="url(#paint0_linear_53_319)"/>
<g clip-path="url(#clip0_53_319)">
<path d="M94.7861 81.4511C96.7714 81.4511 98.4905 80.739 99.8952 79.3342C101.3 77.9295 102.012 76.2109 102.012 74.2253C102.012 72.2405 101.3 70.5216 99.8949 69.1165C98.4901 67.712 96.7712 67 94.7861 67C92.8005 67 91.0819 67.712 89.6772 69.1167C88.2726 70.5213 87.5603 72.2402 87.5603 74.2253C87.5603 76.2109 88.2726 77.9298 89.6775 79.3344C91.0823 80.7388 92.8012 81.4511 94.7861 81.4511V81.4511Z" fill="#7C9440"/>
<path d="M107.429 90.0685C107.389 89.484 107.307 88.8463 107.186 88.1729C107.064 87.4945 106.908 86.8532 106.72 86.267C106.526 85.6612 106.262 85.0629 105.937 84.4896C105.598 83.8945 105.201 83.3763 104.755 82.9499C104.289 82.5038 103.718 82.1451 103.058 81.8835C102.4 81.6233 101.671 81.4914 100.891 81.4914C100.585 81.4914 100.289 81.6171 99.717 81.9895C99.3649 82.2191 98.9532 82.4846 98.4936 82.7782C98.1006 83.0286 97.5682 83.2632 96.9106 83.4756C96.2691 83.6832 95.6177 83.7885 94.9748 83.7885C94.3318 83.7885 93.6807 83.6832 93.0384 83.4756C92.3816 83.2634 91.8492 83.0288 91.4566 82.7784C91.0014 82.4875 90.5894 82.222 90.2321 81.9893C89.6608 81.6169 89.3644 81.4912 89.0582 81.4912C88.2782 81.4912 87.5494 81.6233 86.8918 81.8837C86.2322 82.1449 85.6612 82.5036 85.1945 82.9501C84.7488 83.3767 84.3513 83.8947 84.0134 84.4896C83.6877 85.0629 83.4241 85.661 83.23 86.2673C83.0425 86.8534 82.8857 87.4945 82.764 88.1729C82.6434 88.8454 82.5614 89.4833 82.5209 90.0692C82.4811 90.6432 82.4609 91.239 82.4609 91.8407C82.4609 93.4068 82.9588 94.6745 83.9404 95.6095C84.91 96.5321 86.1928 97.0002 87.7529 97.0002H102.198C103.758 97.0002 105.04 96.5324 106.01 95.6095C106.992 94.6752 107.49 93.4072 107.49 91.8405C107.49 91.236 107.469 90.6398 107.429 90.0685V90.0685Z" fill="#7C9440"/>
</g>
<path d="M143.102 35.4606C169.924 62.4011 170.231 105.905 144.015 133.229C144.329 132.926 144.644 132.623 144.953 132.312C172.091 105.053 172.091 60.8572 144.953 33.6006C117.816 6.34406 73.8115 6.34147 46.6741 33.6006C46.3646 33.9115 46.0594 34.2249 45.7585 34.5409C72.9655 8.20917 116.271 8.51226 143.102 35.4606Z" fill="white"/>
<defs>
<linearGradient id="paint0_linear_53_319" x1="144.645" y1="32.4548" x2="45.9344" y2="130.733" gradientUnits="userSpaceOnUse">
<stop stop-color="#E6E6E6"/>
<stop offset="0.03" stop-color="#E9E9E9"/>
<stop offset="0.21" stop-color="#F6F6F6"/>
<stop offset="0.45" stop-color="#FDFDFD"/>
<stop offset="1" stop-color="white"/>
</linearGradient>
<clipPath id="clip0_53_319">
<rect width="29.9999" height="30" fill="white" transform="translate(80 67)"/>
</clipPath>
</defs>
</svg>
